G04 EAGLE Gerber RS-274X export*
G75*
%MOMM*%
%FSLAX34Y34*%
%LPD*%
%INBottom Copper*%
%IPPOS*%
%AMOC8*
5,1,8,0,0,1.08239X$1,22.5*%
G01*
%ADD10R,0.550000X0.705600*%
%ADD11R,0.705600X0.550000*%
%ADD12C,0.270000*%
%ADD13R,0.558800X0.711200*%
%ADD14R,0.762000X0.203200*%
%ADD15R,1.320800X0.558800*%
%ADD16P,1.649562X8X22.500000*%
%ADD17C,0.152400*%
%ADD18C,0.756400*%

G36*
X91703Y10172D02*
X91703Y10172D01*
X91774Y10174D01*
X91823Y10192D01*
X91875Y10200D01*
X91938Y10234D01*
X92005Y10259D01*
X92046Y10291D01*
X92092Y10316D01*
X92142Y10368D01*
X92198Y10412D01*
X92226Y10456D01*
X92262Y10494D01*
X92292Y10559D01*
X92331Y10619D01*
X92343Y10670D01*
X92365Y10717D01*
X92373Y10788D01*
X92391Y10858D01*
X92387Y10910D01*
X92392Y10961D01*
X92377Y11032D01*
X92371Y11103D01*
X92351Y11151D01*
X92340Y11202D01*
X92303Y11263D01*
X92275Y11329D01*
X92230Y11385D01*
X92214Y11413D01*
X92196Y11428D01*
X92170Y11460D01*
X89839Y13791D01*
X89839Y16477D01*
X99238Y16477D01*
X99258Y16480D01*
X99277Y16478D01*
X99379Y16500D01*
X99481Y16517D01*
X99498Y16526D01*
X99518Y16530D01*
X99607Y16583D01*
X99698Y16632D01*
X99712Y16646D01*
X99729Y16656D01*
X99796Y16735D01*
X99867Y16810D01*
X99876Y16828D01*
X99889Y16843D01*
X99927Y16939D01*
X99971Y17033D01*
X99973Y17053D01*
X99981Y17071D01*
X99999Y17238D01*
X99999Y18001D01*
X100001Y18001D01*
X100001Y17238D01*
X100004Y17218D01*
X100002Y17199D01*
X100024Y17097D01*
X100041Y16995D01*
X100050Y16978D01*
X100054Y16958D01*
X100107Y16869D01*
X100156Y16778D01*
X100170Y16764D01*
X100180Y16747D01*
X100259Y16680D01*
X100334Y16609D01*
X100352Y16600D01*
X100367Y16587D01*
X100463Y16548D01*
X100557Y16505D01*
X100577Y16503D01*
X100595Y16495D01*
X100762Y16477D01*
X110161Y16477D01*
X110161Y13791D01*
X107830Y11460D01*
X107788Y11402D01*
X107738Y11350D01*
X107717Y11303D01*
X107686Y11261D01*
X107665Y11192D01*
X107635Y11127D01*
X107629Y11075D01*
X107614Y11025D01*
X107616Y10954D01*
X107608Y10883D01*
X107619Y10832D01*
X107620Y10780D01*
X107645Y10712D01*
X107660Y10642D01*
X107687Y10597D01*
X107705Y10549D01*
X107749Y10493D01*
X107786Y10431D01*
X107826Y10397D01*
X107858Y10357D01*
X107919Y10318D01*
X107973Y10271D01*
X108021Y10252D01*
X108065Y10224D01*
X108135Y10206D01*
X108201Y10179D01*
X108273Y10171D01*
X108304Y10163D01*
X108327Y10165D01*
X108368Y10161D01*
X189078Y10161D01*
X189098Y10164D01*
X189117Y10162D01*
X189219Y10184D01*
X189321Y10200D01*
X189338Y10210D01*
X189358Y10214D01*
X189447Y10267D01*
X189538Y10316D01*
X189552Y10330D01*
X189569Y10340D01*
X189636Y10419D01*
X189708Y10494D01*
X189716Y10512D01*
X189729Y10527D01*
X189768Y10623D01*
X189811Y10717D01*
X189813Y10737D01*
X189821Y10755D01*
X189839Y10922D01*
X189839Y98069D01*
X189828Y98140D01*
X189826Y98211D01*
X189808Y98260D01*
X189800Y98312D01*
X189766Y98375D01*
X189741Y98442D01*
X189709Y98483D01*
X189684Y98529D01*
X189632Y98578D01*
X189588Y98634D01*
X189544Y98663D01*
X189506Y98698D01*
X189441Y98729D01*
X189381Y98767D01*
X189330Y98780D01*
X189283Y98802D01*
X189212Y98810D01*
X189142Y98827D01*
X189090Y98823D01*
X189039Y98829D01*
X188968Y98814D01*
X188897Y98808D01*
X188849Y98788D01*
X188798Y98777D01*
X188737Y98740D01*
X188671Y98712D01*
X188615Y98667D01*
X188587Y98651D01*
X188572Y98633D01*
X188540Y98607D01*
X185788Y95855D01*
X178212Y95855D01*
X172855Y101212D01*
X172855Y108788D01*
X178212Y114145D01*
X185788Y114145D01*
X188540Y111393D01*
X188598Y111351D01*
X188650Y111302D01*
X188697Y111280D01*
X188739Y111249D01*
X188808Y111228D01*
X188873Y111198D01*
X188925Y111192D01*
X188975Y111177D01*
X189046Y111179D01*
X189117Y111171D01*
X189168Y111182D01*
X189220Y111183D01*
X189288Y111208D01*
X189358Y111223D01*
X189403Y111250D01*
X189451Y111268D01*
X189507Y111313D01*
X189569Y111349D01*
X189603Y111389D01*
X189643Y111421D01*
X189682Y111482D01*
X189729Y111536D01*
X189748Y111585D01*
X189776Y111628D01*
X189794Y111698D01*
X189821Y111764D01*
X189829Y111836D01*
X189837Y111867D01*
X189835Y111890D01*
X189839Y111931D01*
X189839Y189078D01*
X189838Y189088D01*
X189838Y189094D01*
X189837Y189102D01*
X189838Y189117D01*
X189816Y189219D01*
X189800Y189321D01*
X189790Y189338D01*
X189786Y189358D01*
X189733Y189447D01*
X189684Y189538D01*
X189670Y189552D01*
X189660Y189569D01*
X189581Y189636D01*
X189506Y189708D01*
X189488Y189716D01*
X189473Y189729D01*
X189377Y189768D01*
X189283Y189811D01*
X189263Y189813D01*
X189245Y189821D01*
X189078Y189839D01*
X106931Y189839D01*
X106860Y189828D01*
X106789Y189826D01*
X106740Y189808D01*
X106688Y189800D01*
X106625Y189766D01*
X106558Y189741D01*
X106517Y189709D01*
X106471Y189684D01*
X106422Y189632D01*
X106366Y189588D01*
X106337Y189544D01*
X106302Y189506D01*
X106271Y189441D01*
X106233Y189381D01*
X106220Y189330D01*
X106198Y189283D01*
X106190Y189212D01*
X106173Y189142D01*
X106177Y189090D01*
X106171Y189039D01*
X106186Y188968D01*
X106192Y188897D01*
X106212Y188849D01*
X106223Y188798D01*
X106260Y188737D01*
X106288Y188671D01*
X106333Y188615D01*
X106349Y188587D01*
X106367Y188572D01*
X106370Y188568D01*
X106373Y188564D01*
X106376Y188561D01*
X106393Y188540D01*
X109145Y185788D01*
X109145Y178212D01*
X103788Y172855D01*
X96212Y172855D01*
X90855Y178212D01*
X90855Y185788D01*
X93607Y188540D01*
X93649Y188598D01*
X93698Y188650D01*
X93720Y188697D01*
X93751Y188739D01*
X93772Y188808D01*
X93802Y188873D01*
X93808Y188925D01*
X93823Y188975D01*
X93821Y189046D01*
X93829Y189117D01*
X93818Y189168D01*
X93817Y189220D01*
X93792Y189288D01*
X93777Y189358D01*
X93750Y189403D01*
X93732Y189451D01*
X93687Y189507D01*
X93651Y189569D01*
X93611Y189603D01*
X93579Y189643D01*
X93518Y189682D01*
X93464Y189729D01*
X93415Y189748D01*
X93372Y189776D01*
X93302Y189794D01*
X93236Y189821D01*
X93164Y189829D01*
X93133Y189837D01*
X93110Y189835D01*
X93069Y189839D01*
X10922Y189839D01*
X10902Y189836D01*
X10883Y189838D01*
X10781Y189816D01*
X10679Y189800D01*
X10662Y189790D01*
X10642Y189786D01*
X10553Y189733D01*
X10462Y189684D01*
X10448Y189670D01*
X10431Y189660D01*
X10364Y189581D01*
X10292Y189506D01*
X10284Y189488D01*
X10271Y189473D01*
X10232Y189377D01*
X10189Y189283D01*
X10187Y189263D01*
X10179Y189245D01*
X10161Y189078D01*
X10161Y146931D01*
X10172Y146860D01*
X10174Y146789D01*
X10192Y146740D01*
X10200Y146688D01*
X10234Y146625D01*
X10259Y146558D01*
X10291Y146517D01*
X10316Y146471D01*
X10368Y146422D01*
X10412Y146366D01*
X10456Y146337D01*
X10494Y146302D01*
X10559Y146271D01*
X10619Y146233D01*
X10670Y146220D01*
X10717Y146198D01*
X10788Y146190D01*
X10858Y146173D01*
X10910Y146177D01*
X10961Y146171D01*
X11032Y146186D01*
X11103Y146192D01*
X11151Y146212D01*
X11202Y146223D01*
X11263Y146260D01*
X11329Y146288D01*
X11385Y146333D01*
X11413Y146349D01*
X11428Y146367D01*
X11460Y146393D01*
X14212Y149145D01*
X21788Y149145D01*
X27145Y143788D01*
X27145Y136212D01*
X21788Y130855D01*
X14212Y130855D01*
X11460Y133607D01*
X11402Y133649D01*
X11350Y133698D01*
X11303Y133720D01*
X11261Y133751D01*
X11192Y133772D01*
X11127Y133802D01*
X11075Y133808D01*
X11025Y133823D01*
X10954Y133821D01*
X10883Y133829D01*
X10832Y133818D01*
X10780Y133817D01*
X10712Y133792D01*
X10642Y133777D01*
X10597Y133750D01*
X10549Y133732D01*
X10493Y133687D01*
X10431Y133651D01*
X10397Y133611D01*
X10357Y133579D01*
X10318Y133518D01*
X10271Y133464D01*
X10252Y133415D01*
X10224Y133372D01*
X10206Y133302D01*
X10179Y133236D01*
X10171Y133164D01*
X10163Y133133D01*
X10165Y133110D01*
X10161Y133069D01*
X10161Y76931D01*
X10172Y76860D01*
X10174Y76789D01*
X10192Y76740D01*
X10200Y76688D01*
X10234Y76625D01*
X10259Y76558D01*
X10291Y76517D01*
X10316Y76471D01*
X10368Y76422D01*
X10412Y76366D01*
X10456Y76337D01*
X10494Y76302D01*
X10559Y76271D01*
X10619Y76233D01*
X10670Y76220D01*
X10717Y76198D01*
X10788Y76190D01*
X10858Y76173D01*
X10910Y76177D01*
X10961Y76171D01*
X11032Y76186D01*
X11103Y76192D01*
X11151Y76212D01*
X11202Y76223D01*
X11263Y76260D01*
X11329Y76288D01*
X11385Y76333D01*
X11413Y76349D01*
X11428Y76367D01*
X11460Y76393D01*
X14212Y79145D01*
X21788Y79145D01*
X27145Y73788D01*
X27145Y66212D01*
X21788Y60855D01*
X14212Y60855D01*
X11460Y63607D01*
X11402Y63649D01*
X11350Y63698D01*
X11303Y63720D01*
X11261Y63751D01*
X11192Y63772D01*
X11127Y63802D01*
X11075Y63808D01*
X11025Y63823D01*
X10954Y63821D01*
X10883Y63829D01*
X10832Y63818D01*
X10780Y63817D01*
X10712Y63792D01*
X10642Y63777D01*
X10597Y63750D01*
X10549Y63732D01*
X10493Y63687D01*
X10431Y63651D01*
X10397Y63611D01*
X10357Y63579D01*
X10318Y63518D01*
X10271Y63464D01*
X10252Y63415D01*
X10224Y63372D01*
X10206Y63302D01*
X10179Y63236D01*
X10171Y63164D01*
X10163Y63133D01*
X10165Y63110D01*
X10161Y63069D01*
X10161Y10922D01*
X10164Y10902D01*
X10162Y10883D01*
X10184Y10781D01*
X10200Y10679D01*
X10210Y10662D01*
X10214Y10642D01*
X10267Y10553D01*
X10316Y10462D01*
X10330Y10448D01*
X10340Y10431D01*
X10419Y10364D01*
X10494Y10292D01*
X10512Y10284D01*
X10527Y10271D01*
X10623Y10232D01*
X10717Y10189D01*
X10737Y10187D01*
X10755Y10179D01*
X10922Y10161D01*
X91632Y10161D01*
X91703Y10172D01*
G37*
%LPC*%
G36*
X92115Y42713D02*
X92115Y42713D01*
X88470Y46358D01*
X88396Y46411D01*
X88326Y46471D01*
X88296Y46483D01*
X88270Y46502D01*
X88183Y46529D01*
X88098Y46563D01*
X88057Y46567D01*
X88035Y46574D01*
X88003Y46573D01*
X87931Y46581D01*
X79926Y46581D01*
X79033Y47474D01*
X79033Y54326D01*
X79110Y54402D01*
X79179Y54499D01*
X79250Y54594D01*
X79251Y54598D01*
X79253Y54602D01*
X79288Y54716D01*
X79324Y54829D01*
X79324Y54833D01*
X79326Y54837D01*
X79322Y54955D01*
X79321Y55075D01*
X79319Y55079D01*
X79319Y55083D01*
X79279Y55194D01*
X79239Y55307D01*
X79236Y55310D01*
X79235Y55314D01*
X79161Y55406D01*
X79087Y55500D01*
X79083Y55503D01*
X79081Y55506D01*
X79070Y55513D01*
X79025Y55546D01*
X78525Y56046D01*
X78190Y56625D01*
X78017Y57272D01*
X78017Y59004D01*
X86527Y59004D01*
X86546Y59007D01*
X86566Y59005D01*
X86668Y59027D01*
X86770Y59043D01*
X86787Y59053D01*
X86807Y59057D01*
X86896Y59110D01*
X86987Y59159D01*
X87001Y59173D01*
X87018Y59183D01*
X87085Y59262D01*
X87156Y59337D01*
X87164Y59354D01*
X87191Y59305D01*
X87205Y59291D01*
X87215Y59274D01*
X87294Y59207D01*
X87369Y59135D01*
X87387Y59127D01*
X87402Y59114D01*
X87499Y59075D01*
X87592Y59032D01*
X87612Y59030D01*
X87630Y59022D01*
X87797Y59004D01*
X96307Y59004D01*
X96307Y57272D01*
X96134Y56625D01*
X95799Y56046D01*
X95267Y55513D01*
X95187Y55450D01*
X95185Y55446D01*
X95182Y55444D01*
X95119Y55343D01*
X95054Y55243D01*
X95053Y55239D01*
X95051Y55236D01*
X95023Y55120D01*
X94994Y55004D01*
X94994Y55000D01*
X94993Y54996D01*
X95004Y54878D01*
X95013Y54759D01*
X95015Y54755D01*
X95015Y54751D01*
X95064Y54641D01*
X95110Y54533D01*
X95113Y54529D01*
X95114Y54526D01*
X95123Y54516D01*
X95214Y54402D01*
X95291Y54326D01*
X95291Y48048D01*
X95294Y48028D01*
X95292Y48009D01*
X95314Y47907D01*
X95330Y47805D01*
X95340Y47788D01*
X95344Y47768D01*
X95397Y47679D01*
X95446Y47588D01*
X95460Y47574D01*
X95470Y47557D01*
X95549Y47490D01*
X95624Y47418D01*
X95642Y47410D01*
X95657Y47397D01*
X95753Y47358D01*
X95847Y47315D01*
X95867Y47313D01*
X95885Y47305D01*
X96052Y47287D01*
X102148Y47287D01*
X102168Y47290D01*
X102187Y47288D01*
X102289Y47310D01*
X102391Y47326D01*
X102408Y47336D01*
X102428Y47340D01*
X102517Y47393D01*
X102608Y47442D01*
X102622Y47456D01*
X102639Y47466D01*
X102706Y47545D01*
X102778Y47620D01*
X102786Y47638D01*
X102799Y47653D01*
X102838Y47749D01*
X102881Y47843D01*
X102883Y47863D01*
X102891Y47881D01*
X102909Y48048D01*
X102909Y54326D01*
X102986Y54402D01*
X103055Y54499D01*
X103126Y54594D01*
X103127Y54598D01*
X103129Y54602D01*
X103164Y54716D01*
X103200Y54829D01*
X103200Y54833D01*
X103202Y54837D01*
X103198Y54955D01*
X103197Y55075D01*
X103195Y55079D01*
X103195Y55083D01*
X103155Y55194D01*
X103115Y55307D01*
X103112Y55310D01*
X103111Y55314D01*
X103037Y55406D01*
X102963Y55500D01*
X102959Y55503D01*
X102957Y55506D01*
X102946Y55513D01*
X102901Y55546D01*
X102401Y56046D01*
X102066Y56625D01*
X101893Y57272D01*
X101893Y59004D01*
X110403Y59004D01*
X110422Y59007D01*
X110442Y59005D01*
X110544Y59027D01*
X110646Y59043D01*
X110663Y59053D01*
X110683Y59057D01*
X110772Y59110D01*
X110863Y59159D01*
X110877Y59173D01*
X110894Y59183D01*
X110961Y59262D01*
X111032Y59337D01*
X111041Y59355D01*
X111054Y59370D01*
X111092Y59466D01*
X111136Y59560D01*
X111138Y59580D01*
X111146Y59598D01*
X111164Y59765D01*
X111164Y61035D01*
X111161Y61055D01*
X111163Y61074D01*
X111141Y61176D01*
X111124Y61278D01*
X111115Y61295D01*
X111111Y61315D01*
X111058Y61404D01*
X111009Y61495D01*
X110995Y61509D01*
X110985Y61526D01*
X110906Y61593D01*
X110831Y61665D01*
X110813Y61673D01*
X110798Y61686D01*
X110701Y61725D01*
X110608Y61768D01*
X110588Y61770D01*
X110570Y61778D01*
X110403Y61796D01*
X101893Y61796D01*
X101893Y63528D01*
X102066Y64175D01*
X102401Y64754D01*
X102933Y65287D01*
X103013Y65350D01*
X103015Y65354D01*
X103018Y65356D01*
X103081Y65457D01*
X103146Y65557D01*
X103147Y65561D01*
X103149Y65564D01*
X103177Y65680D01*
X103206Y65796D01*
X103206Y65800D01*
X103207Y65804D01*
X103196Y65920D01*
X103187Y66041D01*
X103185Y66045D01*
X103185Y66049D01*
X103137Y66158D01*
X103090Y66267D01*
X103087Y66271D01*
X103086Y66274D01*
X103077Y66284D01*
X102986Y66398D01*
X102906Y66478D01*
X102898Y66529D01*
X102896Y66601D01*
X102878Y66650D01*
X102870Y66701D01*
X102836Y66765D01*
X102811Y66832D01*
X102779Y66873D01*
X102754Y66919D01*
X102702Y66968D01*
X102658Y67024D01*
X102614Y67052D01*
X102576Y67088D01*
X102511Y67118D01*
X102451Y67157D01*
X102400Y67170D01*
X102353Y67192D01*
X102282Y67200D01*
X102212Y67217D01*
X102160Y67213D01*
X102109Y67219D01*
X102038Y67204D01*
X101967Y67198D01*
X101919Y67178D01*
X101868Y67167D01*
X101807Y67130D01*
X101741Y67102D01*
X101685Y67057D01*
X101657Y67040D01*
X101642Y67023D01*
X101610Y66997D01*
X99306Y64693D01*
X96987Y64693D01*
X96870Y64674D01*
X96752Y64656D01*
X96748Y64654D01*
X96744Y64654D01*
X96638Y64598D01*
X96533Y64543D01*
X96530Y64540D01*
X96527Y64538D01*
X96444Y64451D01*
X96362Y64367D01*
X96360Y64363D01*
X96357Y64360D01*
X96307Y64252D01*
X96256Y64145D01*
X96255Y64141D01*
X96254Y64137D01*
X96240Y64019D01*
X96226Y63901D01*
X96227Y63896D01*
X96226Y63893D01*
X96229Y63879D01*
X96251Y63735D01*
X96307Y63528D01*
X96307Y61796D01*
X87797Y61796D01*
X87778Y61793D01*
X87758Y61795D01*
X87656Y61773D01*
X87554Y61757D01*
X87537Y61747D01*
X87517Y61743D01*
X87428Y61690D01*
X87337Y61641D01*
X87323Y61627D01*
X87306Y61617D01*
X87239Y61538D01*
X87168Y61463D01*
X87160Y61445D01*
X87133Y61495D01*
X87119Y61509D01*
X87109Y61526D01*
X87030Y61593D01*
X86955Y61665D01*
X86937Y61673D01*
X86922Y61686D01*
X86825Y61725D01*
X86732Y61768D01*
X86712Y61770D01*
X86694Y61778D01*
X86527Y61796D01*
X78017Y61796D01*
X78017Y63528D01*
X78190Y64175D01*
X78525Y64754D01*
X79057Y65287D01*
X79137Y65350D01*
X79139Y65354D01*
X79142Y65356D01*
X79205Y65457D01*
X79270Y65557D01*
X79271Y65561D01*
X79273Y65564D01*
X79301Y65680D01*
X79330Y65796D01*
X79330Y65800D01*
X79331Y65804D01*
X79320Y65920D01*
X79311Y66041D01*
X79309Y66045D01*
X79309Y66049D01*
X79261Y66158D01*
X79214Y66267D01*
X79211Y66271D01*
X79210Y66274D01*
X79201Y66284D01*
X79110Y66398D01*
X79033Y66474D01*
X79033Y73326D01*
X79926Y74219D01*
X93507Y74219D01*
X93597Y74233D01*
X93688Y74241D01*
X93717Y74253D01*
X93749Y74258D01*
X93830Y74301D01*
X93914Y74337D01*
X93946Y74363D01*
X93967Y74374D01*
X93989Y74397D01*
X94045Y74442D01*
X94910Y75307D01*
X99306Y75307D01*
X101610Y73003D01*
X101668Y72961D01*
X101720Y72912D01*
X101767Y72890D01*
X101809Y72860D01*
X101878Y72838D01*
X101943Y72808D01*
X101995Y72803D01*
X102045Y72787D01*
X102116Y72789D01*
X102187Y72781D01*
X102238Y72792D01*
X102290Y72794D01*
X102358Y72818D01*
X102428Y72833D01*
X102473Y72860D01*
X102521Y72878D01*
X102577Y72923D01*
X102639Y72960D01*
X102673Y72999D01*
X102713Y73032D01*
X102752Y73092D01*
X102799Y73147D01*
X102818Y73195D01*
X102846Y73239D01*
X102855Y73271D01*
X103802Y74219D01*
X109537Y74219D01*
X109627Y74233D01*
X109718Y74241D01*
X109747Y74253D01*
X109779Y74258D01*
X109860Y74301D01*
X109944Y74337D01*
X109976Y74363D01*
X109997Y74374D01*
X110019Y74397D01*
X110075Y74442D01*
X112840Y77207D01*
X113990Y77207D01*
X114010Y77210D01*
X114029Y77208D01*
X114131Y77230D01*
X114233Y77246D01*
X114250Y77256D01*
X114270Y77260D01*
X114359Y77313D01*
X114450Y77362D01*
X114464Y77376D01*
X114481Y77386D01*
X114548Y77465D01*
X114620Y77540D01*
X114628Y77558D01*
X114641Y77573D01*
X114680Y77669D01*
X114723Y77763D01*
X114725Y77783D01*
X114733Y77801D01*
X114751Y77968D01*
X114751Y90236D01*
X114744Y90280D01*
X114746Y90324D01*
X114724Y90400D01*
X114712Y90479D01*
X114691Y90518D01*
X114679Y90560D01*
X114634Y90626D01*
X114596Y90696D01*
X114564Y90726D01*
X114539Y90763D01*
X114476Y90811D01*
X114418Y90865D01*
X114378Y90884D01*
X114343Y90910D01*
X114208Y90963D01*
X114195Y90969D01*
X114191Y90969D01*
X114186Y90971D01*
X103513Y93820D01*
X103447Y93826D01*
X103382Y93843D01*
X103325Y93838D01*
X103269Y93844D01*
X103203Y93829D01*
X103136Y93824D01*
X103084Y93802D01*
X103029Y93789D01*
X102972Y93754D01*
X102910Y93728D01*
X102847Y93677D01*
X102819Y93660D01*
X102806Y93644D01*
X102779Y93623D01*
X102713Y93557D01*
X102701Y93541D01*
X102686Y93528D01*
X102630Y93441D01*
X102570Y93357D01*
X102564Y93338D01*
X102553Y93321D01*
X102528Y93221D01*
X102497Y93122D01*
X102498Y93102D01*
X102493Y93083D01*
X102501Y92980D01*
X102503Y92876D01*
X102510Y92857D01*
X102512Y92837D01*
X102552Y92742D01*
X102588Y92645D01*
X102600Y92630D01*
X102608Y92611D01*
X102713Y92480D01*
X103083Y92110D01*
X103418Y91531D01*
X103591Y90884D01*
X103591Y88396D01*
X98913Y88396D01*
X98894Y88393D01*
X98874Y88395D01*
X98772Y88373D01*
X98670Y88357D01*
X98653Y88347D01*
X98633Y88343D01*
X98544Y88290D01*
X98453Y88241D01*
X98439Y88227D01*
X98422Y88217D01*
X98355Y88138D01*
X98301Y88081D01*
X98293Y88095D01*
X98279Y88109D01*
X98269Y88126D01*
X98190Y88193D01*
X98115Y88265D01*
X98097Y88273D01*
X98082Y88286D01*
X97985Y88325D01*
X97892Y88368D01*
X97872Y88370D01*
X97854Y88378D01*
X97687Y88396D01*
X93009Y88396D01*
X93009Y90884D01*
X93182Y91531D01*
X93517Y92110D01*
X93887Y92480D01*
X93899Y92496D01*
X93914Y92509D01*
X93970Y92596D01*
X94031Y92680D01*
X94036Y92699D01*
X94047Y92716D01*
X94073Y92816D01*
X94103Y92915D01*
X94102Y92935D01*
X94107Y92954D01*
X94099Y93057D01*
X94097Y93161D01*
X94090Y93180D01*
X94088Y93200D01*
X94048Y93295D01*
X94025Y93356D01*
X94025Y94530D01*
X94022Y94550D01*
X94024Y94569D01*
X94002Y94671D01*
X93986Y94773D01*
X93976Y94790D01*
X93972Y94810D01*
X93919Y94899D01*
X93870Y94990D01*
X93856Y95004D01*
X93846Y95021D01*
X93767Y95088D01*
X93692Y95160D01*
X93674Y95168D01*
X93659Y95181D01*
X93563Y95220D01*
X93469Y95263D01*
X93449Y95265D01*
X93431Y95273D01*
X93264Y95291D01*
X90841Y95291D01*
X90750Y95277D01*
X90660Y95269D01*
X90630Y95257D01*
X90598Y95252D01*
X90517Y95209D01*
X90433Y95173D01*
X90401Y95147D01*
X90380Y95136D01*
X90358Y95113D01*
X90302Y95068D01*
X77586Y82352D01*
X64387Y82352D01*
X64367Y82349D01*
X64348Y82351D01*
X64246Y82329D01*
X64144Y82313D01*
X64127Y82303D01*
X64107Y82299D01*
X64018Y82246D01*
X63927Y82197D01*
X63913Y82183D01*
X63896Y82173D01*
X63829Y82094D01*
X63757Y82019D01*
X63749Y82001D01*
X63736Y81986D01*
X63697Y81890D01*
X63654Y81796D01*
X63652Y81776D01*
X63644Y81758D01*
X63626Y81591D01*
X63626Y81053D01*
X62131Y79558D01*
X57168Y79558D01*
X57078Y79544D01*
X56987Y79536D01*
X56958Y79524D01*
X56926Y79519D01*
X56845Y79476D01*
X56761Y79440D01*
X56729Y79414D01*
X56708Y79403D01*
X56686Y79380D01*
X56630Y79335D01*
X55510Y78215D01*
X55457Y78141D01*
X55397Y78071D01*
X55385Y78041D01*
X55366Y78015D01*
X55339Y77928D01*
X55305Y77843D01*
X55301Y77802D01*
X55294Y77780D01*
X55295Y77748D01*
X55287Y77676D01*
X55287Y66083D01*
X55306Y65967D01*
X55324Y65848D01*
X55326Y65844D01*
X55326Y65840D01*
X55382Y65736D01*
X55437Y65629D01*
X55440Y65626D01*
X55442Y65623D01*
X55527Y65541D01*
X55613Y65458D01*
X55617Y65456D01*
X55620Y65453D01*
X55727Y65403D01*
X55835Y65352D01*
X55839Y65351D01*
X55843Y65350D01*
X55961Y65337D01*
X56079Y65322D01*
X56084Y65323D01*
X56087Y65323D01*
X56101Y65325D01*
X56245Y65347D01*
X56615Y65447D01*
X58326Y65447D01*
X58326Y59991D01*
X58329Y59972D01*
X58327Y59952D01*
X58349Y59850D01*
X58365Y59748D01*
X58375Y59731D01*
X58379Y59711D01*
X58432Y59622D01*
X58481Y59531D01*
X58495Y59517D01*
X58505Y59500D01*
X58584Y59433D01*
X58659Y59362D01*
X58677Y59353D01*
X58692Y59340D01*
X58788Y59302D01*
X58882Y59258D01*
X58902Y59256D01*
X58920Y59248D01*
X59087Y59230D01*
X59552Y59230D01*
X59552Y58765D01*
X59555Y58745D01*
X59553Y58725D01*
X59575Y58624D01*
X59592Y58522D01*
X59601Y58505D01*
X59605Y58485D01*
X59658Y58396D01*
X59707Y58305D01*
X59721Y58291D01*
X59731Y58274D01*
X59810Y58207D01*
X59885Y58135D01*
X59903Y58127D01*
X59918Y58114D01*
X60015Y58075D01*
X60108Y58032D01*
X60128Y58030D01*
X60146Y58022D01*
X60313Y58004D01*
X64991Y58004D01*
X64991Y55516D01*
X64818Y54869D01*
X64483Y54290D01*
X64113Y53920D01*
X64101Y53904D01*
X64086Y53891D01*
X64030Y53804D01*
X63969Y53720D01*
X63964Y53701D01*
X63953Y53684D01*
X63927Y53584D01*
X63897Y53485D01*
X63898Y53465D01*
X63893Y53446D01*
X63901Y53343D01*
X63903Y53239D01*
X63910Y53220D01*
X63912Y53200D01*
X63952Y53105D01*
X63975Y53044D01*
X63975Y44662D01*
X63082Y43769D01*
X56318Y43769D01*
X55425Y44662D01*
X55425Y48678D01*
X55411Y48768D01*
X55403Y48859D01*
X55391Y48889D01*
X55386Y48921D01*
X55343Y49002D01*
X55307Y49085D01*
X55281Y49118D01*
X55270Y49138D01*
X55247Y49160D01*
X55202Y49216D01*
X50713Y53705D01*
X50713Y79886D01*
X52276Y81449D01*
X54158Y83331D01*
X54211Y83405D01*
X54271Y83475D01*
X54283Y83505D01*
X54302Y83531D01*
X54329Y83618D01*
X54363Y83703D01*
X54367Y83744D01*
X54374Y83766D01*
X54373Y83798D01*
X54381Y83869D01*
X54381Y88827D01*
X54920Y89366D01*
X54973Y89440D01*
X55033Y89509D01*
X55045Y89539D01*
X55064Y89565D01*
X55091Y89652D01*
X55125Y89737D01*
X55129Y89778D01*
X55136Y89800D01*
X55135Y89833D01*
X55143Y89904D01*
X55143Y90296D01*
X55129Y90386D01*
X55121Y90477D01*
X55109Y90507D01*
X55104Y90539D01*
X55061Y90620D01*
X55025Y90703D01*
X54999Y90736D01*
X54988Y90756D01*
X54965Y90778D01*
X54920Y90834D01*
X54381Y91373D01*
X54381Y99749D01*
X55274Y100642D01*
X62126Y100642D01*
X63019Y99749D01*
X63019Y98609D01*
X63022Y98589D01*
X63020Y98570D01*
X63042Y98468D01*
X63058Y98366D01*
X63068Y98349D01*
X63072Y98329D01*
X63125Y98240D01*
X63174Y98149D01*
X63188Y98135D01*
X63198Y98118D01*
X63277Y98051D01*
X63352Y97979D01*
X63370Y97971D01*
X63385Y97958D01*
X63481Y97919D01*
X63575Y97876D01*
X63595Y97874D01*
X63613Y97866D01*
X63780Y97848D01*
X69298Y97848D01*
X69389Y97862D01*
X69479Y97870D01*
X69509Y97882D01*
X69541Y97887D01*
X69622Y97930D01*
X69706Y97966D01*
X69738Y97992D01*
X69759Y98003D01*
X69781Y98026D01*
X69837Y98071D01*
X72126Y100360D01*
X72138Y100376D01*
X72154Y100389D01*
X72210Y100476D01*
X72270Y100560D01*
X72276Y100579D01*
X72287Y100596D01*
X72312Y100696D01*
X72342Y100795D01*
X72342Y100815D01*
X72347Y100834D01*
X72339Y100937D01*
X72336Y101041D01*
X72329Y101060D01*
X72327Y101080D01*
X72287Y101174D01*
X72251Y101272D01*
X72239Y101288D01*
X72231Y101306D01*
X72126Y101437D01*
X69693Y103870D01*
X69693Y108266D01*
X72802Y111375D01*
X77198Y111375D01*
X80307Y108266D01*
X80307Y105472D01*
X80310Y105452D01*
X80308Y105432D01*
X80330Y105331D01*
X80346Y105229D01*
X80356Y105211D01*
X80360Y105192D01*
X80413Y105103D01*
X80462Y105011D01*
X80476Y104998D01*
X80486Y104981D01*
X80565Y104913D01*
X80640Y104842D01*
X80658Y104834D01*
X80673Y104821D01*
X80769Y104782D01*
X80863Y104738D01*
X80883Y104736D01*
X80901Y104729D01*
X81068Y104710D01*
X83386Y104710D01*
X84251Y103846D01*
X84325Y103793D01*
X84394Y103733D01*
X84424Y103721D01*
X84451Y103702D01*
X84537Y103675D01*
X84622Y103641D01*
X84663Y103637D01*
X84686Y103630D01*
X84718Y103631D01*
X84789Y103623D01*
X90073Y103623D01*
X90164Y103637D01*
X90254Y103645D01*
X90284Y103657D01*
X90316Y103662D01*
X90397Y103705D01*
X90481Y103741D01*
X90513Y103767D01*
X90534Y103778D01*
X90556Y103801D01*
X90612Y103846D01*
X91490Y104724D01*
X91543Y104798D01*
X91603Y104868D01*
X91615Y104898D01*
X91634Y104924D01*
X91661Y105011D01*
X91695Y105096D01*
X91699Y105137D01*
X91706Y105159D01*
X91705Y105191D01*
X91713Y105263D01*
X91713Y112882D01*
X91710Y112902D01*
X91712Y112921D01*
X91690Y113023D01*
X91674Y113125D01*
X91664Y113142D01*
X91660Y113162D01*
X91607Y113251D01*
X91558Y113342D01*
X91544Y113356D01*
X91534Y113373D01*
X91455Y113440D01*
X91380Y113512D01*
X91362Y113520D01*
X91347Y113533D01*
X91251Y113572D01*
X91157Y113615D01*
X91137Y113617D01*
X91119Y113625D01*
X90952Y113643D01*
X88836Y113643D01*
X88836Y117200D01*
X88833Y117219D01*
X88835Y117239D01*
X88813Y117340D01*
X88797Y117442D01*
X88787Y117460D01*
X88783Y117479D01*
X88730Y117569D01*
X88682Y117660D01*
X88667Y117673D01*
X88657Y117691D01*
X88578Y117758D01*
X88503Y117829D01*
X88485Y117838D01*
X88470Y117851D01*
X88374Y117889D01*
X88280Y117933D01*
X88260Y117935D01*
X88242Y117942D01*
X88075Y117961D01*
X88055Y117958D01*
X88036Y117960D01*
X88035Y117960D01*
X87934Y117938D01*
X87832Y117921D01*
X87815Y117912D01*
X87795Y117908D01*
X87706Y117854D01*
X87615Y117806D01*
X87601Y117792D01*
X87584Y117781D01*
X87517Y117703D01*
X87445Y117628D01*
X87437Y117610D01*
X87424Y117595D01*
X87385Y117498D01*
X87342Y117405D01*
X87340Y117385D01*
X87332Y117366D01*
X87314Y117200D01*
X87314Y113643D01*
X83931Y113643D01*
X83284Y113816D01*
X82705Y114151D01*
X82232Y114624D01*
X81897Y115203D01*
X81724Y115850D01*
X81724Y116591D01*
X81721Y116611D01*
X81723Y116630D01*
X81701Y116732D01*
X81685Y116834D01*
X81675Y116851D01*
X81671Y116871D01*
X81618Y116960D01*
X81569Y117051D01*
X81555Y117065D01*
X81545Y117082D01*
X81466Y117149D01*
X81391Y117221D01*
X81373Y117229D01*
X81358Y117242D01*
X81262Y117281D01*
X81168Y117324D01*
X81148Y117326D01*
X81130Y117334D01*
X80963Y117352D01*
X64580Y117352D01*
X64560Y117349D01*
X64541Y117351D01*
X64439Y117329D01*
X64337Y117313D01*
X64320Y117303D01*
X64300Y117299D01*
X64211Y117246D01*
X64120Y117197D01*
X64106Y117183D01*
X64089Y117173D01*
X64022Y117094D01*
X63950Y117019D01*
X63942Y117001D01*
X63929Y116986D01*
X63890Y116890D01*
X63847Y116796D01*
X63845Y116776D01*
X63837Y116758D01*
X63819Y116591D01*
X63819Y115451D01*
X62926Y114558D01*
X56074Y114558D01*
X55181Y115451D01*
X55181Y116110D01*
X55170Y116180D01*
X55168Y116252D01*
X55150Y116301D01*
X55142Y116352D01*
X55108Y116416D01*
X55083Y116483D01*
X55051Y116524D01*
X55026Y116570D01*
X54974Y116619D01*
X54930Y116675D01*
X54886Y116703D01*
X54848Y116739D01*
X54783Y116769D01*
X54723Y116808D01*
X54672Y116821D01*
X54625Y116843D01*
X54554Y116851D01*
X54484Y116868D01*
X54432Y116864D01*
X54381Y116870D01*
X54310Y116855D01*
X54239Y116849D01*
X54191Y116829D01*
X54140Y116818D01*
X54079Y116781D01*
X54013Y116753D01*
X53957Y116708D01*
X53929Y116691D01*
X53914Y116674D01*
X53882Y116648D01*
X51530Y114296D01*
X51477Y114222D01*
X51417Y114152D01*
X51405Y114122D01*
X51386Y114096D01*
X51359Y114009D01*
X51325Y113924D01*
X51321Y113883D01*
X51314Y113861D01*
X51315Y113829D01*
X51307Y113757D01*
X51307Y109802D01*
X48198Y106693D01*
X43802Y106693D01*
X40693Y109802D01*
X40693Y114198D01*
X43802Y117307D01*
X47757Y117307D01*
X47848Y117321D01*
X47938Y117329D01*
X47968Y117341D01*
X48000Y117346D01*
X48081Y117389D01*
X48165Y117425D01*
X48197Y117451D01*
X48218Y117462D01*
X48240Y117485D01*
X48296Y117530D01*
X52692Y121926D01*
X54420Y121926D01*
X54440Y121929D01*
X54459Y121927D01*
X54561Y121949D01*
X54663Y121965D01*
X54680Y121975D01*
X54700Y121979D01*
X54789Y122032D01*
X54880Y122081D01*
X54894Y122095D01*
X54911Y122105D01*
X54978Y122184D01*
X55050Y122259D01*
X55058Y122277D01*
X55071Y122292D01*
X55110Y122388D01*
X55153Y122482D01*
X55155Y122502D01*
X55163Y122520D01*
X55181Y122687D01*
X55181Y123827D01*
X55720Y124366D01*
X55773Y124440D01*
X55833Y124509D01*
X55845Y124539D01*
X55864Y124565D01*
X55891Y124652D01*
X55925Y124737D01*
X55929Y124778D01*
X55936Y124800D01*
X55935Y124833D01*
X55943Y124904D01*
X55943Y125296D01*
X55929Y125386D01*
X55921Y125477D01*
X55909Y125507D01*
X55904Y125539D01*
X55861Y125620D01*
X55825Y125703D01*
X55799Y125736D01*
X55788Y125756D01*
X55765Y125778D01*
X55720Y125834D01*
X55181Y126373D01*
X55181Y134749D01*
X56074Y135642D01*
X62926Y135642D01*
X63858Y134710D01*
X63932Y134657D01*
X64001Y134597D01*
X64031Y134585D01*
X64057Y134566D01*
X64144Y134539D01*
X64229Y134505D01*
X64270Y134501D01*
X64292Y134494D01*
X64325Y134495D01*
X64396Y134487D01*
X83064Y134487D01*
X83154Y134501D01*
X83245Y134509D01*
X83275Y134521D01*
X83307Y134526D01*
X83387Y134569D01*
X83472Y134605D01*
X83504Y134631D01*
X83524Y134642D01*
X83546Y134665D01*
X83602Y134710D01*
X83633Y134741D01*
X85744Y134741D01*
X85835Y134755D01*
X85925Y134763D01*
X85955Y134775D01*
X85987Y134780D01*
X86068Y134823D01*
X86152Y134859D01*
X86184Y134885D01*
X86205Y134896D01*
X86227Y134919D01*
X86283Y134964D01*
X87128Y135809D01*
X89022Y135809D01*
X89867Y134964D01*
X89941Y134911D01*
X90011Y134851D01*
X90041Y134839D01*
X90067Y134820D01*
X90154Y134793D01*
X90239Y134759D01*
X90280Y134755D01*
X90302Y134748D01*
X90334Y134749D01*
X90406Y134741D01*
X91941Y134741D01*
X91961Y134744D01*
X91980Y134742D01*
X92082Y134764D01*
X92184Y134780D01*
X92201Y134790D01*
X92221Y134794D01*
X92310Y134847D01*
X92401Y134896D01*
X92415Y134910D01*
X92432Y134920D01*
X92499Y134999D01*
X92571Y135074D01*
X92579Y135092D01*
X92592Y135107D01*
X92631Y135203D01*
X92674Y135297D01*
X92676Y135317D01*
X92684Y135335D01*
X92702Y135502D01*
X92702Y137198D01*
X95811Y140307D01*
X100207Y140307D01*
X103316Y137198D01*
X103316Y135502D01*
X103319Y135482D01*
X103317Y135463D01*
X103339Y135361D01*
X103355Y135259D01*
X103365Y135242D01*
X103369Y135222D01*
X103422Y135133D01*
X103471Y135042D01*
X103485Y135028D01*
X103495Y135011D01*
X103574Y134944D01*
X103649Y134872D01*
X103667Y134864D01*
X103682Y134851D01*
X103778Y134812D01*
X103872Y134769D01*
X103892Y134767D01*
X103910Y134759D01*
X104077Y134741D01*
X108029Y134741D01*
X108119Y134755D01*
X108210Y134763D01*
X108239Y134775D01*
X108271Y134780D01*
X108352Y134823D01*
X108436Y134859D01*
X108468Y134885D01*
X108489Y134896D01*
X108511Y134919D01*
X108567Y134964D01*
X114186Y140583D01*
X115749Y142145D01*
X138036Y142145D01*
X144384Y135798D01*
X144458Y135745D01*
X144527Y135685D01*
X144557Y135673D01*
X144583Y135654D01*
X144670Y135627D01*
X144755Y135593D01*
X144796Y135589D01*
X144818Y135582D01*
X144851Y135583D01*
X144922Y135575D01*
X148938Y135575D01*
X149831Y134682D01*
X149831Y127918D01*
X148938Y127025D01*
X147826Y127025D01*
X147806Y127022D01*
X147787Y127024D01*
X147685Y127002D01*
X147583Y126986D01*
X147566Y126976D01*
X147546Y126972D01*
X147457Y126919D01*
X147366Y126870D01*
X147352Y126856D01*
X147335Y126846D01*
X147268Y126767D01*
X147196Y126692D01*
X147188Y126674D01*
X147175Y126659D01*
X147136Y126563D01*
X147093Y126469D01*
X147091Y126449D01*
X147083Y126431D01*
X147065Y126264D01*
X147065Y115936D01*
X147068Y115916D01*
X147066Y115897D01*
X147088Y115795D01*
X147104Y115693D01*
X147114Y115676D01*
X147118Y115656D01*
X147171Y115567D01*
X147220Y115476D01*
X147234Y115462D01*
X147244Y115445D01*
X147323Y115378D01*
X147398Y115306D01*
X147416Y115298D01*
X147431Y115285D01*
X147527Y115246D01*
X147621Y115203D01*
X147641Y115201D01*
X147659Y115193D01*
X147826Y115175D01*
X148938Y115175D01*
X149831Y114282D01*
X149831Y107518D01*
X148938Y106625D01*
X147826Y106625D01*
X147806Y106622D01*
X147787Y106624D01*
X147685Y106602D01*
X147583Y106586D01*
X147566Y106576D01*
X147546Y106572D01*
X147457Y106519D01*
X147366Y106470D01*
X147352Y106456D01*
X147335Y106446D01*
X147268Y106367D01*
X147196Y106292D01*
X147188Y106274D01*
X147175Y106259D01*
X147136Y106163D01*
X147093Y106069D01*
X147091Y106049D01*
X147083Y106031D01*
X147065Y105864D01*
X147065Y99090D01*
X147079Y99000D01*
X147087Y98909D01*
X147099Y98880D01*
X147104Y98848D01*
X147147Y98767D01*
X147183Y98683D01*
X147209Y98651D01*
X147220Y98630D01*
X147243Y98608D01*
X147288Y98552D01*
X149594Y96246D01*
X149668Y96193D01*
X149738Y96133D01*
X149768Y96121D01*
X149794Y96102D01*
X149881Y96075D01*
X149966Y96041D01*
X150007Y96037D01*
X150029Y96030D01*
X150061Y96031D01*
X150133Y96023D01*
X154853Y96023D01*
X166023Y84853D01*
X166023Y53841D01*
X163198Y51016D01*
X163151Y50952D01*
X163135Y50935D01*
X163132Y50928D01*
X163085Y50873D01*
X163073Y50843D01*
X163054Y50817D01*
X163027Y50730D01*
X162993Y50645D01*
X162989Y50604D01*
X162982Y50582D01*
X162983Y50549D01*
X162975Y50478D01*
X162975Y46462D01*
X162082Y45569D01*
X155318Y45569D01*
X154425Y46462D01*
X154425Y51832D01*
X154414Y51902D01*
X154412Y51974D01*
X154394Y52023D01*
X154386Y52074D01*
X154352Y52138D01*
X154327Y52205D01*
X154295Y52246D01*
X154270Y52292D01*
X154218Y52341D01*
X154174Y52397D01*
X154130Y52425D01*
X154092Y52461D01*
X154027Y52491D01*
X153967Y52530D01*
X153916Y52543D01*
X153869Y52565D01*
X153798Y52573D01*
X153728Y52590D01*
X153676Y52586D01*
X153625Y52592D01*
X153554Y52577D01*
X153483Y52571D01*
X153435Y52551D01*
X153384Y52540D01*
X153323Y52503D01*
X153257Y52475D01*
X153201Y52430D01*
X153173Y52413D01*
X153158Y52396D01*
X153126Y52370D01*
X148508Y47752D01*
X145380Y47752D01*
X145360Y47749D01*
X145341Y47751D01*
X145239Y47729D01*
X145137Y47713D01*
X145120Y47703D01*
X145100Y47699D01*
X145011Y47646D01*
X144920Y47597D01*
X144906Y47583D01*
X144889Y47573D01*
X144822Y47494D01*
X144750Y47419D01*
X144742Y47401D01*
X144729Y47386D01*
X144690Y47290D01*
X144647Y47196D01*
X144645Y47176D01*
X144637Y47158D01*
X144619Y46991D01*
X144619Y45851D01*
X143726Y44958D01*
X138769Y44958D01*
X138678Y44944D01*
X138588Y44936D01*
X138558Y44924D01*
X138526Y44919D01*
X138445Y44876D01*
X138361Y44840D01*
X138329Y44814D01*
X138308Y44803D01*
X138286Y44780D01*
X138230Y44735D01*
X136208Y42713D01*
X92115Y42713D01*
G37*
%LPD*%
G36*
X120196Y77922D02*
X120196Y77922D01*
X120267Y77928D01*
X120315Y77948D01*
X120318Y77949D01*
X120335Y77952D01*
X120337Y77953D01*
X120366Y77959D01*
X120427Y77996D01*
X120493Y78024D01*
X120536Y78058D01*
X120552Y78067D01*
X120560Y78076D01*
X120577Y78086D01*
X120592Y78103D01*
X120624Y78129D01*
X122802Y80307D01*
X127290Y80307D01*
X127361Y80318D01*
X127432Y80320D01*
X127481Y80338D01*
X127533Y80346D01*
X127596Y80380D01*
X127663Y80405D01*
X127704Y80437D01*
X127750Y80462D01*
X127800Y80514D01*
X127855Y80558D01*
X127884Y80602D01*
X127919Y80640D01*
X127950Y80705D01*
X127988Y80765D01*
X128001Y80816D01*
X128023Y80863D01*
X128031Y80934D01*
X128049Y81004D01*
X128044Y81056D01*
X128050Y81107D01*
X128035Y81178D01*
X128029Y81249D01*
X128009Y81297D01*
X127998Y81348D01*
X127961Y81409D01*
X127933Y81475D01*
X127888Y81531D01*
X127872Y81559D01*
X127854Y81574D01*
X127828Y81606D01*
X127525Y81909D01*
X127525Y82977D01*
X127511Y83067D01*
X127503Y83158D01*
X127491Y83187D01*
X127486Y83219D01*
X127443Y83300D01*
X127407Y83384D01*
X127381Y83416D01*
X127370Y83437D01*
X127347Y83459D01*
X127302Y83515D01*
X126693Y84124D01*
X126693Y88520D01*
X127302Y89129D01*
X127355Y89203D01*
X127415Y89273D01*
X127427Y89303D01*
X127446Y89329D01*
X127473Y89416D01*
X127507Y89501D01*
X127511Y89542D01*
X127518Y89564D01*
X127517Y89596D01*
X127525Y89667D01*
X127525Y91291D01*
X129209Y92975D01*
X136375Y92975D01*
X136466Y92989D01*
X136556Y92997D01*
X136586Y93009D01*
X136618Y93014D01*
X136699Y93057D01*
X136783Y93093D01*
X136815Y93119D01*
X136836Y93130D01*
X136858Y93153D01*
X136914Y93198D01*
X142268Y98552D01*
X142321Y98626D01*
X142381Y98696D01*
X142393Y98726D01*
X142412Y98752D01*
X142439Y98839D01*
X142473Y98924D01*
X142477Y98965D01*
X142484Y98987D01*
X142483Y99019D01*
X142491Y99091D01*
X142491Y105864D01*
X142488Y105884D01*
X142490Y105903D01*
X142468Y106005D01*
X142452Y106107D01*
X142442Y106124D01*
X142438Y106144D01*
X142385Y106233D01*
X142336Y106324D01*
X142322Y106338D01*
X142312Y106355D01*
X142233Y106422D01*
X142158Y106494D01*
X142140Y106502D01*
X142125Y106515D01*
X142029Y106554D01*
X141935Y106597D01*
X141915Y106599D01*
X141897Y106607D01*
X141730Y106625D01*
X140564Y106625D01*
X140557Y106630D01*
X140538Y106636D01*
X140521Y106647D01*
X140421Y106673D01*
X140322Y106703D01*
X140302Y106702D01*
X140283Y106707D01*
X140180Y106699D01*
X140076Y106697D01*
X140057Y106690D01*
X140037Y106688D01*
X139942Y106648D01*
X139845Y106612D01*
X139829Y106600D01*
X139811Y106592D01*
X139680Y106487D01*
X139310Y106117D01*
X138731Y105782D01*
X138084Y105609D01*
X135596Y105609D01*
X135596Y110287D01*
X135593Y110306D01*
X135595Y110326D01*
X135573Y110428D01*
X135557Y110530D01*
X135547Y110547D01*
X135543Y110567D01*
X135490Y110656D01*
X135441Y110747D01*
X135427Y110761D01*
X135417Y110778D01*
X135338Y110845D01*
X135281Y110899D01*
X135295Y110907D01*
X135309Y110921D01*
X135326Y110931D01*
X135393Y111010D01*
X135465Y111085D01*
X135473Y111103D01*
X135486Y111118D01*
X135525Y111215D01*
X135568Y111308D01*
X135570Y111328D01*
X135578Y111346D01*
X135596Y111513D01*
X135596Y116191D01*
X138084Y116191D01*
X138731Y116018D01*
X139310Y115683D01*
X139680Y115313D01*
X139696Y115301D01*
X139709Y115286D01*
X139796Y115230D01*
X139880Y115169D01*
X139899Y115164D01*
X139916Y115153D01*
X140016Y115127D01*
X140115Y115097D01*
X140135Y115098D01*
X140154Y115093D01*
X140257Y115101D01*
X140361Y115103D01*
X140380Y115110D01*
X140400Y115112D01*
X140495Y115152D01*
X140556Y115175D01*
X141730Y115175D01*
X141750Y115178D01*
X141769Y115176D01*
X141871Y115198D01*
X141973Y115214D01*
X141990Y115224D01*
X142010Y115228D01*
X142099Y115281D01*
X142190Y115330D01*
X142204Y115344D01*
X142221Y115354D01*
X142288Y115433D01*
X142360Y115508D01*
X142368Y115526D01*
X142381Y115541D01*
X142420Y115637D01*
X142463Y115731D01*
X142465Y115751D01*
X142473Y115769D01*
X142491Y115936D01*
X142491Y126264D01*
X142488Y126284D01*
X142490Y126303D01*
X142468Y126405D01*
X142452Y126507D01*
X142442Y126524D01*
X142438Y126544D01*
X142385Y126633D01*
X142336Y126724D01*
X142322Y126738D01*
X142312Y126755D01*
X142233Y126822D01*
X142158Y126894D01*
X142140Y126902D01*
X142125Y126915D01*
X142029Y126954D01*
X141935Y126997D01*
X141915Y126999D01*
X141897Y127007D01*
X141730Y127025D01*
X140564Y127025D01*
X140557Y127030D01*
X140538Y127036D01*
X140521Y127047D01*
X140421Y127073D01*
X140322Y127103D01*
X140302Y127102D01*
X140283Y127107D01*
X140180Y127099D01*
X140076Y127097D01*
X140057Y127090D01*
X140037Y127088D01*
X139942Y127048D01*
X139845Y127012D01*
X139829Y127000D01*
X139811Y126992D01*
X139680Y126887D01*
X139310Y126517D01*
X138731Y126182D01*
X138084Y126009D01*
X135596Y126009D01*
X135596Y130687D01*
X135593Y130706D01*
X135595Y130726D01*
X135573Y130828D01*
X135557Y130930D01*
X135547Y130947D01*
X135543Y130967D01*
X135490Y131056D01*
X135441Y131147D01*
X135427Y131161D01*
X135417Y131178D01*
X135338Y131245D01*
X135263Y131316D01*
X135245Y131325D01*
X135230Y131338D01*
X135134Y131376D01*
X135040Y131420D01*
X135020Y131422D01*
X135002Y131430D01*
X134835Y131448D01*
X133609Y131448D01*
X133589Y131445D01*
X133569Y131447D01*
X133468Y131425D01*
X133366Y131408D01*
X133349Y131399D01*
X133329Y131395D01*
X133240Y131342D01*
X133149Y131293D01*
X133135Y131279D01*
X133118Y131269D01*
X133051Y131190D01*
X132979Y131115D01*
X132971Y131097D01*
X132958Y131082D01*
X132919Y130985D01*
X132876Y130892D01*
X132874Y130872D01*
X132866Y130854D01*
X132848Y130687D01*
X132848Y126009D01*
X130360Y126009D01*
X129713Y126182D01*
X129134Y126517D01*
X128661Y126990D01*
X128326Y127569D01*
X128153Y128216D01*
X128153Y128392D01*
X128142Y128463D01*
X128140Y128535D01*
X128122Y128584D01*
X128114Y128635D01*
X128080Y128698D01*
X128055Y128766D01*
X128023Y128806D01*
X127998Y128852D01*
X127947Y128902D01*
X127902Y128958D01*
X127858Y128986D01*
X127820Y129022D01*
X127755Y129052D01*
X127695Y129091D01*
X127644Y129103D01*
X127597Y129125D01*
X127526Y129133D01*
X127456Y129151D01*
X127404Y129147D01*
X127353Y129152D01*
X127282Y129137D01*
X127211Y129132D01*
X127163Y129111D01*
X127112Y129100D01*
X127051Y129063D01*
X126985Y129035D01*
X126929Y128990D01*
X126901Y128974D01*
X126886Y128956D01*
X126854Y128930D01*
X126407Y128484D01*
X122452Y128484D01*
X122362Y128469D01*
X122271Y128462D01*
X122241Y128450D01*
X122209Y128444D01*
X122128Y128402D01*
X122044Y128366D01*
X122012Y128340D01*
X121992Y128329D01*
X121969Y128306D01*
X121913Y128261D01*
X119719Y126067D01*
X119666Y125993D01*
X119606Y125923D01*
X119594Y125893D01*
X119575Y125867D01*
X119549Y125780D01*
X119514Y125695D01*
X119510Y125654D01*
X119503Y125632D01*
X119504Y125600D01*
X119496Y125528D01*
X119496Y117262D01*
X102798Y100564D01*
X102745Y100490D01*
X102685Y100420D01*
X102673Y100390D01*
X102654Y100364D01*
X102627Y100277D01*
X102593Y100192D01*
X102589Y100151D01*
X102582Y100129D01*
X102583Y100097D01*
X102575Y100025D01*
X102575Y99389D01*
X102582Y99345D01*
X102580Y99301D01*
X102602Y99224D01*
X102614Y99146D01*
X102635Y99107D01*
X102647Y99064D01*
X102692Y98999D01*
X102730Y98928D01*
X102762Y98898D01*
X102787Y98862D01*
X102850Y98814D01*
X102908Y98759D01*
X102948Y98740D01*
X102983Y98714D01*
X103118Y98662D01*
X103131Y98655D01*
X103135Y98655D01*
X103140Y98653D01*
X117241Y94890D01*
X117257Y94888D01*
X117271Y94882D01*
X117438Y94864D01*
X117985Y94864D01*
X118076Y94773D01*
X118169Y94706D01*
X118262Y94636D01*
X118271Y94633D01*
X118276Y94629D01*
X118297Y94623D01*
X118418Y94575D01*
X118543Y94542D01*
X118817Y94068D01*
X118827Y94056D01*
X118833Y94042D01*
X118938Y93911D01*
X119325Y93524D01*
X119325Y93395D01*
X119343Y93282D01*
X119360Y93168D01*
X119363Y93159D01*
X119364Y93153D01*
X119375Y93133D01*
X119427Y93014D01*
X119492Y92903D01*
X119350Y92374D01*
X119349Y92358D01*
X119343Y92344D01*
X119325Y92177D01*
X119325Y78667D01*
X119328Y78650D01*
X119326Y78634D01*
X119337Y78584D01*
X119338Y78525D01*
X119356Y78476D01*
X119364Y78425D01*
X119376Y78403D01*
X119378Y78393D01*
X119399Y78358D01*
X119423Y78294D01*
X119455Y78253D01*
X119480Y78207D01*
X119502Y78186D01*
X119504Y78182D01*
X119521Y78168D01*
X119532Y78158D01*
X119576Y78102D01*
X119620Y78074D01*
X119658Y78038D01*
X119691Y78023D01*
X119691Y78022D01*
X119692Y78022D01*
X119723Y78008D01*
X119783Y77969D01*
X119834Y77956D01*
X119881Y77934D01*
X119952Y77926D01*
X120022Y77909D01*
X120074Y77913D01*
X120125Y77907D01*
X120196Y77922D01*
G37*
%LPC*%
G36*
X101523Y19523D02*
X101523Y19523D01*
X101523Y28161D01*
X104209Y28161D01*
X110161Y22209D01*
X110161Y19523D01*
X101523Y19523D01*
G37*
%LPD*%
%LPC*%
G36*
X89839Y19523D02*
X89839Y19523D01*
X89839Y22209D01*
X95791Y28161D01*
X98477Y28161D01*
X98477Y19523D01*
X89839Y19523D01*
G37*
%LPD*%
%LPC*%
G36*
X61074Y60752D02*
X61074Y60752D01*
X61074Y65447D01*
X62785Y65447D01*
X63431Y65274D01*
X64010Y64939D01*
X64483Y64466D01*
X64818Y63887D01*
X64991Y63240D01*
X64991Y60752D01*
X61074Y60752D01*
G37*
%LPD*%
%LPC*%
G36*
X128153Y112274D02*
X128153Y112274D01*
X128153Y113984D01*
X128326Y114631D01*
X128661Y115210D01*
X129134Y115683D01*
X129713Y116018D01*
X130360Y116191D01*
X132848Y116191D01*
X132848Y112274D01*
X128153Y112274D01*
G37*
%LPD*%
%LPC*%
G36*
X99674Y80953D02*
X99674Y80953D01*
X99674Y85648D01*
X103591Y85648D01*
X103591Y83160D01*
X103418Y82513D01*
X103083Y81934D01*
X102610Y81461D01*
X102031Y81126D01*
X101384Y80953D01*
X99674Y80953D01*
G37*
%LPD*%
%LPC*%
G36*
X130360Y105609D02*
X130360Y105609D01*
X129713Y105782D01*
X129134Y106117D01*
X128661Y106590D01*
X128326Y107169D01*
X128153Y107816D01*
X128153Y109526D01*
X132848Y109526D01*
X132848Y105609D01*
X130360Y105609D01*
G37*
%LPD*%
%LPC*%
G36*
X95216Y80953D02*
X95216Y80953D01*
X94569Y81126D01*
X93990Y81461D01*
X93517Y81934D01*
X93182Y82513D01*
X93009Y83160D01*
X93009Y85648D01*
X96926Y85648D01*
X96926Y80953D01*
X95216Y80953D01*
G37*
%LPD*%
D10*
X59700Y59378D03*
X59700Y48822D03*
D11*
X144778Y110900D03*
X134222Y110900D03*
D10*
X158700Y61178D03*
X158700Y50622D03*
X98300Y97578D03*
X98300Y87022D03*
D11*
X144778Y131300D03*
X134222Y131300D03*
D12*
X146100Y90100D02*
X152400Y90100D01*
X152400Y83100D01*
X146100Y83100D01*
X146100Y90100D01*
X146100Y85665D02*
X152400Y85665D01*
X152400Y88230D02*
X146100Y88230D01*
X136700Y90100D02*
X130400Y90100D01*
X136700Y90100D02*
X136700Y83100D01*
X130400Y83100D01*
X130400Y90100D01*
X130400Y85665D02*
X136700Y85665D01*
X136700Y88230D02*
X130400Y88230D01*
D13*
X59500Y119639D03*
X59500Y130561D03*
X58700Y95561D03*
X58700Y84639D03*
X140300Y60961D03*
X140300Y50039D03*
D14*
X107125Y132200D03*
X107125Y127200D03*
X107125Y122200D03*
X107125Y117200D03*
X88075Y117200D03*
X88075Y122200D03*
X88075Y127200D03*
X88075Y132200D03*
D15*
X111038Y69900D03*
X111038Y60400D03*
X111038Y50900D03*
X87162Y50900D03*
X87162Y60400D03*
X87162Y69900D03*
D16*
X182000Y105000D03*
X100000Y182000D03*
X18000Y140000D03*
X18000Y70000D03*
X100000Y18000D03*
D17*
X107125Y127200D02*
X106823Y127502D01*
X94000Y127502D01*
X94000Y104000D01*
D18*
X81188Y99404D03*
D17*
X91336Y101336D02*
X94000Y104000D01*
X91336Y101336D02*
X85547Y101336D01*
X83615Y99404D02*
X81188Y99404D01*
X83615Y99404D02*
X85547Y101336D01*
D18*
X100455Y122200D03*
D17*
X107125Y122200D01*
X61139Y132200D02*
X61061Y132198D01*
X60983Y132193D01*
X60906Y132183D01*
X60829Y132170D01*
X60753Y132154D01*
X60677Y132134D01*
X60603Y132110D01*
X60530Y132083D01*
X60458Y132052D01*
X60388Y132018D01*
X60320Y131980D01*
X60253Y131940D01*
X60188Y131896D01*
X60126Y131849D01*
X60066Y131800D01*
X60008Y131747D01*
X59953Y131692D01*
X59900Y131634D01*
X59851Y131574D01*
X59804Y131512D01*
X59760Y131447D01*
X59720Y131381D01*
X59682Y131312D01*
X59648Y131242D01*
X59617Y131170D01*
X59590Y131097D01*
X59566Y131023D01*
X59546Y130947D01*
X59530Y130871D01*
X59517Y130794D01*
X59507Y130717D01*
X59502Y130639D01*
X59500Y130561D01*
X61139Y132200D02*
X88075Y132200D01*
X88075Y133522D01*
D18*
X115038Y71900D03*
D17*
X115038Y69862D01*
X120000Y64900D01*
X120000Y55000D01*
X115000Y50000D01*
X111938Y50000D01*
X111038Y50900D01*
X58700Y84639D02*
X53000Y78939D01*
X56319Y51334D02*
X57188Y51334D01*
X59700Y48822D01*
X56319Y51334D02*
X53000Y54653D01*
X53000Y78939D01*
X95209Y132200D02*
X98009Y135000D01*
X95209Y132200D02*
X88075Y132200D01*
D18*
X98009Y135000D03*
X124209Y133791D03*
D17*
X117209Y126791D01*
X117209Y118209D01*
X117038Y92577D02*
X98300Y97578D01*
X98300Y99300D01*
X117209Y118209D01*
X117038Y73900D02*
X115038Y71900D01*
X117038Y73900D02*
X117038Y92577D01*
X61339Y82000D02*
X58700Y84639D01*
X76639Y84639D01*
X89578Y97578D02*
X98300Y97578D01*
X89578Y97578D02*
X76639Y84639D01*
D18*
X134000Y105000D03*
D17*
X134000Y110678D01*
X134222Y110900D01*
X144778Y97828D02*
X133550Y86600D01*
X144778Y97828D02*
X144778Y110900D01*
X144778Y130000D01*
X144778Y131300D01*
X148870Y93736D02*
X153906Y93736D01*
X148870Y93736D02*
X144778Y97828D01*
X161212Y53134D02*
X158700Y50622D01*
X161212Y53134D02*
X162081Y53134D01*
X163736Y54789D01*
X163736Y83906D01*
X153906Y93736D01*
X110800Y132200D02*
X107125Y132200D01*
X110800Y132200D02*
X114000Y129000D01*
X114000Y119000D01*
X112200Y117200D01*
X107125Y117200D01*
X107125Y132200D02*
X109037Y132200D01*
X142266Y133812D02*
X142266Y134681D01*
X116696Y139859D02*
X109037Y132200D01*
X116696Y139859D02*
X137089Y139859D01*
X142266Y134681D01*
X142266Y133812D02*
X144778Y131300D01*
X144778Y130000D02*
X144000Y130000D01*
D18*
X132000Y86322D03*
D17*
X133272Y86322D02*
X133550Y86600D01*
X133272Y86322D02*
X132000Y86322D01*
X83318Y120502D02*
X82455Y119639D01*
X83318Y120502D02*
X86377Y120502D01*
X88075Y122200D01*
X82455Y119639D02*
X59500Y119639D01*
D18*
X46000Y112000D03*
D17*
X53639Y119639D01*
X59500Y119639D01*
X58700Y95561D02*
X70561Y95561D01*
X75000Y100000D01*
X75000Y106068D01*
D18*
X75000Y106068D03*
X75000Y125707D03*
D17*
X76493Y127200D01*
X88075Y127200D01*
X149250Y86600D02*
X149250Y69911D01*
X140300Y60961D01*
X131261Y70000D01*
X130000Y70000D01*
X125000Y75000D01*
D18*
X125000Y75000D03*
X97108Y70000D03*
D17*
X87262Y70000D01*
X87162Y69900D01*
X140300Y50039D02*
X147561Y50039D01*
X156188Y58666D02*
X158700Y61178D01*
X155319Y58666D02*
X154426Y57773D01*
X154426Y56904D01*
X147561Y50039D01*
X155319Y58666D02*
X156188Y58666D01*
X93062Y45000D02*
X87162Y50900D01*
X135261Y45000D02*
X140300Y50039D01*
X135261Y45000D02*
X93062Y45000D01*
M02*
