G04 EAGLE Gerber RS-274X export*
G75*
%MOMM*%
%FSLAX34Y34*%
%LPD*%
%INSilkscreen Top*%
%IPPOS*%
%AMOC8*
5,1,8,0,0,1.08239X$1,22.5*%
G01*
%ADD10C,0.152400*%
%ADD11C,0.076200*%
%ADD12C,0.127000*%


D10*
X139300Y80866D02*
X139354Y80868D01*
X139408Y80874D01*
X139462Y80883D01*
X139515Y80897D01*
X139566Y80914D01*
X139617Y80935D01*
X139665Y80959D01*
X139712Y80987D01*
X139757Y81018D01*
X139799Y81052D01*
X139839Y81089D01*
X139876Y81129D01*
X139910Y81171D01*
X139941Y81216D01*
X139969Y81263D01*
X139993Y81311D01*
X140014Y81362D01*
X140031Y81413D01*
X140045Y81466D01*
X140054Y81520D01*
X140060Y81574D01*
X140062Y81628D01*
X140060Y81682D01*
X140054Y81736D01*
X140045Y81790D01*
X140031Y81843D01*
X140014Y81894D01*
X139993Y81945D01*
X139969Y81993D01*
X139941Y82040D01*
X139910Y82085D01*
X139876Y82127D01*
X139839Y82167D01*
X139799Y82204D01*
X139757Y82238D01*
X139712Y82269D01*
X139665Y82297D01*
X139617Y82321D01*
X139566Y82342D01*
X139515Y82359D01*
X139462Y82373D01*
X139408Y82382D01*
X139354Y82388D01*
X139300Y82390D01*
X139246Y82388D01*
X139192Y82382D01*
X139138Y82373D01*
X139085Y82359D01*
X139034Y82342D01*
X138983Y82321D01*
X138935Y82297D01*
X138888Y82269D01*
X138843Y82238D01*
X138801Y82204D01*
X138761Y82167D01*
X138724Y82127D01*
X138690Y82085D01*
X138659Y82040D01*
X138631Y81993D01*
X138607Y81945D01*
X138586Y81894D01*
X138569Y81843D01*
X138555Y81790D01*
X138546Y81736D01*
X138540Y81682D01*
X138538Y81628D01*
X138540Y81574D01*
X138546Y81520D01*
X138555Y81466D01*
X138569Y81413D01*
X138586Y81362D01*
X138607Y81311D01*
X138631Y81263D01*
X138659Y81216D01*
X138690Y81171D01*
X138724Y81129D01*
X138761Y81089D01*
X138801Y81052D01*
X138843Y81018D01*
X138888Y80987D01*
X138935Y80959D01*
X138983Y80935D01*
X139034Y80914D01*
X139085Y80897D01*
X139138Y80883D01*
X139192Y80874D01*
X139246Y80868D01*
X139300Y80866D01*
D11*
X157969Y86868D02*
X157969Y89521D01*
X157969Y86868D02*
X157967Y86766D01*
X157961Y86665D01*
X157951Y86564D01*
X157938Y86463D01*
X157920Y86363D01*
X157899Y86264D01*
X157874Y86165D01*
X157845Y86068D01*
X157813Y85971D01*
X157777Y85876D01*
X157737Y85783D01*
X157694Y85691D01*
X157647Y85601D01*
X157596Y85512D01*
X157543Y85426D01*
X157486Y85342D01*
X157426Y85260D01*
X157363Y85180D01*
X157297Y85103D01*
X157228Y85028D01*
X157156Y84956D01*
X157081Y84887D01*
X157004Y84821D01*
X156924Y84758D01*
X156842Y84698D01*
X156758Y84641D01*
X156672Y84588D01*
X156583Y84537D01*
X156493Y84490D01*
X156401Y84447D01*
X156308Y84407D01*
X156213Y84371D01*
X156116Y84339D01*
X156019Y84310D01*
X155920Y84285D01*
X155821Y84264D01*
X155721Y84246D01*
X155620Y84233D01*
X155519Y84223D01*
X155418Y84217D01*
X155316Y84215D01*
X148684Y84215D01*
X148582Y84217D01*
X148481Y84223D01*
X148380Y84233D01*
X148279Y84246D01*
X148179Y84264D01*
X148080Y84285D01*
X147981Y84310D01*
X147884Y84339D01*
X147787Y84371D01*
X147692Y84407D01*
X147599Y84447D01*
X147507Y84490D01*
X147417Y84537D01*
X147328Y84588D01*
X147242Y84641D01*
X147158Y84698D01*
X147076Y84758D01*
X146996Y84821D01*
X146919Y84887D01*
X146844Y84956D01*
X146772Y85028D01*
X146703Y85103D01*
X146637Y85180D01*
X146574Y85260D01*
X146514Y85342D01*
X146457Y85426D01*
X146404Y85512D01*
X146353Y85601D01*
X146306Y85691D01*
X146263Y85783D01*
X146223Y85876D01*
X146187Y85971D01*
X146155Y86067D01*
X146126Y86165D01*
X146101Y86263D01*
X146080Y86363D01*
X146062Y86463D01*
X146049Y86564D01*
X146039Y86665D01*
X146033Y86766D01*
X146031Y86868D01*
X146031Y89521D01*
X148684Y93769D02*
X146031Y97085D01*
X157969Y97085D01*
X157969Y93769D02*
X157969Y100401D01*
D10*
X139300Y49290D02*
X139354Y49288D01*
X139408Y49282D01*
X139462Y49273D01*
X139515Y49259D01*
X139566Y49242D01*
X139617Y49221D01*
X139665Y49197D01*
X139712Y49169D01*
X139757Y49138D01*
X139799Y49104D01*
X139839Y49067D01*
X139876Y49027D01*
X139910Y48985D01*
X139941Y48940D01*
X139969Y48893D01*
X139993Y48845D01*
X140014Y48794D01*
X140031Y48743D01*
X140045Y48690D01*
X140054Y48636D01*
X140060Y48582D01*
X140062Y48528D01*
X140060Y48474D01*
X140054Y48420D01*
X140045Y48366D01*
X140031Y48313D01*
X140014Y48262D01*
X139993Y48211D01*
X139969Y48163D01*
X139941Y48116D01*
X139910Y48071D01*
X139876Y48029D01*
X139839Y47989D01*
X139799Y47952D01*
X139757Y47918D01*
X139712Y47887D01*
X139665Y47859D01*
X139617Y47835D01*
X139566Y47814D01*
X139515Y47797D01*
X139462Y47783D01*
X139408Y47774D01*
X139354Y47768D01*
X139300Y47766D01*
X139246Y47768D01*
X139192Y47774D01*
X139138Y47783D01*
X139085Y47797D01*
X139034Y47814D01*
X138983Y47835D01*
X138935Y47859D01*
X138888Y47887D01*
X138843Y47918D01*
X138801Y47952D01*
X138761Y47989D01*
X138724Y48029D01*
X138690Y48071D01*
X138659Y48116D01*
X138631Y48163D01*
X138607Y48211D01*
X138586Y48262D01*
X138569Y48313D01*
X138555Y48366D01*
X138546Y48420D01*
X138540Y48474D01*
X138538Y48528D01*
X138540Y48582D01*
X138546Y48636D01*
X138555Y48690D01*
X138569Y48743D01*
X138586Y48794D01*
X138607Y48845D01*
X138631Y48893D01*
X138659Y48940D01*
X138690Y48985D01*
X138724Y49027D01*
X138761Y49067D01*
X138801Y49104D01*
X138843Y49138D01*
X138888Y49169D01*
X138935Y49197D01*
X138983Y49221D01*
X139034Y49242D01*
X139085Y49259D01*
X139138Y49273D01*
X139192Y49282D01*
X139246Y49288D01*
X139300Y49290D01*
D11*
X157969Y53768D02*
X157969Y56421D01*
X157969Y53768D02*
X157967Y53666D01*
X157961Y53565D01*
X157951Y53464D01*
X157938Y53363D01*
X157920Y53263D01*
X157899Y53164D01*
X157874Y53065D01*
X157845Y52968D01*
X157813Y52871D01*
X157777Y52776D01*
X157737Y52683D01*
X157694Y52591D01*
X157647Y52501D01*
X157596Y52412D01*
X157543Y52326D01*
X157486Y52242D01*
X157426Y52160D01*
X157363Y52080D01*
X157297Y52003D01*
X157228Y51928D01*
X157156Y51856D01*
X157081Y51787D01*
X157004Y51721D01*
X156924Y51658D01*
X156842Y51598D01*
X156758Y51541D01*
X156672Y51488D01*
X156583Y51437D01*
X156493Y51390D01*
X156401Y51347D01*
X156308Y51307D01*
X156213Y51271D01*
X156116Y51239D01*
X156019Y51210D01*
X155920Y51185D01*
X155821Y51164D01*
X155721Y51146D01*
X155620Y51133D01*
X155519Y51123D01*
X155418Y51117D01*
X155316Y51115D01*
X148684Y51115D01*
X148582Y51117D01*
X148481Y51123D01*
X148380Y51133D01*
X148279Y51146D01*
X148179Y51164D01*
X148080Y51185D01*
X147981Y51210D01*
X147884Y51239D01*
X147787Y51271D01*
X147692Y51307D01*
X147599Y51347D01*
X147507Y51390D01*
X147417Y51437D01*
X147328Y51488D01*
X147242Y51541D01*
X147158Y51598D01*
X147076Y51658D01*
X146996Y51721D01*
X146919Y51787D01*
X146844Y51856D01*
X146772Y51928D01*
X146703Y52003D01*
X146637Y52080D01*
X146574Y52160D01*
X146514Y52242D01*
X146457Y52326D01*
X146404Y52412D01*
X146353Y52501D01*
X146306Y52591D01*
X146263Y52683D01*
X146223Y52776D01*
X146187Y52871D01*
X146155Y52967D01*
X146126Y53065D01*
X146101Y53163D01*
X146080Y53263D01*
X146062Y53363D01*
X146049Y53464D01*
X146039Y53565D01*
X146033Y53666D01*
X146031Y53768D01*
X146031Y56421D01*
X146031Y64317D02*
X146033Y64424D01*
X146039Y64530D01*
X146048Y64636D01*
X146061Y64742D01*
X146078Y64847D01*
X146099Y64952D01*
X146124Y65055D01*
X146152Y65158D01*
X146184Y65260D01*
X146219Y65360D01*
X146258Y65459D01*
X146301Y65557D01*
X146347Y65653D01*
X146396Y65748D01*
X146449Y65840D01*
X146505Y65931D01*
X146564Y66019D01*
X146626Y66106D01*
X146692Y66190D01*
X146760Y66272D01*
X146831Y66351D01*
X146905Y66428D01*
X146982Y66502D01*
X147061Y66573D01*
X147143Y66641D01*
X147227Y66707D01*
X147314Y66769D01*
X147402Y66828D01*
X147493Y66884D01*
X147585Y66937D01*
X147680Y66986D01*
X147776Y67032D01*
X147874Y67075D01*
X147973Y67114D01*
X148073Y67149D01*
X148175Y67181D01*
X148278Y67209D01*
X148381Y67234D01*
X148486Y67255D01*
X148591Y67272D01*
X148697Y67285D01*
X148803Y67294D01*
X148909Y67300D01*
X149016Y67302D01*
X146031Y64317D02*
X146033Y64196D01*
X146039Y64076D01*
X146048Y63956D01*
X146061Y63836D01*
X146078Y63717D01*
X146099Y63598D01*
X146123Y63480D01*
X146152Y63363D01*
X146183Y63247D01*
X146219Y63131D01*
X146258Y63017D01*
X146301Y62905D01*
X146347Y62793D01*
X146396Y62683D01*
X146450Y62575D01*
X146506Y62469D01*
X146566Y62364D01*
X146629Y62261D01*
X146695Y62161D01*
X146764Y62062D01*
X146837Y61966D01*
X146912Y61872D01*
X146990Y61780D01*
X147072Y61691D01*
X147156Y61604D01*
X147242Y61520D01*
X147331Y61439D01*
X147423Y61361D01*
X147517Y61286D01*
X147614Y61214D01*
X147712Y61144D01*
X147813Y61078D01*
X147916Y61015D01*
X148021Y60956D01*
X148127Y60899D01*
X148236Y60846D01*
X148345Y60797D01*
X148457Y60751D01*
X148570Y60708D01*
X148684Y60670D01*
X151338Y66307D02*
X151258Y66387D01*
X151176Y66465D01*
X151092Y66539D01*
X151004Y66611D01*
X150915Y66679D01*
X150822Y66745D01*
X150728Y66807D01*
X150632Y66865D01*
X150533Y66920D01*
X150433Y66972D01*
X150331Y67020D01*
X150227Y67065D01*
X150122Y67105D01*
X150015Y67142D01*
X149907Y67176D01*
X149798Y67205D01*
X149688Y67231D01*
X149577Y67252D01*
X149466Y67270D01*
X149354Y67284D01*
X149242Y67294D01*
X149129Y67300D01*
X149016Y67302D01*
X151337Y66306D02*
X157969Y60669D01*
X157969Y67301D01*
X56369Y61247D02*
X44431Y61247D01*
X44431Y64563D01*
X44433Y64677D01*
X44439Y64792D01*
X44449Y64906D01*
X44463Y65019D01*
X44480Y65133D01*
X44502Y65245D01*
X44527Y65357D01*
X44557Y65467D01*
X44590Y65577D01*
X44627Y65685D01*
X44667Y65792D01*
X44712Y65898D01*
X44759Y66002D01*
X44811Y66104D01*
X44866Y66204D01*
X44924Y66303D01*
X44986Y66399D01*
X45051Y66494D01*
X45119Y66585D01*
X45191Y66675D01*
X45265Y66762D01*
X45342Y66846D01*
X45423Y66928D01*
X45506Y67007D01*
X45591Y67083D01*
X45680Y67156D01*
X45770Y67225D01*
X45863Y67292D01*
X45959Y67355D01*
X46056Y67415D01*
X46156Y67472D01*
X46257Y67525D01*
X46360Y67575D01*
X46465Y67621D01*
X46571Y67664D01*
X46679Y67702D01*
X46788Y67737D01*
X46898Y67768D01*
X47009Y67796D01*
X47121Y67819D01*
X47234Y67839D01*
X47347Y67855D01*
X47461Y67867D01*
X47575Y67875D01*
X47690Y67879D01*
X47804Y67879D01*
X47919Y67875D01*
X48033Y67867D01*
X48147Y67855D01*
X48260Y67839D01*
X48373Y67819D01*
X48485Y67796D01*
X48596Y67768D01*
X48706Y67737D01*
X48815Y67702D01*
X48923Y67664D01*
X49029Y67621D01*
X49134Y67575D01*
X49237Y67525D01*
X49338Y67472D01*
X49438Y67415D01*
X49535Y67355D01*
X49631Y67292D01*
X49724Y67225D01*
X49814Y67156D01*
X49903Y67083D01*
X49988Y67007D01*
X50071Y66928D01*
X50152Y66846D01*
X50229Y66762D01*
X50303Y66675D01*
X50375Y66585D01*
X50443Y66494D01*
X50508Y66399D01*
X50570Y66303D01*
X50628Y66204D01*
X50683Y66104D01*
X50735Y66002D01*
X50782Y65898D01*
X50827Y65792D01*
X50867Y65685D01*
X50904Y65577D01*
X50937Y65467D01*
X50967Y65357D01*
X50992Y65245D01*
X51014Y65133D01*
X51031Y65019D01*
X51045Y64906D01*
X51055Y64792D01*
X51061Y64677D01*
X51063Y64563D01*
X51063Y61247D01*
X51063Y65226D02*
X56369Y67879D01*
X47084Y72613D02*
X44431Y75929D01*
X56369Y75929D01*
X56369Y72613D02*
X56369Y79245D01*
X56369Y92315D02*
X44431Y92315D01*
X44431Y95631D01*
X44433Y95745D01*
X44439Y95860D01*
X44449Y95974D01*
X44463Y96087D01*
X44480Y96201D01*
X44502Y96313D01*
X44527Y96425D01*
X44557Y96535D01*
X44590Y96645D01*
X44627Y96753D01*
X44667Y96860D01*
X44712Y96966D01*
X44759Y97070D01*
X44811Y97172D01*
X44866Y97272D01*
X44924Y97371D01*
X44986Y97467D01*
X45051Y97562D01*
X45119Y97653D01*
X45191Y97743D01*
X45265Y97830D01*
X45342Y97914D01*
X45423Y97996D01*
X45506Y98075D01*
X45591Y98151D01*
X45680Y98224D01*
X45770Y98293D01*
X45863Y98360D01*
X45959Y98423D01*
X46056Y98483D01*
X46156Y98540D01*
X46257Y98593D01*
X46360Y98643D01*
X46465Y98689D01*
X46571Y98732D01*
X46679Y98770D01*
X46788Y98805D01*
X46898Y98836D01*
X47009Y98864D01*
X47121Y98887D01*
X47234Y98907D01*
X47347Y98923D01*
X47461Y98935D01*
X47575Y98943D01*
X47690Y98947D01*
X47804Y98947D01*
X47919Y98943D01*
X48033Y98935D01*
X48147Y98923D01*
X48260Y98907D01*
X48373Y98887D01*
X48485Y98864D01*
X48596Y98836D01*
X48706Y98805D01*
X48815Y98770D01*
X48923Y98732D01*
X49029Y98689D01*
X49134Y98643D01*
X49237Y98593D01*
X49338Y98540D01*
X49438Y98483D01*
X49535Y98423D01*
X49631Y98360D01*
X49724Y98293D01*
X49814Y98224D01*
X49903Y98151D01*
X49988Y98075D01*
X50071Y97996D01*
X50152Y97914D01*
X50229Y97830D01*
X50303Y97743D01*
X50375Y97653D01*
X50443Y97562D01*
X50508Y97467D01*
X50570Y97371D01*
X50628Y97272D01*
X50683Y97172D01*
X50735Y97070D01*
X50782Y96966D01*
X50827Y96860D01*
X50867Y96753D01*
X50904Y96645D01*
X50937Y96535D01*
X50967Y96425D01*
X50992Y96313D01*
X51014Y96201D01*
X51031Y96087D01*
X51045Y95974D01*
X51055Y95860D01*
X51061Y95745D01*
X51063Y95631D01*
X51063Y92315D01*
X51063Y96294D02*
X56369Y98947D01*
X47416Y110313D02*
X47309Y110311D01*
X47203Y110305D01*
X47097Y110296D01*
X46991Y110283D01*
X46886Y110266D01*
X46781Y110245D01*
X46678Y110220D01*
X46575Y110192D01*
X46473Y110160D01*
X46373Y110125D01*
X46274Y110086D01*
X46176Y110043D01*
X46080Y109997D01*
X45985Y109948D01*
X45893Y109895D01*
X45802Y109839D01*
X45714Y109780D01*
X45627Y109718D01*
X45543Y109652D01*
X45461Y109584D01*
X45382Y109513D01*
X45305Y109439D01*
X45231Y109362D01*
X45160Y109283D01*
X45092Y109201D01*
X45026Y109117D01*
X44964Y109030D01*
X44905Y108942D01*
X44849Y108851D01*
X44796Y108759D01*
X44747Y108664D01*
X44701Y108568D01*
X44658Y108470D01*
X44619Y108371D01*
X44584Y108271D01*
X44552Y108169D01*
X44524Y108066D01*
X44499Y107963D01*
X44478Y107858D01*
X44461Y107753D01*
X44448Y107647D01*
X44439Y107541D01*
X44433Y107435D01*
X44431Y107328D01*
X44433Y107207D01*
X44439Y107087D01*
X44448Y106967D01*
X44461Y106847D01*
X44478Y106728D01*
X44499Y106609D01*
X44523Y106491D01*
X44552Y106374D01*
X44583Y106258D01*
X44619Y106142D01*
X44658Y106028D01*
X44701Y105916D01*
X44747Y105804D01*
X44796Y105694D01*
X44850Y105586D01*
X44906Y105480D01*
X44966Y105375D01*
X45029Y105272D01*
X45095Y105172D01*
X45164Y105073D01*
X45237Y104977D01*
X45312Y104883D01*
X45390Y104791D01*
X45472Y104702D01*
X45556Y104615D01*
X45642Y104531D01*
X45731Y104450D01*
X45823Y104372D01*
X45917Y104297D01*
X46014Y104225D01*
X46112Y104155D01*
X46213Y104089D01*
X46316Y104026D01*
X46421Y103967D01*
X46527Y103910D01*
X46636Y103857D01*
X46745Y103808D01*
X46857Y103762D01*
X46970Y103719D01*
X47084Y103681D01*
X49738Y109318D02*
X49658Y109398D01*
X49576Y109476D01*
X49492Y109550D01*
X49404Y109622D01*
X49315Y109690D01*
X49222Y109756D01*
X49128Y109818D01*
X49032Y109876D01*
X48933Y109931D01*
X48833Y109983D01*
X48731Y110031D01*
X48627Y110076D01*
X48522Y110116D01*
X48415Y110153D01*
X48307Y110187D01*
X48198Y110216D01*
X48088Y110242D01*
X47977Y110263D01*
X47866Y110281D01*
X47754Y110295D01*
X47642Y110305D01*
X47529Y110311D01*
X47416Y110313D01*
X49737Y109318D02*
X56369Y103681D01*
X56369Y110313D01*
X146031Y119347D02*
X157969Y119347D01*
X146031Y119347D02*
X146031Y122663D01*
X146033Y122777D01*
X146039Y122892D01*
X146049Y123006D01*
X146063Y123119D01*
X146080Y123233D01*
X146102Y123345D01*
X146127Y123457D01*
X146157Y123567D01*
X146190Y123677D01*
X146227Y123785D01*
X146267Y123892D01*
X146312Y123998D01*
X146359Y124102D01*
X146411Y124204D01*
X146466Y124304D01*
X146524Y124403D01*
X146586Y124499D01*
X146651Y124594D01*
X146719Y124685D01*
X146791Y124775D01*
X146865Y124862D01*
X146942Y124946D01*
X147023Y125028D01*
X147106Y125107D01*
X147191Y125183D01*
X147280Y125256D01*
X147370Y125325D01*
X147463Y125392D01*
X147559Y125455D01*
X147656Y125515D01*
X147756Y125572D01*
X147857Y125625D01*
X147960Y125675D01*
X148065Y125721D01*
X148171Y125764D01*
X148279Y125802D01*
X148388Y125837D01*
X148498Y125868D01*
X148609Y125896D01*
X148721Y125919D01*
X148834Y125939D01*
X148947Y125955D01*
X149061Y125967D01*
X149175Y125975D01*
X149290Y125979D01*
X149404Y125979D01*
X149519Y125975D01*
X149633Y125967D01*
X149747Y125955D01*
X149860Y125939D01*
X149973Y125919D01*
X150085Y125896D01*
X150196Y125868D01*
X150306Y125837D01*
X150415Y125802D01*
X150523Y125764D01*
X150629Y125721D01*
X150734Y125675D01*
X150837Y125625D01*
X150938Y125572D01*
X151038Y125515D01*
X151135Y125455D01*
X151231Y125392D01*
X151324Y125325D01*
X151414Y125256D01*
X151503Y125183D01*
X151588Y125107D01*
X151671Y125028D01*
X151752Y124946D01*
X151829Y124862D01*
X151903Y124775D01*
X151975Y124685D01*
X152043Y124594D01*
X152108Y124499D01*
X152170Y124403D01*
X152228Y124304D01*
X152283Y124204D01*
X152335Y124102D01*
X152382Y123998D01*
X152427Y123892D01*
X152467Y123785D01*
X152504Y123677D01*
X152537Y123567D01*
X152567Y123457D01*
X152592Y123345D01*
X152614Y123233D01*
X152631Y123119D01*
X152645Y123006D01*
X152655Y122892D01*
X152661Y122777D01*
X152663Y122663D01*
X152663Y119347D01*
X152663Y123326D02*
X157969Y125979D01*
X157969Y130713D02*
X157969Y134029D01*
X157967Y134143D01*
X157961Y134258D01*
X157951Y134372D01*
X157937Y134485D01*
X157920Y134599D01*
X157898Y134711D01*
X157873Y134823D01*
X157843Y134933D01*
X157810Y135043D01*
X157773Y135151D01*
X157733Y135258D01*
X157688Y135364D01*
X157641Y135468D01*
X157589Y135570D01*
X157534Y135670D01*
X157476Y135769D01*
X157414Y135865D01*
X157349Y135960D01*
X157281Y136051D01*
X157209Y136141D01*
X157135Y136228D01*
X157058Y136312D01*
X156977Y136394D01*
X156894Y136473D01*
X156809Y136549D01*
X156720Y136622D01*
X156630Y136691D01*
X156537Y136758D01*
X156441Y136821D01*
X156344Y136881D01*
X156244Y136938D01*
X156143Y136991D01*
X156040Y137041D01*
X155935Y137087D01*
X155829Y137130D01*
X155721Y137168D01*
X155612Y137203D01*
X155502Y137234D01*
X155391Y137262D01*
X155279Y137285D01*
X155166Y137305D01*
X155053Y137321D01*
X154939Y137333D01*
X154825Y137341D01*
X154710Y137345D01*
X154596Y137345D01*
X154481Y137341D01*
X154367Y137333D01*
X154253Y137321D01*
X154140Y137305D01*
X154027Y137285D01*
X153915Y137262D01*
X153804Y137234D01*
X153694Y137203D01*
X153585Y137168D01*
X153477Y137130D01*
X153371Y137087D01*
X153266Y137041D01*
X153163Y136991D01*
X153062Y136938D01*
X152962Y136881D01*
X152865Y136821D01*
X152769Y136758D01*
X152676Y136691D01*
X152586Y136622D01*
X152497Y136549D01*
X152412Y136473D01*
X152329Y136394D01*
X152248Y136312D01*
X152171Y136228D01*
X152097Y136141D01*
X152025Y136051D01*
X151957Y135960D01*
X151892Y135865D01*
X151830Y135769D01*
X151772Y135670D01*
X151717Y135570D01*
X151665Y135468D01*
X151618Y135364D01*
X151573Y135258D01*
X151533Y135151D01*
X151496Y135043D01*
X151463Y134933D01*
X151433Y134823D01*
X151408Y134711D01*
X151386Y134599D01*
X151369Y134485D01*
X151355Y134372D01*
X151345Y134258D01*
X151339Y134143D01*
X151337Y134029D01*
X146031Y134692D02*
X146031Y130713D01*
X146031Y134692D02*
X146033Y134794D01*
X146039Y134895D01*
X146049Y134996D01*
X146062Y135097D01*
X146080Y135197D01*
X146101Y135296D01*
X146126Y135395D01*
X146155Y135492D01*
X146187Y135589D01*
X146223Y135684D01*
X146263Y135777D01*
X146306Y135869D01*
X146353Y135959D01*
X146404Y136048D01*
X146457Y136134D01*
X146514Y136218D01*
X146574Y136300D01*
X146637Y136380D01*
X146703Y136457D01*
X146772Y136532D01*
X146844Y136604D01*
X146919Y136673D01*
X146996Y136739D01*
X147076Y136802D01*
X147158Y136862D01*
X147242Y136919D01*
X147328Y136972D01*
X147417Y137023D01*
X147507Y137070D01*
X147599Y137113D01*
X147692Y137153D01*
X147787Y137189D01*
X147884Y137221D01*
X147981Y137250D01*
X148080Y137275D01*
X148179Y137296D01*
X148279Y137314D01*
X148380Y137327D01*
X148481Y137337D01*
X148582Y137343D01*
X148684Y137345D01*
X148786Y137343D01*
X148887Y137337D01*
X148988Y137327D01*
X149089Y137314D01*
X149189Y137296D01*
X149288Y137275D01*
X149387Y137250D01*
X149484Y137221D01*
X149581Y137189D01*
X149676Y137153D01*
X149769Y137113D01*
X149861Y137070D01*
X149951Y137023D01*
X150040Y136972D01*
X150126Y136919D01*
X150210Y136862D01*
X150292Y136802D01*
X150372Y136739D01*
X150449Y136673D01*
X150524Y136604D01*
X150596Y136532D01*
X150665Y136457D01*
X150731Y136380D01*
X150794Y136300D01*
X150854Y136218D01*
X150911Y136134D01*
X150964Y136048D01*
X151015Y135959D01*
X151062Y135869D01*
X151105Y135777D01*
X151145Y135684D01*
X151181Y135589D01*
X151213Y135492D01*
X151242Y135395D01*
X151267Y135296D01*
X151288Y135197D01*
X151306Y135097D01*
X151319Y134996D01*
X151329Y134895D01*
X151335Y134794D01*
X151337Y134692D01*
X151337Y132039D01*
D10*
X116948Y54182D02*
X85452Y54182D01*
X85452Y113618D02*
X116948Y113618D01*
X79356Y107776D02*
X79354Y107722D01*
X79348Y107668D01*
X79339Y107614D01*
X79325Y107561D01*
X79308Y107510D01*
X79287Y107459D01*
X79263Y107411D01*
X79235Y107364D01*
X79204Y107319D01*
X79170Y107277D01*
X79133Y107237D01*
X79093Y107200D01*
X79051Y107166D01*
X79006Y107135D01*
X78959Y107107D01*
X78911Y107083D01*
X78860Y107062D01*
X78809Y107045D01*
X78756Y107031D01*
X78702Y107022D01*
X78648Y107016D01*
X78594Y107014D01*
X78540Y107016D01*
X78486Y107022D01*
X78432Y107031D01*
X78379Y107045D01*
X78328Y107062D01*
X78277Y107083D01*
X78229Y107107D01*
X78182Y107135D01*
X78137Y107166D01*
X78095Y107200D01*
X78055Y107237D01*
X78018Y107277D01*
X77984Y107319D01*
X77953Y107364D01*
X77925Y107411D01*
X77901Y107459D01*
X77880Y107510D01*
X77863Y107561D01*
X77849Y107614D01*
X77840Y107668D01*
X77834Y107722D01*
X77832Y107776D01*
X77834Y107830D01*
X77840Y107884D01*
X77849Y107938D01*
X77863Y107991D01*
X77880Y108042D01*
X77901Y108093D01*
X77925Y108141D01*
X77953Y108188D01*
X77984Y108233D01*
X78018Y108275D01*
X78055Y108315D01*
X78095Y108352D01*
X78137Y108386D01*
X78182Y108417D01*
X78229Y108445D01*
X78277Y108469D01*
X78328Y108490D01*
X78379Y108507D01*
X78432Y108521D01*
X78486Y108530D01*
X78540Y108536D01*
X78594Y108538D01*
X78648Y108536D01*
X78702Y108530D01*
X78756Y108521D01*
X78809Y108507D01*
X78860Y108490D01*
X78911Y108469D01*
X78959Y108445D01*
X79006Y108417D01*
X79051Y108386D01*
X79093Y108352D01*
X79133Y108315D01*
X79170Y108275D01*
X79204Y108233D01*
X79235Y108188D01*
X79263Y108141D01*
X79287Y108093D01*
X79308Y108042D01*
X79325Y107991D01*
X79339Y107938D01*
X79348Y107884D01*
X79354Y107830D01*
X79356Y107776D01*
D11*
X81515Y119347D02*
X81515Y127969D01*
X81515Y119347D02*
X81517Y119233D01*
X81523Y119118D01*
X81533Y119004D01*
X81547Y118891D01*
X81564Y118777D01*
X81586Y118665D01*
X81611Y118553D01*
X81641Y118443D01*
X81674Y118333D01*
X81711Y118225D01*
X81751Y118118D01*
X81796Y118012D01*
X81843Y117908D01*
X81895Y117806D01*
X81950Y117706D01*
X82008Y117607D01*
X82070Y117511D01*
X82135Y117416D01*
X82203Y117325D01*
X82275Y117235D01*
X82349Y117148D01*
X82426Y117064D01*
X82507Y116982D01*
X82590Y116903D01*
X82675Y116827D01*
X82764Y116754D01*
X82854Y116685D01*
X82947Y116618D01*
X83043Y116555D01*
X83140Y116495D01*
X83240Y116438D01*
X83341Y116385D01*
X83444Y116335D01*
X83549Y116289D01*
X83655Y116246D01*
X83763Y116208D01*
X83872Y116173D01*
X83982Y116142D01*
X84093Y116114D01*
X84205Y116091D01*
X84318Y116071D01*
X84431Y116055D01*
X84545Y116043D01*
X84659Y116035D01*
X84774Y116031D01*
X84888Y116031D01*
X85003Y116035D01*
X85117Y116043D01*
X85231Y116055D01*
X85344Y116071D01*
X85457Y116091D01*
X85569Y116114D01*
X85680Y116142D01*
X85790Y116173D01*
X85899Y116208D01*
X86007Y116246D01*
X86113Y116289D01*
X86218Y116335D01*
X86321Y116385D01*
X86422Y116438D01*
X86522Y116495D01*
X86619Y116555D01*
X86715Y116618D01*
X86808Y116685D01*
X86898Y116754D01*
X86987Y116827D01*
X87072Y116903D01*
X87155Y116982D01*
X87236Y117064D01*
X87313Y117148D01*
X87387Y117235D01*
X87459Y117325D01*
X87527Y117416D01*
X87592Y117511D01*
X87654Y117607D01*
X87712Y117706D01*
X87767Y117806D01*
X87819Y117908D01*
X87866Y118012D01*
X87911Y118118D01*
X87951Y118225D01*
X87988Y118333D01*
X88021Y118443D01*
X88051Y118553D01*
X88076Y118665D01*
X88098Y118777D01*
X88115Y118891D01*
X88129Y119004D01*
X88139Y119118D01*
X88145Y119233D01*
X88147Y119347D01*
X88147Y127969D01*
X93326Y125316D02*
X96642Y127969D01*
X96642Y116031D01*
X93326Y116031D02*
X99958Y116031D01*
D10*
X175650Y117700D02*
X188350Y117700D01*
X194700Y111350D01*
X194700Y98650D01*
X188350Y92300D01*
X169300Y98650D02*
X169300Y111350D01*
X175650Y117700D01*
X169300Y98650D02*
X175650Y92300D01*
X188350Y92300D01*
D12*
X188903Y62193D02*
X177473Y62193D01*
X188903Y60923D02*
X188903Y63463D01*
X177473Y63463D02*
X177473Y60923D01*
X177473Y68543D02*
X188903Y68543D01*
X188903Y74893D02*
X177473Y68543D01*
X177473Y74893D02*
X188903Y74893D01*
X188903Y82767D02*
X177473Y82767D01*
X177473Y79592D02*
X177473Y85942D01*
D10*
X106350Y194700D02*
X93650Y194700D01*
X106350Y194700D02*
X112700Y188350D01*
X112700Y175650D01*
X106350Y169300D01*
X87300Y175650D02*
X87300Y188350D01*
X93650Y194700D01*
X87300Y175650D02*
X93650Y169300D01*
X106350Y169300D01*
D12*
X121983Y177923D02*
X118173Y189353D01*
X125793Y189353D02*
X121983Y177923D01*
X130365Y182368D02*
X137985Y182368D01*
X134175Y178558D02*
X134175Y186178D01*
D10*
X24350Y152700D02*
X11650Y152700D01*
X24350Y152700D02*
X30700Y146350D01*
X30700Y133650D01*
X24350Y127300D01*
X5300Y133650D02*
X5300Y146350D01*
X11650Y152700D01*
X5300Y133650D02*
X11650Y127300D01*
X24350Y127300D01*
D12*
X18903Y160733D02*
X18901Y160833D01*
X18895Y160932D01*
X18885Y161032D01*
X18872Y161130D01*
X18854Y161229D01*
X18833Y161326D01*
X18808Y161422D01*
X18779Y161518D01*
X18746Y161612D01*
X18710Y161705D01*
X18670Y161796D01*
X18626Y161886D01*
X18579Y161974D01*
X18529Y162060D01*
X18475Y162144D01*
X18418Y162226D01*
X18358Y162305D01*
X18294Y162383D01*
X18228Y162457D01*
X18159Y162529D01*
X18087Y162598D01*
X18013Y162664D01*
X17935Y162728D01*
X17856Y162788D01*
X17774Y162845D01*
X17690Y162899D01*
X17604Y162949D01*
X17516Y162996D01*
X17426Y163040D01*
X17335Y163080D01*
X17242Y163116D01*
X17148Y163149D01*
X17052Y163178D01*
X16956Y163203D01*
X16859Y163224D01*
X16760Y163242D01*
X16662Y163255D01*
X16562Y163265D01*
X16463Y163271D01*
X16363Y163273D01*
X18903Y160733D02*
X18901Y160592D01*
X18896Y160451D01*
X18886Y160310D01*
X18873Y160169D01*
X18857Y160029D01*
X18836Y159889D01*
X18812Y159750D01*
X18784Y159611D01*
X18753Y159474D01*
X18718Y159337D01*
X18680Y159201D01*
X18638Y159066D01*
X18592Y158933D01*
X18543Y158800D01*
X18490Y158669D01*
X18434Y158540D01*
X18375Y158411D01*
X18312Y158285D01*
X18246Y158160D01*
X18177Y158037D01*
X18104Y157916D01*
X18028Y157797D01*
X17949Y157679D01*
X17868Y157564D01*
X17783Y157452D01*
X17695Y157341D01*
X17604Y157233D01*
X17511Y157127D01*
X17414Y157024D01*
X17315Y156923D01*
X10013Y157241D02*
X9913Y157243D01*
X9814Y157249D01*
X9714Y157259D01*
X9616Y157272D01*
X9517Y157290D01*
X9420Y157311D01*
X9324Y157336D01*
X9228Y157365D01*
X9134Y157398D01*
X9041Y157434D01*
X8950Y157474D01*
X8860Y157518D01*
X8772Y157565D01*
X8686Y157615D01*
X8602Y157669D01*
X8520Y157726D01*
X8441Y157786D01*
X8363Y157850D01*
X8289Y157916D01*
X8217Y157985D01*
X8148Y158057D01*
X8082Y158131D01*
X8018Y158209D01*
X7958Y158288D01*
X7901Y158370D01*
X7847Y158454D01*
X7797Y158540D01*
X7750Y158628D01*
X7706Y158718D01*
X7666Y158809D01*
X7630Y158902D01*
X7597Y158996D01*
X7568Y159092D01*
X7543Y159188D01*
X7522Y159285D01*
X7504Y159384D01*
X7491Y159482D01*
X7481Y159582D01*
X7475Y159681D01*
X7473Y159781D01*
X7475Y159914D01*
X7480Y160047D01*
X7490Y160180D01*
X7503Y160313D01*
X7520Y160445D01*
X7540Y160577D01*
X7564Y160708D01*
X7592Y160838D01*
X7623Y160968D01*
X7658Y161096D01*
X7697Y161224D01*
X7739Y161350D01*
X7785Y161475D01*
X7834Y161599D01*
X7886Y161722D01*
X7942Y161843D01*
X8002Y161962D01*
X8064Y162080D01*
X8130Y162195D01*
X8199Y162309D01*
X8272Y162421D01*
X8347Y162531D01*
X8426Y162639D01*
X12236Y158510D02*
X12184Y158426D01*
X12129Y158343D01*
X12070Y158263D01*
X12009Y158185D01*
X11945Y158110D01*
X11877Y158037D01*
X11807Y157966D01*
X11735Y157899D01*
X11660Y157834D01*
X11582Y157772D01*
X11502Y157713D01*
X11420Y157657D01*
X11336Y157605D01*
X11250Y157556D01*
X11162Y157510D01*
X11072Y157467D01*
X10981Y157428D01*
X10888Y157393D01*
X10794Y157361D01*
X10699Y157333D01*
X10603Y157308D01*
X10506Y157288D01*
X10408Y157270D01*
X10310Y157257D01*
X10211Y157248D01*
X10112Y157242D01*
X10013Y157240D01*
X14140Y162003D02*
X14192Y162087D01*
X14247Y162170D01*
X14306Y162250D01*
X14367Y162328D01*
X14431Y162403D01*
X14499Y162476D01*
X14569Y162547D01*
X14641Y162614D01*
X14716Y162679D01*
X14794Y162741D01*
X14874Y162800D01*
X14956Y162856D01*
X15040Y162908D01*
X15126Y162957D01*
X15214Y163003D01*
X15304Y163046D01*
X15395Y163085D01*
X15488Y163120D01*
X15582Y163152D01*
X15677Y163180D01*
X15773Y163205D01*
X15870Y163225D01*
X15968Y163243D01*
X16066Y163256D01*
X16165Y163265D01*
X16264Y163271D01*
X16363Y163273D01*
X14141Y162003D02*
X12236Y158511D01*
X18903Y170475D02*
X18903Y173015D01*
X18903Y170475D02*
X18901Y170375D01*
X18895Y170276D01*
X18885Y170176D01*
X18872Y170078D01*
X18854Y169979D01*
X18833Y169882D01*
X18808Y169786D01*
X18779Y169690D01*
X18746Y169596D01*
X18710Y169503D01*
X18670Y169412D01*
X18626Y169322D01*
X18579Y169234D01*
X18529Y169148D01*
X18475Y169064D01*
X18418Y168982D01*
X18358Y168903D01*
X18294Y168825D01*
X18228Y168751D01*
X18159Y168679D01*
X18087Y168610D01*
X18013Y168544D01*
X17935Y168480D01*
X17856Y168420D01*
X17774Y168363D01*
X17690Y168309D01*
X17604Y168259D01*
X17516Y168212D01*
X17426Y168168D01*
X17335Y168128D01*
X17242Y168092D01*
X17148Y168059D01*
X17052Y168030D01*
X16956Y168005D01*
X16859Y167984D01*
X16760Y167966D01*
X16662Y167953D01*
X16562Y167943D01*
X16463Y167937D01*
X16363Y167935D01*
X10013Y167935D01*
X9913Y167937D01*
X9814Y167943D01*
X9714Y167953D01*
X9616Y167966D01*
X9517Y167984D01*
X9420Y168005D01*
X9324Y168030D01*
X9228Y168059D01*
X9134Y168092D01*
X9041Y168128D01*
X8950Y168168D01*
X8860Y168212D01*
X8772Y168259D01*
X8686Y168309D01*
X8602Y168363D01*
X8520Y168420D01*
X8441Y168480D01*
X8363Y168544D01*
X8289Y168610D01*
X8217Y168679D01*
X8148Y168751D01*
X8082Y168825D01*
X8018Y168903D01*
X7958Y168982D01*
X7901Y169064D01*
X7847Y169148D01*
X7797Y169234D01*
X7750Y169322D01*
X7706Y169412D01*
X7666Y169503D01*
X7630Y169596D01*
X7597Y169690D01*
X7568Y169786D01*
X7543Y169882D01*
X7522Y169979D01*
X7504Y170078D01*
X7491Y170176D01*
X7481Y170276D01*
X7475Y170375D01*
X7473Y170475D01*
X7473Y173015D01*
X7473Y177903D02*
X18903Y177903D01*
X18903Y182983D01*
D10*
X24350Y82700D02*
X11650Y82700D01*
X24350Y82700D02*
X30700Y76350D01*
X30700Y63650D01*
X24350Y57300D01*
X5300Y63650D02*
X5300Y76350D01*
X11650Y82700D01*
X5300Y63650D02*
X11650Y57300D01*
X24350Y57300D01*
D12*
X18363Y25273D02*
X18463Y25271D01*
X18562Y25265D01*
X18662Y25255D01*
X18760Y25242D01*
X18859Y25224D01*
X18956Y25203D01*
X19052Y25178D01*
X19148Y25149D01*
X19242Y25116D01*
X19335Y25080D01*
X19426Y25040D01*
X19516Y24996D01*
X19604Y24949D01*
X19690Y24899D01*
X19774Y24845D01*
X19856Y24788D01*
X19935Y24728D01*
X20013Y24664D01*
X20087Y24598D01*
X20159Y24529D01*
X20228Y24457D01*
X20294Y24383D01*
X20358Y24305D01*
X20418Y24226D01*
X20475Y24144D01*
X20529Y24060D01*
X20579Y23974D01*
X20626Y23886D01*
X20670Y23796D01*
X20710Y23705D01*
X20746Y23612D01*
X20779Y23518D01*
X20808Y23422D01*
X20833Y23326D01*
X20854Y23229D01*
X20872Y23130D01*
X20885Y23032D01*
X20895Y22932D01*
X20901Y22833D01*
X20903Y22733D01*
X20901Y22592D01*
X20896Y22451D01*
X20886Y22310D01*
X20873Y22169D01*
X20857Y22029D01*
X20836Y21889D01*
X20812Y21750D01*
X20784Y21611D01*
X20753Y21474D01*
X20718Y21337D01*
X20680Y21201D01*
X20638Y21066D01*
X20592Y20933D01*
X20543Y20800D01*
X20490Y20669D01*
X20434Y20540D01*
X20375Y20411D01*
X20312Y20285D01*
X20246Y20160D01*
X20177Y20037D01*
X20104Y19916D01*
X20028Y19797D01*
X19949Y19679D01*
X19868Y19564D01*
X19783Y19452D01*
X19695Y19341D01*
X19604Y19233D01*
X19511Y19127D01*
X19414Y19024D01*
X19315Y18923D01*
X12013Y19241D02*
X11913Y19243D01*
X11814Y19249D01*
X11714Y19259D01*
X11616Y19272D01*
X11517Y19290D01*
X11420Y19311D01*
X11324Y19336D01*
X11228Y19365D01*
X11134Y19398D01*
X11041Y19434D01*
X10950Y19474D01*
X10860Y19518D01*
X10772Y19565D01*
X10686Y19615D01*
X10602Y19669D01*
X10520Y19726D01*
X10441Y19786D01*
X10363Y19850D01*
X10289Y19916D01*
X10217Y19985D01*
X10148Y20057D01*
X10082Y20131D01*
X10018Y20209D01*
X9958Y20288D01*
X9901Y20370D01*
X9847Y20454D01*
X9797Y20540D01*
X9750Y20628D01*
X9706Y20718D01*
X9666Y20809D01*
X9630Y20902D01*
X9597Y20996D01*
X9568Y21092D01*
X9543Y21188D01*
X9522Y21285D01*
X9504Y21384D01*
X9491Y21482D01*
X9481Y21582D01*
X9475Y21681D01*
X9473Y21781D01*
X9475Y21914D01*
X9480Y22047D01*
X9490Y22180D01*
X9503Y22313D01*
X9520Y22445D01*
X9540Y22577D01*
X9564Y22708D01*
X9592Y22838D01*
X9623Y22968D01*
X9658Y23096D01*
X9697Y23224D01*
X9739Y23350D01*
X9785Y23475D01*
X9834Y23599D01*
X9886Y23722D01*
X9942Y23843D01*
X10002Y23962D01*
X10064Y24080D01*
X10130Y24195D01*
X10199Y24309D01*
X10272Y24421D01*
X10347Y24531D01*
X10426Y24639D01*
X14236Y20510D02*
X14184Y20426D01*
X14129Y20343D01*
X14070Y20263D01*
X14009Y20185D01*
X13945Y20110D01*
X13877Y20037D01*
X13807Y19966D01*
X13735Y19899D01*
X13660Y19834D01*
X13582Y19772D01*
X13502Y19713D01*
X13420Y19657D01*
X13336Y19605D01*
X13250Y19556D01*
X13162Y19510D01*
X13072Y19467D01*
X12981Y19428D01*
X12888Y19393D01*
X12794Y19361D01*
X12699Y19333D01*
X12603Y19308D01*
X12506Y19288D01*
X12408Y19270D01*
X12310Y19257D01*
X12211Y19248D01*
X12112Y19242D01*
X12013Y19240D01*
X16140Y24003D02*
X16192Y24087D01*
X16247Y24170D01*
X16306Y24250D01*
X16367Y24328D01*
X16431Y24403D01*
X16499Y24476D01*
X16569Y24547D01*
X16641Y24614D01*
X16716Y24679D01*
X16794Y24741D01*
X16874Y24800D01*
X16956Y24856D01*
X17040Y24908D01*
X17126Y24957D01*
X17214Y25003D01*
X17304Y25046D01*
X17395Y25085D01*
X17488Y25120D01*
X17582Y25152D01*
X17677Y25180D01*
X17773Y25205D01*
X17870Y25225D01*
X17968Y25243D01*
X18066Y25256D01*
X18165Y25265D01*
X18264Y25271D01*
X18363Y25273D01*
X16141Y24003D02*
X14236Y20511D01*
X9473Y30353D02*
X20903Y30353D01*
X9473Y30353D02*
X9473Y33528D01*
X9475Y33639D01*
X9481Y33749D01*
X9490Y33860D01*
X9504Y33970D01*
X9521Y34079D01*
X9542Y34188D01*
X9567Y34296D01*
X9596Y34403D01*
X9628Y34509D01*
X9664Y34614D01*
X9704Y34717D01*
X9747Y34819D01*
X9794Y34920D01*
X9845Y35019D01*
X9898Y35115D01*
X9955Y35210D01*
X10016Y35303D01*
X10079Y35394D01*
X10146Y35483D01*
X10216Y35569D01*
X10289Y35652D01*
X10364Y35734D01*
X10442Y35812D01*
X10524Y35887D01*
X10607Y35960D01*
X10693Y36030D01*
X10782Y36097D01*
X10873Y36160D01*
X10966Y36221D01*
X11060Y36278D01*
X11157Y36331D01*
X11256Y36382D01*
X11357Y36429D01*
X11459Y36472D01*
X11562Y36512D01*
X11667Y36548D01*
X11773Y36580D01*
X11880Y36609D01*
X11988Y36634D01*
X12097Y36655D01*
X12206Y36672D01*
X12316Y36686D01*
X12427Y36695D01*
X12537Y36701D01*
X12648Y36703D01*
X17728Y36703D01*
X17839Y36701D01*
X17949Y36695D01*
X18060Y36686D01*
X18170Y36672D01*
X18279Y36655D01*
X18388Y36634D01*
X18496Y36609D01*
X18603Y36580D01*
X18709Y36548D01*
X18814Y36512D01*
X18917Y36472D01*
X19019Y36429D01*
X19120Y36382D01*
X19219Y36331D01*
X19316Y36278D01*
X19410Y36221D01*
X19503Y36160D01*
X19594Y36097D01*
X19683Y36030D01*
X19769Y35960D01*
X19852Y35887D01*
X19934Y35812D01*
X20012Y35734D01*
X20087Y35652D01*
X20160Y35569D01*
X20230Y35483D01*
X20297Y35394D01*
X20360Y35303D01*
X20421Y35210D01*
X20478Y35116D01*
X20531Y35019D01*
X20582Y34920D01*
X20629Y34819D01*
X20672Y34717D01*
X20712Y34614D01*
X20748Y34509D01*
X20780Y34403D01*
X20809Y34296D01*
X20834Y34188D01*
X20855Y34079D01*
X20872Y33970D01*
X20886Y33860D01*
X20895Y33749D01*
X20901Y33639D01*
X20903Y33528D01*
X20903Y30353D01*
X20903Y41529D02*
X9473Y45339D01*
X20903Y49149D01*
X18046Y48197D02*
X18046Y42482D01*
D10*
X93650Y30700D02*
X106350Y30700D01*
X112700Y24350D01*
X112700Y11650D01*
X106350Y5300D01*
X87300Y11650D02*
X87300Y24350D01*
X93650Y30700D01*
X87300Y11650D02*
X93650Y5300D01*
X106350Y5300D01*
D12*
X122618Y14273D02*
X124523Y14273D01*
X124523Y7923D01*
X120713Y7923D01*
X120613Y7925D01*
X120514Y7931D01*
X120414Y7941D01*
X120316Y7954D01*
X120217Y7972D01*
X120120Y7993D01*
X120024Y8018D01*
X119928Y8047D01*
X119834Y8080D01*
X119741Y8116D01*
X119650Y8156D01*
X119560Y8200D01*
X119472Y8247D01*
X119386Y8297D01*
X119302Y8351D01*
X119220Y8408D01*
X119141Y8468D01*
X119063Y8532D01*
X118989Y8598D01*
X118917Y8667D01*
X118848Y8739D01*
X118782Y8813D01*
X118718Y8891D01*
X118658Y8970D01*
X118601Y9052D01*
X118547Y9136D01*
X118497Y9222D01*
X118450Y9310D01*
X118406Y9400D01*
X118366Y9491D01*
X118330Y9584D01*
X118297Y9678D01*
X118268Y9774D01*
X118243Y9870D01*
X118222Y9967D01*
X118204Y10066D01*
X118191Y10164D01*
X118181Y10264D01*
X118175Y10363D01*
X118173Y10463D01*
X118173Y16813D01*
X118175Y16913D01*
X118181Y17012D01*
X118191Y17112D01*
X118204Y17210D01*
X118222Y17309D01*
X118243Y17406D01*
X118268Y17502D01*
X118297Y17598D01*
X118330Y17692D01*
X118366Y17785D01*
X118406Y17876D01*
X118450Y17966D01*
X118497Y18054D01*
X118547Y18140D01*
X118601Y18224D01*
X118658Y18306D01*
X118718Y18385D01*
X118782Y18463D01*
X118848Y18537D01*
X118917Y18609D01*
X118989Y18678D01*
X119063Y18744D01*
X119141Y18808D01*
X119220Y18868D01*
X119302Y18925D01*
X119386Y18979D01*
X119472Y19029D01*
X119560Y19076D01*
X119650Y19120D01*
X119741Y19160D01*
X119834Y19196D01*
X119928Y19229D01*
X120024Y19258D01*
X120120Y19283D01*
X120217Y19304D01*
X120316Y19322D01*
X120414Y19335D01*
X120514Y19345D01*
X120613Y19351D01*
X120713Y19353D01*
X124523Y19353D01*
X130365Y19353D02*
X130365Y7923D01*
X136715Y7923D02*
X130365Y19353D01*
X136715Y19353D02*
X136715Y7923D01*
X142557Y7923D02*
X142557Y19353D01*
X145732Y19353D01*
X145843Y19351D01*
X145953Y19345D01*
X146064Y19336D01*
X146174Y19322D01*
X146283Y19305D01*
X146392Y19284D01*
X146500Y19259D01*
X146607Y19230D01*
X146713Y19198D01*
X146818Y19162D01*
X146921Y19122D01*
X147023Y19079D01*
X147124Y19032D01*
X147223Y18981D01*
X147320Y18928D01*
X147414Y18871D01*
X147507Y18810D01*
X147598Y18747D01*
X147687Y18680D01*
X147773Y18610D01*
X147856Y18537D01*
X147938Y18462D01*
X148016Y18384D01*
X148091Y18302D01*
X148164Y18219D01*
X148234Y18133D01*
X148301Y18044D01*
X148364Y17953D01*
X148425Y17860D01*
X148482Y17766D01*
X148535Y17669D01*
X148586Y17570D01*
X148633Y17469D01*
X148676Y17367D01*
X148716Y17264D01*
X148752Y17159D01*
X148784Y17053D01*
X148813Y16946D01*
X148838Y16838D01*
X148859Y16729D01*
X148876Y16620D01*
X148890Y16510D01*
X148899Y16399D01*
X148905Y16289D01*
X148907Y16178D01*
X148907Y11098D01*
X148905Y10987D01*
X148899Y10877D01*
X148890Y10766D01*
X148876Y10656D01*
X148859Y10547D01*
X148838Y10438D01*
X148813Y10330D01*
X148784Y10223D01*
X148752Y10117D01*
X148716Y10012D01*
X148676Y9909D01*
X148633Y9807D01*
X148586Y9706D01*
X148535Y9607D01*
X148482Y9510D01*
X148425Y9416D01*
X148364Y9323D01*
X148301Y9232D01*
X148234Y9143D01*
X148164Y9057D01*
X148091Y8974D01*
X148016Y8892D01*
X147938Y8814D01*
X147856Y8739D01*
X147773Y8666D01*
X147687Y8596D01*
X147598Y8529D01*
X147507Y8466D01*
X147414Y8405D01*
X147319Y8348D01*
X147223Y8295D01*
X147124Y8244D01*
X147023Y8197D01*
X146921Y8154D01*
X146818Y8114D01*
X146713Y8078D01*
X146607Y8046D01*
X146500Y8017D01*
X146392Y7992D01*
X146283Y7971D01*
X146174Y7954D01*
X146064Y7940D01*
X145953Y7931D01*
X145843Y7925D01*
X145732Y7923D01*
X142557Y7923D01*
M02*
