G04 EAGLE Gerber RS-274X export*
G75*
%MOMM*%
%FSLAX34Y34*%
%LPD*%
%INSolderpaste Bottom*%
%IPPOS*%
%AMOC8*
5,1,8,0,0,1.08239X$1,22.5*%
G01*
%ADD10R,0.550000X0.705600*%
%ADD11R,0.705600X0.550000*%
%ADD12C,0.270000*%
%ADD13R,0.558800X0.711200*%
%ADD14R,0.762000X0.203200*%
%ADD15R,1.320800X0.558800*%


D10*
X59700Y59378D03*
X59700Y48822D03*
D11*
X144778Y110900D03*
X134222Y110900D03*
D10*
X158700Y61178D03*
X158700Y50622D03*
X98300Y97578D03*
X98300Y87022D03*
D11*
X144778Y131300D03*
X134222Y131300D03*
D12*
X146100Y90100D02*
X152400Y90100D01*
X152400Y83100D01*
X146100Y83100D01*
X146100Y90100D01*
X146100Y85665D02*
X152400Y85665D01*
X152400Y88230D02*
X146100Y88230D01*
X136700Y90100D02*
X130400Y90100D01*
X136700Y90100D02*
X136700Y83100D01*
X130400Y83100D01*
X130400Y90100D01*
X130400Y85665D02*
X136700Y85665D01*
X136700Y88230D02*
X130400Y88230D01*
D13*
X59500Y119639D03*
X59500Y130561D03*
X58700Y95561D03*
X58700Y84639D03*
X140300Y60961D03*
X140300Y50039D03*
D14*
X107125Y132200D03*
X107125Y127200D03*
X107125Y122200D03*
X107125Y117200D03*
X88075Y117200D03*
X88075Y122200D03*
X88075Y127200D03*
X88075Y132200D03*
D15*
X111038Y69900D03*
X111038Y60400D03*
X111038Y50900D03*
X87162Y50900D03*
X87162Y60400D03*
X87162Y69900D03*
M02*
