M48
;GenerationSoftware,Autodesk,EAGLE,9.4.0*%
;CreationDate,2019-05-29T19:58:11Z*%
FMAT,2
ICI,OFF
METRIC,TZ,000.000
T8C0.350
T7C0.508
T6C0.600
T5C0.800
T4C1.016
T3C1.100
T2C2.000
T1C2.800
%
G90
M71
T1
X3500Y3500
X3500Y52500
X61400Y52500
X61500Y3500
T2
X10800Y28000
X3800Y28000
X48009Y10804
X48009Y3804
T3
X2120Y14000
X9120Y14000
T4
X22760Y2760
X10910Y51230
X20220Y2760
X17680Y2760
X15140Y2760
X12600Y2760
X26150Y51230
X23610Y53770
X23610Y51230
X21070Y53770
X21070Y51230
X56630Y53770
X56630Y51230
X54090Y53770
X54090Y51230
X51550Y53770
X51550Y51230
X49010Y53770
X49010Y51230
X46470Y53770
X46470Y51230
X43930Y53770
X43930Y51230
X41390Y53770
X41390Y51230
X38850Y53770
X38850Y51230
X36310Y53770
X36310Y51230
X33770Y53770
X33770Y51230
X31230Y53770
X31230Y51230
X28690Y53770
X57280Y7670
X47120Y26720
X44580Y26720
X42040Y26720
X39500Y26720
X36960Y26720
X34420Y26720
X57280Y12750
X57280Y10210
X28690Y51230
X3500Y43270
X3500Y40730
X8370Y51230
X8370Y53770
X26150Y53770
X10910Y53770
X13450Y51230
X13450Y53770
X15990Y51230
X15990Y53770
X18530Y51230
X18530Y53770
T5
X3520Y17400
X3520Y10600
T6
X11620Y16850
X12520Y14000
X11620Y11150
T7
X45850Y10210
X34166Y17386
X34166Y11861
X38103Y22402
X39246Y17449
X48644Y7416
X36198Y14401
X31499Y3352
X35436Y6654
X38865Y3987
X30102Y3225
X37976Y20624
X31880Y7924
X30102Y11289
X31118Y25196
X38992Y2082
X39500Y14147
X39500Y9067
X31880Y9575
T8
X14100Y36630
X19750Y29110
X15890Y11390
X9430Y40770
X12000Y36060
X8430Y6590
X4480Y33430
X40900Y33760
X43030Y34500
X44650Y33470
X46270Y33560
X1521Y26893
X18660Y11860
X5710Y20990
X7820Y18880
X10910Y43300
M30