G04 EAGLE Gerber RS-274X export*
G75*
%MOMM*%
%FSLAX34Y34*%
%LPD*%
%INTop Copper*%
%IPPOS*%
%AMOC8*
5,1,8,0,0,1.08239X$1,22.5*%
G01*
%ADD10R,0.500000X0.250000*%
%ADD11R,0.250000X0.500000*%
%ADD12C,0.250000*%
%ADD13R,1.100000X1.000000*%
%ADD14R,1.000000X1.100000*%
%ADD15R,0.800000X1.200000*%
%ADD16R,1.200000X0.800000*%
%ADD17R,2.500000X2.000000*%
%ADD18R,2.000000X2.500000*%
%ADD19R,2.500000X1.200000*%
%ADD20C,1.879600*%
%ADD21R,0.800000X0.800000*%
%ADD22C,0.203200*%
%ADD23R,1.270000X0.635000*%
%ADD24C,1.000000*%
%ADD25C,1.524000*%
%ADD26P,1.649562X8X22.500000*%
%ADD27R,1.200000X2.500000*%
%ADD28R,0.558800X1.981200*%
%ADD29C,1.308000*%
%ADD30C,1.108000*%
%ADD31C,0.914400*%
%ADD32C,0.300000*%
%ADD33C,0.756400*%
%ADD34C,0.254000*%
%ADD35C,0.800000*%
%ADD36C,0.400000*%
%ADD37C,0.406400*%
%ADD38C,0.700000*%
%ADD39C,0.812800*%

G36*
X196050Y11442D02*
X196050Y11442D01*
X196121Y11444D01*
X196170Y11462D01*
X196222Y11470D01*
X196285Y11504D01*
X196352Y11529D01*
X196393Y11561D01*
X196439Y11586D01*
X196488Y11638D01*
X196544Y11682D01*
X196573Y11726D01*
X196608Y11764D01*
X196639Y11829D01*
X196677Y11889D01*
X196690Y11940D01*
X196712Y11987D01*
X196720Y12058D01*
X196737Y12128D01*
X196733Y12180D01*
X196739Y12231D01*
X196724Y12302D01*
X196718Y12373D01*
X196698Y12421D01*
X196687Y12472D01*
X196650Y12533D01*
X196622Y12599D01*
X196577Y12655D01*
X196561Y12683D01*
X196543Y12698D01*
X196517Y12730D01*
X194447Y14800D01*
X193055Y18161D01*
X193055Y37039D01*
X194447Y40400D01*
X197020Y42973D01*
X200381Y44365D01*
X204019Y44365D01*
X207380Y42973D01*
X209953Y40400D01*
X211345Y37039D01*
X211345Y18161D01*
X209953Y14800D01*
X207883Y12730D01*
X207841Y12672D01*
X207792Y12620D01*
X207770Y12573D01*
X207739Y12531D01*
X207718Y12462D01*
X207688Y12397D01*
X207682Y12345D01*
X207667Y12295D01*
X207669Y12224D01*
X207661Y12153D01*
X207672Y12102D01*
X207673Y12050D01*
X207698Y11982D01*
X207713Y11912D01*
X207740Y11867D01*
X207758Y11819D01*
X207803Y11763D01*
X207839Y11701D01*
X207879Y11667D01*
X207911Y11627D01*
X207972Y11588D01*
X208026Y11541D01*
X208075Y11522D01*
X208118Y11494D01*
X208188Y11476D01*
X208254Y11449D01*
X208326Y11441D01*
X208357Y11433D01*
X208380Y11435D01*
X208421Y11431D01*
X219942Y11431D01*
X220013Y11442D01*
X220084Y11444D01*
X220133Y11462D01*
X220185Y11470D01*
X220248Y11504D01*
X220315Y11529D01*
X220356Y11561D01*
X220402Y11586D01*
X220451Y11637D01*
X220507Y11682D01*
X220536Y11726D01*
X220572Y11764D01*
X220602Y11829D01*
X220640Y11889D01*
X220653Y11940D01*
X220675Y11987D01*
X220683Y12058D01*
X220701Y12128D01*
X220696Y12180D01*
X220702Y12231D01*
X220687Y12302D01*
X220681Y12373D01*
X220661Y12421D01*
X220650Y12472D01*
X220613Y12533D01*
X220585Y12599D01*
X220540Y12655D01*
X220524Y12683D01*
X220506Y12698D01*
X220480Y12730D01*
X219850Y13361D01*
X218910Y14655D01*
X218184Y16080D01*
X217689Y17601D01*
X217439Y19180D01*
X217439Y26077D01*
X226838Y26077D01*
X226858Y26080D01*
X226877Y26078D01*
X226979Y26100D01*
X227081Y26117D01*
X227098Y26126D01*
X227118Y26130D01*
X227207Y26183D01*
X227298Y26232D01*
X227312Y26246D01*
X227329Y26256D01*
X227396Y26335D01*
X227467Y26410D01*
X227476Y26428D01*
X227489Y26443D01*
X227527Y26539D01*
X227571Y26633D01*
X227573Y26653D01*
X227581Y26671D01*
X227599Y26838D01*
X227599Y27601D01*
X227601Y27601D01*
X227601Y26838D01*
X227604Y26818D01*
X227602Y26799D01*
X227624Y26697D01*
X227641Y26595D01*
X227650Y26578D01*
X227654Y26558D01*
X227707Y26469D01*
X227756Y26378D01*
X227770Y26364D01*
X227780Y26347D01*
X227859Y26280D01*
X227934Y26209D01*
X227952Y26200D01*
X227967Y26187D01*
X228063Y26148D01*
X228157Y26105D01*
X228177Y26103D01*
X228195Y26095D01*
X228362Y26077D01*
X237761Y26077D01*
X237761Y19180D01*
X237511Y17601D01*
X237016Y16080D01*
X236290Y14655D01*
X235350Y13361D01*
X234720Y12730D01*
X234678Y12672D01*
X234628Y12620D01*
X234607Y12573D01*
X234576Y12531D01*
X234555Y12462D01*
X234525Y12397D01*
X234519Y12345D01*
X234504Y12295D01*
X234506Y12224D01*
X234498Y12153D01*
X234509Y12102D01*
X234510Y12050D01*
X234535Y11982D01*
X234550Y11912D01*
X234577Y11867D01*
X234595Y11819D01*
X234639Y11763D01*
X234676Y11701D01*
X234716Y11667D01*
X234748Y11627D01*
X234809Y11588D01*
X234863Y11541D01*
X234911Y11522D01*
X234955Y11494D01*
X235025Y11476D01*
X235091Y11449D01*
X235163Y11441D01*
X235194Y11433D01*
X235217Y11435D01*
X235258Y11431D01*
X305195Y11431D01*
X305266Y11442D01*
X305338Y11444D01*
X305387Y11462D01*
X305438Y11470D01*
X305501Y11504D01*
X305569Y11529D01*
X305609Y11561D01*
X305655Y11586D01*
X305705Y11637D01*
X305761Y11682D01*
X305789Y11726D01*
X305825Y11764D01*
X305855Y11829D01*
X305894Y11889D01*
X305906Y11940D01*
X305928Y11987D01*
X305936Y12058D01*
X305954Y12128D01*
X305950Y12180D01*
X305955Y12231D01*
X305940Y12302D01*
X305935Y12373D01*
X305914Y12421D01*
X305903Y12472D01*
X305866Y12533D01*
X305838Y12599D01*
X305793Y12655D01*
X305777Y12683D01*
X305759Y12698D01*
X305733Y12730D01*
X305545Y12918D01*
X305545Y23816D01*
X305531Y23906D01*
X305523Y23997D01*
X305511Y24027D01*
X305506Y24059D01*
X305463Y24140D01*
X305427Y24224D01*
X305401Y24256D01*
X305390Y24276D01*
X305367Y24299D01*
X305322Y24355D01*
X303505Y26172D01*
X303411Y26239D01*
X303316Y26310D01*
X303310Y26312D01*
X303305Y26315D01*
X303194Y26350D01*
X303083Y26386D01*
X303076Y26386D01*
X303070Y26388D01*
X302954Y26385D01*
X302837Y26383D01*
X302829Y26381D01*
X302824Y26381D01*
X302807Y26375D01*
X302676Y26337D01*
X302233Y26153D01*
X299807Y26153D01*
X297566Y27081D01*
X295851Y28796D01*
X294923Y31037D01*
X294923Y33463D01*
X295851Y35704D01*
X297566Y37419D01*
X299807Y38347D01*
X302233Y38347D01*
X304474Y37419D01*
X306189Y35704D01*
X307117Y33463D01*
X307117Y31037D01*
X306933Y30594D01*
X306907Y30480D01*
X306878Y30367D01*
X306879Y30361D01*
X306877Y30355D01*
X306888Y30239D01*
X306897Y30122D01*
X306900Y30116D01*
X306900Y30110D01*
X306948Y30003D01*
X306993Y29896D01*
X306998Y29890D01*
X307000Y29885D01*
X307013Y29872D01*
X307098Y29765D01*
X309565Y27298D01*
X309639Y27245D01*
X309709Y27185D01*
X309739Y27173D01*
X309765Y27154D01*
X309852Y27127D01*
X309937Y27093D01*
X309978Y27089D01*
X310000Y27082D01*
X310032Y27083D01*
X310104Y27075D01*
X310975Y27075D01*
X311046Y27086D01*
X311118Y27088D01*
X311167Y27106D01*
X311218Y27114D01*
X311281Y27148D01*
X311349Y27173D01*
X311389Y27205D01*
X311436Y27230D01*
X311485Y27282D01*
X311541Y27326D01*
X311569Y27370D01*
X311605Y27408D01*
X311635Y27473D01*
X311674Y27533D01*
X311687Y27584D01*
X311709Y27631D01*
X311716Y27702D01*
X311734Y27772D01*
X311730Y27824D01*
X311736Y27875D01*
X311720Y27946D01*
X311715Y28017D01*
X311694Y28065D01*
X311689Y28091D01*
X316122Y28091D01*
X316623Y27591D01*
X316615Y27586D01*
X316572Y27570D01*
X316512Y27522D01*
X316445Y27481D01*
X316416Y27445D01*
X316380Y27417D01*
X316338Y27351D01*
X316289Y27291D01*
X316272Y27248D01*
X316247Y27210D01*
X316228Y27134D01*
X316200Y27062D01*
X316198Y27016D01*
X316187Y26971D01*
X316193Y26894D01*
X316190Y26816D01*
X316203Y26772D01*
X316206Y26726D01*
X316237Y26654D01*
X316259Y26580D01*
X316285Y26542D01*
X316303Y26500D01*
X316388Y26393D01*
X316399Y26378D01*
X316403Y26375D01*
X316408Y26369D01*
X316595Y26182D01*
X316595Y12918D01*
X316407Y12730D01*
X316365Y12672D01*
X316315Y12620D01*
X316293Y12573D01*
X316263Y12531D01*
X316242Y12462D01*
X316212Y12397D01*
X316206Y12345D01*
X316191Y12295D01*
X316193Y12224D01*
X316185Y12153D01*
X316196Y12102D01*
X316197Y12050D01*
X316222Y11982D01*
X316237Y11912D01*
X316264Y11867D01*
X316281Y11819D01*
X316326Y11763D01*
X316363Y11701D01*
X316403Y11667D01*
X316435Y11627D01*
X316495Y11588D01*
X316550Y11541D01*
X316598Y11522D01*
X316642Y11494D01*
X316711Y11476D01*
X316778Y11449D01*
X316849Y11441D01*
X316881Y11433D01*
X316904Y11435D01*
X316945Y11431D01*
X323195Y11431D01*
X323266Y11442D01*
X323338Y11444D01*
X323387Y11462D01*
X323438Y11470D01*
X323501Y11504D01*
X323569Y11529D01*
X323609Y11561D01*
X323655Y11586D01*
X323705Y11637D01*
X323761Y11682D01*
X323789Y11726D01*
X323825Y11764D01*
X323855Y11829D01*
X323894Y11889D01*
X323906Y11940D01*
X323928Y11987D01*
X323936Y12058D01*
X323954Y12128D01*
X323950Y12180D01*
X323955Y12231D01*
X323940Y12302D01*
X323935Y12373D01*
X323914Y12421D01*
X323903Y12472D01*
X323866Y12533D01*
X323838Y12599D01*
X323793Y12655D01*
X323777Y12683D01*
X323759Y12698D01*
X323733Y12730D01*
X323545Y12918D01*
X323545Y26182D01*
X324438Y27075D01*
X327071Y27075D01*
X327071Y20534D01*
X327078Y20481D01*
X327077Y20448D01*
X327078Y20445D01*
X327077Y20418D01*
X327099Y20336D01*
X327111Y20253D01*
X327134Y20199D01*
X327149Y20143D01*
X327192Y20070D01*
X327227Y19993D01*
X327265Y19949D01*
X327294Y19898D01*
X327356Y19841D01*
X327410Y19776D01*
X327459Y19744D01*
X327502Y19704D01*
X327577Y19665D01*
X327647Y19619D01*
X327703Y19601D01*
X327755Y19574D01*
X327823Y19563D01*
X327918Y19533D01*
X328018Y19530D01*
X328086Y19519D01*
X329039Y19519D01*
X329039Y18566D01*
X329047Y18508D01*
X329046Y18450D01*
X329067Y18368D01*
X329079Y18284D01*
X329103Y18231D01*
X329117Y18175D01*
X329161Y18102D01*
X329195Y18025D01*
X329233Y17980D01*
X329263Y17930D01*
X329324Y17872D01*
X329379Y17808D01*
X329427Y17776D01*
X329470Y17736D01*
X329545Y17697D01*
X329615Y17650D01*
X329671Y17633D01*
X329723Y17606D01*
X329791Y17595D01*
X329886Y17565D01*
X329986Y17562D01*
X330054Y17551D01*
X334595Y17551D01*
X334595Y12918D01*
X334407Y12730D01*
X334365Y12672D01*
X334315Y12620D01*
X334293Y12573D01*
X334263Y12531D01*
X334242Y12462D01*
X334212Y12397D01*
X334206Y12345D01*
X334191Y12295D01*
X334193Y12224D01*
X334185Y12153D01*
X334196Y12102D01*
X334197Y12050D01*
X334222Y11982D01*
X334237Y11912D01*
X334264Y11867D01*
X334281Y11819D01*
X334326Y11763D01*
X334363Y11701D01*
X334403Y11667D01*
X334435Y11627D01*
X334495Y11588D01*
X334550Y11541D01*
X334598Y11522D01*
X334642Y11494D01*
X334711Y11476D01*
X334778Y11449D01*
X334849Y11441D01*
X334881Y11433D01*
X334904Y11435D01*
X334945Y11431D01*
X430804Y11431D01*
X430824Y11434D01*
X430843Y11432D01*
X430945Y11454D01*
X431047Y11470D01*
X431064Y11480D01*
X431084Y11484D01*
X431173Y11537D01*
X431264Y11586D01*
X431278Y11600D01*
X431295Y11610D01*
X431362Y11689D01*
X431434Y11764D01*
X431442Y11782D01*
X431455Y11797D01*
X431494Y11893D01*
X431537Y11987D01*
X431539Y12007D01*
X431547Y12025D01*
X431565Y12192D01*
X431565Y24672D01*
X432458Y25565D01*
X458722Y25565D01*
X459615Y24672D01*
X459615Y12192D01*
X459618Y12172D01*
X459616Y12153D01*
X459638Y12051D01*
X459654Y11949D01*
X459664Y11932D01*
X459668Y11912D01*
X459721Y11823D01*
X459770Y11732D01*
X459784Y11718D01*
X459794Y11701D01*
X459873Y11634D01*
X459948Y11562D01*
X459966Y11554D01*
X459981Y11541D01*
X460077Y11502D01*
X460171Y11459D01*
X460191Y11457D01*
X460209Y11449D01*
X460376Y11431D01*
X593519Y11431D01*
X593622Y11448D01*
X593726Y11459D01*
X593744Y11467D01*
X593762Y11470D01*
X593854Y11519D01*
X593949Y11564D01*
X593963Y11577D01*
X593980Y11586D01*
X594051Y11661D01*
X594127Y11734D01*
X594136Y11750D01*
X594149Y11764D01*
X594193Y11859D01*
X594242Y11951D01*
X594245Y11970D01*
X594253Y11987D01*
X594264Y12091D01*
X594281Y12194D01*
X594278Y12213D01*
X594280Y12231D01*
X594257Y12333D01*
X594240Y12437D01*
X594231Y12453D01*
X594227Y12472D01*
X594174Y12561D01*
X594125Y12654D01*
X594109Y12671D01*
X594101Y12683D01*
X594077Y12704D01*
X594009Y12775D01*
X591261Y15081D01*
X585880Y24401D01*
X584011Y35000D01*
X585880Y45599D01*
X591261Y54919D01*
X599505Y61837D01*
X609619Y65518D01*
X620381Y65518D01*
X630495Y61837D01*
X637319Y56111D01*
X637352Y56091D01*
X637380Y56065D01*
X637457Y56029D01*
X637530Y55985D01*
X637568Y55977D01*
X637603Y55961D01*
X637687Y55952D01*
X637771Y55934D01*
X637809Y55938D01*
X637847Y55934D01*
X637930Y55952D01*
X638015Y55962D01*
X638050Y55978D01*
X638088Y55986D01*
X638161Y56030D01*
X638238Y56066D01*
X638266Y56093D01*
X638299Y56112D01*
X638354Y56177D01*
X638416Y56236D01*
X638434Y56270D01*
X638459Y56299D01*
X638491Y56378D01*
X638530Y56453D01*
X638536Y56492D01*
X638551Y56527D01*
X638569Y56694D01*
X638569Y503306D01*
X638563Y503344D01*
X638565Y503383D01*
X638543Y503465D01*
X638530Y503549D01*
X638511Y503583D01*
X638501Y503620D01*
X638454Y503691D01*
X638414Y503766D01*
X638386Y503792D01*
X638365Y503825D01*
X638298Y503877D01*
X638236Y503935D01*
X638201Y503952D01*
X638170Y503975D01*
X638090Y504003D01*
X638013Y504039D01*
X637975Y504043D01*
X637938Y504056D01*
X637853Y504057D01*
X637769Y504066D01*
X637731Y504058D01*
X637692Y504058D01*
X637611Y504032D01*
X637528Y504014D01*
X637495Y503994D01*
X637458Y503982D01*
X637319Y503889D01*
X630495Y498163D01*
X620381Y494482D01*
X609619Y494482D01*
X599505Y498163D01*
X591261Y505081D01*
X585880Y514401D01*
X584011Y525000D01*
X585880Y535599D01*
X591261Y544919D01*
X594009Y547225D01*
X594077Y547304D01*
X594149Y547380D01*
X594157Y547397D01*
X594169Y547411D01*
X594208Y547508D01*
X594253Y547603D01*
X594255Y547622D01*
X594262Y547639D01*
X594268Y547744D01*
X594280Y547847D01*
X594276Y547866D01*
X594277Y547885D01*
X594250Y547985D01*
X594227Y548088D01*
X594218Y548104D01*
X594213Y548122D01*
X594155Y548209D01*
X594101Y548299D01*
X594087Y548311D01*
X594076Y548327D01*
X593994Y548391D01*
X593914Y548459D01*
X593897Y548466D01*
X593882Y548477D01*
X593783Y548512D01*
X593686Y548551D01*
X593663Y548553D01*
X593649Y548558D01*
X593618Y548558D01*
X593519Y548569D01*
X139838Y548569D01*
X139767Y548558D01*
X139696Y548556D01*
X139647Y548538D01*
X139595Y548530D01*
X139532Y548496D01*
X139465Y548471D01*
X139424Y548439D01*
X139378Y548414D01*
X139328Y548362D01*
X139272Y548318D01*
X139244Y548274D01*
X139208Y548236D01*
X139178Y548171D01*
X139139Y548111D01*
X139127Y548060D01*
X139105Y548013D01*
X139097Y547942D01*
X139079Y547872D01*
X139083Y547820D01*
X139078Y547769D01*
X139093Y547698D01*
X139099Y547627D01*
X139119Y547579D01*
X139130Y547528D01*
X139167Y547467D01*
X139195Y547401D01*
X139240Y547345D01*
X139256Y547317D01*
X139274Y547302D01*
X139300Y547270D01*
X144661Y541909D01*
X144661Y539223D01*
X135262Y539223D01*
X135242Y539220D01*
X135223Y539222D01*
X135121Y539200D01*
X135019Y539183D01*
X135002Y539174D01*
X134982Y539170D01*
X134893Y539117D01*
X134802Y539068D01*
X134788Y539054D01*
X134771Y539044D01*
X134704Y538965D01*
X134633Y538890D01*
X134624Y538872D01*
X134611Y538857D01*
X134573Y538761D01*
X134529Y538667D01*
X134527Y538647D01*
X134519Y538629D01*
X134501Y538462D01*
X134501Y537699D01*
X134499Y537699D01*
X134499Y538462D01*
X134496Y538482D01*
X134498Y538501D01*
X134476Y538603D01*
X134459Y538705D01*
X134450Y538722D01*
X134446Y538742D01*
X134393Y538831D01*
X134344Y538922D01*
X134330Y538936D01*
X134320Y538953D01*
X134241Y539020D01*
X134166Y539091D01*
X134148Y539100D01*
X134133Y539113D01*
X134037Y539152D01*
X133943Y539195D01*
X133923Y539197D01*
X133905Y539205D01*
X133738Y539223D01*
X124339Y539223D01*
X124339Y541909D01*
X129700Y547270D01*
X129742Y547328D01*
X129792Y547380D01*
X129813Y547427D01*
X129844Y547469D01*
X129865Y547538D01*
X129895Y547603D01*
X129901Y547655D01*
X129916Y547705D01*
X129914Y547776D01*
X129922Y547847D01*
X129911Y547898D01*
X129910Y547950D01*
X129885Y548018D01*
X129870Y548088D01*
X129843Y548133D01*
X129825Y548181D01*
X129781Y548237D01*
X129744Y548299D01*
X129704Y548333D01*
X129672Y548373D01*
X129611Y548412D01*
X129557Y548459D01*
X129509Y548478D01*
X129465Y548506D01*
X129395Y548524D01*
X129329Y548551D01*
X129257Y548559D01*
X129226Y548567D01*
X129203Y548565D01*
X129162Y548569D01*
X56481Y548569D01*
X56378Y548552D01*
X56274Y548541D01*
X56256Y548533D01*
X56238Y548530D01*
X56146Y548481D01*
X56051Y548436D01*
X56037Y548423D01*
X56020Y548414D01*
X55949Y548339D01*
X55873Y548266D01*
X55864Y548250D01*
X55851Y548236D01*
X55807Y548141D01*
X55758Y548049D01*
X55755Y548030D01*
X55747Y548013D01*
X55736Y547909D01*
X55719Y547806D01*
X55722Y547787D01*
X55720Y547769D01*
X55743Y547667D01*
X55760Y547563D01*
X55769Y547547D01*
X55773Y547528D01*
X55826Y547439D01*
X55875Y547346D01*
X55891Y547329D01*
X55899Y547317D01*
X55923Y547296D01*
X55991Y547225D01*
X58739Y544919D01*
X64120Y535599D01*
X64771Y531905D01*
X64773Y531900D01*
X64773Y531895D01*
X64814Y531785D01*
X64853Y531673D01*
X64856Y531669D01*
X64858Y531664D01*
X64931Y531572D01*
X65004Y531479D01*
X65008Y531476D01*
X65011Y531472D01*
X65112Y531408D01*
X65209Y531343D01*
X65214Y531342D01*
X65218Y531339D01*
X65333Y531310D01*
X65447Y531280D01*
X65452Y531280D01*
X65457Y531279D01*
X65574Y531288D01*
X65692Y531296D01*
X65697Y531298D01*
X65702Y531298D01*
X65810Y531344D01*
X65920Y531389D01*
X65924Y531392D01*
X65928Y531394D01*
X66059Y531499D01*
X74332Y539772D01*
X74385Y539846D01*
X74445Y539915D01*
X74457Y539946D01*
X74476Y539972D01*
X74503Y540059D01*
X74537Y540144D01*
X74541Y540184D01*
X74548Y540207D01*
X74547Y540239D01*
X74555Y540310D01*
X74555Y541488D01*
X79912Y546845D01*
X87488Y546845D01*
X92845Y541488D01*
X92845Y533912D01*
X87488Y528555D01*
X79902Y528555D01*
X79840Y528595D01*
X79756Y528655D01*
X79737Y528661D01*
X79720Y528672D01*
X79620Y528697D01*
X79521Y528728D01*
X79501Y528727D01*
X79482Y528732D01*
X79379Y528724D01*
X79275Y528721D01*
X79256Y528714D01*
X79237Y528713D01*
X79142Y528672D01*
X79044Y528637D01*
X79029Y528624D01*
X79010Y528616D01*
X78879Y528512D01*
X75876Y525508D01*
X75823Y525434D01*
X75763Y525365D01*
X75751Y525335D01*
X75732Y525308D01*
X75705Y525221D01*
X75671Y525136D01*
X75667Y525096D01*
X75660Y525073D01*
X75661Y525041D01*
X75653Y524970D01*
X75653Y519023D01*
X75664Y518952D01*
X75666Y518881D01*
X75684Y518832D01*
X75692Y518780D01*
X75726Y518717D01*
X75751Y518650D01*
X75783Y518609D01*
X75808Y518563D01*
X75860Y518514D01*
X75904Y518458D01*
X75948Y518429D01*
X75986Y518394D01*
X76051Y518363D01*
X76111Y518325D01*
X76162Y518312D01*
X76209Y518290D01*
X76280Y518282D01*
X76350Y518265D01*
X76402Y518269D01*
X76453Y518263D01*
X76524Y518278D01*
X76595Y518284D01*
X76643Y518304D01*
X76694Y518315D01*
X76755Y518352D01*
X76821Y518380D01*
X76877Y518425D01*
X76905Y518441D01*
X76920Y518459D01*
X76952Y518485D01*
X79912Y521445D01*
X87488Y521445D01*
X92845Y516088D01*
X92845Y508512D01*
X89448Y505115D01*
X89395Y505041D01*
X89335Y504972D01*
X89323Y504942D01*
X89304Y504915D01*
X89277Y504828D01*
X89243Y504744D01*
X89239Y504703D01*
X89232Y504680D01*
X89233Y504648D01*
X89225Y504577D01*
X89225Y420904D01*
X89239Y420814D01*
X89247Y420723D01*
X89259Y420693D01*
X89264Y420661D01*
X89307Y420580D01*
X89343Y420496D01*
X89369Y420464D01*
X89380Y420444D01*
X89403Y420421D01*
X89448Y420365D01*
X98984Y410830D01*
X99144Y410443D01*
X99178Y410387D01*
X99204Y410327D01*
X99256Y410262D01*
X99273Y410234D01*
X99288Y410222D01*
X99309Y410196D01*
X99607Y409898D01*
X99607Y409477D01*
X99617Y409412D01*
X99618Y409346D01*
X99641Y409266D01*
X99646Y409234D01*
X99656Y409217D01*
X99665Y409185D01*
X99825Y408799D01*
X99825Y406601D01*
X99665Y406215D01*
X99650Y406151D01*
X99625Y406090D01*
X99616Y406007D01*
X99609Y405975D01*
X99610Y405956D01*
X99607Y405923D01*
X99607Y405502D01*
X99309Y405204D01*
X99271Y405151D01*
X99225Y405104D01*
X99184Y405031D01*
X99165Y405004D01*
X99160Y404986D01*
X99144Y404957D01*
X98984Y404570D01*
X97430Y403016D01*
X97043Y402856D01*
X96987Y402822D01*
X96927Y402796D01*
X96862Y402744D01*
X96834Y402727D01*
X96822Y402712D01*
X96796Y402691D01*
X96498Y402393D01*
X96077Y402393D01*
X96012Y402383D01*
X95946Y402382D01*
X95866Y402359D01*
X95834Y402354D01*
X95817Y402344D01*
X95785Y402335D01*
X95399Y402175D01*
X93201Y402175D01*
X92815Y402335D01*
X92751Y402350D01*
X92690Y402375D01*
X92607Y402384D01*
X92575Y402391D01*
X92556Y402390D01*
X92523Y402393D01*
X92102Y402393D01*
X91804Y402691D01*
X91751Y402729D01*
X91704Y402775D01*
X91631Y402816D01*
X91604Y402835D01*
X91586Y402840D01*
X91557Y402856D01*
X91170Y403016D01*
X79016Y415170D01*
X78175Y417201D01*
X78175Y504577D01*
X78161Y504667D01*
X78153Y504758D01*
X78141Y504788D01*
X78136Y504820D01*
X78093Y504900D01*
X78057Y504984D01*
X78031Y505016D01*
X78020Y505037D01*
X77997Y505059D01*
X77952Y505115D01*
X76769Y506298D01*
X76732Y506325D01*
X76701Y506359D01*
X76633Y506396D01*
X76570Y506441D01*
X76526Y506455D01*
X76486Y506477D01*
X76409Y506491D01*
X76335Y506514D01*
X76289Y506513D01*
X76244Y506521D01*
X76167Y506510D01*
X76089Y506507D01*
X76046Y506492D01*
X76000Y506485D01*
X75931Y506450D01*
X75858Y506423D01*
X75822Y506394D01*
X75781Y506374D01*
X75726Y506318D01*
X75666Y506269D01*
X75641Y506231D01*
X75609Y506198D01*
X75543Y506078D01*
X75533Y506062D01*
X75532Y506058D01*
X75528Y506051D01*
X74802Y504298D01*
X40812Y470308D01*
X40759Y470234D01*
X40699Y470165D01*
X40687Y470134D01*
X40668Y470108D01*
X40641Y470021D01*
X40607Y469936D01*
X40603Y469896D01*
X40596Y469873D01*
X40597Y469841D01*
X40589Y469770D01*
X40589Y442606D01*
X40592Y442586D01*
X40590Y442567D01*
X40612Y442465D01*
X40628Y442363D01*
X40638Y442346D01*
X40642Y442326D01*
X40695Y442237D01*
X40744Y442146D01*
X40758Y442132D01*
X40768Y442115D01*
X40847Y442048D01*
X40922Y441976D01*
X40940Y441968D01*
X40955Y441955D01*
X41051Y441916D01*
X41145Y441873D01*
X41165Y441871D01*
X41183Y441863D01*
X41350Y441845D01*
X44439Y441845D01*
X47800Y440453D01*
X50373Y437880D01*
X51765Y434519D01*
X51765Y430881D01*
X50373Y427520D01*
X47800Y424947D01*
X44439Y423555D01*
X25561Y423555D01*
X22200Y424947D01*
X19627Y427520D01*
X18235Y430881D01*
X18235Y434519D01*
X19627Y437880D01*
X22200Y440453D01*
X25561Y441845D01*
X28650Y441845D01*
X28670Y441848D01*
X28689Y441846D01*
X28791Y441868D01*
X28893Y441884D01*
X28910Y441894D01*
X28930Y441898D01*
X29019Y441951D01*
X29110Y442000D01*
X29124Y442014D01*
X29141Y442024D01*
X29208Y442103D01*
X29280Y442178D01*
X29288Y442196D01*
X29301Y442211D01*
X29340Y442307D01*
X29383Y442401D01*
X29385Y442421D01*
X29393Y442439D01*
X29411Y442606D01*
X29411Y473512D01*
X30262Y475566D01*
X52862Y498166D01*
X52914Y498239D01*
X52973Y498307D01*
X52986Y498338D01*
X53005Y498365D01*
X53032Y498451D01*
X53066Y498535D01*
X53068Y498568D01*
X53078Y498600D01*
X53075Y498690D01*
X53081Y498781D01*
X53072Y498813D01*
X53071Y498846D01*
X53040Y498931D01*
X53017Y499018D01*
X52998Y499046D01*
X52987Y499077D01*
X52931Y499148D01*
X52881Y499223D01*
X52854Y499243D01*
X52833Y499269D01*
X52757Y499318D01*
X52686Y499373D01*
X52654Y499384D01*
X52626Y499402D01*
X52539Y499424D01*
X52454Y499454D01*
X52420Y499454D01*
X52388Y499462D01*
X52298Y499455D01*
X52208Y499456D01*
X52176Y499446D01*
X52143Y499443D01*
X52060Y499408D01*
X51974Y499380D01*
X51938Y499356D01*
X51916Y499347D01*
X51877Y499315D01*
X51834Y499287D01*
X50494Y498163D01*
X40381Y494482D01*
X29619Y494482D01*
X19505Y498163D01*
X12681Y503889D01*
X12648Y503909D01*
X12620Y503935D01*
X12543Y503971D01*
X12470Y504015D01*
X12432Y504023D01*
X12397Y504039D01*
X12313Y504048D01*
X12229Y504066D01*
X12191Y504062D01*
X12153Y504066D01*
X12070Y504048D01*
X11985Y504038D01*
X11950Y504022D01*
X11912Y504014D01*
X11839Y503970D01*
X11762Y503934D01*
X11734Y503907D01*
X11701Y503888D01*
X11646Y503823D01*
X11584Y503764D01*
X11566Y503730D01*
X11541Y503701D01*
X11509Y503622D01*
X11470Y503547D01*
X11464Y503508D01*
X11449Y503473D01*
X11431Y503306D01*
X11431Y329286D01*
X11434Y329266D01*
X11432Y329247D01*
X11454Y329145D01*
X11470Y329043D01*
X11480Y329026D01*
X11484Y329006D01*
X11537Y328917D01*
X11586Y328826D01*
X11600Y328812D01*
X11610Y328795D01*
X11689Y328728D01*
X11764Y328656D01*
X11782Y328648D01*
X11797Y328635D01*
X11893Y328596D01*
X11987Y328553D01*
X12007Y328551D01*
X12025Y328543D01*
X12192Y328525D01*
X24632Y328525D01*
X25525Y327632D01*
X25525Y301368D01*
X24632Y300475D01*
X12192Y300475D01*
X12172Y300472D01*
X12153Y300474D01*
X12051Y300452D01*
X11949Y300436D01*
X11932Y300426D01*
X11912Y300422D01*
X11823Y300369D01*
X11732Y300320D01*
X11718Y300306D01*
X11701Y300296D01*
X11634Y300217D01*
X11562Y300142D01*
X11554Y300124D01*
X11541Y300109D01*
X11502Y300013D01*
X11459Y299919D01*
X11457Y299899D01*
X11449Y299881D01*
X11431Y299714D01*
X11431Y154044D01*
X11438Y153999D01*
X11436Y153953D01*
X11458Y153878D01*
X11470Y153801D01*
X11492Y153760D01*
X11505Y153716D01*
X11549Y153652D01*
X11586Y153584D01*
X11619Y153552D01*
X11645Y153514D01*
X11708Y153468D01*
X11764Y153414D01*
X11806Y153395D01*
X11842Y153368D01*
X11916Y153343D01*
X11987Y153311D01*
X12033Y153306D01*
X12076Y153291D01*
X12154Y153292D01*
X12231Y153284D01*
X12276Y153293D01*
X12322Y153294D01*
X12454Y153332D01*
X12472Y153336D01*
X12476Y153338D01*
X12483Y153340D01*
X18085Y155661D01*
X24315Y155661D01*
X30071Y153277D01*
X30876Y152472D01*
X30934Y152430D01*
X30986Y152381D01*
X31033Y152359D01*
X31075Y152328D01*
X31144Y152307D01*
X31209Y152277D01*
X31261Y152271D01*
X31311Y152256D01*
X31382Y152258D01*
X31453Y152250D01*
X31504Y152261D01*
X31556Y152262D01*
X31624Y152287D01*
X31694Y152302D01*
X31739Y152329D01*
X31787Y152347D01*
X31843Y152392D01*
X31905Y152428D01*
X31939Y152468D01*
X31979Y152501D01*
X32018Y152561D01*
X32065Y152615D01*
X32084Y152664D01*
X32112Y152707D01*
X32130Y152777D01*
X32143Y152810D01*
X32147Y152818D01*
X32147Y152820D01*
X32157Y152843D01*
X32165Y152915D01*
X32173Y152946D01*
X32171Y152969D01*
X32175Y153010D01*
X32175Y165174D01*
X32172Y165194D01*
X32174Y165213D01*
X32152Y165315D01*
X32136Y165417D01*
X32126Y165434D01*
X32122Y165454D01*
X32069Y165543D01*
X32020Y165634D01*
X32006Y165648D01*
X31996Y165665D01*
X31917Y165732D01*
X31842Y165804D01*
X31824Y165812D01*
X31809Y165825D01*
X31713Y165864D01*
X31619Y165907D01*
X31599Y165909D01*
X31581Y165917D01*
X31414Y165935D01*
X27056Y165935D01*
X24092Y167163D01*
X21823Y169432D01*
X20595Y172396D01*
X20595Y175604D01*
X21823Y178568D01*
X24092Y180837D01*
X27056Y182065D01*
X38672Y182065D01*
X38762Y182079D01*
X38853Y182087D01*
X38883Y182099D01*
X38915Y182104D01*
X38995Y182147D01*
X39079Y182183D01*
X39111Y182209D01*
X39132Y182220D01*
X39154Y182243D01*
X39210Y182288D01*
X72052Y215130D01*
X72105Y215204D01*
X72165Y215273D01*
X72177Y215303D01*
X72196Y215330D01*
X72223Y215417D01*
X72257Y215501D01*
X72261Y215542D01*
X72268Y215565D01*
X72267Y215597D01*
X72275Y215668D01*
X72275Y368853D01*
X131252Y427830D01*
X131305Y427904D01*
X131365Y427973D01*
X131377Y428003D01*
X131396Y428030D01*
X131423Y428117D01*
X131457Y428201D01*
X131461Y428242D01*
X131468Y428265D01*
X131467Y428297D01*
X131475Y428368D01*
X131475Y502394D01*
X131472Y502414D01*
X131474Y502433D01*
X131452Y502535D01*
X131436Y502637D01*
X131426Y502654D01*
X131422Y502674D01*
X131369Y502763D01*
X131320Y502854D01*
X131306Y502868D01*
X131296Y502885D01*
X131217Y502952D01*
X131142Y503024D01*
X131124Y503032D01*
X131109Y503045D01*
X131013Y503084D01*
X130919Y503127D01*
X130899Y503129D01*
X130881Y503137D01*
X130714Y503155D01*
X130712Y503155D01*
X125355Y508512D01*
X125355Y516088D01*
X130712Y521445D01*
X138288Y521445D01*
X143645Y516088D01*
X143645Y508512D01*
X138288Y503155D01*
X138286Y503155D01*
X138266Y503152D01*
X138247Y503154D01*
X138145Y503132D01*
X138043Y503116D01*
X138026Y503106D01*
X138006Y503102D01*
X137917Y503049D01*
X137826Y503000D01*
X137812Y502986D01*
X137795Y502976D01*
X137728Y502897D01*
X137656Y502822D01*
X137648Y502804D01*
X137635Y502789D01*
X137596Y502693D01*
X137553Y502599D01*
X137551Y502579D01*
X137543Y502561D01*
X137525Y502394D01*
X137525Y425547D01*
X78548Y366570D01*
X78495Y366496D01*
X78435Y366427D01*
X78423Y366397D01*
X78404Y366370D01*
X78377Y366283D01*
X78343Y366199D01*
X78339Y366158D01*
X78332Y366135D01*
X78333Y366103D01*
X78325Y366032D01*
X78325Y212847D01*
X46850Y181372D01*
X46838Y181356D01*
X46823Y181343D01*
X46766Y181256D01*
X46706Y181172D01*
X46700Y181153D01*
X46690Y181137D01*
X46664Y181036D01*
X46634Y180937D01*
X46634Y180917D01*
X46629Y180898D01*
X46637Y180795D01*
X46640Y180691D01*
X46647Y180673D01*
X46649Y180653D01*
X46689Y180558D01*
X46725Y180460D01*
X46737Y180445D01*
X46745Y180426D01*
X46850Y180296D01*
X48577Y178568D01*
X49805Y175604D01*
X49805Y172396D01*
X48577Y169432D01*
X46308Y167163D01*
X43344Y165935D01*
X38986Y165935D01*
X38966Y165932D01*
X38947Y165934D01*
X38845Y165912D01*
X38743Y165896D01*
X38726Y165886D01*
X38706Y165882D01*
X38617Y165829D01*
X38526Y165780D01*
X38512Y165766D01*
X38495Y165756D01*
X38428Y165677D01*
X38356Y165602D01*
X38348Y165584D01*
X38335Y165569D01*
X38296Y165473D01*
X38253Y165379D01*
X38251Y165359D01*
X38243Y165341D01*
X38225Y165174D01*
X38225Y151836D01*
X38239Y151746D01*
X38247Y151655D01*
X38259Y151625D01*
X38264Y151593D01*
X38307Y151513D01*
X38343Y151429D01*
X38369Y151397D01*
X38380Y151376D01*
X38403Y151354D01*
X38448Y151298D01*
X41385Y148361D01*
X41385Y131639D01*
X38448Y128702D01*
X38395Y128628D01*
X38335Y128559D01*
X38323Y128529D01*
X38304Y128502D01*
X38277Y128415D01*
X38243Y128331D01*
X38239Y128290D01*
X38232Y128267D01*
X38233Y128235D01*
X38225Y128164D01*
X38225Y114826D01*
X38228Y114806D01*
X38226Y114787D01*
X38248Y114685D01*
X38264Y114583D01*
X38274Y114566D01*
X38278Y114546D01*
X38331Y114457D01*
X38380Y114366D01*
X38394Y114352D01*
X38404Y114335D01*
X38483Y114268D01*
X38558Y114196D01*
X38576Y114188D01*
X38591Y114175D01*
X38687Y114136D01*
X38781Y114093D01*
X38801Y114091D01*
X38819Y114083D01*
X38986Y114065D01*
X43344Y114065D01*
X46308Y112837D01*
X48577Y110568D01*
X49805Y107604D01*
X49805Y104396D01*
X48577Y101432D01*
X46850Y99704D01*
X46838Y99688D01*
X46823Y99676D01*
X46766Y99588D01*
X46706Y99505D01*
X46700Y99486D01*
X46690Y99469D01*
X46664Y99368D01*
X46634Y99270D01*
X46634Y99250D01*
X46629Y99230D01*
X46637Y99127D01*
X46640Y99024D01*
X46647Y99005D01*
X46649Y98985D01*
X46689Y98890D01*
X46725Y98793D01*
X46737Y98777D01*
X46745Y98759D01*
X46850Y98628D01*
X56030Y89448D01*
X56104Y89395D01*
X56173Y89335D01*
X56203Y89323D01*
X56230Y89304D01*
X56317Y89277D01*
X56401Y89243D01*
X56442Y89239D01*
X56465Y89232D01*
X56497Y89233D01*
X56568Y89225D01*
X167253Y89225D01*
X179825Y76653D01*
X179825Y44374D01*
X179844Y44259D01*
X179861Y44143D01*
X179863Y44137D01*
X179864Y44131D01*
X179919Y44029D01*
X179972Y43924D01*
X179977Y43919D01*
X179980Y43914D01*
X180064Y43834D01*
X180148Y43752D01*
X180154Y43748D01*
X180158Y43744D01*
X180175Y43737D01*
X180295Y43671D01*
X181980Y42973D01*
X184553Y40400D01*
X185945Y37039D01*
X185945Y18161D01*
X184553Y14800D01*
X182483Y12730D01*
X182441Y12672D01*
X182392Y12620D01*
X182370Y12573D01*
X182339Y12531D01*
X182318Y12462D01*
X182288Y12397D01*
X182282Y12345D01*
X182267Y12295D01*
X182269Y12224D01*
X182261Y12153D01*
X182272Y12102D01*
X182273Y12050D01*
X182298Y11982D01*
X182313Y11912D01*
X182340Y11867D01*
X182358Y11819D01*
X182403Y11763D01*
X182439Y11701D01*
X182479Y11667D01*
X182511Y11627D01*
X182572Y11588D01*
X182626Y11541D01*
X182675Y11522D01*
X182718Y11494D01*
X182788Y11476D01*
X182854Y11449D01*
X182926Y11441D01*
X182957Y11433D01*
X182980Y11435D01*
X183021Y11431D01*
X195979Y11431D01*
X196050Y11442D01*
G37*
%LPC*%
G36*
X305928Y42235D02*
X305928Y42235D01*
X305035Y43128D01*
X305035Y54392D01*
X305959Y55315D01*
X306017Y55324D01*
X306034Y55334D01*
X306054Y55338D01*
X306143Y55391D01*
X306234Y55440D01*
X306248Y55454D01*
X306265Y55464D01*
X306332Y55543D01*
X306404Y55618D01*
X306412Y55636D01*
X306425Y55651D01*
X306464Y55747D01*
X306507Y55841D01*
X306509Y55861D01*
X306517Y55879D01*
X306535Y56046D01*
X306535Y56714D01*
X306532Y56734D01*
X306534Y56753D01*
X306512Y56855D01*
X306496Y56957D01*
X306486Y56974D01*
X306482Y56994D01*
X306429Y57083D01*
X306380Y57174D01*
X306366Y57188D01*
X306356Y57205D01*
X306277Y57272D01*
X306202Y57344D01*
X306184Y57352D01*
X306169Y57365D01*
X306073Y57404D01*
X305979Y57447D01*
X305959Y57449D01*
X305951Y57453D01*
X305035Y58368D01*
X305035Y69632D01*
X305928Y70525D01*
X318192Y70525D01*
X319085Y69632D01*
X319085Y63056D01*
X319088Y63036D01*
X319086Y63017D01*
X319108Y62915D01*
X319124Y62813D01*
X319134Y62796D01*
X319138Y62776D01*
X319191Y62687D01*
X319240Y62596D01*
X319254Y62582D01*
X319264Y62565D01*
X319343Y62498D01*
X319418Y62426D01*
X319436Y62418D01*
X319451Y62405D01*
X319547Y62366D01*
X319641Y62323D01*
X319661Y62321D01*
X319679Y62313D01*
X319846Y62295D01*
X326119Y62295D01*
X326139Y62298D01*
X326158Y62296D01*
X326260Y62318D01*
X326362Y62334D01*
X326379Y62344D01*
X326399Y62348D01*
X326488Y62401D01*
X326579Y62450D01*
X326593Y62464D01*
X326610Y62474D01*
X326677Y62553D01*
X326749Y62628D01*
X326757Y62646D01*
X326770Y62661D01*
X326809Y62757D01*
X326852Y62851D01*
X326854Y62871D01*
X326858Y62879D01*
X327773Y63795D01*
X338358Y63795D01*
X338378Y63798D01*
X338397Y63796D01*
X338499Y63818D01*
X338601Y63834D01*
X338618Y63844D01*
X338638Y63848D01*
X338727Y63901D01*
X338818Y63950D01*
X338832Y63964D01*
X338849Y63974D01*
X338916Y64053D01*
X338988Y64128D01*
X338996Y64146D01*
X339009Y64161D01*
X339048Y64257D01*
X339091Y64351D01*
X339093Y64371D01*
X339101Y64389D01*
X339119Y64556D01*
X339119Y65984D01*
X339116Y66004D01*
X339118Y66023D01*
X339096Y66125D01*
X339080Y66227D01*
X339070Y66244D01*
X339066Y66264D01*
X339013Y66353D01*
X338964Y66444D01*
X338950Y66458D01*
X338940Y66475D01*
X338861Y66542D01*
X338786Y66614D01*
X338768Y66622D01*
X338753Y66635D01*
X338657Y66674D01*
X338563Y66717D01*
X338543Y66719D01*
X338525Y66727D01*
X338358Y66745D01*
X327773Y66745D01*
X326880Y67638D01*
X326880Y71875D01*
X332389Y71875D01*
X332447Y71883D01*
X332505Y71881D01*
X332587Y71903D01*
X332670Y71915D01*
X332724Y71939D01*
X332780Y71953D01*
X332853Y71996D01*
X332930Y72031D01*
X332974Y72069D01*
X333025Y72099D01*
X333082Y72160D01*
X333147Y72215D01*
X333179Y72263D01*
X333219Y72306D01*
X333258Y72381D01*
X333304Y72451D01*
X333322Y72507D01*
X333349Y72559D01*
X333360Y72627D01*
X333390Y72722D01*
X333393Y72822D01*
X333404Y72890D01*
X333404Y73771D01*
X334421Y73771D01*
X334479Y73779D01*
X334537Y73778D01*
X334619Y73799D01*
X334702Y73811D01*
X334756Y73835D01*
X334812Y73849D01*
X334885Y73892D01*
X334962Y73927D01*
X335006Y73965D01*
X335057Y73995D01*
X335114Y74056D01*
X335179Y74111D01*
X335211Y74159D01*
X335251Y74202D01*
X335290Y74277D01*
X335336Y74347D01*
X335354Y74403D01*
X335381Y74455D01*
X335392Y74523D01*
X335422Y74618D01*
X335425Y74718D01*
X335436Y74786D01*
X335436Y80795D01*
X338358Y80795D01*
X338378Y80798D01*
X338397Y80796D01*
X338499Y80818D01*
X338601Y80834D01*
X338618Y80844D01*
X338638Y80848D01*
X338727Y80901D01*
X338818Y80950D01*
X338832Y80964D01*
X338849Y80974D01*
X338916Y81053D01*
X338988Y81128D01*
X338996Y81146D01*
X339009Y81161D01*
X339048Y81257D01*
X339091Y81351D01*
X339093Y81371D01*
X339101Y81389D01*
X339119Y81556D01*
X339119Y95324D01*
X339116Y95344D01*
X339118Y95363D01*
X339096Y95465D01*
X339080Y95567D01*
X339070Y95584D01*
X339066Y95604D01*
X339013Y95693D01*
X338964Y95784D01*
X338950Y95798D01*
X338940Y95815D01*
X338861Y95882D01*
X338786Y95954D01*
X338768Y95962D01*
X338753Y95975D01*
X338657Y96014D01*
X338563Y96057D01*
X338543Y96059D01*
X338525Y96067D01*
X338358Y96085D01*
X337675Y96085D01*
X337675Y100110D01*
X337667Y100168D01*
X337669Y100226D01*
X337647Y100308D01*
X337636Y100391D01*
X337612Y100445D01*
X337597Y100501D01*
X337554Y100574D01*
X337519Y100651D01*
X337482Y100695D01*
X337452Y100745D01*
X337390Y100803D01*
X337336Y100868D01*
X337287Y100900D01*
X337244Y100940D01*
X337169Y100978D01*
X337099Y101025D01*
X337043Y101043D01*
X336991Y101069D01*
X336923Y101081D01*
X336828Y101111D01*
X336728Y101114D01*
X336660Y101125D01*
X336602Y101117D01*
X336544Y101118D01*
X336543Y101118D01*
X336462Y101097D01*
X336378Y101085D01*
X336325Y101061D01*
X336268Y101046D01*
X336196Y101003D01*
X336119Y100969D01*
X336074Y100931D01*
X336024Y100901D01*
X335966Y100840D01*
X335902Y100785D01*
X335870Y100737D01*
X335829Y100694D01*
X335791Y100619D01*
X335744Y100549D01*
X335727Y100493D01*
X335700Y100441D01*
X335689Y100373D01*
X335659Y100278D01*
X335656Y100178D01*
X335645Y100110D01*
X335645Y96085D01*
X335294Y96085D01*
X335204Y96071D01*
X335113Y96063D01*
X335083Y96051D01*
X335051Y96046D01*
X334970Y96003D01*
X334886Y95967D01*
X334854Y95941D01*
X334834Y95930D01*
X334811Y95907D01*
X334755Y95862D01*
X334470Y95577D01*
X333891Y95242D01*
X333244Y95069D01*
X332421Y95069D01*
X332421Y100110D01*
X332418Y100129D01*
X332420Y100149D01*
X332398Y100250D01*
X332382Y100352D01*
X332372Y100370D01*
X332368Y100389D01*
X332315Y100479D01*
X332267Y100570D01*
X332266Y100570D01*
X332252Y100584D01*
X332242Y100601D01*
X332241Y100601D01*
X332163Y100668D01*
X332088Y100740D01*
X332070Y100748D01*
X332055Y100761D01*
X331958Y100800D01*
X331865Y100843D01*
X331845Y100845D01*
X331826Y100853D01*
X331660Y100871D01*
X327869Y100871D01*
X327869Y102944D01*
X328049Y103616D01*
X328050Y103618D01*
X328074Y103655D01*
X328093Y103732D01*
X328121Y103807D01*
X328123Y103851D01*
X328134Y103893D01*
X328127Y103973D01*
X328130Y104053D01*
X328118Y104095D01*
X328115Y104138D01*
X328083Y104212D01*
X328061Y104289D01*
X328035Y104324D01*
X328018Y104365D01*
X327927Y104478D01*
X327919Y104490D01*
X327917Y104492D01*
X327913Y104496D01*
X327377Y105032D01*
X327133Y105455D01*
X327090Y105507D01*
X327055Y105565D01*
X327013Y105602D01*
X326977Y105645D01*
X326920Y105681D01*
X326869Y105725D01*
X326816Y105746D01*
X326769Y105776D01*
X326703Y105791D01*
X326640Y105817D01*
X326562Y105826D01*
X326530Y105833D01*
X326509Y105831D01*
X326474Y105835D01*
X320028Y105835D01*
X320017Y105846D01*
X319943Y105899D01*
X319874Y105959D01*
X319844Y105971D01*
X319818Y105990D01*
X319731Y106017D01*
X319646Y106051D01*
X319605Y106055D01*
X319583Y106062D01*
X319550Y106061D01*
X319479Y106069D01*
X310537Y106069D01*
X310420Y106050D01*
X310303Y106032D01*
X310299Y106030D01*
X310295Y106030D01*
X310189Y105974D01*
X310084Y105919D01*
X310081Y105916D01*
X310077Y105914D01*
X309995Y105828D01*
X309913Y105743D01*
X309911Y105739D01*
X309908Y105736D01*
X309858Y105628D01*
X309807Y105521D01*
X309806Y105517D01*
X309804Y105513D01*
X309791Y105394D01*
X309777Y105277D01*
X309778Y105272D01*
X309777Y105269D01*
X309780Y105255D01*
X309802Y105111D01*
X309831Y105004D01*
X309831Y100693D01*
X303052Y100693D01*
X303032Y100690D01*
X303013Y100692D01*
X302911Y100670D01*
X302809Y100653D01*
X302792Y100644D01*
X302772Y100640D01*
X302683Y100587D01*
X302592Y100538D01*
X302578Y100524D01*
X302561Y100514D01*
X302494Y100435D01*
X302423Y100360D01*
X302414Y100342D01*
X302401Y100327D01*
X302362Y100231D01*
X302319Y100137D01*
X302317Y100117D01*
X302309Y100099D01*
X302291Y99932D01*
X302291Y99169D01*
X302289Y99169D01*
X302289Y99932D01*
X302286Y99952D01*
X302288Y99971D01*
X302266Y100073D01*
X302249Y100175D01*
X302240Y100192D01*
X302236Y100212D01*
X302183Y100301D01*
X302134Y100392D01*
X302120Y100406D01*
X302110Y100423D01*
X302031Y100490D01*
X301956Y100561D01*
X301938Y100570D01*
X301923Y100583D01*
X301827Y100622D01*
X301733Y100665D01*
X301713Y100667D01*
X301695Y100675D01*
X301528Y100693D01*
X294749Y100693D01*
X294749Y105004D01*
X294922Y105651D01*
X295257Y106230D01*
X295730Y106703D01*
X296309Y107038D01*
X296571Y107108D01*
X296658Y107147D01*
X296747Y107180D01*
X296769Y107197D01*
X296795Y107209D01*
X296865Y107274D01*
X296939Y107333D01*
X296954Y107357D01*
X296975Y107376D01*
X297020Y107460D01*
X297072Y107540D01*
X297079Y107568D01*
X297092Y107592D01*
X297109Y107686D01*
X297132Y107779D01*
X297130Y107807D01*
X297135Y107835D01*
X297120Y107929D01*
X297113Y108024D01*
X297102Y108050D01*
X297098Y108078D01*
X297054Y108163D01*
X297017Y108250D01*
X296994Y108278D01*
X296985Y108296D01*
X296961Y108319D01*
X296912Y108381D01*
X295851Y109441D01*
X295796Y109575D01*
X295772Y109614D01*
X295756Y109657D01*
X295708Y109718D01*
X295667Y109784D01*
X295631Y109813D01*
X295603Y109849D01*
X295537Y109891D01*
X295477Y109940D01*
X295434Y109957D01*
X295396Y109982D01*
X295320Y110001D01*
X295248Y110029D01*
X295202Y110031D01*
X295157Y110042D01*
X295080Y110036D01*
X295002Y110039D01*
X294958Y110026D01*
X294912Y110023D01*
X294841Y109992D01*
X294766Y109971D01*
X294728Y109944D01*
X294686Y109926D01*
X294579Y109841D01*
X294564Y109830D01*
X294561Y109826D01*
X294555Y109822D01*
X292354Y107621D01*
X292301Y107547D01*
X292241Y107477D01*
X292229Y107447D01*
X292210Y107421D01*
X292183Y107334D01*
X292149Y107249D01*
X292145Y107208D01*
X292138Y107186D01*
X292139Y107154D01*
X292131Y107082D01*
X292131Y101438D01*
X284908Y94215D01*
X284855Y94141D01*
X284795Y94071D01*
X284783Y94041D01*
X284764Y94015D01*
X284737Y93928D01*
X284703Y93843D01*
X284699Y93802D01*
X284692Y93780D01*
X284693Y93748D01*
X284685Y93676D01*
X284685Y84928D01*
X283792Y84035D01*
X272528Y84035D01*
X271635Y84928D01*
X271635Y97192D01*
X272585Y98142D01*
X272597Y98158D01*
X272613Y98170D01*
X272669Y98258D01*
X272729Y98341D01*
X272735Y98360D01*
X272746Y98377D01*
X272771Y98478D01*
X272801Y98577D01*
X272801Y98596D01*
X272806Y98616D01*
X272798Y98719D01*
X272795Y98822D01*
X272788Y98841D01*
X272787Y98861D01*
X272746Y98956D01*
X272711Y99053D01*
X272698Y99069D01*
X272690Y99087D01*
X272585Y99218D01*
X271635Y100168D01*
X271635Y114192D01*
X271920Y114476D01*
X271989Y114573D01*
X272059Y114668D01*
X272061Y114672D01*
X272063Y114676D01*
X272098Y114789D01*
X272134Y114903D01*
X272134Y114907D01*
X272135Y114911D01*
X272132Y115029D01*
X272131Y115148D01*
X272129Y115152D01*
X272129Y115157D01*
X272088Y115268D01*
X272049Y115380D01*
X272046Y115384D01*
X272045Y115388D01*
X271970Y115481D01*
X271897Y115574D01*
X271893Y115577D01*
X271891Y115580D01*
X271879Y115587D01*
X271762Y115673D01*
X271600Y115767D01*
X271127Y116240D01*
X270792Y116819D01*
X270619Y117466D01*
X270619Y121777D01*
X277398Y121777D01*
X277418Y121780D01*
X277437Y121778D01*
X277539Y121800D01*
X277641Y121817D01*
X277658Y121826D01*
X277678Y121830D01*
X277767Y121883D01*
X277858Y121932D01*
X277872Y121946D01*
X277889Y121956D01*
X277956Y122035D01*
X278027Y122110D01*
X278036Y122128D01*
X278049Y122143D01*
X278088Y122239D01*
X278131Y122333D01*
X278133Y122353D01*
X278141Y122371D01*
X278159Y122538D01*
X278159Y123301D01*
X278161Y123301D01*
X278161Y122538D01*
X278164Y122518D01*
X278162Y122499D01*
X278184Y122397D01*
X278201Y122295D01*
X278210Y122278D01*
X278214Y122258D01*
X278267Y122169D01*
X278316Y122078D01*
X278330Y122064D01*
X278340Y122047D01*
X278419Y121980D01*
X278494Y121909D01*
X278512Y121900D01*
X278527Y121887D01*
X278623Y121848D01*
X278717Y121805D01*
X278737Y121803D01*
X278755Y121795D01*
X278922Y121777D01*
X285701Y121777D01*
X285701Y121032D01*
X285703Y121020D01*
X285702Y121011D01*
X285711Y120968D01*
X285712Y120961D01*
X285714Y120889D01*
X285732Y120840D01*
X285740Y120789D01*
X285774Y120726D01*
X285799Y120658D01*
X285831Y120618D01*
X285856Y120572D01*
X285908Y120522D01*
X285952Y120466D01*
X285996Y120438D01*
X286034Y120402D01*
X286099Y120372D01*
X286159Y120333D01*
X286210Y120320D01*
X286257Y120299D01*
X286328Y120291D01*
X286398Y120273D01*
X286450Y120277D01*
X286501Y120271D01*
X286572Y120287D01*
X286643Y120292D01*
X286691Y120313D01*
X286742Y120324D01*
X286803Y120361D01*
X286869Y120389D01*
X286925Y120433D01*
X286953Y120450D01*
X286968Y120468D01*
X287000Y120493D01*
X291468Y124961D01*
X304478Y124961D01*
X304549Y124972D01*
X304621Y124974D01*
X304670Y124992D01*
X304721Y125000D01*
X304784Y125034D01*
X304852Y125059D01*
X304892Y125091D01*
X304938Y125116D01*
X304988Y125168D01*
X305044Y125212D01*
X305072Y125256D01*
X305108Y125294D01*
X305138Y125359D01*
X305177Y125419D01*
X305190Y125470D01*
X305211Y125517D01*
X305219Y125588D01*
X305237Y125658D01*
X305233Y125710D01*
X305239Y125761D01*
X305223Y125832D01*
X305218Y125903D01*
X305197Y125951D01*
X305186Y126002D01*
X305149Y126063D01*
X305121Y126129D01*
X305077Y126185D01*
X305060Y126213D01*
X305042Y126228D01*
X305017Y126260D01*
X304001Y127276D01*
X303927Y127329D01*
X303857Y127389D01*
X303827Y127401D01*
X303801Y127420D01*
X303714Y127447D01*
X303629Y127481D01*
X303588Y127485D01*
X303566Y127492D01*
X303534Y127491D01*
X303462Y127499D01*
X287268Y127499D01*
X287000Y127767D01*
X286942Y127809D01*
X286890Y127858D01*
X286843Y127880D01*
X286801Y127910D01*
X286732Y127931D01*
X286667Y127961D01*
X286615Y127967D01*
X286565Y127983D01*
X286494Y127981D01*
X286423Y127989D01*
X286372Y127977D01*
X286320Y127976D01*
X286252Y127952D01*
X286182Y127936D01*
X286137Y127910D01*
X286089Y127892D01*
X286033Y127847D01*
X285971Y127810D01*
X285937Y127771D01*
X285897Y127738D01*
X285858Y127678D01*
X285811Y127623D01*
X285792Y127575D01*
X285764Y127531D01*
X285746Y127462D01*
X285719Y127395D01*
X285711Y127324D01*
X285703Y127293D01*
X285705Y127269D01*
X285701Y127228D01*
X285701Y124823D01*
X279683Y124823D01*
X279683Y131341D01*
X281588Y131341D01*
X281659Y131352D01*
X281731Y131354D01*
X281780Y131372D01*
X281831Y131380D01*
X281894Y131414D01*
X281962Y131439D01*
X282002Y131471D01*
X282048Y131496D01*
X282098Y131547D01*
X282154Y131592D01*
X282182Y131636D01*
X282218Y131674D01*
X282248Y131739D01*
X282287Y131799D01*
X282300Y131850D01*
X282321Y131897D01*
X282329Y131968D01*
X282347Y132038D01*
X282343Y132090D01*
X282349Y132141D01*
X282333Y132212D01*
X282328Y132283D01*
X282307Y132331D01*
X282296Y132382D01*
X282259Y132443D01*
X282231Y132509D01*
X282187Y132565D01*
X282170Y132593D01*
X282152Y132608D01*
X282127Y132640D01*
X267171Y147596D01*
X265459Y149308D01*
X265459Y192052D01*
X334428Y261021D01*
X334496Y261115D01*
X334566Y261210D01*
X334568Y261216D01*
X334572Y261221D01*
X334606Y261332D01*
X334642Y261444D01*
X334642Y261450D01*
X334644Y261456D01*
X334641Y261573D01*
X334640Y261690D01*
X334638Y261697D01*
X334638Y261702D01*
X334631Y261719D01*
X334593Y261851D01*
X333624Y264189D01*
X333563Y264289D01*
X333503Y264389D01*
X333498Y264393D01*
X333495Y264398D01*
X333405Y264473D01*
X333316Y264549D01*
X333310Y264551D01*
X333305Y264555D01*
X333197Y264597D01*
X333088Y264641D01*
X333080Y264642D01*
X333076Y264643D01*
X333057Y264644D01*
X332921Y264659D01*
X330006Y264659D01*
X329986Y264656D01*
X329967Y264658D01*
X329865Y264636D01*
X329763Y264620D01*
X329746Y264610D01*
X329726Y264606D01*
X329637Y264553D01*
X329546Y264504D01*
X329532Y264490D01*
X329515Y264480D01*
X329448Y264401D01*
X329376Y264326D01*
X329368Y264308D01*
X329355Y264293D01*
X329316Y264197D01*
X329273Y264103D01*
X329271Y264083D01*
X329263Y264065D01*
X329245Y263898D01*
X329245Y261568D01*
X328352Y260675D01*
X316088Y260675D01*
X315195Y261568D01*
X315195Y272832D01*
X316088Y273725D01*
X328352Y273725D01*
X329245Y272832D01*
X329245Y270502D01*
X329248Y270482D01*
X329246Y270463D01*
X329268Y270361D01*
X329284Y270259D01*
X329294Y270242D01*
X329298Y270222D01*
X329351Y270133D01*
X329400Y270042D01*
X329414Y270028D01*
X329424Y270011D01*
X329503Y269944D01*
X329578Y269872D01*
X329596Y269864D01*
X329611Y269851D01*
X329707Y269812D01*
X329801Y269769D01*
X329821Y269767D01*
X329839Y269759D01*
X330006Y269741D01*
X332921Y269741D01*
X333036Y269760D01*
X333152Y269777D01*
X333158Y269779D01*
X333164Y269780D01*
X333266Y269835D01*
X333371Y269888D01*
X333376Y269893D01*
X333381Y269896D01*
X333461Y269980D01*
X333544Y270064D01*
X333547Y270070D01*
X333551Y270074D01*
X333558Y270091D01*
X333624Y270211D01*
X334940Y273387D01*
X338013Y276460D01*
X342027Y278123D01*
X346373Y278123D01*
X350387Y276460D01*
X353460Y273387D01*
X355123Y269373D01*
X355123Y265027D01*
X353460Y261013D01*
X350387Y257940D01*
X346373Y256277D01*
X342027Y256277D01*
X338851Y257593D01*
X338737Y257620D01*
X338624Y257648D01*
X338617Y257648D01*
X338611Y257649D01*
X338495Y257638D01*
X338378Y257629D01*
X338373Y257627D01*
X338366Y257626D01*
X338259Y257578D01*
X338152Y257533D01*
X338146Y257528D01*
X338142Y257526D01*
X338128Y257513D01*
X338021Y257428D01*
X270764Y190171D01*
X270711Y190097D01*
X270651Y190027D01*
X270639Y189997D01*
X270620Y189971D01*
X270593Y189884D01*
X270559Y189799D01*
X270555Y189758D01*
X270548Y189736D01*
X270549Y189704D01*
X270541Y189632D01*
X270541Y179922D01*
X270552Y179851D01*
X270554Y179779D01*
X270572Y179730D01*
X270580Y179679D01*
X270614Y179616D01*
X270639Y179548D01*
X270671Y179508D01*
X270696Y179462D01*
X270748Y179412D01*
X270792Y179356D01*
X270836Y179328D01*
X270874Y179292D01*
X270939Y179262D01*
X270999Y179223D01*
X271050Y179210D01*
X271097Y179189D01*
X271168Y179181D01*
X271238Y179163D01*
X271290Y179167D01*
X271341Y179161D01*
X271412Y179177D01*
X271483Y179182D01*
X271531Y179203D01*
X271582Y179214D01*
X271643Y179251D01*
X271709Y179279D01*
X271765Y179323D01*
X271793Y179340D01*
X271808Y179358D01*
X271840Y179383D01*
X345246Y252789D01*
X346958Y254501D01*
X352992Y254501D01*
X353082Y254515D01*
X353173Y254523D01*
X353203Y254535D01*
X353235Y254540D01*
X353316Y254583D01*
X353400Y254619D01*
X353432Y254645D01*
X353452Y254656D01*
X353475Y254679D01*
X353531Y254724D01*
X359828Y261021D01*
X359897Y261116D01*
X359966Y261210D01*
X359968Y261216D01*
X359972Y261221D01*
X360006Y261332D01*
X360042Y261444D01*
X360042Y261450D01*
X360044Y261456D01*
X360041Y261573D01*
X360040Y261690D01*
X360038Y261697D01*
X360038Y261702D01*
X360031Y261719D01*
X359993Y261851D01*
X358677Y265027D01*
X358677Y269373D01*
X360340Y273387D01*
X363413Y276460D01*
X367427Y278123D01*
X371773Y278123D01*
X375787Y276460D01*
X378860Y273387D01*
X380523Y269373D01*
X380523Y265027D01*
X378860Y261013D01*
X375787Y257940D01*
X371773Y256277D01*
X367427Y256277D01*
X364251Y257593D01*
X364137Y257620D01*
X364024Y257648D01*
X364017Y257648D01*
X364011Y257649D01*
X363895Y257638D01*
X363778Y257629D01*
X363773Y257627D01*
X363766Y257626D01*
X363659Y257578D01*
X363552Y257533D01*
X363546Y257528D01*
X363542Y257526D01*
X363528Y257513D01*
X363421Y257428D01*
X356713Y250720D01*
X356672Y250662D01*
X356622Y250610D01*
X356600Y250563D01*
X356570Y250521D01*
X356549Y250452D01*
X356519Y250387D01*
X356513Y250335D01*
X356497Y250285D01*
X356499Y250214D01*
X356491Y250143D01*
X356503Y250092D01*
X356504Y250040D01*
X356528Y249972D01*
X356544Y249902D01*
X356570Y249858D01*
X356588Y249809D01*
X356633Y249753D01*
X356670Y249691D01*
X356709Y249657D01*
X356742Y249617D01*
X356802Y249578D01*
X356857Y249531D01*
X356905Y249512D01*
X356949Y249484D01*
X357018Y249466D01*
X357085Y249439D01*
X357156Y249431D01*
X357187Y249423D01*
X357211Y249425D01*
X357252Y249421D01*
X373312Y249421D01*
X373402Y249435D01*
X373493Y249443D01*
X373523Y249455D01*
X373555Y249460D01*
X373636Y249503D01*
X373720Y249539D01*
X373752Y249565D01*
X373772Y249576D01*
X373795Y249599D01*
X373851Y249644D01*
X385228Y261021D01*
X385297Y261116D01*
X385366Y261210D01*
X385368Y261216D01*
X385372Y261221D01*
X385406Y261332D01*
X385442Y261444D01*
X385442Y261450D01*
X385444Y261456D01*
X385441Y261573D01*
X385440Y261690D01*
X385438Y261697D01*
X385438Y261702D01*
X385431Y261719D01*
X385393Y261851D01*
X384077Y265027D01*
X384077Y269373D01*
X385740Y273387D01*
X388813Y276460D01*
X392827Y278123D01*
X397173Y278123D01*
X401187Y276460D01*
X404260Y273387D01*
X405923Y269373D01*
X405923Y265027D01*
X404260Y261013D01*
X401187Y257940D01*
X397173Y256277D01*
X392827Y256277D01*
X389651Y257593D01*
X389537Y257620D01*
X389424Y257648D01*
X389417Y257648D01*
X389411Y257649D01*
X389295Y257638D01*
X389178Y257629D01*
X389173Y257627D01*
X389166Y257626D01*
X389059Y257578D01*
X388952Y257533D01*
X388946Y257528D01*
X388942Y257526D01*
X388928Y257513D01*
X388821Y257428D01*
X377033Y245640D01*
X376992Y245582D01*
X376942Y245530D01*
X376920Y245483D01*
X376890Y245441D01*
X376869Y245372D01*
X376839Y245307D01*
X376833Y245255D01*
X376817Y245205D01*
X376819Y245134D01*
X376811Y245063D01*
X376823Y245012D01*
X376824Y244960D01*
X376848Y244892D01*
X376864Y244822D01*
X376890Y244778D01*
X376908Y244729D01*
X376953Y244673D01*
X376990Y244611D01*
X377029Y244577D01*
X377062Y244537D01*
X377122Y244498D01*
X377177Y244451D01*
X377225Y244432D01*
X377269Y244404D01*
X377338Y244386D01*
X377405Y244359D01*
X377476Y244351D01*
X377507Y244343D01*
X377531Y244345D01*
X377572Y244341D01*
X393632Y244341D01*
X393722Y244355D01*
X393813Y244363D01*
X393843Y244375D01*
X393875Y244380D01*
X393956Y244423D01*
X394040Y244459D01*
X394072Y244485D01*
X394092Y244496D01*
X394115Y244519D01*
X394171Y244564D01*
X410628Y261021D01*
X410696Y261115D01*
X410766Y261210D01*
X410768Y261216D01*
X410772Y261221D01*
X410806Y261332D01*
X410842Y261444D01*
X410842Y261450D01*
X410844Y261456D01*
X410841Y261573D01*
X410840Y261690D01*
X410838Y261697D01*
X410838Y261702D01*
X410831Y261719D01*
X410793Y261851D01*
X409477Y265027D01*
X409477Y269373D01*
X411140Y273387D01*
X414213Y276460D01*
X418227Y278123D01*
X422573Y278123D01*
X426587Y276460D01*
X429660Y273387D01*
X431323Y269373D01*
X431323Y265027D01*
X429660Y261013D01*
X426587Y257940D01*
X422573Y256277D01*
X418227Y256277D01*
X415051Y257593D01*
X414937Y257620D01*
X414824Y257648D01*
X414817Y257648D01*
X414811Y257649D01*
X414695Y257638D01*
X414578Y257629D01*
X414573Y257627D01*
X414566Y257626D01*
X414459Y257578D01*
X414352Y257533D01*
X414346Y257528D01*
X414342Y257526D01*
X414328Y257513D01*
X414221Y257428D01*
X396052Y239259D01*
X395762Y239259D01*
X395742Y239256D01*
X395723Y239258D01*
X395621Y239236D01*
X395519Y239220D01*
X395502Y239210D01*
X395482Y239206D01*
X395393Y239153D01*
X395302Y239104D01*
X395288Y239090D01*
X395271Y239080D01*
X395204Y239001D01*
X395132Y238926D01*
X395124Y238908D01*
X395111Y238893D01*
X395072Y238797D01*
X395029Y238703D01*
X395027Y238683D01*
X395019Y238665D01*
X395001Y238498D01*
X395001Y194028D01*
X395015Y193938D01*
X395023Y193847D01*
X395035Y193817D01*
X395040Y193785D01*
X395083Y193704D01*
X395119Y193620D01*
X395145Y193588D01*
X395156Y193568D01*
X395179Y193545D01*
X395224Y193489D01*
X404935Y183778D01*
X405009Y183725D01*
X405079Y183665D01*
X405109Y183653D01*
X405135Y183634D01*
X405222Y183607D01*
X405307Y183573D01*
X405348Y183569D01*
X405370Y183562D01*
X405402Y183563D01*
X405474Y183555D01*
X414222Y183555D01*
X415115Y182662D01*
X415115Y171398D01*
X414222Y170505D01*
X401958Y170505D01*
X401065Y171398D01*
X401065Y180146D01*
X401051Y180236D01*
X401043Y180327D01*
X401031Y180357D01*
X401026Y180389D01*
X400983Y180470D01*
X400947Y180554D01*
X400921Y180586D01*
X400910Y180606D01*
X400887Y180629D01*
X400842Y180685D01*
X389919Y191608D01*
X389919Y238498D01*
X389916Y238518D01*
X389918Y238537D01*
X389896Y238639D01*
X389880Y238741D01*
X389870Y238758D01*
X389866Y238778D01*
X389813Y238867D01*
X389764Y238958D01*
X389750Y238972D01*
X389740Y238989D01*
X389661Y239056D01*
X389586Y239128D01*
X389568Y239136D01*
X389553Y239149D01*
X389457Y239188D01*
X389363Y239231D01*
X389343Y239233D01*
X389325Y239241D01*
X389158Y239259D01*
X358268Y239259D01*
X358178Y239245D01*
X358087Y239237D01*
X358057Y239225D01*
X358025Y239220D01*
X357944Y239177D01*
X357860Y239141D01*
X357828Y239115D01*
X357808Y239104D01*
X357785Y239081D01*
X357729Y239036D01*
X319414Y200721D01*
X319366Y200654D01*
X319361Y200649D01*
X319359Y200645D01*
X319301Y200577D01*
X319289Y200547D01*
X319270Y200521D01*
X319243Y200434D01*
X319209Y200349D01*
X319205Y200308D01*
X319198Y200286D01*
X319199Y200254D01*
X319191Y200182D01*
X319191Y193206D01*
X319194Y193186D01*
X319192Y193167D01*
X319214Y193065D01*
X319230Y192963D01*
X319240Y192946D01*
X319244Y192926D01*
X319297Y192837D01*
X319346Y192746D01*
X319360Y192732D01*
X319370Y192715D01*
X319449Y192648D01*
X319524Y192576D01*
X319542Y192568D01*
X319557Y192555D01*
X319653Y192516D01*
X319747Y192473D01*
X319767Y192471D01*
X319785Y192463D01*
X319952Y192445D01*
X322782Y192445D01*
X323675Y191552D01*
X323675Y180288D01*
X322782Y179395D01*
X310518Y179395D01*
X309625Y180288D01*
X309625Y182364D01*
X309622Y182384D01*
X309624Y182403D01*
X309602Y182505D01*
X309586Y182607D01*
X309576Y182624D01*
X309572Y182644D01*
X309519Y182733D01*
X309470Y182824D01*
X309456Y182838D01*
X309446Y182855D01*
X309367Y182922D01*
X309292Y182994D01*
X309274Y183002D01*
X309259Y183015D01*
X309163Y183054D01*
X309069Y183097D01*
X309049Y183099D01*
X309031Y183107D01*
X308864Y183125D01*
X303763Y183125D01*
X303673Y183111D01*
X303582Y183103D01*
X303552Y183091D01*
X303520Y183086D01*
X303440Y183043D01*
X303356Y183007D01*
X303324Y182981D01*
X303303Y182970D01*
X303281Y182947D01*
X303225Y182902D01*
X290458Y170135D01*
X290405Y170061D01*
X290345Y169992D01*
X290333Y169962D01*
X290314Y169936D01*
X290287Y169849D01*
X290253Y169764D01*
X290249Y169723D01*
X290242Y169701D01*
X290243Y169668D01*
X290235Y169597D01*
X290235Y169076D01*
X290238Y169056D01*
X290236Y169037D01*
X290258Y168935D01*
X290274Y168833D01*
X290284Y168816D01*
X290288Y168796D01*
X290341Y168707D01*
X290390Y168616D01*
X290404Y168602D01*
X290414Y168585D01*
X290493Y168518D01*
X290568Y168446D01*
X290586Y168438D01*
X290601Y168425D01*
X290697Y168386D01*
X290791Y168343D01*
X290811Y168341D01*
X290829Y168333D01*
X290996Y168315D01*
X293572Y168315D01*
X294465Y167422D01*
X294465Y156158D01*
X293572Y155265D01*
X290996Y155265D01*
X290976Y155262D01*
X290957Y155264D01*
X290855Y155242D01*
X290753Y155226D01*
X290736Y155216D01*
X290716Y155212D01*
X290627Y155159D01*
X290536Y155110D01*
X290522Y155096D01*
X290505Y155086D01*
X290438Y155007D01*
X290366Y154932D01*
X290358Y154914D01*
X290345Y154899D01*
X290306Y154803D01*
X290263Y154709D01*
X290261Y154689D01*
X290253Y154671D01*
X290235Y154504D01*
X290235Y152713D01*
X290249Y152623D01*
X290257Y152532D01*
X290269Y152502D01*
X290274Y152470D01*
X290317Y152390D01*
X290353Y152306D01*
X290379Y152274D01*
X290390Y152253D01*
X290413Y152231D01*
X290458Y152175D01*
X294335Y148298D01*
X294409Y148245D01*
X294478Y148185D01*
X294508Y148173D01*
X294534Y148154D01*
X294621Y148127D01*
X294706Y148093D01*
X294747Y148089D01*
X294769Y148082D01*
X294802Y148083D01*
X294873Y148075D01*
X311485Y148075D01*
X311556Y148086D01*
X311628Y148088D01*
X311677Y148106D01*
X311728Y148114D01*
X311791Y148148D01*
X311859Y148173D01*
X311899Y148205D01*
X311945Y148230D01*
X311995Y148282D01*
X312051Y148326D01*
X312079Y148370D01*
X312115Y148408D01*
X312145Y148473D01*
X312184Y148533D01*
X312196Y148584D01*
X312218Y148631D01*
X312226Y148702D01*
X312244Y148772D01*
X312240Y148824D01*
X312245Y148875D01*
X312230Y148946D01*
X312225Y149017D01*
X312204Y149065D01*
X312193Y149116D01*
X312156Y149177D01*
X312128Y149243D01*
X312083Y149299D01*
X312067Y149327D01*
X312049Y149342D01*
X312023Y149374D01*
X310245Y151152D01*
X308385Y153012D01*
X308385Y154504D01*
X308382Y154524D01*
X308384Y154543D01*
X308362Y154645D01*
X308346Y154747D01*
X308336Y154764D01*
X308332Y154784D01*
X308279Y154873D01*
X308230Y154964D01*
X308216Y154978D01*
X308206Y154995D01*
X308127Y155062D01*
X308052Y155134D01*
X308034Y155142D01*
X308019Y155155D01*
X307923Y155194D01*
X307829Y155237D01*
X307809Y155239D01*
X307791Y155247D01*
X307624Y155265D01*
X298308Y155265D01*
X297415Y156158D01*
X297415Y167422D01*
X298308Y168315D01*
X323417Y168315D01*
X324310Y167422D01*
X324310Y156158D01*
X323876Y155724D01*
X323834Y155666D01*
X323784Y155614D01*
X323762Y155567D01*
X323732Y155525D01*
X323711Y155456D01*
X323681Y155391D01*
X323675Y155339D01*
X323660Y155289D01*
X323662Y155218D01*
X323654Y155147D01*
X323665Y155096D01*
X323666Y155044D01*
X323691Y154976D01*
X323706Y154906D01*
X323733Y154861D01*
X323750Y154813D01*
X323795Y154757D01*
X323832Y154695D01*
X323872Y154661D01*
X323904Y154621D01*
X323964Y154582D01*
X324019Y154535D01*
X324067Y154516D01*
X324111Y154488D01*
X324181Y154470D01*
X324247Y154443D01*
X324318Y154435D01*
X324350Y154427D01*
X324373Y154429D01*
X324414Y154425D01*
X327156Y154425D01*
X327227Y154436D01*
X327299Y154438D01*
X327348Y154456D01*
X327399Y154464D01*
X327462Y154498D01*
X327530Y154523D01*
X327570Y154555D01*
X327616Y154580D01*
X327666Y154631D01*
X327722Y154676D01*
X327750Y154720D01*
X327786Y154758D01*
X327816Y154823D01*
X327855Y154883D01*
X327867Y154934D01*
X327889Y154981D01*
X327897Y155052D01*
X327915Y155122D01*
X327911Y155174D01*
X327916Y155225D01*
X327901Y155296D01*
X327896Y155367D01*
X327875Y155415D01*
X327864Y155466D01*
X327827Y155527D01*
X327799Y155593D01*
X327754Y155649D01*
X327738Y155677D01*
X327720Y155692D01*
X327694Y155724D01*
X327260Y156158D01*
X327260Y167422D01*
X328153Y168315D01*
X335374Y168315D01*
X335394Y168318D01*
X335413Y168316D01*
X335515Y168338D01*
X335617Y168354D01*
X335634Y168364D01*
X335654Y168368D01*
X335743Y168421D01*
X335834Y168470D01*
X335848Y168484D01*
X335865Y168494D01*
X335932Y168573D01*
X336004Y168648D01*
X336012Y168666D01*
X336025Y168681D01*
X336064Y168777D01*
X336107Y168871D01*
X336109Y168891D01*
X336117Y168909D01*
X336135Y169076D01*
X336135Y171110D01*
X336125Y171175D01*
X336124Y171240D01*
X336101Y171320D01*
X336096Y171353D01*
X336086Y171370D01*
X336077Y171401D01*
X335563Y172642D01*
X335563Y175068D01*
X336491Y177309D01*
X337279Y178096D01*
X337321Y178154D01*
X337370Y178206D01*
X337392Y178253D01*
X337422Y178295D01*
X337443Y178364D01*
X337474Y178429D01*
X337479Y178481D01*
X337495Y178531D01*
X337493Y178602D01*
X337501Y178673D01*
X337490Y178724D01*
X337488Y178776D01*
X337464Y178844D01*
X337448Y178914D01*
X337422Y178959D01*
X337404Y179007D01*
X337359Y179063D01*
X337322Y179125D01*
X337283Y179159D01*
X337250Y179199D01*
X337190Y179238D01*
X337135Y179285D01*
X337087Y179304D01*
X337043Y179332D01*
X336974Y179350D01*
X336907Y179377D01*
X336836Y179385D01*
X336805Y179393D01*
X336781Y179391D01*
X336740Y179395D01*
X327518Y179395D01*
X326625Y180288D01*
X326625Y191552D01*
X327518Y192445D01*
X331619Y192445D01*
X331619Y186936D01*
X331627Y186878D01*
X331625Y186820D01*
X331647Y186738D01*
X331659Y186655D01*
X331683Y186601D01*
X331697Y186545D01*
X331740Y186472D01*
X331775Y186395D01*
X331813Y186351D01*
X331843Y186300D01*
X331904Y186243D01*
X331959Y186178D01*
X332007Y186146D01*
X332050Y186106D01*
X332125Y186067D01*
X332195Y186021D01*
X332251Y186003D01*
X332303Y185976D01*
X332371Y185965D01*
X332466Y185935D01*
X332566Y185932D01*
X332634Y185921D01*
X333651Y185921D01*
X333651Y184904D01*
X333659Y184846D01*
X333658Y184788D01*
X333679Y184706D01*
X333691Y184623D01*
X333715Y184569D01*
X333729Y184513D01*
X333772Y184440D01*
X333807Y184363D01*
X333845Y184318D01*
X333875Y184268D01*
X333936Y184210D01*
X333991Y184146D01*
X334039Y184114D01*
X334082Y184074D01*
X334157Y184035D01*
X334227Y183989D01*
X334283Y183971D01*
X334335Y183944D01*
X334403Y183933D01*
X334498Y183903D01*
X334598Y183900D01*
X334666Y183889D01*
X340675Y183889D01*
X340675Y180713D01*
X340678Y180693D01*
X340676Y180674D01*
X340698Y180572D01*
X340714Y180470D01*
X340724Y180453D01*
X340728Y180433D01*
X340781Y180344D01*
X340830Y180253D01*
X340844Y180239D01*
X340854Y180222D01*
X340933Y180155D01*
X341008Y180083D01*
X341026Y180075D01*
X341041Y180062D01*
X341137Y180023D01*
X341231Y179980D01*
X341251Y179978D01*
X341269Y179970D01*
X341436Y179952D01*
X341884Y179952D01*
X341904Y179955D01*
X341923Y179953D01*
X342025Y179975D01*
X342127Y179991D01*
X342144Y180001D01*
X342164Y180005D01*
X342253Y180058D01*
X342344Y180107D01*
X342358Y180121D01*
X342375Y180131D01*
X342442Y180210D01*
X342514Y180285D01*
X342522Y180303D01*
X342535Y180318D01*
X342574Y180414D01*
X342617Y180508D01*
X342619Y180528D01*
X342627Y180546D01*
X342645Y180713D01*
X342645Y183889D01*
X348654Y183889D01*
X348712Y183897D01*
X348770Y183895D01*
X348852Y183917D01*
X348935Y183929D01*
X348989Y183953D01*
X349045Y183967D01*
X349118Y184010D01*
X349195Y184045D01*
X349239Y184083D01*
X349290Y184113D01*
X349347Y184174D01*
X349412Y184229D01*
X349444Y184277D01*
X349484Y184320D01*
X349523Y184395D01*
X349569Y184465D01*
X349587Y184521D01*
X349614Y184573D01*
X349625Y184641D01*
X349655Y184736D01*
X349658Y184836D01*
X349669Y184904D01*
X349669Y185921D01*
X350686Y185921D01*
X350744Y185929D01*
X350802Y185928D01*
X350884Y185949D01*
X350967Y185961D01*
X351021Y185985D01*
X351077Y185999D01*
X351150Y186042D01*
X351227Y186077D01*
X351271Y186115D01*
X351322Y186145D01*
X351379Y186206D01*
X351444Y186261D01*
X351476Y186309D01*
X351516Y186352D01*
X351555Y186427D01*
X351601Y186497D01*
X351619Y186553D01*
X351646Y186605D01*
X351657Y186673D01*
X351687Y186768D01*
X351690Y186868D01*
X351701Y186936D01*
X351701Y192445D01*
X355802Y192445D01*
X356695Y191552D01*
X356695Y180288D01*
X355802Y179395D01*
X346580Y179395D01*
X346509Y179384D01*
X346437Y179382D01*
X346388Y179364D01*
X346337Y179356D01*
X346274Y179322D01*
X346206Y179297D01*
X346166Y179265D01*
X346119Y179240D01*
X346070Y179188D01*
X346014Y179144D01*
X345986Y179100D01*
X345950Y179062D01*
X345920Y178997D01*
X345881Y178937D01*
X345868Y178886D01*
X345846Y178839D01*
X345839Y178768D01*
X345821Y178698D01*
X345825Y178646D01*
X345819Y178595D01*
X345835Y178524D01*
X345840Y178453D01*
X345861Y178405D01*
X345872Y178354D01*
X345908Y178293D01*
X345937Y178227D01*
X345981Y178171D01*
X345998Y178143D01*
X346016Y178128D01*
X346041Y178096D01*
X346829Y177309D01*
X347757Y175068D01*
X347757Y172642D01*
X347243Y171401D01*
X347228Y171338D01*
X347203Y171277D01*
X347194Y171194D01*
X347187Y171162D01*
X347188Y171142D01*
X347185Y171110D01*
X347185Y169076D01*
X347188Y169056D01*
X347186Y169037D01*
X347208Y168935D01*
X347224Y168833D01*
X347234Y168816D01*
X347238Y168796D01*
X347291Y168707D01*
X347340Y168616D01*
X347354Y168602D01*
X347364Y168585D01*
X347443Y168518D01*
X347518Y168446D01*
X347536Y168438D01*
X347551Y168425D01*
X347647Y168386D01*
X347741Y168343D01*
X347761Y168341D01*
X347779Y168333D01*
X347946Y168315D01*
X355802Y168315D01*
X356695Y167422D01*
X356695Y156202D01*
X356698Y156182D01*
X356696Y156163D01*
X356718Y156061D01*
X356734Y155959D01*
X356744Y155942D01*
X356748Y155922D01*
X356801Y155833D01*
X356850Y155742D01*
X356864Y155728D01*
X356874Y155711D01*
X356953Y155644D01*
X357028Y155572D01*
X357046Y155564D01*
X357061Y155551D01*
X357157Y155512D01*
X357251Y155469D01*
X357271Y155467D01*
X357289Y155459D01*
X357456Y155441D01*
X358884Y155441D01*
X358904Y155444D01*
X358923Y155442D01*
X359025Y155464D01*
X359127Y155480D01*
X359144Y155490D01*
X359164Y155494D01*
X359253Y155547D01*
X359344Y155596D01*
X359358Y155610D01*
X359375Y155620D01*
X359442Y155699D01*
X359514Y155774D01*
X359522Y155792D01*
X359535Y155807D01*
X359574Y155903D01*
X359617Y155997D01*
X359619Y156017D01*
X359627Y156035D01*
X359645Y156202D01*
X359645Y167422D01*
X360538Y168315D01*
X364639Y168315D01*
X364639Y162806D01*
X364647Y162748D01*
X364645Y162690D01*
X364667Y162608D01*
X364679Y162525D01*
X364703Y162471D01*
X364717Y162415D01*
X364760Y162342D01*
X364795Y162265D01*
X364833Y162221D01*
X364863Y162170D01*
X364924Y162113D01*
X364979Y162048D01*
X365027Y162016D01*
X365070Y161976D01*
X365145Y161937D01*
X365215Y161891D01*
X365271Y161873D01*
X365323Y161846D01*
X365391Y161835D01*
X365486Y161805D01*
X365586Y161802D01*
X365654Y161791D01*
X367686Y161791D01*
X367744Y161799D01*
X367802Y161798D01*
X367884Y161819D01*
X367967Y161831D01*
X368021Y161855D01*
X368077Y161869D01*
X368150Y161912D01*
X368227Y161947D01*
X368271Y161985D01*
X368322Y162015D01*
X368379Y162076D01*
X368444Y162131D01*
X368476Y162179D01*
X368516Y162222D01*
X368555Y162297D01*
X368601Y162367D01*
X368619Y162423D01*
X368646Y162475D01*
X368657Y162543D01*
X368687Y162638D01*
X368690Y162738D01*
X368701Y162806D01*
X368701Y168315D01*
X372802Y168315D01*
X373695Y167422D01*
X373695Y156158D01*
X372802Y155265D01*
X369972Y155265D01*
X369952Y155262D01*
X369933Y155264D01*
X369831Y155242D01*
X369729Y155226D01*
X369712Y155216D01*
X369692Y155212D01*
X369603Y155159D01*
X369512Y155110D01*
X369498Y155096D01*
X369481Y155086D01*
X369414Y155007D01*
X369342Y154932D01*
X369334Y154914D01*
X369321Y154899D01*
X369282Y154803D01*
X369239Y154709D01*
X369237Y154689D01*
X369229Y154671D01*
X369211Y154504D01*
X369211Y153998D01*
X367499Y152286D01*
X365451Y150238D01*
X365439Y150222D01*
X365424Y150209D01*
X365368Y150122D01*
X365307Y150038D01*
X365302Y150019D01*
X365291Y150002D01*
X365265Y149902D01*
X365235Y149803D01*
X365236Y149783D01*
X365231Y149764D01*
X365239Y149661D01*
X365241Y149557D01*
X365248Y149538D01*
X365250Y149518D01*
X365290Y149424D01*
X365326Y149326D01*
X365338Y149310D01*
X365346Y149292D01*
X365451Y149161D01*
X367149Y147464D01*
X368134Y145085D01*
X368158Y145046D01*
X368174Y145003D01*
X368222Y144942D01*
X368263Y144876D01*
X368299Y144847D01*
X368327Y144811D01*
X368393Y144769D01*
X368453Y144719D01*
X368496Y144703D01*
X368534Y144678D01*
X368610Y144659D01*
X368682Y144631D01*
X368728Y144629D01*
X368773Y144618D01*
X368850Y144624D01*
X368928Y144621D01*
X368972Y144634D01*
X369018Y144637D01*
X369089Y144668D01*
X369164Y144689D01*
X369202Y144716D01*
X369244Y144734D01*
X369351Y144819D01*
X369366Y144830D01*
X369369Y144834D01*
X369375Y144838D01*
X371968Y147431D01*
X372474Y147431D01*
X372494Y147434D01*
X372513Y147432D01*
X372615Y147454D01*
X372717Y147470D01*
X372734Y147480D01*
X372754Y147484D01*
X372843Y147537D01*
X372934Y147586D01*
X372948Y147600D01*
X372965Y147610D01*
X373032Y147689D01*
X373104Y147764D01*
X373112Y147782D01*
X373125Y147797D01*
X373164Y147893D01*
X373207Y147987D01*
X373209Y148007D01*
X373217Y148025D01*
X373235Y148192D01*
X373235Y151022D01*
X374128Y151915D01*
X382517Y151915D01*
X382607Y151929D01*
X382698Y151937D01*
X382728Y151949D01*
X382760Y151954D01*
X382840Y151997D01*
X382924Y152033D01*
X382956Y152059D01*
X382977Y152070D01*
X382999Y152093D01*
X383055Y152138D01*
X392962Y162045D01*
X400304Y162045D01*
X400324Y162048D01*
X400343Y162046D01*
X400445Y162068D01*
X400547Y162084D01*
X400564Y162094D01*
X400584Y162098D01*
X400673Y162151D01*
X400764Y162200D01*
X400778Y162214D01*
X400795Y162224D01*
X400862Y162303D01*
X400934Y162378D01*
X400942Y162396D01*
X400955Y162411D01*
X400994Y162507D01*
X401037Y162601D01*
X401039Y162621D01*
X401047Y162639D01*
X401065Y162806D01*
X401065Y164882D01*
X401958Y165775D01*
X414222Y165775D01*
X415115Y164882D01*
X415115Y153618D01*
X414222Y152725D01*
X401958Y152725D01*
X401065Y153618D01*
X401065Y155694D01*
X401062Y155714D01*
X401064Y155733D01*
X401042Y155835D01*
X401026Y155937D01*
X401016Y155954D01*
X401012Y155974D01*
X400959Y156063D01*
X400910Y156154D01*
X400896Y156168D01*
X400886Y156185D01*
X400807Y156252D01*
X400732Y156324D01*
X400714Y156332D01*
X400699Y156345D01*
X400603Y156384D01*
X400509Y156427D01*
X400489Y156429D01*
X400471Y156437D01*
X400304Y156455D01*
X395593Y156455D01*
X395503Y156441D01*
X395412Y156433D01*
X395382Y156421D01*
X395350Y156416D01*
X395270Y156373D01*
X395186Y156337D01*
X395154Y156311D01*
X395133Y156300D01*
X395111Y156277D01*
X395055Y156232D01*
X386508Y147685D01*
X386455Y147611D01*
X386395Y147542D01*
X386383Y147512D01*
X386364Y147486D01*
X386337Y147399D01*
X386303Y147314D01*
X386299Y147273D01*
X386292Y147251D01*
X386293Y147218D01*
X386285Y147147D01*
X386285Y138758D01*
X385392Y137865D01*
X374172Y137865D01*
X374152Y137862D01*
X374133Y137864D01*
X374031Y137842D01*
X373929Y137826D01*
X373912Y137816D01*
X373892Y137812D01*
X373803Y137759D01*
X373712Y137710D01*
X373698Y137696D01*
X373681Y137686D01*
X373614Y137607D01*
X373542Y137532D01*
X373534Y137514D01*
X373521Y137499D01*
X373482Y137403D01*
X373439Y137309D01*
X373437Y137289D01*
X373429Y137271D01*
X373411Y137104D01*
X373411Y135676D01*
X373414Y135656D01*
X373412Y135637D01*
X373434Y135535D01*
X373450Y135433D01*
X373460Y135416D01*
X373464Y135396D01*
X373517Y135307D01*
X373566Y135216D01*
X373580Y135202D01*
X373590Y135185D01*
X373669Y135118D01*
X373744Y135046D01*
X373762Y135038D01*
X373777Y135025D01*
X373873Y134986D01*
X373967Y134943D01*
X373987Y134941D01*
X374005Y134933D01*
X374172Y134915D01*
X385392Y134915D01*
X386285Y134022D01*
X386285Y122166D01*
X386288Y122146D01*
X386286Y122127D01*
X386308Y122025D01*
X386324Y121923D01*
X386334Y121906D01*
X386338Y121886D01*
X386391Y121797D01*
X386440Y121706D01*
X386454Y121692D01*
X386464Y121675D01*
X386543Y121608D01*
X386618Y121536D01*
X386636Y121528D01*
X386651Y121515D01*
X386747Y121476D01*
X386841Y121433D01*
X386861Y121431D01*
X386879Y121423D01*
X387046Y121405D01*
X389717Y121405D01*
X389807Y121419D01*
X389898Y121427D01*
X389928Y121439D01*
X389960Y121444D01*
X390040Y121487D01*
X390124Y121523D01*
X390156Y121549D01*
X390177Y121560D01*
X390199Y121583D01*
X390255Y121628D01*
X395112Y126485D01*
X400304Y126485D01*
X400324Y126488D01*
X400343Y126486D01*
X400445Y126508D01*
X400547Y126524D01*
X400564Y126534D01*
X400584Y126538D01*
X400673Y126591D01*
X400764Y126640D01*
X400778Y126654D01*
X400795Y126664D01*
X400862Y126743D01*
X400934Y126818D01*
X400942Y126836D01*
X400955Y126851D01*
X400994Y126947D01*
X401037Y127041D01*
X401039Y127061D01*
X401047Y127079D01*
X401065Y127246D01*
X401065Y129322D01*
X401958Y130215D01*
X414222Y130215D01*
X415115Y129322D01*
X415115Y118058D01*
X414222Y117165D01*
X401958Y117165D01*
X401065Y118058D01*
X401065Y120134D01*
X401062Y120154D01*
X401064Y120173D01*
X401042Y120275D01*
X401026Y120377D01*
X401016Y120394D01*
X401012Y120414D01*
X400959Y120503D01*
X400910Y120594D01*
X400896Y120608D01*
X400886Y120625D01*
X400807Y120692D01*
X400732Y120764D01*
X400714Y120772D01*
X400699Y120785D01*
X400603Y120824D01*
X400509Y120867D01*
X400489Y120869D01*
X400471Y120877D01*
X400304Y120895D01*
X397743Y120895D01*
X397653Y120881D01*
X397562Y120873D01*
X397532Y120861D01*
X397500Y120856D01*
X397420Y120813D01*
X397336Y120777D01*
X397304Y120751D01*
X397283Y120740D01*
X397261Y120717D01*
X397205Y120672D01*
X393141Y116608D01*
X393129Y116592D01*
X393113Y116580D01*
X393057Y116492D01*
X392997Y116409D01*
X392991Y116390D01*
X392980Y116373D01*
X392955Y116272D01*
X392925Y116173D01*
X392925Y116154D01*
X392920Y116134D01*
X392928Y116031D01*
X392931Y115928D01*
X392938Y115909D01*
X392940Y115889D01*
X392980Y115794D01*
X393016Y115697D01*
X393028Y115681D01*
X393036Y115663D01*
X393141Y115532D01*
X398475Y110198D01*
X398549Y110145D01*
X398618Y110085D01*
X398648Y110073D01*
X398674Y110054D01*
X398761Y110027D01*
X398846Y109993D01*
X398887Y109989D01*
X398909Y109982D01*
X398942Y109983D01*
X399013Y109975D01*
X400304Y109975D01*
X400324Y109978D01*
X400343Y109976D01*
X400445Y109998D01*
X400547Y110014D01*
X400564Y110024D01*
X400584Y110028D01*
X400673Y110081D01*
X400764Y110130D01*
X400778Y110144D01*
X400795Y110154D01*
X400862Y110233D01*
X400934Y110308D01*
X400942Y110326D01*
X400955Y110341D01*
X400994Y110437D01*
X401037Y110531D01*
X401039Y110551D01*
X401047Y110569D01*
X401065Y110736D01*
X401065Y112812D01*
X401958Y113705D01*
X414222Y113705D01*
X415115Y112812D01*
X415115Y101548D01*
X414222Y100655D01*
X401958Y100655D01*
X401065Y101548D01*
X401065Y103624D01*
X401062Y103644D01*
X401064Y103663D01*
X401042Y103765D01*
X401026Y103867D01*
X401016Y103884D01*
X401012Y103904D01*
X400959Y103993D01*
X400910Y104084D01*
X400896Y104098D01*
X400886Y104115D01*
X400807Y104182D01*
X400732Y104254D01*
X400714Y104262D01*
X400699Y104275D01*
X400603Y104314D01*
X400509Y104357D01*
X400489Y104359D01*
X400471Y104367D01*
X400304Y104385D01*
X396382Y104385D01*
X390175Y110592D01*
X390101Y110645D01*
X390032Y110705D01*
X390002Y110717D01*
X389976Y110736D01*
X389889Y110763D01*
X389804Y110797D01*
X389763Y110801D01*
X389741Y110808D01*
X389708Y110807D01*
X389637Y110815D01*
X378105Y110815D01*
X378034Y110804D01*
X377962Y110802D01*
X377913Y110784D01*
X377862Y110776D01*
X377799Y110742D01*
X377731Y110717D01*
X377691Y110685D01*
X377645Y110660D01*
X377595Y110609D01*
X377539Y110564D01*
X377511Y110520D01*
X377475Y110482D01*
X377445Y110417D01*
X377406Y110357D01*
X377394Y110306D01*
X377372Y110259D01*
X377364Y110188D01*
X377346Y110118D01*
X377350Y110066D01*
X377345Y110015D01*
X377360Y109944D01*
X377365Y109873D01*
X377386Y109825D01*
X377397Y109774D01*
X377434Y109713D01*
X377462Y109647D01*
X377507Y109591D01*
X377523Y109563D01*
X377541Y109548D01*
X377567Y109516D01*
X380395Y106688D01*
X380469Y106635D01*
X380538Y106575D01*
X380568Y106563D01*
X380594Y106544D01*
X380681Y106517D01*
X380766Y106483D01*
X380807Y106479D01*
X380829Y106472D01*
X380862Y106473D01*
X380933Y106465D01*
X386392Y106465D01*
X387285Y105572D01*
X387285Y96308D01*
X386392Y95415D01*
X373128Y95415D01*
X372235Y96308D01*
X372235Y105054D01*
X372232Y105074D01*
X372234Y105093D01*
X372212Y105195D01*
X372196Y105297D01*
X372186Y105314D01*
X372182Y105334D01*
X372129Y105423D01*
X372080Y105514D01*
X372066Y105528D01*
X372056Y105545D01*
X371977Y105612D01*
X371902Y105684D01*
X371884Y105692D01*
X371869Y105705D01*
X371773Y105744D01*
X371679Y105787D01*
X371659Y105789D01*
X371641Y105797D01*
X371474Y105815D01*
X358838Y105815D01*
X358834Y105817D01*
X358793Y105821D01*
X358771Y105828D01*
X358739Y105827D01*
X358667Y105835D01*
X356846Y105835D01*
X356780Y105824D01*
X356712Y105823D01*
X356659Y105805D01*
X356604Y105796D01*
X356544Y105764D01*
X356480Y105741D01*
X356436Y105707D01*
X356386Y105680D01*
X356340Y105631D01*
X356286Y105590D01*
X356240Y105526D01*
X356217Y105502D01*
X356213Y105495D01*
X356211Y105493D01*
X356205Y105479D01*
X356187Y105455D01*
X355943Y105032D01*
X355238Y104327D01*
X354815Y104083D01*
X354763Y104040D01*
X354705Y104005D01*
X354668Y103963D01*
X354625Y103927D01*
X354589Y103870D01*
X354545Y103819D01*
X354524Y103766D01*
X354494Y103719D01*
X354479Y103653D01*
X354453Y103590D01*
X354444Y103512D01*
X354437Y103480D01*
X354439Y103459D01*
X354435Y103424D01*
X354435Y101125D01*
X351660Y101125D01*
X351602Y101117D01*
X351544Y101119D01*
X351462Y101097D01*
X351379Y101086D01*
X351325Y101062D01*
X351269Y101047D01*
X351196Y101004D01*
X351119Y100969D01*
X351075Y100932D01*
X351025Y100902D01*
X351024Y100901D01*
X350966Y100840D01*
X350902Y100786D01*
X350902Y100785D01*
X350870Y100737D01*
X350829Y100694D01*
X350791Y100619D01*
X350744Y100549D01*
X350727Y100493D01*
X350700Y100441D01*
X350689Y100373D01*
X350659Y100278D01*
X350656Y100178D01*
X350645Y100110D01*
X350645Y96085D01*
X349962Y96085D01*
X349942Y96082D01*
X349923Y96084D01*
X349821Y96062D01*
X349719Y96046D01*
X349702Y96036D01*
X349682Y96032D01*
X349593Y95979D01*
X349502Y95930D01*
X349488Y95916D01*
X349471Y95906D01*
X349404Y95827D01*
X349332Y95752D01*
X349324Y95734D01*
X349311Y95719D01*
X349272Y95623D01*
X349229Y95529D01*
X349227Y95509D01*
X349219Y95491D01*
X349201Y95324D01*
X349201Y75608D01*
X349215Y75518D01*
X349223Y75427D01*
X349235Y75397D01*
X349240Y75365D01*
X349283Y75284D01*
X349319Y75200D01*
X349345Y75168D01*
X349356Y75148D01*
X349379Y75125D01*
X349424Y75069D01*
X351875Y72618D01*
X351970Y72550D01*
X352064Y72480D01*
X352069Y72478D01*
X352075Y72475D01*
X352186Y72440D01*
X352297Y72404D01*
X352304Y72404D01*
X352310Y72402D01*
X352426Y72405D01*
X352543Y72407D01*
X352551Y72409D01*
X352556Y72409D01*
X352573Y72415D01*
X352704Y72453D01*
X353147Y72637D01*
X355573Y72637D01*
X357814Y71709D01*
X359529Y69994D01*
X360457Y67753D01*
X360457Y65327D01*
X359529Y63086D01*
X357814Y61371D01*
X355573Y60443D01*
X353147Y60443D01*
X350906Y61371D01*
X349191Y63086D01*
X348263Y65327D01*
X348263Y67753D01*
X348447Y68196D01*
X348473Y68309D01*
X348502Y68423D01*
X348501Y68429D01*
X348503Y68435D01*
X348492Y68551D01*
X348483Y68668D01*
X348480Y68674D01*
X348480Y68680D01*
X348432Y68787D01*
X348387Y68894D01*
X348382Y68900D01*
X348380Y68905D01*
X348367Y68918D01*
X348282Y69025D01*
X345500Y71807D01*
X345442Y71848D01*
X345390Y71898D01*
X345343Y71920D01*
X345301Y71950D01*
X345232Y71971D01*
X345167Y72001D01*
X345115Y72007D01*
X345065Y72023D01*
X344994Y72021D01*
X344923Y72029D01*
X344872Y72017D01*
X344820Y72016D01*
X344752Y71992D01*
X344682Y71976D01*
X344638Y71950D01*
X344589Y71932D01*
X344533Y71887D01*
X344471Y71850D01*
X344437Y71811D01*
X344397Y71778D01*
X344358Y71718D01*
X344311Y71663D01*
X344292Y71615D01*
X344264Y71571D01*
X344246Y71502D01*
X344219Y71435D01*
X344211Y71364D01*
X344203Y71333D01*
X344205Y71309D01*
X344201Y71268D01*
X344201Y59702D01*
X344215Y59612D01*
X344223Y59521D01*
X344235Y59491D01*
X344240Y59459D01*
X344283Y59379D01*
X344319Y59295D01*
X344345Y59263D01*
X344356Y59242D01*
X344379Y59220D01*
X344424Y59164D01*
X344685Y58903D01*
X344685Y56397D01*
X342913Y54625D01*
X340691Y54625D01*
X340671Y54622D01*
X340652Y54624D01*
X340550Y54602D01*
X340448Y54586D01*
X340431Y54576D01*
X340411Y54572D01*
X340322Y54519D01*
X340231Y54470D01*
X340217Y54456D01*
X340200Y54446D01*
X340133Y54367D01*
X340061Y54292D01*
X340053Y54274D01*
X340040Y54259D01*
X340001Y54163D01*
X339958Y54069D01*
X339956Y54049D01*
X339948Y54031D01*
X339930Y53864D01*
X339930Y50638D01*
X339037Y49745D01*
X327773Y49745D01*
X326850Y50669D01*
X326841Y50727D01*
X326831Y50744D01*
X326827Y50764D01*
X326774Y50853D01*
X326725Y50944D01*
X326711Y50958D01*
X326701Y50975D01*
X326622Y51042D01*
X326547Y51114D01*
X326529Y51122D01*
X326514Y51135D01*
X326418Y51174D01*
X326324Y51217D01*
X326304Y51219D01*
X326286Y51227D01*
X326119Y51245D01*
X319846Y51245D01*
X319826Y51242D01*
X319807Y51244D01*
X319705Y51222D01*
X319603Y51206D01*
X319586Y51196D01*
X319566Y51192D01*
X319477Y51139D01*
X319386Y51090D01*
X319372Y51076D01*
X319355Y51066D01*
X319288Y50987D01*
X319216Y50912D01*
X319208Y50894D01*
X319195Y50879D01*
X319156Y50783D01*
X319113Y50689D01*
X319111Y50669D01*
X319103Y50651D01*
X319085Y50484D01*
X319085Y43128D01*
X318192Y42235D01*
X305928Y42235D01*
G37*
%LPD*%
%LPC*%
G36*
X501458Y15515D02*
X501458Y15515D01*
X500565Y16408D01*
X500565Y30962D01*
X500550Y31058D01*
X500540Y31155D01*
X500530Y31179D01*
X500526Y31205D01*
X500480Y31291D01*
X500440Y31380D01*
X500423Y31399D01*
X500410Y31422D01*
X500340Y31489D01*
X500274Y31561D01*
X500251Y31574D01*
X500232Y31592D01*
X500144Y31633D01*
X500058Y31680D01*
X500033Y31684D01*
X500009Y31695D01*
X499912Y31706D01*
X499816Y31723D01*
X499790Y31719D01*
X499765Y31722D01*
X499669Y31702D01*
X499573Y31687D01*
X499550Y31676D01*
X499524Y31670D01*
X499441Y31620D01*
X499354Y31576D01*
X499335Y31557D01*
X499313Y31544D01*
X499250Y31470D01*
X499182Y31400D01*
X499166Y31372D01*
X499153Y31357D01*
X499141Y31326D01*
X499101Y31253D01*
X497181Y26620D01*
X491510Y20949D01*
X484100Y17879D01*
X476080Y17879D01*
X468670Y20949D01*
X462999Y26620D01*
X459890Y34124D01*
X459890Y34128D01*
X459885Y34136D01*
X459871Y34170D01*
X459853Y34199D01*
X459831Y34259D01*
X459799Y34299D01*
X459774Y34345D01*
X459745Y34373D01*
X459742Y34379D01*
X459723Y34395D01*
X459678Y34451D01*
X459634Y34479D01*
X459596Y34515D01*
X459554Y34534D01*
X459552Y34536D01*
X459546Y34538D01*
X459531Y34545D01*
X459471Y34584D01*
X459420Y34596D01*
X459373Y34618D01*
X459302Y34626D01*
X459232Y34644D01*
X459180Y34640D01*
X459129Y34645D01*
X459058Y34630D01*
X458987Y34625D01*
X458939Y34604D01*
X458888Y34593D01*
X458844Y34566D01*
X458841Y34566D01*
X458831Y34559D01*
X458827Y34556D01*
X458761Y34528D01*
X458744Y34515D01*
X432458Y34515D01*
X431565Y35408D01*
X431565Y56672D01*
X432458Y57565D01*
X441272Y57565D01*
X441292Y57568D01*
X441311Y57566D01*
X441413Y57588D01*
X441515Y57604D01*
X441532Y57614D01*
X441552Y57618D01*
X441641Y57671D01*
X441732Y57720D01*
X441746Y57734D01*
X441763Y57744D01*
X441830Y57823D01*
X441902Y57898D01*
X441910Y57916D01*
X441923Y57931D01*
X441962Y58027D01*
X442005Y58121D01*
X442007Y58141D01*
X442015Y58159D01*
X442033Y58326D01*
X442033Y77661D01*
X442030Y77680D01*
X442032Y77699D01*
X442017Y77768D01*
X442011Y77842D01*
X441999Y77872D01*
X441994Y77904D01*
X441984Y77923D01*
X441980Y77939D01*
X441946Y77996D01*
X441915Y78069D01*
X441889Y78101D01*
X441878Y78122D01*
X441861Y78138D01*
X441854Y78150D01*
X441841Y78161D01*
X441810Y78200D01*
X438210Y81800D01*
X433414Y86596D01*
X433356Y86638D01*
X433304Y86687D01*
X433257Y86709D01*
X433215Y86739D01*
X433146Y86760D01*
X433081Y86791D01*
X433029Y86796D01*
X432979Y86812D01*
X432908Y86810D01*
X432837Y86818D01*
X432786Y86807D01*
X432734Y86805D01*
X432666Y86781D01*
X432596Y86765D01*
X432551Y86739D01*
X432503Y86721D01*
X432447Y86676D01*
X432385Y86639D01*
X432351Y86600D01*
X432311Y86567D01*
X432272Y86507D01*
X432225Y86452D01*
X432206Y86404D01*
X432178Y86360D01*
X432160Y86291D01*
X432133Y86224D01*
X432125Y86153D01*
X432117Y86122D01*
X432119Y86098D01*
X432115Y86057D01*
X432115Y85038D01*
X431222Y84145D01*
X418958Y84145D01*
X418065Y85038D01*
X418065Y96302D01*
X418958Y97195D01*
X421534Y97195D01*
X421554Y97198D01*
X421573Y97196D01*
X421675Y97218D01*
X421777Y97234D01*
X421794Y97244D01*
X421814Y97248D01*
X421903Y97301D01*
X421994Y97350D01*
X422008Y97364D01*
X422025Y97374D01*
X422092Y97453D01*
X422164Y97528D01*
X422172Y97546D01*
X422185Y97561D01*
X422223Y97657D01*
X422267Y97751D01*
X422269Y97771D01*
X422277Y97789D01*
X422295Y97956D01*
X422295Y99894D01*
X422292Y99914D01*
X422294Y99933D01*
X422272Y100035D01*
X422256Y100137D01*
X422246Y100154D01*
X422242Y100174D01*
X422189Y100263D01*
X422140Y100354D01*
X422126Y100368D01*
X422116Y100385D01*
X422037Y100452D01*
X421962Y100524D01*
X421944Y100532D01*
X421929Y100545D01*
X421833Y100584D01*
X421739Y100627D01*
X421719Y100629D01*
X421701Y100637D01*
X421534Y100655D01*
X418958Y100655D01*
X418065Y101548D01*
X418065Y112812D01*
X418958Y113705D01*
X431222Y113705D01*
X432115Y112812D01*
X432115Y101548D01*
X431222Y100655D01*
X428646Y100655D01*
X428626Y100652D01*
X428607Y100654D01*
X428505Y100632D01*
X428403Y100616D01*
X428386Y100606D01*
X428366Y100602D01*
X428277Y100549D01*
X428186Y100500D01*
X428172Y100486D01*
X428155Y100476D01*
X428088Y100397D01*
X428016Y100322D01*
X428008Y100304D01*
X427995Y100289D01*
X427956Y100193D01*
X427913Y100099D01*
X427911Y100079D01*
X427903Y100061D01*
X427885Y99894D01*
X427885Y97956D01*
X427888Y97936D01*
X427886Y97917D01*
X427908Y97815D01*
X427924Y97713D01*
X427934Y97696D01*
X427938Y97676D01*
X427991Y97587D01*
X428040Y97496D01*
X428054Y97482D01*
X428064Y97465D01*
X428143Y97398D01*
X428218Y97326D01*
X428236Y97318D01*
X428251Y97305D01*
X428347Y97266D01*
X428441Y97223D01*
X428461Y97221D01*
X428479Y97213D01*
X428646Y97195D01*
X431222Y97195D01*
X432115Y96302D01*
X432115Y94988D01*
X432118Y94968D01*
X432116Y94949D01*
X432138Y94847D01*
X432154Y94745D01*
X432164Y94728D01*
X432168Y94708D01*
X432221Y94619D01*
X432270Y94528D01*
X432284Y94514D01*
X432294Y94497D01*
X432373Y94430D01*
X432448Y94358D01*
X432466Y94350D01*
X432481Y94337D01*
X432577Y94298D01*
X432671Y94255D01*
X432691Y94253D01*
X432709Y94245D01*
X432876Y94227D01*
X435843Y94227D01*
X441452Y88618D01*
X441468Y88607D01*
X441480Y88591D01*
X441568Y88535D01*
X441651Y88475D01*
X441670Y88469D01*
X441687Y88458D01*
X441788Y88433D01*
X441887Y88402D01*
X441906Y88403D01*
X441926Y88398D01*
X442029Y88406D01*
X442132Y88409D01*
X442151Y88416D01*
X442171Y88417D01*
X442266Y88458D01*
X442363Y88493D01*
X442379Y88506D01*
X442397Y88513D01*
X442528Y88618D01*
X444327Y90417D01*
X467364Y90417D01*
X467435Y90428D01*
X467506Y90430D01*
X467555Y90448D01*
X467607Y90456D01*
X467670Y90490D01*
X467737Y90515D01*
X467778Y90547D01*
X467824Y90572D01*
X467873Y90624D01*
X467929Y90668D01*
X467958Y90712D01*
X467993Y90750D01*
X468024Y90815D01*
X468062Y90875D01*
X468075Y90926D01*
X468097Y90973D01*
X468105Y91044D01*
X468122Y91114D01*
X468118Y91166D01*
X468124Y91217D01*
X468109Y91288D01*
X468103Y91359D01*
X468083Y91407D01*
X468072Y91458D01*
X468035Y91519D01*
X468007Y91585D01*
X467962Y91641D01*
X467946Y91669D01*
X467928Y91684D01*
X467902Y91716D01*
X462966Y96653D01*
X462952Y96673D01*
X462897Y96761D01*
X462882Y96774D01*
X462870Y96790D01*
X462787Y96852D01*
X462708Y96918D01*
X462689Y96925D01*
X462673Y96937D01*
X462575Y96969D01*
X462478Y97006D01*
X462458Y97007D01*
X462439Y97013D01*
X462336Y97012D01*
X462232Y97016D01*
X462213Y97011D01*
X462193Y97011D01*
X462032Y96964D01*
X459713Y96003D01*
X457287Y96003D01*
X455046Y96931D01*
X453331Y98646D01*
X452403Y100887D01*
X452403Y102851D01*
X452389Y102942D01*
X452381Y103032D01*
X452369Y103062D01*
X452364Y103094D01*
X452321Y103175D01*
X452285Y103259D01*
X452259Y103291D01*
X452248Y103312D01*
X452225Y103334D01*
X452180Y103390D01*
X435660Y119910D01*
X435586Y119963D01*
X435516Y120023D01*
X435486Y120035D01*
X435460Y120054D01*
X435373Y120081D01*
X435288Y120115D01*
X435247Y120119D01*
X435225Y120126D01*
X435193Y120125D01*
X435121Y120133D01*
X432876Y120133D01*
X432856Y120130D01*
X432837Y120132D01*
X432735Y120110D01*
X432633Y120094D01*
X432616Y120084D01*
X432596Y120080D01*
X432507Y120027D01*
X432416Y119978D01*
X432402Y119964D01*
X432385Y119954D01*
X432318Y119875D01*
X432246Y119800D01*
X432238Y119782D01*
X432225Y119767D01*
X432186Y119671D01*
X432143Y119577D01*
X432141Y119557D01*
X432133Y119539D01*
X432115Y119372D01*
X432115Y118058D01*
X431222Y117165D01*
X418958Y117165D01*
X418065Y118058D01*
X418065Y129322D01*
X418958Y130215D01*
X421534Y130215D01*
X421554Y130218D01*
X421573Y130216D01*
X421675Y130238D01*
X421777Y130254D01*
X421794Y130264D01*
X421814Y130268D01*
X421903Y130321D01*
X421994Y130370D01*
X422008Y130384D01*
X422025Y130394D01*
X422092Y130473D01*
X422164Y130548D01*
X422172Y130566D01*
X422185Y130581D01*
X422224Y130677D01*
X422267Y130771D01*
X422269Y130791D01*
X422277Y130809D01*
X422295Y130976D01*
X422295Y134184D01*
X422292Y134204D01*
X422294Y134223D01*
X422272Y134325D01*
X422256Y134427D01*
X422246Y134444D01*
X422242Y134464D01*
X422189Y134553D01*
X422140Y134644D01*
X422126Y134658D01*
X422116Y134675D01*
X422037Y134742D01*
X421962Y134814D01*
X421944Y134822D01*
X421929Y134835D01*
X421833Y134874D01*
X421739Y134917D01*
X421719Y134919D01*
X421701Y134927D01*
X421534Y134945D01*
X418958Y134945D01*
X418065Y135838D01*
X418065Y147102D01*
X418958Y147995D01*
X431222Y147995D01*
X432115Y147102D01*
X432115Y135838D01*
X431222Y134945D01*
X428646Y134945D01*
X428626Y134942D01*
X428607Y134944D01*
X428505Y134922D01*
X428403Y134906D01*
X428386Y134896D01*
X428366Y134892D01*
X428277Y134839D01*
X428186Y134790D01*
X428172Y134776D01*
X428155Y134766D01*
X428088Y134687D01*
X428016Y134612D01*
X428008Y134594D01*
X427995Y134579D01*
X427956Y134483D01*
X427913Y134389D01*
X427911Y134369D01*
X427903Y134351D01*
X427885Y134184D01*
X427885Y130976D01*
X427888Y130956D01*
X427886Y130937D01*
X427908Y130835D01*
X427924Y130733D01*
X427934Y130716D01*
X427938Y130696D01*
X427991Y130607D01*
X428040Y130516D01*
X428054Y130502D01*
X428064Y130485D01*
X428143Y130418D01*
X428218Y130346D01*
X428236Y130338D01*
X428251Y130325D01*
X428347Y130286D01*
X428441Y130243D01*
X428461Y130241D01*
X428479Y130233D01*
X428646Y130215D01*
X431222Y130215D01*
X432115Y129322D01*
X432115Y128008D01*
X432118Y127988D01*
X432116Y127969D01*
X432138Y127867D01*
X432154Y127765D01*
X432164Y127748D01*
X432168Y127728D01*
X432221Y127639D01*
X432270Y127548D01*
X432284Y127534D01*
X432294Y127517D01*
X432373Y127450D01*
X432448Y127378D01*
X432466Y127370D01*
X432481Y127357D01*
X432577Y127318D01*
X432671Y127275D01*
X432691Y127273D01*
X432709Y127265D01*
X432876Y127247D01*
X438383Y127247D01*
X457210Y108420D01*
X457284Y108367D01*
X457354Y108307D01*
X457384Y108295D01*
X457410Y108276D01*
X457497Y108249D01*
X457582Y108215D01*
X457623Y108211D01*
X457645Y108204D01*
X457677Y108205D01*
X457749Y108197D01*
X459168Y108197D01*
X459188Y108200D01*
X459207Y108198D01*
X459309Y108220D01*
X459411Y108236D01*
X459428Y108246D01*
X459448Y108250D01*
X459537Y108303D01*
X459628Y108352D01*
X459642Y108366D01*
X459659Y108376D01*
X459726Y108455D01*
X459798Y108530D01*
X459806Y108548D01*
X459819Y108563D01*
X459858Y108659D01*
X459901Y108753D01*
X459903Y108773D01*
X459911Y108791D01*
X459929Y108958D01*
X459929Y112050D01*
X462999Y119460D01*
X468670Y125131D01*
X476080Y128201D01*
X483951Y128201D01*
X484022Y128212D01*
X484094Y128214D01*
X484143Y128232D01*
X484194Y128240D01*
X484257Y128274D01*
X484325Y128299D01*
X484366Y128331D01*
X484412Y128356D01*
X484461Y128407D01*
X484517Y128452D01*
X484545Y128496D01*
X484581Y128534D01*
X484611Y128599D01*
X484650Y128659D01*
X484663Y128710D01*
X484685Y128757D01*
X484693Y128828D01*
X484710Y128898D01*
X484706Y128950D01*
X484712Y129001D01*
X484696Y129071D01*
X484691Y129143D01*
X484671Y129191D01*
X484659Y129242D01*
X484623Y129303D01*
X484595Y129369D01*
X484550Y129425D01*
X484533Y129453D01*
X484515Y129468D01*
X484490Y129500D01*
X480110Y133880D01*
X480036Y133933D01*
X479966Y133993D01*
X479936Y134005D01*
X479910Y134024D01*
X479823Y134051D01*
X479738Y134085D01*
X479697Y134089D01*
X479675Y134096D01*
X479643Y134095D01*
X479571Y134103D01*
X457027Y134103D01*
X435660Y155470D01*
X435586Y155523D01*
X435516Y155583D01*
X435486Y155595D01*
X435460Y155614D01*
X435373Y155641D01*
X435288Y155675D01*
X435247Y155679D01*
X435225Y155686D01*
X435193Y155685D01*
X435121Y155693D01*
X432876Y155693D01*
X432856Y155690D01*
X432837Y155692D01*
X432735Y155670D01*
X432633Y155654D01*
X432616Y155644D01*
X432596Y155640D01*
X432507Y155587D01*
X432416Y155538D01*
X432402Y155524D01*
X432385Y155514D01*
X432318Y155435D01*
X432246Y155360D01*
X432238Y155342D01*
X432225Y155327D01*
X432186Y155231D01*
X432143Y155137D01*
X432141Y155117D01*
X432133Y155099D01*
X432115Y154932D01*
X432115Y153618D01*
X431222Y152725D01*
X418958Y152725D01*
X418065Y153618D01*
X418065Y164882D01*
X418958Y165775D01*
X431222Y165775D01*
X432115Y164882D01*
X432115Y163568D01*
X432118Y163548D01*
X432116Y163529D01*
X432138Y163427D01*
X432154Y163325D01*
X432164Y163308D01*
X432168Y163288D01*
X432221Y163199D01*
X432270Y163108D01*
X432284Y163094D01*
X432294Y163077D01*
X432373Y163010D01*
X432448Y162938D01*
X432466Y162930D01*
X432481Y162917D01*
X432577Y162878D01*
X432671Y162835D01*
X432691Y162833D01*
X432709Y162825D01*
X432876Y162807D01*
X438383Y162807D01*
X459750Y141440D01*
X459824Y141387D01*
X459894Y141327D01*
X459924Y141315D01*
X459950Y141296D01*
X460037Y141269D01*
X460122Y141235D01*
X460163Y141231D01*
X460185Y141224D01*
X460217Y141225D01*
X460289Y141217D01*
X482833Y141217D01*
X485140Y138910D01*
X499266Y124784D01*
X499324Y124742D01*
X499376Y124693D01*
X499423Y124671D01*
X499465Y124641D01*
X499534Y124620D01*
X499599Y124589D01*
X499651Y124584D01*
X499701Y124568D01*
X499772Y124570D01*
X499843Y124562D01*
X499894Y124573D01*
X499946Y124575D01*
X500014Y124599D01*
X500084Y124615D01*
X500128Y124641D01*
X500177Y124659D01*
X500233Y124704D01*
X500295Y124741D01*
X500329Y124780D01*
X500369Y124813D01*
X500408Y124873D01*
X500455Y124928D01*
X500474Y124976D01*
X500502Y125020D01*
X500520Y125089D01*
X500547Y125156D01*
X500555Y125227D01*
X500563Y125258D01*
X500561Y125282D01*
X500565Y125323D01*
X500565Y130672D01*
X501458Y131565D01*
X527722Y131565D01*
X528615Y130672D01*
X528615Y124358D01*
X528618Y124338D01*
X528616Y124319D01*
X528638Y124217D01*
X528654Y124115D01*
X528664Y124098D01*
X528668Y124078D01*
X528721Y123989D01*
X528770Y123898D01*
X528784Y123884D01*
X528794Y123867D01*
X528873Y123800D01*
X528948Y123728D01*
X528966Y123720D01*
X528981Y123707D01*
X529077Y123668D01*
X529171Y123625D01*
X529191Y123623D01*
X529209Y123615D01*
X529376Y123597D01*
X561455Y123597D01*
X561500Y123604D01*
X561546Y123602D01*
X561621Y123624D01*
X561698Y123636D01*
X561738Y123658D01*
X561782Y123671D01*
X561846Y123715D01*
X561915Y123752D01*
X561947Y123785D01*
X561984Y123811D01*
X562031Y123873D01*
X562084Y123930D01*
X562104Y123972D01*
X562131Y124008D01*
X562155Y124082D01*
X562188Y124153D01*
X562193Y124199D01*
X562207Y124242D01*
X562206Y124320D01*
X562215Y124397D01*
X562205Y124442D01*
X562205Y124488D01*
X562167Y124619D01*
X562163Y124638D01*
X562160Y124642D01*
X562158Y124649D01*
X561877Y125327D01*
X561877Y129673D01*
X563540Y133687D01*
X566613Y136760D01*
X570627Y138423D01*
X574973Y138423D01*
X578987Y136760D01*
X582060Y133687D01*
X583723Y129673D01*
X583723Y125327D01*
X582060Y121313D01*
X578987Y118240D01*
X574973Y116577D01*
X570627Y116577D01*
X568467Y117472D01*
X568353Y117499D01*
X568240Y117527D01*
X568233Y117527D01*
X568227Y117528D01*
X568111Y117517D01*
X567994Y117508D01*
X567989Y117506D01*
X567982Y117505D01*
X567875Y117458D01*
X567768Y117412D01*
X567762Y117407D01*
X567758Y117405D01*
X567744Y117393D01*
X567637Y117307D01*
X566813Y116483D01*
X529376Y116483D01*
X529356Y116480D01*
X529337Y116482D01*
X529235Y116460D01*
X529133Y116444D01*
X529116Y116434D01*
X529096Y116430D01*
X529007Y116377D01*
X528916Y116328D01*
X528902Y116314D01*
X528885Y116304D01*
X528818Y116225D01*
X528746Y116150D01*
X528738Y116132D01*
X528725Y116117D01*
X528686Y116021D01*
X528643Y115927D01*
X528641Y115907D01*
X528633Y115889D01*
X528615Y115722D01*
X528615Y109408D01*
X527722Y108515D01*
X501439Y108515D01*
X501393Y108537D01*
X501351Y108567D01*
X501282Y108588D01*
X501217Y108618D01*
X501165Y108624D01*
X501116Y108639D01*
X501044Y108637D01*
X500973Y108645D01*
X500922Y108634D01*
X500870Y108633D01*
X500802Y108608D01*
X500732Y108593D01*
X500687Y108566D01*
X500639Y108549D01*
X500583Y108504D01*
X500521Y108467D01*
X500487Y108427D01*
X500447Y108395D01*
X500408Y108335D01*
X500361Y108280D01*
X500342Y108232D01*
X500314Y108188D01*
X500296Y108118D01*
X500269Y108052D01*
X500261Y107981D01*
X500253Y107949D01*
X500255Y107926D01*
X500251Y107885D01*
X500251Y106418D01*
X500254Y106398D01*
X500252Y106379D01*
X500274Y106277D01*
X500290Y106175D01*
X500300Y106158D01*
X500304Y106138D01*
X500357Y106049D01*
X500406Y105958D01*
X500420Y105944D01*
X500430Y105927D01*
X500509Y105860D01*
X500584Y105788D01*
X500602Y105780D01*
X500617Y105767D01*
X500713Y105728D01*
X500807Y105685D01*
X500827Y105683D01*
X500845Y105675D01*
X501012Y105657D01*
X561942Y105657D01*
X562057Y105676D01*
X562173Y105693D01*
X562178Y105695D01*
X562185Y105696D01*
X562287Y105751D01*
X562392Y105804D01*
X562397Y105809D01*
X562402Y105812D01*
X562482Y105896D01*
X562564Y105980D01*
X562568Y105986D01*
X562571Y105990D01*
X562579Y106007D01*
X562645Y106127D01*
X563540Y108287D01*
X566613Y111360D01*
X570627Y113023D01*
X574973Y113023D01*
X578987Y111360D01*
X582060Y108287D01*
X583723Y104273D01*
X583723Y99927D01*
X582060Y95913D01*
X578987Y92840D01*
X574973Y91177D01*
X570627Y91177D01*
X566613Y92840D01*
X563540Y95913D01*
X562645Y98073D01*
X562584Y98173D01*
X562524Y98273D01*
X562519Y98277D01*
X562516Y98282D01*
X562426Y98357D01*
X562337Y98433D01*
X562331Y98435D01*
X562326Y98439D01*
X562218Y98481D01*
X562109Y98525D01*
X562101Y98526D01*
X562097Y98527D01*
X562078Y98528D01*
X561942Y98543D01*
X503469Y98543D01*
X503378Y98529D01*
X503288Y98521D01*
X503258Y98509D01*
X503226Y98504D01*
X503145Y98461D01*
X503061Y98425D01*
X503029Y98399D01*
X503008Y98388D01*
X502986Y98365D01*
X502930Y98320D01*
X487913Y83303D01*
X448605Y83303D01*
X448534Y83292D01*
X448462Y83290D01*
X448413Y83272D01*
X448362Y83264D01*
X448298Y83230D01*
X448231Y83205D01*
X448190Y83173D01*
X448144Y83148D01*
X448095Y83096D01*
X448039Y83052D01*
X448011Y83008D01*
X447975Y82970D01*
X447945Y82905D01*
X447906Y82845D01*
X447893Y82794D01*
X447871Y82747D01*
X447863Y82676D01*
X447846Y82606D01*
X447850Y82554D01*
X447844Y82503D01*
X447860Y82432D01*
X447865Y82361D01*
X447885Y82313D01*
X447897Y82262D01*
X447933Y82201D01*
X447961Y82135D01*
X448006Y82079D01*
X448023Y82051D01*
X448041Y82036D01*
X448066Y82004D01*
X449147Y80923D01*
X449147Y58326D01*
X449150Y58306D01*
X449148Y58287D01*
X449170Y58185D01*
X449186Y58083D01*
X449196Y58066D01*
X449200Y58046D01*
X449253Y57957D01*
X449302Y57866D01*
X449316Y57852D01*
X449326Y57835D01*
X449405Y57768D01*
X449480Y57696D01*
X449498Y57688D01*
X449513Y57675D01*
X449609Y57636D01*
X449703Y57593D01*
X449723Y57591D01*
X449741Y57583D01*
X449908Y57565D01*
X458722Y57565D01*
X459615Y56672D01*
X459615Y45118D01*
X459630Y45022D01*
X459640Y44925D01*
X459650Y44901D01*
X459654Y44875D01*
X459700Y44789D01*
X459740Y44700D01*
X459757Y44681D01*
X459770Y44658D01*
X459840Y44591D01*
X459906Y44519D01*
X459929Y44506D01*
X459948Y44488D01*
X460036Y44447D01*
X460122Y44400D01*
X460147Y44396D01*
X460171Y44385D01*
X460268Y44374D01*
X460364Y44357D01*
X460390Y44361D01*
X460415Y44358D01*
X460511Y44378D01*
X460607Y44393D01*
X460630Y44404D01*
X460656Y44410D01*
X460739Y44460D01*
X460826Y44504D01*
X460845Y44523D01*
X460867Y44536D01*
X460930Y44610D01*
X460998Y44680D01*
X461014Y44708D01*
X461027Y44723D01*
X461039Y44754D01*
X461079Y44827D01*
X462999Y49460D01*
X468670Y55131D01*
X476080Y58201D01*
X484100Y58201D01*
X491510Y55131D01*
X497181Y49460D01*
X500251Y42050D01*
X500251Y39195D01*
X500262Y39124D01*
X500264Y39052D01*
X500282Y39003D01*
X500290Y38952D01*
X500324Y38889D01*
X500349Y38821D01*
X500381Y38781D01*
X500406Y38735D01*
X500457Y38685D01*
X500502Y38629D01*
X500546Y38601D01*
X500584Y38565D01*
X500649Y38535D01*
X500709Y38496D01*
X500760Y38484D01*
X500807Y38462D01*
X500878Y38454D01*
X500948Y38436D01*
X501000Y38440D01*
X501051Y38435D01*
X501122Y38450D01*
X501193Y38455D01*
X501241Y38476D01*
X501292Y38487D01*
X501353Y38524D01*
X501419Y38552D01*
X501436Y38565D01*
X510272Y38565D01*
X510292Y38568D01*
X510311Y38566D01*
X510413Y38588D01*
X510515Y38604D01*
X510532Y38614D01*
X510552Y38618D01*
X510641Y38671D01*
X510732Y38720D01*
X510746Y38734D01*
X510763Y38744D01*
X510830Y38823D01*
X510902Y38898D01*
X510910Y38916D01*
X510923Y38931D01*
X510962Y39027D01*
X511005Y39121D01*
X511007Y39141D01*
X511015Y39159D01*
X511033Y39326D01*
X511033Y44221D01*
X511019Y44312D01*
X511011Y44402D01*
X510999Y44432D01*
X510994Y44464D01*
X510951Y44545D01*
X510915Y44629D01*
X510889Y44661D01*
X510878Y44682D01*
X510855Y44704D01*
X510810Y44760D01*
X496620Y58950D01*
X494090Y61480D01*
X487730Y67840D01*
X487656Y67893D01*
X487586Y67953D01*
X487556Y67965D01*
X487530Y67984D01*
X487443Y68011D01*
X487358Y68045D01*
X487317Y68049D01*
X487295Y68056D01*
X487263Y68055D01*
X487191Y68063D01*
X485227Y68063D01*
X482986Y68991D01*
X481271Y70706D01*
X480343Y72947D01*
X480343Y75373D01*
X481271Y77614D01*
X482986Y79329D01*
X485227Y80257D01*
X487653Y80257D01*
X489894Y79329D01*
X491609Y77614D01*
X492537Y75373D01*
X492537Y73409D01*
X492551Y73318D01*
X492559Y73228D01*
X492571Y73198D01*
X492576Y73166D01*
X492619Y73085D01*
X492655Y73001D01*
X492681Y72969D01*
X492692Y72948D01*
X492715Y72926D01*
X492760Y72870D01*
X497332Y68298D01*
X497348Y68287D01*
X497360Y68271D01*
X497448Y68215D01*
X497531Y68155D01*
X497550Y68149D01*
X497567Y68138D01*
X497668Y68113D01*
X497767Y68082D01*
X497786Y68083D01*
X497806Y68078D01*
X497909Y68086D01*
X498012Y68089D01*
X498031Y68096D01*
X498051Y68097D01*
X498146Y68138D01*
X498243Y68173D01*
X498259Y68186D01*
X498277Y68193D01*
X498408Y68298D01*
X510367Y80257D01*
X561942Y80257D01*
X562057Y80276D01*
X562173Y80293D01*
X562178Y80295D01*
X562185Y80296D01*
X562287Y80351D01*
X562392Y80404D01*
X562397Y80409D01*
X562402Y80412D01*
X562482Y80496D01*
X562564Y80580D01*
X562568Y80586D01*
X562571Y80590D01*
X562579Y80607D01*
X562645Y80727D01*
X563540Y82887D01*
X566613Y85960D01*
X570627Y87623D01*
X574973Y87623D01*
X578987Y85960D01*
X582060Y82887D01*
X583723Y78873D01*
X583723Y74527D01*
X582060Y70513D01*
X578987Y67440D01*
X574973Y65777D01*
X570627Y65777D01*
X566613Y67440D01*
X563540Y70513D01*
X562645Y72673D01*
X562584Y72773D01*
X562524Y72873D01*
X562519Y72877D01*
X562516Y72882D01*
X562426Y72957D01*
X562337Y73033D01*
X562331Y73035D01*
X562326Y73039D01*
X562218Y73081D01*
X562109Y73125D01*
X562101Y73126D01*
X562097Y73127D01*
X562078Y73128D01*
X561942Y73143D01*
X513629Y73143D01*
X513538Y73129D01*
X513448Y73121D01*
X513418Y73109D01*
X513386Y73104D01*
X513305Y73061D01*
X513221Y73025D01*
X513189Y72999D01*
X513168Y72988D01*
X513146Y72965D01*
X513090Y72920D01*
X503438Y63268D01*
X503427Y63252D01*
X503411Y63240D01*
X503355Y63152D01*
X503295Y63069D01*
X503289Y63050D01*
X503278Y63033D01*
X503253Y62932D01*
X503222Y62833D01*
X503223Y62814D01*
X503218Y62794D01*
X503226Y62691D01*
X503229Y62588D01*
X503236Y62569D01*
X503237Y62549D01*
X503277Y62454D01*
X503313Y62357D01*
X503326Y62341D01*
X503333Y62323D01*
X503438Y62192D01*
X515840Y49790D01*
X518147Y47483D01*
X518147Y39326D01*
X518150Y39306D01*
X518148Y39287D01*
X518170Y39185D01*
X518186Y39083D01*
X518196Y39066D01*
X518200Y39046D01*
X518253Y38957D01*
X518302Y38866D01*
X518316Y38852D01*
X518326Y38835D01*
X518405Y38768D01*
X518480Y38696D01*
X518498Y38688D01*
X518513Y38675D01*
X518609Y38636D01*
X518703Y38593D01*
X518723Y38591D01*
X518741Y38583D01*
X518908Y38565D01*
X527722Y38565D01*
X528615Y37672D01*
X528615Y16408D01*
X527722Y15515D01*
X501458Y15515D01*
G37*
%LPD*%
%LPC*%
G36*
X109255Y104435D02*
X109255Y104435D01*
X106658Y105511D01*
X104671Y107498D01*
X103595Y110095D01*
X103595Y112905D01*
X104671Y115502D01*
X106658Y117489D01*
X109255Y118565D01*
X123145Y118565D01*
X125742Y117489D01*
X125983Y117248D01*
X126057Y117195D01*
X126127Y117135D01*
X126157Y117123D01*
X126183Y117104D01*
X126270Y117077D01*
X126355Y117043D01*
X126396Y117039D01*
X126418Y117032D01*
X126450Y117033D01*
X126522Y117025D01*
X153696Y117025D01*
X153786Y117039D01*
X153877Y117047D01*
X153907Y117059D01*
X153939Y117064D01*
X154020Y117107D01*
X154104Y117143D01*
X154136Y117169D01*
X154156Y117180D01*
X154179Y117203D01*
X154235Y117248D01*
X154852Y117865D01*
X154905Y117939D01*
X154965Y118009D01*
X154977Y118039D01*
X154996Y118065D01*
X155023Y118152D01*
X155057Y118237D01*
X155061Y118278D01*
X155068Y118300D01*
X155067Y118332D01*
X155075Y118404D01*
X155075Y239214D01*
X155072Y239234D01*
X155074Y239253D01*
X155052Y239355D01*
X155036Y239457D01*
X155026Y239474D01*
X155022Y239494D01*
X154969Y239583D01*
X154920Y239674D01*
X154906Y239688D01*
X154896Y239705D01*
X154817Y239772D01*
X154742Y239844D01*
X154724Y239852D01*
X154709Y239865D01*
X154613Y239904D01*
X154519Y239947D01*
X154499Y239949D01*
X154481Y239957D01*
X154314Y239975D01*
X132286Y239975D01*
X132266Y239972D01*
X132247Y239974D01*
X132145Y239952D01*
X132043Y239936D01*
X132026Y239926D01*
X132006Y239922D01*
X131917Y239869D01*
X131826Y239820D01*
X131812Y239806D01*
X131795Y239796D01*
X131728Y239717D01*
X131656Y239642D01*
X131648Y239624D01*
X131635Y239609D01*
X131596Y239513D01*
X131553Y239419D01*
X131551Y239399D01*
X131543Y239381D01*
X131525Y239214D01*
X131525Y232368D01*
X130632Y231475D01*
X109368Y231475D01*
X108475Y232368D01*
X108475Y258651D01*
X108497Y258697D01*
X108527Y258739D01*
X108548Y258808D01*
X108578Y258873D01*
X108584Y258925D01*
X108599Y258974D01*
X108597Y259046D01*
X108605Y259117D01*
X108594Y259168D01*
X108593Y259220D01*
X108568Y259288D01*
X108553Y259358D01*
X108526Y259403D01*
X108509Y259451D01*
X108464Y259507D01*
X108427Y259569D01*
X108387Y259603D01*
X108355Y259643D01*
X108295Y259682D01*
X108240Y259729D01*
X108192Y259748D01*
X108148Y259776D01*
X108078Y259794D01*
X108012Y259821D01*
X107941Y259829D01*
X107909Y259837D01*
X107886Y259835D01*
X107845Y259839D01*
X103990Y259839D01*
X96580Y262909D01*
X90909Y268580D01*
X87839Y275990D01*
X87839Y284010D01*
X90909Y291420D01*
X96580Y297091D01*
X103990Y300161D01*
X112010Y300161D01*
X113742Y299443D01*
X113812Y299427D01*
X113878Y299401D01*
X113931Y299399D01*
X113981Y299387D01*
X114053Y299394D01*
X114124Y299391D01*
X114174Y299406D01*
X114226Y299410D01*
X114292Y299440D01*
X114360Y299460D01*
X114403Y299489D01*
X114451Y299510D01*
X114504Y299559D01*
X114563Y299600D01*
X114594Y299642D01*
X114632Y299677D01*
X114667Y299740D01*
X114709Y299797D01*
X114725Y299847D01*
X114751Y299892D01*
X114763Y299963D01*
X114785Y300031D01*
X114785Y300083D01*
X114794Y300134D01*
X114784Y300205D01*
X114783Y300277D01*
X114763Y300346D01*
X114758Y300378D01*
X114748Y300399D01*
X114736Y300438D01*
X114475Y301069D01*
X114475Y361699D01*
X114635Y362085D01*
X114645Y362128D01*
X114661Y362162D01*
X114663Y362181D01*
X114675Y362210D01*
X114684Y362293D01*
X114691Y362325D01*
X114690Y362344D01*
X114693Y362377D01*
X114693Y362798D01*
X114991Y363096D01*
X115030Y363149D01*
X115075Y363196D01*
X115116Y363269D01*
X115135Y363296D01*
X115141Y363314D01*
X115156Y363343D01*
X115316Y363730D01*
X116870Y365284D01*
X117257Y365444D01*
X117313Y365478D01*
X117373Y365504D01*
X117438Y365556D01*
X117466Y365573D01*
X117478Y365588D01*
X117504Y365609D01*
X117802Y365907D01*
X118223Y365907D01*
X118288Y365917D01*
X118354Y365918D01*
X118434Y365941D01*
X118466Y365946D01*
X118483Y365956D01*
X118515Y365965D01*
X118901Y366125D01*
X121099Y366125D01*
X121485Y365965D01*
X121549Y365950D01*
X121610Y365925D01*
X121693Y365916D01*
X121725Y365909D01*
X121744Y365910D01*
X121777Y365907D01*
X122198Y365907D01*
X122496Y365609D01*
X122549Y365570D01*
X122596Y365525D01*
X122669Y365484D01*
X122696Y365465D01*
X122714Y365459D01*
X122743Y365444D01*
X123130Y365284D01*
X124684Y363730D01*
X124844Y363343D01*
X124878Y363287D01*
X124904Y363227D01*
X124956Y363162D01*
X124973Y363134D01*
X124988Y363122D01*
X125009Y363096D01*
X125307Y362798D01*
X125307Y362377D01*
X125313Y362338D01*
X125312Y362328D01*
X125317Y362302D01*
X125318Y362246D01*
X125341Y362166D01*
X125346Y362134D01*
X125356Y362117D01*
X125364Y362089D01*
X125364Y362087D01*
X125365Y362085D01*
X125525Y361699D01*
X125525Y304771D01*
X125539Y304681D01*
X125547Y304590D01*
X125559Y304560D01*
X125564Y304528D01*
X125607Y304448D01*
X125643Y304364D01*
X125669Y304332D01*
X125680Y304311D01*
X125703Y304289D01*
X125748Y304233D01*
X136844Y293137D01*
X137685Y291106D01*
X137685Y268894D01*
X136844Y266863D01*
X130607Y260626D01*
X130595Y260610D01*
X130580Y260597D01*
X130523Y260510D01*
X130463Y260426D01*
X130457Y260407D01*
X130447Y260391D01*
X130421Y260290D01*
X130391Y260191D01*
X130391Y260171D01*
X130386Y260152D01*
X130395Y260049D01*
X130397Y259945D01*
X130404Y259927D01*
X130406Y259907D01*
X130446Y259812D01*
X130482Y259714D01*
X130494Y259699D01*
X130502Y259680D01*
X130607Y259550D01*
X131525Y258632D01*
X131525Y251786D01*
X131528Y251766D01*
X131526Y251747D01*
X131548Y251645D01*
X131564Y251543D01*
X131574Y251526D01*
X131578Y251506D01*
X131631Y251417D01*
X131680Y251326D01*
X131694Y251312D01*
X131704Y251295D01*
X131783Y251228D01*
X131858Y251156D01*
X131876Y251148D01*
X131891Y251135D01*
X131987Y251096D01*
X132081Y251053D01*
X132101Y251051D01*
X132119Y251043D01*
X132286Y251025D01*
X257996Y251025D01*
X258086Y251039D01*
X258177Y251047D01*
X258207Y251059D01*
X258239Y251064D01*
X258320Y251107D01*
X258404Y251143D01*
X258436Y251169D01*
X258456Y251180D01*
X258479Y251203D01*
X258535Y251248D01*
X278670Y271384D01*
X280701Y272225D01*
X297434Y272225D01*
X297454Y272228D01*
X297473Y272226D01*
X297575Y272248D01*
X297677Y272264D01*
X297694Y272274D01*
X297714Y272278D01*
X297803Y272331D01*
X297894Y272380D01*
X297908Y272394D01*
X297925Y272404D01*
X297992Y272483D01*
X298064Y272558D01*
X298072Y272576D01*
X298085Y272591D01*
X298124Y272687D01*
X298167Y272781D01*
X298169Y272801D01*
X298173Y272809D01*
X299088Y273725D01*
X311352Y273725D01*
X312245Y272832D01*
X312245Y261568D01*
X311352Y260675D01*
X308522Y260675D01*
X308502Y260672D01*
X308483Y260674D01*
X308381Y260652D01*
X308279Y260636D01*
X308262Y260626D01*
X308242Y260622D01*
X308153Y260569D01*
X308062Y260520D01*
X308048Y260506D01*
X308031Y260496D01*
X307964Y260417D01*
X307892Y260342D01*
X307884Y260324D01*
X307871Y260309D01*
X307832Y260213D01*
X307789Y260119D01*
X307787Y260099D01*
X307779Y260081D01*
X307761Y259914D01*
X307761Y259288D01*
X307775Y259198D01*
X307783Y259107D01*
X307795Y259077D01*
X307800Y259045D01*
X307843Y258965D01*
X307879Y258880D01*
X307905Y258848D01*
X307916Y258828D01*
X307939Y258805D01*
X307984Y258749D01*
X308695Y258038D01*
X308790Y257970D01*
X308884Y257900D01*
X308889Y257898D01*
X308895Y257895D01*
X309006Y257860D01*
X309117Y257824D01*
X309124Y257824D01*
X309130Y257822D01*
X309246Y257825D01*
X309363Y257827D01*
X309371Y257829D01*
X309376Y257829D01*
X309393Y257835D01*
X309524Y257873D01*
X309967Y258057D01*
X312393Y258057D01*
X314634Y257129D01*
X316349Y255414D01*
X317277Y253173D01*
X317277Y250747D01*
X316349Y248506D01*
X314634Y246791D01*
X312393Y245863D01*
X309967Y245863D01*
X307726Y246791D01*
X306011Y248506D01*
X305083Y250747D01*
X305083Y253173D01*
X305267Y253616D01*
X305293Y253729D01*
X305322Y253843D01*
X305321Y253849D01*
X305323Y253855D01*
X305312Y253971D01*
X305303Y254088D01*
X305300Y254094D01*
X305300Y254100D01*
X305252Y254207D01*
X305207Y254314D01*
X305202Y254320D01*
X305200Y254325D01*
X305187Y254338D01*
X305102Y254445D01*
X302679Y256868D01*
X302679Y259914D01*
X302676Y259934D01*
X302678Y259953D01*
X302656Y260055D01*
X302640Y260157D01*
X302630Y260174D01*
X302626Y260194D01*
X302573Y260283D01*
X302524Y260374D01*
X302510Y260388D01*
X302500Y260405D01*
X302421Y260472D01*
X302346Y260544D01*
X302328Y260552D01*
X302313Y260565D01*
X302217Y260604D01*
X302123Y260647D01*
X302103Y260649D01*
X302085Y260657D01*
X301918Y260675D01*
X299088Y260675D01*
X298811Y260952D01*
X298737Y261006D01*
X298668Y261065D01*
X298638Y261077D01*
X298612Y261096D01*
X298525Y261123D01*
X298440Y261157D01*
X298399Y261161D01*
X298377Y261168D01*
X298344Y261167D01*
X298273Y261175D01*
X284404Y261175D01*
X284314Y261161D01*
X284223Y261153D01*
X284193Y261141D01*
X284161Y261136D01*
X284080Y261093D01*
X283996Y261057D01*
X283964Y261031D01*
X283944Y261020D01*
X283921Y260997D01*
X283865Y260952D01*
X263730Y240816D01*
X261699Y239975D01*
X166886Y239975D01*
X166866Y239972D01*
X166847Y239974D01*
X166745Y239952D01*
X166643Y239936D01*
X166626Y239926D01*
X166606Y239922D01*
X166517Y239869D01*
X166426Y239820D01*
X166412Y239806D01*
X166395Y239796D01*
X166328Y239717D01*
X166256Y239642D01*
X166248Y239624D01*
X166235Y239609D01*
X166196Y239513D01*
X166153Y239419D01*
X166151Y239399D01*
X166143Y239381D01*
X166125Y239214D01*
X166125Y114701D01*
X165284Y112670D01*
X163832Y111219D01*
X163794Y111166D01*
X163748Y111119D01*
X163708Y111046D01*
X163689Y111019D01*
X163683Y111001D01*
X163667Y110972D01*
X163584Y110770D01*
X161291Y108478D01*
X161291Y108477D01*
X159630Y106816D01*
X157599Y105975D01*
X126522Y105975D01*
X126432Y105961D01*
X126341Y105953D01*
X126311Y105941D01*
X126279Y105936D01*
X126198Y105893D01*
X126114Y105857D01*
X126082Y105831D01*
X126061Y105820D01*
X126039Y105797D01*
X125983Y105752D01*
X125742Y105511D01*
X123145Y104435D01*
X109255Y104435D01*
G37*
%LPD*%
%LPC*%
G36*
X404824Y304947D02*
X404824Y304947D01*
X403931Y305840D01*
X403931Y323176D01*
X403917Y323266D01*
X403909Y323357D01*
X403897Y323387D01*
X403892Y323419D01*
X403849Y323499D01*
X403813Y323583D01*
X403787Y323615D01*
X403776Y323636D01*
X403753Y323658D01*
X403708Y323714D01*
X402184Y325238D01*
X402126Y325280D01*
X402074Y325329D01*
X402027Y325351D01*
X401985Y325382D01*
X401916Y325403D01*
X401851Y325433D01*
X401799Y325439D01*
X401749Y325454D01*
X401678Y325452D01*
X401607Y325460D01*
X401556Y325449D01*
X401504Y325448D01*
X401436Y325423D01*
X401366Y325408D01*
X401321Y325381D01*
X401273Y325363D01*
X401217Y325318D01*
X401155Y325282D01*
X401121Y325242D01*
X401081Y325210D01*
X401042Y325149D01*
X400995Y325095D01*
X400976Y325046D01*
X400948Y325003D01*
X400930Y324933D01*
X400903Y324867D01*
X400895Y324795D01*
X400887Y324764D01*
X400889Y324741D01*
X400885Y324700D01*
X400885Y317774D01*
X396946Y317774D01*
X396946Y328854D01*
X396951Y328856D01*
X397003Y328864D01*
X397066Y328898D01*
X397133Y328923D01*
X397174Y328955D01*
X397220Y328980D01*
X397269Y329031D01*
X397325Y329076D01*
X397354Y329120D01*
X397389Y329158D01*
X397420Y329223D01*
X397458Y329283D01*
X397471Y329334D01*
X397493Y329381D01*
X397501Y329452D01*
X397518Y329522D01*
X397514Y329574D01*
X397520Y329625D01*
X397505Y329696D01*
X397499Y329767D01*
X397479Y329815D01*
X397468Y329866D01*
X397431Y329927D01*
X397403Y329993D01*
X397358Y330049D01*
X397342Y330077D01*
X397324Y330092D01*
X397298Y330124D01*
X272870Y454552D01*
X270875Y456547D01*
X270875Y506905D01*
X270864Y506976D01*
X270862Y507047D01*
X270844Y507096D01*
X270836Y507148D01*
X270802Y507211D01*
X270777Y507278D01*
X270745Y507319D01*
X270720Y507365D01*
X270668Y507414D01*
X270624Y507470D01*
X270580Y507499D01*
X270542Y507534D01*
X270477Y507565D01*
X270417Y507603D01*
X270366Y507616D01*
X270319Y507638D01*
X270248Y507646D01*
X270178Y507663D01*
X270126Y507659D01*
X270075Y507665D01*
X270004Y507650D01*
X269933Y507644D01*
X269885Y507624D01*
X269834Y507613D01*
X269773Y507576D01*
X269707Y507548D01*
X269651Y507503D01*
X269623Y507487D01*
X269608Y507469D01*
X269576Y507443D01*
X265288Y503155D01*
X257712Y503155D01*
X252355Y508512D01*
X252355Y516088D01*
X257712Y521445D01*
X265288Y521445D01*
X269576Y517157D01*
X269634Y517115D01*
X269686Y517066D01*
X269733Y517044D01*
X269775Y517013D01*
X269844Y516992D01*
X269909Y516962D01*
X269961Y516956D01*
X270011Y516941D01*
X270082Y516943D01*
X270153Y516935D01*
X270204Y516946D01*
X270256Y516947D01*
X270324Y516972D01*
X270394Y516987D01*
X270439Y517014D01*
X270487Y517032D01*
X270543Y517077D01*
X270605Y517113D01*
X270639Y517153D01*
X270679Y517185D01*
X270718Y517246D01*
X270765Y517300D01*
X270784Y517349D01*
X270812Y517392D01*
X270830Y517462D01*
X270857Y517528D01*
X270865Y517600D01*
X270873Y517631D01*
X270871Y517654D01*
X270875Y517695D01*
X270875Y523732D01*
X270861Y523822D01*
X270853Y523913D01*
X270841Y523943D01*
X270836Y523975D01*
X270793Y524055D01*
X270757Y524139D01*
X270731Y524171D01*
X270720Y524192D01*
X270697Y524214D01*
X270680Y524235D01*
X270676Y524243D01*
X270671Y524247D01*
X270652Y524270D01*
X266366Y528557D01*
X266350Y528568D01*
X266337Y528584D01*
X266250Y528640D01*
X266166Y528700D01*
X266147Y528706D01*
X266130Y528717D01*
X266030Y528742D01*
X265931Y528773D01*
X265911Y528772D01*
X265892Y528777D01*
X265789Y528769D01*
X265685Y528766D01*
X265666Y528759D01*
X265646Y528758D01*
X265551Y528717D01*
X265454Y528682D01*
X265438Y528669D01*
X265420Y528661D01*
X265289Y528557D01*
X265288Y528555D01*
X257712Y528555D01*
X252355Y533912D01*
X252355Y541488D01*
X257712Y546845D01*
X265288Y546845D01*
X270645Y541488D01*
X270645Y533912D01*
X270643Y533911D01*
X270632Y533895D01*
X270616Y533882D01*
X270560Y533795D01*
X270500Y533711D01*
X270494Y533692D01*
X270483Y533675D01*
X270458Y533575D01*
X270427Y533476D01*
X270428Y533456D01*
X270423Y533437D01*
X270431Y533334D01*
X270434Y533230D01*
X270441Y533211D01*
X270442Y533192D01*
X270483Y533096D01*
X270518Y532999D01*
X270531Y532983D01*
X270539Y532965D01*
X270643Y532834D01*
X274930Y528548D01*
X276925Y526553D01*
X276925Y517095D01*
X276936Y517024D01*
X276938Y516953D01*
X276956Y516904D01*
X276964Y516852D01*
X276998Y516789D01*
X277023Y516722D01*
X277055Y516681D01*
X277080Y516635D01*
X277132Y516586D01*
X277176Y516530D01*
X277220Y516501D01*
X277258Y516466D01*
X277323Y516435D01*
X277383Y516397D01*
X277434Y516384D01*
X277481Y516362D01*
X277552Y516354D01*
X277622Y516337D01*
X277674Y516341D01*
X277725Y516335D01*
X277796Y516350D01*
X277867Y516356D01*
X277915Y516376D01*
X277966Y516387D01*
X278027Y516424D01*
X278093Y516452D01*
X278149Y516497D01*
X278177Y516513D01*
X278192Y516531D01*
X278224Y516557D01*
X283112Y521445D01*
X290688Y521445D01*
X296045Y516088D01*
X296045Y508512D01*
X290688Y503155D01*
X283112Y503155D01*
X278224Y508043D01*
X278166Y508085D01*
X278114Y508134D01*
X278067Y508156D01*
X278025Y508187D01*
X277956Y508208D01*
X277891Y508238D01*
X277839Y508244D01*
X277789Y508259D01*
X277718Y508257D01*
X277647Y508265D01*
X277596Y508254D01*
X277544Y508253D01*
X277476Y508228D01*
X277406Y508213D01*
X277361Y508186D01*
X277313Y508168D01*
X277257Y508123D01*
X277195Y508087D01*
X277161Y508047D01*
X277121Y508015D01*
X277082Y507954D01*
X277035Y507900D01*
X277016Y507851D01*
X276988Y507808D01*
X276970Y507738D01*
X276943Y507672D01*
X276935Y507600D01*
X276927Y507569D01*
X276929Y507546D01*
X276925Y507505D01*
X276925Y459368D01*
X276939Y459278D01*
X276947Y459187D01*
X276959Y459157D01*
X276964Y459125D01*
X277007Y459045D01*
X277043Y458961D01*
X277069Y458929D01*
X277080Y458908D01*
X277103Y458886D01*
X277148Y458830D01*
X407946Y328032D01*
X408020Y327979D01*
X408089Y327919D01*
X408119Y327907D01*
X408146Y327888D01*
X408233Y327861D01*
X408317Y327827D01*
X408358Y327823D01*
X408381Y327816D01*
X408413Y327817D01*
X408484Y327809D01*
X411676Y327809D01*
X412569Y326916D01*
X412569Y305840D01*
X411676Y304947D01*
X404824Y304947D01*
G37*
%LPD*%
%LPC*%
G36*
X28523Y247023D02*
X28523Y247023D01*
X28523Y260550D01*
X28565Y260556D01*
X28662Y260566D01*
X28686Y260576D01*
X28712Y260580D01*
X28798Y260626D01*
X28887Y260666D01*
X28906Y260683D01*
X28929Y260696D01*
X28997Y260766D01*
X29068Y260832D01*
X29081Y260855D01*
X29099Y260874D01*
X29140Y260962D01*
X29187Y261047D01*
X29191Y261073D01*
X29202Y261097D01*
X29213Y261194D01*
X29231Y261290D01*
X29227Y261315D01*
X29230Y261341D01*
X29209Y261437D01*
X29195Y261533D01*
X29183Y261556D01*
X29177Y261582D01*
X29127Y261665D01*
X29083Y261752D01*
X29065Y261770D01*
X29051Y261793D01*
X28977Y261856D01*
X28908Y261924D01*
X28879Y261940D01*
X28864Y261953D01*
X28834Y261965D01*
X28761Y262005D01*
X26580Y262909D01*
X20909Y268580D01*
X17839Y275990D01*
X17839Y284010D01*
X20909Y291420D01*
X26580Y297091D01*
X34084Y300200D01*
X34088Y300200D01*
X34096Y300205D01*
X34130Y300219D01*
X34159Y300237D01*
X34219Y300259D01*
X34259Y300291D01*
X34305Y300316D01*
X34333Y300345D01*
X34339Y300348D01*
X34355Y300367D01*
X34411Y300412D01*
X34439Y300456D01*
X34475Y300494D01*
X34494Y300536D01*
X34496Y300538D01*
X34498Y300544D01*
X34505Y300559D01*
X34544Y300619D01*
X34556Y300670D01*
X34578Y300717D01*
X34586Y300788D01*
X34604Y300858D01*
X34600Y300910D01*
X34605Y300961D01*
X34590Y301032D01*
X34585Y301103D01*
X34564Y301151D01*
X34553Y301202D01*
X34526Y301246D01*
X34526Y301249D01*
X34519Y301259D01*
X34516Y301263D01*
X34488Y301329D01*
X34475Y301346D01*
X34475Y327632D01*
X35368Y328525D01*
X41233Y328525D01*
X41303Y328536D01*
X41375Y328538D01*
X41424Y328556D01*
X41475Y328564D01*
X41539Y328598D01*
X41606Y328623D01*
X41647Y328655D01*
X41693Y328680D01*
X41742Y328732D01*
X41798Y328776D01*
X41826Y328820D01*
X41862Y328858D01*
X41892Y328923D01*
X41931Y328983D01*
X41944Y329034D01*
X41966Y329081D01*
X41974Y329152D01*
X41991Y329222D01*
X41987Y329274D01*
X41993Y329325D01*
X41978Y329396D01*
X41972Y329467D01*
X41952Y329515D01*
X41941Y329566D01*
X41904Y329627D01*
X41876Y329693D01*
X41831Y329749D01*
X41814Y329777D01*
X41797Y329792D01*
X41771Y329824D01*
X39493Y332102D01*
X39493Y336498D01*
X42602Y339607D01*
X46998Y339607D01*
X50107Y336498D01*
X50107Y332102D01*
X49248Y331243D01*
X49195Y331169D01*
X49135Y331099D01*
X49123Y331069D01*
X49104Y331043D01*
X49077Y330956D01*
X49043Y330871D01*
X49039Y330830D01*
X49032Y330808D01*
X49033Y330776D01*
X49025Y330705D01*
X49025Y329286D01*
X49028Y329266D01*
X49026Y329247D01*
X49048Y329145D01*
X49064Y329043D01*
X49074Y329026D01*
X49078Y329006D01*
X49131Y328917D01*
X49180Y328826D01*
X49194Y328812D01*
X49204Y328795D01*
X49283Y328728D01*
X49358Y328656D01*
X49376Y328648D01*
X49391Y328635D01*
X49487Y328596D01*
X49581Y328553D01*
X49601Y328551D01*
X49619Y328543D01*
X49786Y328525D01*
X56632Y328525D01*
X57525Y327632D01*
X57525Y301368D01*
X56632Y300475D01*
X45078Y300475D01*
X44982Y300460D01*
X44885Y300450D01*
X44861Y300440D01*
X44835Y300436D01*
X44749Y300390D01*
X44660Y300350D01*
X44641Y300333D01*
X44618Y300320D01*
X44551Y300250D01*
X44479Y300184D01*
X44466Y300161D01*
X44448Y300142D01*
X44407Y300054D01*
X44360Y299968D01*
X44356Y299943D01*
X44345Y299919D01*
X44334Y299822D01*
X44317Y299726D01*
X44321Y299700D01*
X44318Y299675D01*
X44338Y299579D01*
X44353Y299483D01*
X44364Y299460D01*
X44370Y299434D01*
X44420Y299351D01*
X44464Y299264D01*
X44483Y299245D01*
X44496Y299223D01*
X44570Y299160D01*
X44640Y299092D01*
X44668Y299076D01*
X44683Y299063D01*
X44714Y299051D01*
X44787Y299011D01*
X49420Y297091D01*
X55091Y291420D01*
X58161Y284010D01*
X58161Y275990D01*
X55091Y268580D01*
X49420Y262909D01*
X42010Y259839D01*
X40130Y259839D01*
X40013Y259820D01*
X39895Y259802D01*
X39891Y259800D01*
X39887Y259800D01*
X39782Y259744D01*
X39676Y259689D01*
X39673Y259686D01*
X39669Y259684D01*
X39587Y259598D01*
X39505Y259513D01*
X39503Y259509D01*
X39500Y259506D01*
X39450Y259398D01*
X39399Y259291D01*
X39398Y259287D01*
X39396Y259283D01*
X39383Y259164D01*
X39369Y259047D01*
X39370Y259042D01*
X39369Y259039D01*
X39372Y259025D01*
X39394Y258881D01*
X39541Y258334D01*
X39541Y247023D01*
X28523Y247023D01*
G37*
%LPD*%
%LPC*%
G36*
X353698Y13025D02*
X353698Y13025D01*
X352805Y13918D01*
X352805Y25182D01*
X353698Y26075D01*
X356528Y26075D01*
X356548Y26078D01*
X356567Y26076D01*
X356669Y26098D01*
X356771Y26114D01*
X356788Y26124D01*
X356808Y26128D01*
X356897Y26181D01*
X356988Y26230D01*
X357002Y26244D01*
X357019Y26254D01*
X357086Y26333D01*
X357158Y26408D01*
X357166Y26426D01*
X357179Y26441D01*
X357218Y26537D01*
X357261Y26631D01*
X357263Y26651D01*
X357271Y26669D01*
X357289Y26836D01*
X357289Y28612D01*
X359001Y30324D01*
X360723Y32046D01*
X360764Y32104D01*
X360814Y32156D01*
X360836Y32203D01*
X360866Y32245D01*
X360887Y32314D01*
X360917Y32379D01*
X360923Y32431D01*
X360939Y32481D01*
X360937Y32552D01*
X360945Y32623D01*
X360933Y32674D01*
X360932Y32726D01*
X360908Y32794D01*
X360892Y32864D01*
X360866Y32909D01*
X360848Y32957D01*
X360803Y33013D01*
X360766Y33075D01*
X360727Y33109D01*
X360694Y33149D01*
X360634Y33188D01*
X360579Y33235D01*
X360531Y33254D01*
X360487Y33282D01*
X360418Y33300D01*
X360351Y33327D01*
X360280Y33335D01*
X360249Y33343D01*
X360225Y33341D01*
X360184Y33345D01*
X352428Y33345D01*
X352358Y33415D01*
X352342Y33427D01*
X352330Y33443D01*
X352242Y33499D01*
X352159Y33559D01*
X352140Y33565D01*
X352123Y33576D01*
X352022Y33601D01*
X351923Y33631D01*
X351903Y33631D01*
X351884Y33636D01*
X351781Y33628D01*
X351678Y33625D01*
X351659Y33618D01*
X351639Y33617D01*
X351544Y33576D01*
X351447Y33541D01*
X351431Y33528D01*
X351413Y33520D01*
X351282Y33415D01*
X351212Y33345D01*
X338948Y33345D01*
X338055Y34238D01*
X338055Y45502D01*
X338948Y46395D01*
X343476Y46395D01*
X343566Y46409D01*
X343657Y46417D01*
X343687Y46429D01*
X343719Y46434D01*
X343800Y46477D01*
X343884Y46513D01*
X343916Y46539D01*
X343936Y46550D01*
X343959Y46573D01*
X344015Y46618D01*
X355040Y57644D01*
X357071Y58485D01*
X372474Y58485D01*
X372494Y58488D01*
X372513Y58486D01*
X372615Y58508D01*
X372717Y58524D01*
X372734Y58534D01*
X372754Y58538D01*
X372843Y58591D01*
X372934Y58640D01*
X372948Y58654D01*
X372965Y58664D01*
X373032Y58743D01*
X373104Y58818D01*
X373112Y58836D01*
X373125Y58851D01*
X373164Y58947D01*
X373207Y59041D01*
X373209Y59061D01*
X373213Y59069D01*
X374128Y59985D01*
X385392Y59985D01*
X386285Y59092D01*
X386285Y46629D01*
X386292Y46583D01*
X386290Y46537D01*
X386312Y46463D01*
X386324Y46386D01*
X386346Y46345D01*
X386359Y46301D01*
X386403Y46237D01*
X386440Y46168D01*
X386473Y46137D01*
X386499Y46099D01*
X386562Y46053D01*
X386618Y45999D01*
X386660Y45980D01*
X386696Y45952D01*
X386770Y45928D01*
X386841Y45895D01*
X386887Y45890D01*
X386930Y45876D01*
X387008Y45877D01*
X387085Y45868D01*
X387130Y45878D01*
X387176Y45879D01*
X387307Y45917D01*
X387326Y45921D01*
X387330Y45923D01*
X387337Y45925D01*
X387437Y45967D01*
X389863Y45967D01*
X392104Y45039D01*
X393700Y43442D01*
X393758Y43400D01*
X393810Y43351D01*
X393857Y43329D01*
X393899Y43299D01*
X393968Y43278D01*
X394033Y43247D01*
X394085Y43242D01*
X394135Y43226D01*
X394206Y43228D01*
X394277Y43220D01*
X394328Y43231D01*
X394380Y43233D01*
X394448Y43257D01*
X394518Y43273D01*
X394563Y43299D01*
X394611Y43317D01*
X394667Y43362D01*
X394729Y43399D01*
X394763Y43438D01*
X394803Y43471D01*
X394842Y43531D01*
X394889Y43586D01*
X394908Y43634D01*
X394936Y43678D01*
X394954Y43747D01*
X394981Y43814D01*
X394989Y43885D01*
X394997Y43916D01*
X394995Y43940D01*
X394999Y43981D01*
X394999Y83812D01*
X394996Y83832D01*
X394998Y83851D01*
X394976Y83953D01*
X394960Y84055D01*
X394950Y84072D01*
X394946Y84092D01*
X394893Y84181D01*
X394844Y84272D01*
X394830Y84286D01*
X394820Y84303D01*
X394741Y84370D01*
X394666Y84442D01*
X394648Y84450D01*
X394633Y84463D01*
X394537Y84502D01*
X394443Y84545D01*
X394423Y84547D01*
X394405Y84555D01*
X394238Y84573D01*
X393787Y84573D01*
X391546Y85501D01*
X389831Y87216D01*
X388903Y89457D01*
X388903Y91883D01*
X389831Y94124D01*
X391546Y95839D01*
X393787Y96767D01*
X396213Y96767D01*
X398454Y95839D01*
X399766Y94526D01*
X399824Y94484D01*
X399876Y94435D01*
X399923Y94413D01*
X399965Y94383D01*
X400034Y94362D01*
X400099Y94331D01*
X400151Y94326D01*
X400201Y94310D01*
X400272Y94312D01*
X400343Y94304D01*
X400394Y94315D01*
X400446Y94317D01*
X400514Y94341D01*
X400584Y94357D01*
X400629Y94383D01*
X400677Y94401D01*
X400733Y94446D01*
X400795Y94483D01*
X400829Y94522D01*
X400869Y94555D01*
X400908Y94615D01*
X400955Y94670D01*
X400974Y94718D01*
X401002Y94762D01*
X401020Y94831D01*
X401047Y94898D01*
X401055Y94969D01*
X401063Y95000D01*
X401061Y95024D01*
X401065Y95065D01*
X401065Y96302D01*
X401958Y97195D01*
X414222Y97195D01*
X415115Y96302D01*
X415115Y85038D01*
X414222Y84145D01*
X401958Y84145D01*
X401380Y84723D01*
X401322Y84765D01*
X401270Y84815D01*
X401223Y84837D01*
X401181Y84867D01*
X401112Y84888D01*
X401047Y84918D01*
X400995Y84924D01*
X400945Y84939D01*
X400874Y84937D01*
X400803Y84945D01*
X400752Y84934D01*
X400700Y84933D01*
X400632Y84908D01*
X400562Y84893D01*
X400517Y84866D01*
X400469Y84849D01*
X400413Y84804D01*
X400351Y84767D01*
X400317Y84727D01*
X400277Y84695D01*
X400238Y84635D01*
X400191Y84580D01*
X400172Y84532D01*
X400144Y84488D01*
X400126Y84418D01*
X400099Y84352D01*
X400091Y84281D01*
X400083Y84249D01*
X400085Y84226D01*
X400081Y84185D01*
X400081Y37513D01*
X400085Y37484D01*
X400085Y37429D01*
X400183Y36547D01*
X400163Y36498D01*
X400127Y36433D01*
X400118Y36384D01*
X400099Y36338D01*
X400094Y36291D01*
X399466Y35663D01*
X399449Y35639D01*
X399410Y35600D01*
X395168Y30297D01*
X395143Y30254D01*
X395111Y30217D01*
X395083Y30148D01*
X395047Y30083D01*
X395038Y30034D01*
X395019Y29988D01*
X395014Y29941D01*
X394386Y29313D01*
X394369Y29289D01*
X394330Y29250D01*
X393776Y28557D01*
X393726Y28536D01*
X393655Y28516D01*
X393614Y28489D01*
X393568Y28469D01*
X393531Y28439D01*
X392643Y28439D01*
X392614Y28435D01*
X392559Y28435D01*
X391677Y28337D01*
X391634Y28354D01*
X391613Y28366D01*
X391608Y28368D01*
X391563Y28393D01*
X391515Y28402D01*
X391468Y28421D01*
X391353Y28434D01*
X391337Y28437D01*
X391332Y28437D01*
X391322Y28439D01*
X391314Y28438D01*
X391302Y28439D01*
X364618Y28439D01*
X364528Y28425D01*
X364437Y28417D01*
X364407Y28405D01*
X364375Y28400D01*
X364295Y28357D01*
X364210Y28321D01*
X364178Y28295D01*
X364158Y28284D01*
X364135Y28261D01*
X364079Y28216D01*
X363237Y27374D01*
X363196Y27316D01*
X363146Y27264D01*
X363124Y27217D01*
X363094Y27175D01*
X363073Y27106D01*
X363043Y27041D01*
X363037Y26989D01*
X363021Y26939D01*
X363023Y26868D01*
X363015Y26797D01*
X363027Y26746D01*
X363028Y26694D01*
X363052Y26626D01*
X363068Y26556D01*
X363094Y26511D01*
X363112Y26463D01*
X363157Y26407D01*
X363194Y26345D01*
X363233Y26311D01*
X363266Y26271D01*
X363326Y26232D01*
X363381Y26185D01*
X363429Y26166D01*
X363473Y26138D01*
X363542Y26120D01*
X363609Y26093D01*
X363680Y26085D01*
X363711Y26077D01*
X363735Y26079D01*
X363776Y26075D01*
X366452Y26075D01*
X367345Y25182D01*
X367345Y13918D01*
X366452Y13025D01*
X353698Y13025D01*
G37*
%LPD*%
%LPC*%
G36*
X443627Y256277D02*
X443627Y256277D01*
X439613Y257940D01*
X436540Y261013D01*
X434877Y265027D01*
X434877Y269373D01*
X436540Y273387D01*
X439613Y276460D01*
X440305Y276747D01*
X440405Y276809D01*
X440505Y276868D01*
X440509Y276873D01*
X440514Y276876D01*
X440589Y276967D01*
X440665Y277055D01*
X440667Y277061D01*
X440671Y277066D01*
X440713Y277174D01*
X440757Y277283D01*
X440758Y277291D01*
X440759Y277295D01*
X440760Y277314D01*
X440775Y277450D01*
X440775Y278781D01*
X466502Y304508D01*
X466555Y304582D01*
X466615Y304652D01*
X466627Y304682D01*
X466646Y304708D01*
X466673Y304795D01*
X466707Y304880D01*
X466711Y304921D01*
X466718Y304943D01*
X466717Y304975D01*
X466725Y305047D01*
X466725Y318459D01*
X467208Y318942D01*
X467262Y319016D01*
X467321Y319086D01*
X467333Y319116D01*
X467352Y319142D01*
X467379Y319229D01*
X467413Y319314D01*
X467417Y319355D01*
X467424Y319377D01*
X467423Y319409D01*
X467431Y319481D01*
X467431Y326916D01*
X468324Y327809D01*
X475176Y327809D01*
X476069Y326916D01*
X476069Y322164D01*
X476072Y322144D01*
X476070Y322125D01*
X476092Y322023D01*
X476108Y321921D01*
X476118Y321904D01*
X476122Y321884D01*
X476175Y321795D01*
X476224Y321704D01*
X476238Y321690D01*
X476248Y321673D01*
X476327Y321606D01*
X476402Y321534D01*
X476420Y321526D01*
X476435Y321513D01*
X476531Y321474D01*
X476625Y321431D01*
X476645Y321429D01*
X476663Y321421D01*
X476830Y321403D01*
X479370Y321403D01*
X479390Y321406D01*
X479409Y321404D01*
X479511Y321426D01*
X479613Y321442D01*
X479630Y321452D01*
X479650Y321456D01*
X479739Y321509D01*
X479830Y321558D01*
X479844Y321572D01*
X479861Y321582D01*
X479928Y321661D01*
X480000Y321736D01*
X480008Y321754D01*
X480021Y321769D01*
X480060Y321865D01*
X480103Y321959D01*
X480105Y321979D01*
X480113Y321997D01*
X480131Y322164D01*
X480131Y326916D01*
X481024Y327809D01*
X487876Y327809D01*
X488769Y326916D01*
X488769Y319481D01*
X488783Y319391D01*
X488791Y319300D01*
X488803Y319270D01*
X488808Y319238D01*
X488851Y319157D01*
X488887Y319073D01*
X488913Y319041D01*
X488924Y319020D01*
X488947Y318998D01*
X488992Y318942D01*
X489475Y318459D01*
X489475Y314297D01*
X488992Y313814D01*
X488938Y313740D01*
X488879Y313670D01*
X488867Y313640D01*
X488848Y313614D01*
X488821Y313527D01*
X488787Y313442D01*
X488783Y313401D01*
X488776Y313379D01*
X488777Y313347D01*
X488769Y313275D01*
X488769Y305840D01*
X487876Y304947D01*
X481024Y304947D01*
X480131Y305840D01*
X480131Y310592D01*
X480128Y310612D01*
X480130Y310631D01*
X480108Y310733D01*
X480092Y310835D01*
X480082Y310852D01*
X480078Y310872D01*
X480025Y310961D01*
X479976Y311052D01*
X479962Y311066D01*
X479952Y311083D01*
X479873Y311150D01*
X479798Y311222D01*
X479780Y311230D01*
X479765Y311243D01*
X479669Y311282D01*
X479575Y311325D01*
X479555Y311327D01*
X479537Y311335D01*
X479370Y311353D01*
X477536Y311353D01*
X477516Y311350D01*
X477497Y311352D01*
X477395Y311330D01*
X477293Y311314D01*
X477276Y311304D01*
X477256Y311300D01*
X477167Y311247D01*
X477076Y311198D01*
X477062Y311184D01*
X477045Y311174D01*
X476978Y311095D01*
X476906Y311020D01*
X476898Y311002D01*
X476885Y310987D01*
X476846Y310891D01*
X476803Y310797D01*
X476801Y310777D01*
X476793Y310759D01*
X476775Y310592D01*
X476775Y300569D01*
X452865Y276659D01*
X452853Y276643D01*
X452838Y276630D01*
X452781Y276543D01*
X452721Y276459D01*
X452715Y276440D01*
X452705Y276423D01*
X452679Y276323D01*
X452649Y276224D01*
X452649Y276204D01*
X452645Y276185D01*
X452653Y276082D01*
X452655Y275978D01*
X452662Y275959D01*
X452664Y275940D01*
X452704Y275845D01*
X452740Y275747D01*
X452752Y275731D01*
X452760Y275713D01*
X452865Y275582D01*
X455060Y273387D01*
X456723Y269373D01*
X456723Y265027D01*
X455060Y261013D01*
X451987Y257940D01*
X447973Y256277D01*
X443627Y256277D01*
G37*
%LPD*%
%LPC*%
G36*
X88085Y124339D02*
X88085Y124339D01*
X82329Y126723D01*
X77923Y131129D01*
X75539Y136885D01*
X75539Y143115D01*
X77923Y148871D01*
X82329Y153277D01*
X88085Y155661D01*
X94315Y155661D01*
X100071Y153277D01*
X104477Y148871D01*
X106861Y143115D01*
X106861Y136885D01*
X104477Y131129D01*
X100071Y126723D01*
X94315Y124339D01*
X88085Y124339D01*
G37*
%LPD*%
%LPC*%
G36*
X106902Y427693D02*
X106902Y427693D01*
X103793Y430802D01*
X103793Y435198D01*
X105852Y437257D01*
X105905Y437331D01*
X105965Y437401D01*
X105977Y437431D01*
X105996Y437457D01*
X106023Y437544D01*
X106057Y437629D01*
X106061Y437670D01*
X106068Y437692D01*
X106067Y437724D01*
X106075Y437795D01*
X106075Y502394D01*
X106072Y502414D01*
X106074Y502433D01*
X106052Y502535D01*
X106036Y502637D01*
X106026Y502654D01*
X106022Y502674D01*
X105969Y502763D01*
X105920Y502854D01*
X105906Y502868D01*
X105896Y502885D01*
X105817Y502952D01*
X105742Y503024D01*
X105724Y503032D01*
X105709Y503045D01*
X105613Y503084D01*
X105519Y503127D01*
X105499Y503129D01*
X105481Y503137D01*
X105314Y503155D01*
X105312Y503155D01*
X99955Y508512D01*
X99955Y516088D01*
X105312Y521445D01*
X112888Y521445D01*
X118245Y516088D01*
X118245Y508512D01*
X112888Y503155D01*
X112886Y503155D01*
X112866Y503152D01*
X112847Y503154D01*
X112745Y503132D01*
X112643Y503116D01*
X112626Y503106D01*
X112606Y503102D01*
X112517Y503049D01*
X112426Y503000D01*
X112412Y502986D01*
X112395Y502976D01*
X112328Y502897D01*
X112256Y502822D01*
X112248Y502804D01*
X112235Y502789D01*
X112196Y502693D01*
X112153Y502599D01*
X112151Y502579D01*
X112143Y502561D01*
X112125Y502394D01*
X112125Y437795D01*
X112139Y437705D01*
X112147Y437614D01*
X112159Y437585D01*
X112164Y437553D01*
X112207Y437472D01*
X112243Y437388D01*
X112269Y437356D01*
X112280Y437335D01*
X112303Y437313D01*
X112348Y437257D01*
X114407Y435198D01*
X114407Y430802D01*
X111298Y427693D01*
X106902Y427693D01*
G37*
%LPD*%
%LPC*%
G36*
X195302Y285793D02*
X195302Y285793D01*
X192193Y288902D01*
X192193Y293298D01*
X194252Y295357D01*
X194305Y295431D01*
X194365Y295501D01*
X194377Y295531D01*
X194396Y295557D01*
X194423Y295644D01*
X194457Y295729D01*
X194461Y295770D01*
X194468Y295792D01*
X194467Y295824D01*
X194475Y295895D01*
X194475Y308232D01*
X194461Y308322D01*
X194453Y308413D01*
X194441Y308443D01*
X194436Y308475D01*
X194393Y308555D01*
X194357Y308639D01*
X194331Y308671D01*
X194320Y308692D01*
X194297Y308714D01*
X194252Y308770D01*
X142252Y360770D01*
X142178Y360823D01*
X142109Y360883D01*
X142079Y360895D01*
X142052Y360914D01*
X141965Y360941D01*
X141881Y360975D01*
X141840Y360979D01*
X141817Y360986D01*
X141785Y360985D01*
X141714Y360993D01*
X138802Y360993D01*
X135693Y364102D01*
X135693Y368498D01*
X138802Y371607D01*
X143198Y371607D01*
X146307Y368498D01*
X146307Y365586D01*
X146321Y365496D01*
X146329Y365405D01*
X146341Y365375D01*
X146346Y365343D01*
X146389Y365263D01*
X146425Y365179D01*
X146451Y365147D01*
X146462Y365126D01*
X146485Y365104D01*
X146530Y365048D01*
X200525Y311053D01*
X200525Y295895D01*
X200539Y295805D01*
X200547Y295714D01*
X200559Y295685D01*
X200564Y295653D01*
X200607Y295572D01*
X200643Y295488D01*
X200669Y295456D01*
X200680Y295435D01*
X200703Y295413D01*
X200748Y295357D01*
X202807Y293298D01*
X202807Y288902D01*
X199698Y285793D01*
X195302Y285793D01*
G37*
%LPD*%
%LPC*%
G36*
X504548Y190555D02*
X504548Y190555D01*
X503655Y191448D01*
X503655Y200712D01*
X504548Y201605D01*
X505744Y201605D01*
X505764Y201608D01*
X505783Y201606D01*
X505885Y201628D01*
X505987Y201644D01*
X506004Y201654D01*
X506024Y201658D01*
X506113Y201711D01*
X506204Y201760D01*
X506218Y201774D01*
X506235Y201784D01*
X506302Y201863D01*
X506374Y201938D01*
X506382Y201956D01*
X506395Y201971D01*
X506434Y202067D01*
X506477Y202161D01*
X506479Y202181D01*
X506487Y202199D01*
X506505Y202366D01*
X506505Y249039D01*
X506502Y249059D01*
X506504Y249078D01*
X506482Y249180D01*
X506466Y249282D01*
X506456Y249299D01*
X506452Y249319D01*
X506399Y249408D01*
X506350Y249499D01*
X506336Y249513D01*
X506326Y249530D01*
X506247Y249597D01*
X506172Y249669D01*
X506154Y249677D01*
X506139Y249690D01*
X506043Y249729D01*
X505949Y249772D01*
X505929Y249774D01*
X505911Y249782D01*
X505744Y249800D01*
X502318Y249800D01*
X501425Y250693D01*
X501425Y258307D01*
X501442Y258323D01*
X501454Y258339D01*
X501469Y258352D01*
X501500Y258400D01*
X501509Y258409D01*
X501516Y258425D01*
X501525Y258439D01*
X501586Y258523D01*
X501591Y258542D01*
X501602Y258559D01*
X501627Y258659D01*
X501658Y258758D01*
X501657Y258778D01*
X501662Y258797D01*
X501654Y258900D01*
X501652Y259004D01*
X501645Y259023D01*
X501643Y259043D01*
X501603Y259138D01*
X501567Y259235D01*
X501555Y259251D01*
X501547Y259269D01*
X501442Y259400D01*
X500917Y259925D01*
X500582Y260504D01*
X500409Y261151D01*
X500409Y263137D01*
X505998Y263137D01*
X506018Y263140D01*
X506037Y263138D01*
X506139Y263160D01*
X506241Y263177D01*
X506258Y263186D01*
X506278Y263190D01*
X506367Y263243D01*
X506458Y263292D01*
X506472Y263306D01*
X506489Y263316D01*
X506556Y263395D01*
X506628Y263470D01*
X506636Y263488D01*
X506649Y263503D01*
X506688Y263599D01*
X506731Y263693D01*
X506733Y263713D01*
X506741Y263731D01*
X506759Y263898D01*
X506759Y264442D01*
X507201Y264884D01*
X507242Y264942D01*
X507292Y264994D01*
X507314Y265041D01*
X507344Y265083D01*
X507365Y265152D01*
X507395Y265217D01*
X507401Y265269D01*
X507416Y265318D01*
X507415Y265390D01*
X507422Y265461D01*
X507411Y265512D01*
X507410Y265564D01*
X507385Y265632D01*
X507370Y265702D01*
X507343Y265746D01*
X507326Y265795D01*
X507281Y265851D01*
X507244Y265913D01*
X507204Y265947D01*
X507172Y265987D01*
X507112Y266026D01*
X507057Y266073D01*
X507009Y266092D01*
X506965Y266120D01*
X506895Y266138D01*
X506829Y266165D01*
X506758Y266173D01*
X506726Y266180D01*
X506703Y266179D01*
X506662Y266183D01*
X500409Y266183D01*
X500409Y268169D01*
X500582Y268816D01*
X500917Y269395D01*
X501390Y269868D01*
X501969Y270203D01*
X502616Y270376D01*
X507777Y270376D01*
X507777Y266692D01*
X507780Y266672D01*
X507778Y266653D01*
X507800Y266551D01*
X507817Y266449D01*
X507826Y266432D01*
X507830Y266412D01*
X507883Y266323D01*
X507932Y266232D01*
X507946Y266218D01*
X507956Y266201D01*
X508035Y266134D01*
X508110Y266062D01*
X508128Y266054D01*
X508143Y266041D01*
X508239Y266002D01*
X508333Y265959D01*
X508353Y265957D01*
X508371Y265949D01*
X508538Y265931D01*
X510062Y265931D01*
X510082Y265934D01*
X510101Y265932D01*
X510203Y265954D01*
X510305Y265970D01*
X510322Y265980D01*
X510342Y265984D01*
X510431Y266037D01*
X510522Y266086D01*
X510536Y266100D01*
X510553Y266110D01*
X510620Y266189D01*
X510691Y266264D01*
X510700Y266282D01*
X510713Y266297D01*
X510752Y266393D01*
X510795Y266487D01*
X510797Y266507D01*
X510805Y266525D01*
X510823Y266692D01*
X510823Y270376D01*
X515984Y270376D01*
X516631Y270203D01*
X517210Y269868D01*
X517683Y269395D01*
X518018Y268816D01*
X518191Y268169D01*
X518191Y266183D01*
X511938Y266183D01*
X511867Y266172D01*
X511795Y266170D01*
X511746Y266152D01*
X511695Y266143D01*
X511632Y266110D01*
X511564Y266085D01*
X511524Y266053D01*
X511478Y266028D01*
X511428Y265976D01*
X511372Y265932D01*
X511344Y265888D01*
X511308Y265850D01*
X511278Y265785D01*
X511239Y265725D01*
X511227Y265674D01*
X511205Y265627D01*
X511197Y265556D01*
X511179Y265486D01*
X511183Y265434D01*
X511178Y265382D01*
X511193Y265312D01*
X511198Y265241D01*
X511219Y265193D01*
X511230Y265142D01*
X511267Y265081D01*
X511295Y265015D01*
X511340Y264959D01*
X511356Y264931D01*
X511374Y264916D01*
X511399Y264884D01*
X511841Y264442D01*
X511841Y263898D01*
X511844Y263878D01*
X511842Y263859D01*
X511864Y263757D01*
X511880Y263655D01*
X511890Y263638D01*
X511894Y263618D01*
X511947Y263529D01*
X511996Y263438D01*
X512010Y263424D01*
X512020Y263407D01*
X512099Y263340D01*
X512174Y263269D01*
X512192Y263260D01*
X512207Y263247D01*
X512303Y263208D01*
X512397Y263165D01*
X512417Y263163D01*
X512435Y263155D01*
X512602Y263137D01*
X518191Y263137D01*
X518191Y261151D01*
X518018Y260504D01*
X517683Y259925D01*
X517158Y259400D01*
X517146Y259384D01*
X517131Y259371D01*
X517075Y259284D01*
X517014Y259200D01*
X517009Y259181D01*
X516998Y259164D01*
X516973Y259064D01*
X516942Y258965D01*
X516943Y258945D01*
X516938Y258926D01*
X516946Y258823D01*
X516948Y258719D01*
X516955Y258700D01*
X516957Y258681D01*
X516997Y258585D01*
X517033Y258488D01*
X517045Y258473D01*
X517053Y258454D01*
X517137Y258349D01*
X517139Y258346D01*
X517141Y258344D01*
X517158Y258323D01*
X517175Y258307D01*
X517175Y250693D01*
X516282Y249800D01*
X512856Y249800D01*
X512836Y249797D01*
X512817Y249799D01*
X512715Y249777D01*
X512613Y249761D01*
X512596Y249751D01*
X512576Y249747D01*
X512487Y249694D01*
X512396Y249645D01*
X512382Y249631D01*
X512365Y249621D01*
X512298Y249542D01*
X512226Y249467D01*
X512218Y249449D01*
X512205Y249434D01*
X512166Y249338D01*
X512123Y249244D01*
X512121Y249224D01*
X512113Y249206D01*
X512095Y249039D01*
X512095Y202366D01*
X512098Y202346D01*
X512096Y202327D01*
X512118Y202225D01*
X512134Y202123D01*
X512144Y202106D01*
X512148Y202086D01*
X512201Y201997D01*
X512250Y201906D01*
X512264Y201892D01*
X512274Y201875D01*
X512353Y201808D01*
X512428Y201736D01*
X512446Y201728D01*
X512461Y201715D01*
X512557Y201676D01*
X512651Y201633D01*
X512671Y201631D01*
X512689Y201623D01*
X512856Y201605D01*
X513812Y201605D01*
X514705Y200712D01*
X514705Y191448D01*
X513812Y190555D01*
X504548Y190555D01*
G37*
%LPD*%
%LPC*%
G36*
X418958Y170505D02*
X418958Y170505D01*
X418065Y171398D01*
X418065Y182662D01*
X418958Y183555D01*
X427347Y183555D01*
X427437Y183569D01*
X427528Y183577D01*
X427558Y183589D01*
X427590Y183594D01*
X427670Y183637D01*
X427754Y183673D01*
X427786Y183699D01*
X427807Y183710D01*
X427829Y183733D01*
X427885Y183778D01*
X442982Y198875D01*
X487894Y198875D01*
X487914Y198878D01*
X487933Y198876D01*
X488035Y198898D01*
X488137Y198914D01*
X488154Y198924D01*
X488174Y198928D01*
X488263Y198981D01*
X488354Y199030D01*
X488368Y199044D01*
X488385Y199054D01*
X488452Y199133D01*
X488524Y199208D01*
X488532Y199226D01*
X488545Y199241D01*
X488584Y199337D01*
X488627Y199431D01*
X488629Y199451D01*
X488637Y199469D01*
X488655Y199636D01*
X488655Y200712D01*
X489548Y201605D01*
X498812Y201605D01*
X499705Y200712D01*
X499705Y191448D01*
X498812Y190555D01*
X489548Y190555D01*
X488655Y191448D01*
X488655Y192524D01*
X488652Y192544D01*
X488654Y192563D01*
X488632Y192665D01*
X488616Y192767D01*
X488606Y192784D01*
X488602Y192804D01*
X488549Y192893D01*
X488500Y192984D01*
X488486Y192998D01*
X488476Y193015D01*
X488397Y193082D01*
X488322Y193154D01*
X488304Y193162D01*
X488289Y193175D01*
X488193Y193214D01*
X488099Y193257D01*
X488079Y193259D01*
X488061Y193267D01*
X487894Y193285D01*
X445613Y193285D01*
X445523Y193271D01*
X445432Y193263D01*
X445402Y193251D01*
X445370Y193246D01*
X445290Y193203D01*
X445206Y193167D01*
X445174Y193141D01*
X445153Y193130D01*
X445131Y193107D01*
X445075Y193062D01*
X432338Y180325D01*
X432285Y180251D01*
X432225Y180182D01*
X432213Y180152D01*
X432194Y180126D01*
X432167Y180039D01*
X432133Y179954D01*
X432129Y179913D01*
X432122Y179891D01*
X432123Y179858D01*
X432115Y179787D01*
X432115Y171398D01*
X431222Y170505D01*
X418958Y170505D01*
G37*
%LPD*%
%LPC*%
G36*
X461958Y146515D02*
X461958Y146515D01*
X461065Y147408D01*
X461065Y173672D01*
X461958Y174565D01*
X483222Y174565D01*
X484115Y173672D01*
X484115Y147408D01*
X483222Y146515D01*
X461958Y146515D01*
G37*
%LPD*%
%LPC*%
G36*
X147368Y275975D02*
X147368Y275975D01*
X146475Y276868D01*
X146475Y298132D01*
X147368Y299025D01*
X173632Y299025D01*
X174525Y298132D01*
X174525Y276868D01*
X173632Y275975D01*
X147368Y275975D01*
G37*
%LPD*%
%LPC*%
G36*
X460446Y317774D02*
X460446Y317774D01*
X460446Y328901D01*
X460506Y328923D01*
X460547Y328955D01*
X460593Y328980D01*
X460642Y329031D01*
X460698Y329076D01*
X460726Y329120D01*
X460762Y329158D01*
X460792Y329223D01*
X460831Y329283D01*
X460844Y329334D01*
X460866Y329381D01*
X460874Y329452D01*
X460891Y329522D01*
X460887Y329574D01*
X460893Y329625D01*
X460878Y329696D01*
X460872Y329767D01*
X460852Y329815D01*
X460841Y329866D01*
X460804Y329927D01*
X460776Y329993D01*
X460731Y330049D01*
X460714Y330077D01*
X460697Y330092D01*
X460671Y330124D01*
X457393Y333402D01*
X457393Y337798D01*
X460502Y340907D01*
X463414Y340907D01*
X463504Y340921D01*
X463546Y340925D01*
X471932Y340925D01*
X472022Y340939D01*
X472113Y340947D01*
X472143Y340959D01*
X472175Y340964D01*
X472255Y341007D01*
X472339Y341043D01*
X472371Y341069D01*
X472392Y341080D01*
X472414Y341103D01*
X472470Y341148D01*
X481202Y349880D01*
X481255Y349954D01*
X481315Y350023D01*
X481327Y350053D01*
X481346Y350080D01*
X481373Y350167D01*
X481407Y350251D01*
X481411Y350292D01*
X481418Y350315D01*
X481417Y350347D01*
X481425Y350418D01*
X481425Y351475D01*
X481411Y351565D01*
X481403Y351656D01*
X481391Y351686D01*
X481386Y351718D01*
X481343Y351799D01*
X481307Y351882D01*
X481281Y351915D01*
X481270Y351935D01*
X481247Y351957D01*
X481202Y352013D01*
X480131Y353084D01*
X480131Y374160D01*
X481024Y375053D01*
X487876Y375053D01*
X488769Y374160D01*
X488769Y353084D01*
X487698Y352013D01*
X487645Y351939D01*
X487585Y351870D01*
X487573Y351840D01*
X487554Y351814D01*
X487527Y351727D01*
X487493Y351642D01*
X487489Y351601D01*
X487482Y351579D01*
X487483Y351546D01*
X487475Y351475D01*
X487475Y347597D01*
X474753Y334875D01*
X468768Y334875D01*
X468748Y334872D01*
X468729Y334874D01*
X468627Y334852D01*
X468525Y334836D01*
X468508Y334826D01*
X468488Y334822D01*
X468399Y334769D01*
X468308Y334720D01*
X468294Y334706D01*
X468277Y334696D01*
X468210Y334617D01*
X468138Y334542D01*
X468130Y334524D01*
X468117Y334509D01*
X468078Y334413D01*
X468035Y334319D01*
X468033Y334299D01*
X468025Y334281D01*
X468007Y334114D01*
X468007Y333402D01*
X464898Y330293D01*
X462480Y330293D01*
X462456Y330289D01*
X462432Y330292D01*
X462335Y330270D01*
X462237Y330254D01*
X462216Y330242D01*
X462193Y330237D01*
X462108Y330185D01*
X462020Y330138D01*
X462003Y330121D01*
X461983Y330108D01*
X461919Y330032D01*
X461851Y329960D01*
X461840Y329938D01*
X461825Y329920D01*
X461789Y329827D01*
X461747Y329737D01*
X461744Y329713D01*
X461735Y329691D01*
X461731Y329591D01*
X461720Y329493D01*
X461725Y329469D01*
X461724Y329445D01*
X461751Y329350D01*
X461772Y329252D01*
X461784Y329231D01*
X461791Y329208D01*
X461847Y329127D01*
X461898Y329041D01*
X461917Y329025D01*
X461930Y329006D01*
X462009Y328946D01*
X462085Y328881D01*
X462108Y328872D01*
X462127Y328858D01*
X462283Y328797D01*
X462825Y328652D01*
X463404Y328317D01*
X463877Y327844D01*
X464212Y327265D01*
X464385Y326618D01*
X464385Y317774D01*
X460446Y317774D01*
G37*
%LPD*%
%LPC*%
G36*
X430224Y304947D02*
X430224Y304947D01*
X429331Y305840D01*
X429331Y326916D01*
X430273Y327857D01*
X430274Y327858D01*
X430294Y327862D01*
X430383Y327915D01*
X430474Y327964D01*
X430488Y327978D01*
X430505Y327988D01*
X430572Y328067D01*
X430644Y328142D01*
X430652Y328160D01*
X430665Y328175D01*
X430704Y328271D01*
X430747Y328365D01*
X430749Y328385D01*
X430757Y328403D01*
X430775Y328570D01*
X430775Y338932D01*
X430772Y338952D01*
X430774Y338971D01*
X430752Y339073D01*
X430736Y339175D01*
X430726Y339192D01*
X430722Y339212D01*
X430669Y339301D01*
X430620Y339392D01*
X430606Y339406D01*
X430596Y339423D01*
X430517Y339490D01*
X430442Y339562D01*
X430424Y339570D01*
X430409Y339583D01*
X430313Y339622D01*
X430219Y339665D01*
X430199Y339667D01*
X430181Y339675D01*
X430014Y339693D01*
X428102Y339693D01*
X424993Y342802D01*
X424993Y347198D01*
X428102Y350307D01*
X432498Y350307D01*
X435607Y347198D01*
X435607Y344286D01*
X435621Y344196D01*
X435629Y344105D01*
X435641Y344075D01*
X435646Y344043D01*
X435689Y343963D01*
X435725Y343879D01*
X435751Y343847D01*
X435762Y343826D01*
X435785Y343804D01*
X435830Y343748D01*
X436825Y342753D01*
X436825Y328375D01*
X436839Y328285D01*
X436847Y328194D01*
X436859Y328164D01*
X436864Y328132D01*
X436907Y328051D01*
X436943Y327968D01*
X436969Y327935D01*
X436980Y327915D01*
X437003Y327893D01*
X437048Y327837D01*
X437969Y326916D01*
X437969Y305840D01*
X437076Y304947D01*
X430224Y304947D01*
G37*
%LPD*%
%LPC*%
G36*
X417524Y304947D02*
X417524Y304947D01*
X416631Y305840D01*
X416631Y324976D01*
X416617Y325066D01*
X416609Y325157D01*
X416597Y325187D01*
X416592Y325219D01*
X416549Y325299D01*
X416513Y325383D01*
X416487Y325415D01*
X416476Y325436D01*
X416453Y325458D01*
X416408Y325514D01*
X409852Y332070D01*
X409778Y332123D01*
X409709Y332183D01*
X409679Y332195D01*
X409652Y332214D01*
X409565Y332241D01*
X409481Y332275D01*
X409440Y332279D01*
X409417Y332286D01*
X409385Y332285D01*
X409314Y332293D01*
X406802Y332293D01*
X403693Y335402D01*
X403693Y339798D01*
X406802Y342907D01*
X411198Y342907D01*
X414307Y339798D01*
X414307Y336486D01*
X414311Y336460D01*
X414309Y336445D01*
X414322Y336386D01*
X414329Y336305D01*
X414341Y336275D01*
X414346Y336243D01*
X414358Y336222D01*
X414362Y336205D01*
X414395Y336149D01*
X414425Y336079D01*
X414451Y336047D01*
X414462Y336026D01*
X414478Y336011D01*
X414488Y335994D01*
X414505Y335979D01*
X414530Y335948D01*
X422446Y328032D01*
X422520Y327979D01*
X422589Y327919D01*
X422619Y327907D01*
X422646Y327888D01*
X422733Y327861D01*
X422817Y327827D01*
X422858Y327823D01*
X422881Y327816D01*
X422913Y327817D01*
X422984Y327809D01*
X424376Y327809D01*
X425269Y326916D01*
X425269Y305840D01*
X424376Y304947D01*
X417524Y304947D01*
G37*
%LPD*%
%LPC*%
G36*
X109255Y161435D02*
X109255Y161435D01*
X106658Y162511D01*
X104671Y164498D01*
X103595Y167095D01*
X103595Y169905D01*
X104671Y172502D01*
X106658Y174489D01*
X109255Y175565D01*
X123145Y175565D01*
X125742Y174489D01*
X127729Y172502D01*
X128805Y169905D01*
X128805Y167095D01*
X127729Y164498D01*
X125742Y162511D01*
X123145Y161435D01*
X109255Y161435D01*
G37*
%LPD*%
%LPC*%
G36*
X370698Y13025D02*
X370698Y13025D01*
X369805Y13918D01*
X369805Y25182D01*
X370698Y26075D01*
X382962Y26075D01*
X383861Y25175D01*
X383866Y25144D01*
X383868Y25072D01*
X383886Y25023D01*
X383894Y24972D01*
X383928Y24909D01*
X383953Y24841D01*
X383985Y24801D01*
X384010Y24754D01*
X384062Y24705D01*
X384106Y24649D01*
X384150Y24621D01*
X384188Y24585D01*
X384253Y24555D01*
X384313Y24516D01*
X384364Y24503D01*
X384411Y24481D01*
X384482Y24474D01*
X384552Y24456D01*
X384604Y24460D01*
X384655Y24454D01*
X384726Y24470D01*
X384797Y24475D01*
X384845Y24496D01*
X384896Y24507D01*
X384957Y24543D01*
X385023Y24572D01*
X385079Y24616D01*
X385107Y24633D01*
X385122Y24651D01*
X385154Y24676D01*
X386466Y25989D01*
X388707Y26917D01*
X391169Y26917D01*
X391226Y26886D01*
X391251Y26869D01*
X391263Y26865D01*
X391280Y26856D01*
X393374Y25989D01*
X395089Y24274D01*
X396017Y22033D01*
X396017Y19607D01*
X395089Y17366D01*
X393374Y15651D01*
X391133Y14723D01*
X388707Y14723D01*
X386466Y15651D01*
X385332Y16786D01*
X385258Y16839D01*
X385188Y16899D01*
X385158Y16911D01*
X385132Y16930D01*
X385045Y16957D01*
X384960Y16991D01*
X384919Y16995D01*
X384897Y17002D01*
X384865Y17001D01*
X384793Y17009D01*
X384616Y17009D01*
X384596Y17006D01*
X384577Y17008D01*
X384475Y16986D01*
X384373Y16970D01*
X384356Y16960D01*
X384336Y16956D01*
X384247Y16903D01*
X384156Y16854D01*
X384142Y16840D01*
X384125Y16830D01*
X384058Y16751D01*
X383986Y16676D01*
X383978Y16658D01*
X383965Y16643D01*
X383926Y16547D01*
X383883Y16453D01*
X383881Y16433D01*
X383873Y16415D01*
X383855Y16248D01*
X383855Y13918D01*
X382962Y13025D01*
X370698Y13025D01*
G37*
%LPD*%
%LPC*%
G36*
X360538Y199715D02*
X360538Y199715D01*
X359645Y200608D01*
X359645Y211872D01*
X360538Y212765D01*
X372802Y212765D01*
X373695Y211872D01*
X373695Y210635D01*
X373706Y210564D01*
X373708Y210492D01*
X373726Y210443D01*
X373734Y210392D01*
X373768Y210329D01*
X373793Y210261D01*
X373825Y210221D01*
X373850Y210174D01*
X373902Y210125D01*
X373946Y210069D01*
X373990Y210041D01*
X374028Y210005D01*
X374093Y209975D01*
X374153Y209936D01*
X374204Y209923D01*
X374251Y209901D01*
X374322Y209894D01*
X374392Y209876D01*
X374444Y209880D01*
X374495Y209874D01*
X374566Y209890D01*
X374637Y209895D01*
X374685Y209916D01*
X374736Y209927D01*
X374797Y209963D01*
X374863Y209992D01*
X374919Y210036D01*
X374947Y210053D01*
X374962Y210071D01*
X374994Y210096D01*
X376306Y211409D01*
X378547Y212337D01*
X380973Y212337D01*
X383214Y211409D01*
X384929Y209694D01*
X385857Y207453D01*
X385857Y205027D01*
X384929Y202786D01*
X383214Y201071D01*
X380973Y200143D01*
X378547Y200143D01*
X376306Y201071D01*
X374994Y202384D01*
X374936Y202426D01*
X374884Y202475D01*
X374837Y202497D01*
X374795Y202527D01*
X374726Y202548D01*
X374661Y202579D01*
X374609Y202584D01*
X374559Y202600D01*
X374488Y202598D01*
X374417Y202606D01*
X374366Y202595D01*
X374314Y202593D01*
X374246Y202569D01*
X374176Y202553D01*
X374131Y202527D01*
X374083Y202509D01*
X374027Y202464D01*
X373965Y202427D01*
X373931Y202388D01*
X373891Y202355D01*
X373852Y202295D01*
X373805Y202240D01*
X373786Y202192D01*
X373758Y202148D01*
X373740Y202079D01*
X373713Y202012D01*
X373705Y201941D01*
X373697Y201910D01*
X373699Y201886D01*
X373695Y201845D01*
X373695Y200608D01*
X372802Y199715D01*
X360538Y199715D01*
G37*
%LPD*%
%LPC*%
G36*
X401958Y134945D02*
X401958Y134945D01*
X401065Y135838D01*
X401065Y137075D01*
X401054Y137146D01*
X401052Y137218D01*
X401034Y137267D01*
X401026Y137318D01*
X400992Y137381D01*
X400967Y137449D01*
X400935Y137489D01*
X400910Y137536D01*
X400858Y137585D01*
X400814Y137641D01*
X400770Y137669D01*
X400732Y137705D01*
X400667Y137735D01*
X400607Y137774D01*
X400556Y137787D01*
X400509Y137809D01*
X400438Y137816D01*
X400368Y137834D01*
X400316Y137830D01*
X400265Y137836D01*
X400194Y137820D01*
X400123Y137815D01*
X400075Y137794D01*
X400024Y137783D01*
X399963Y137747D01*
X399897Y137718D01*
X399841Y137674D01*
X399813Y137657D01*
X399798Y137639D01*
X399766Y137614D01*
X398454Y136301D01*
X396213Y135373D01*
X393787Y135373D01*
X391546Y136301D01*
X389831Y138016D01*
X388903Y140257D01*
X388903Y142683D01*
X389831Y144924D01*
X391546Y146639D01*
X393787Y147567D01*
X396213Y147567D01*
X398454Y146639D01*
X399766Y145326D01*
X399824Y145284D01*
X399876Y145235D01*
X399923Y145213D01*
X399965Y145183D01*
X400034Y145162D01*
X400099Y145131D01*
X400151Y145126D01*
X400201Y145110D01*
X400272Y145112D01*
X400343Y145104D01*
X400394Y145115D01*
X400446Y145117D01*
X400514Y145141D01*
X400584Y145157D01*
X400629Y145183D01*
X400677Y145201D01*
X400733Y145246D01*
X400795Y145283D01*
X400829Y145322D01*
X400869Y145355D01*
X400908Y145415D01*
X400955Y145470D01*
X400974Y145518D01*
X401002Y145562D01*
X401020Y145631D01*
X401047Y145698D01*
X401055Y145769D01*
X401063Y145800D01*
X401061Y145824D01*
X401065Y145865D01*
X401065Y147102D01*
X401958Y147995D01*
X414222Y147995D01*
X415115Y147102D01*
X415115Y135838D01*
X414222Y134945D01*
X401958Y134945D01*
G37*
%LPD*%
%LPC*%
G36*
X442924Y304947D02*
X442924Y304947D01*
X442031Y305840D01*
X442031Y326916D01*
X443102Y327987D01*
X443155Y328061D01*
X443215Y328130D01*
X443227Y328160D01*
X443246Y328186D01*
X443273Y328273D01*
X443307Y328358D01*
X443311Y328399D01*
X443318Y328421D01*
X443317Y328454D01*
X443325Y328525D01*
X443325Y330055D01*
X443311Y330145D01*
X443303Y330236D01*
X443291Y330265D01*
X443286Y330297D01*
X443243Y330378D01*
X443207Y330462D01*
X443181Y330494D01*
X443170Y330515D01*
X443147Y330537D01*
X443102Y330593D01*
X441193Y332502D01*
X441193Y336898D01*
X444302Y340007D01*
X448698Y340007D01*
X451807Y336898D01*
X451807Y332502D01*
X449598Y330293D01*
X449545Y330219D01*
X449485Y330149D01*
X449473Y330119D01*
X449454Y330093D01*
X449427Y330006D01*
X449393Y329921D01*
X449389Y329880D01*
X449382Y329858D01*
X449383Y329826D01*
X449375Y329755D01*
X449375Y328525D01*
X449389Y328435D01*
X449397Y328344D01*
X449409Y328314D01*
X449414Y328282D01*
X449457Y328201D01*
X449493Y328118D01*
X449519Y328085D01*
X449530Y328065D01*
X449553Y328043D01*
X449598Y327987D01*
X450669Y326916D01*
X450669Y305840D01*
X449776Y304947D01*
X442924Y304947D01*
G37*
%LPD*%
%LPC*%
G36*
X156112Y503155D02*
X156112Y503155D01*
X150755Y508512D01*
X150755Y516088D01*
X156112Y521445D01*
X163688Y521445D01*
X169045Y516088D01*
X169045Y508512D01*
X163688Y503155D01*
X156112Y503155D01*
G37*
%LPD*%
%LPC*%
G36*
X460912Y503155D02*
X460912Y503155D01*
X455555Y508512D01*
X455555Y516088D01*
X460912Y521445D01*
X468488Y521445D01*
X473845Y516088D01*
X473845Y508512D01*
X468488Y503155D01*
X460912Y503155D01*
G37*
%LPD*%
%LPC*%
G36*
X486312Y503155D02*
X486312Y503155D01*
X480955Y508512D01*
X480955Y516088D01*
X486312Y521445D01*
X493888Y521445D01*
X499245Y516088D01*
X499245Y508512D01*
X493888Y503155D01*
X486312Y503155D01*
G37*
%LPD*%
%LPC*%
G36*
X206912Y503155D02*
X206912Y503155D01*
X201555Y508512D01*
X201555Y516088D01*
X206912Y521445D01*
X214488Y521445D01*
X219845Y516088D01*
X219845Y508512D01*
X214488Y503155D01*
X206912Y503155D01*
G37*
%LPD*%
%LPC*%
G36*
X181512Y503155D02*
X181512Y503155D01*
X176155Y508512D01*
X176155Y516088D01*
X181512Y521445D01*
X189088Y521445D01*
X194445Y516088D01*
X194445Y508512D01*
X189088Y503155D01*
X181512Y503155D01*
G37*
%LPD*%
%LPC*%
G36*
X511712Y503155D02*
X511712Y503155D01*
X506355Y508512D01*
X506355Y516088D01*
X511712Y521445D01*
X519288Y521445D01*
X524645Y516088D01*
X524645Y508512D01*
X519288Y503155D01*
X511712Y503155D01*
G37*
%LPD*%
%LPC*%
G36*
X333912Y503155D02*
X333912Y503155D01*
X328555Y508512D01*
X328555Y516088D01*
X333912Y521445D01*
X341488Y521445D01*
X346845Y516088D01*
X346845Y508512D01*
X341488Y503155D01*
X333912Y503155D01*
G37*
%LPD*%
%LPC*%
G36*
X308512Y503155D02*
X308512Y503155D01*
X303155Y508512D01*
X303155Y516088D01*
X308512Y521445D01*
X316088Y521445D01*
X321445Y516088D01*
X321445Y508512D01*
X316088Y503155D01*
X308512Y503155D01*
G37*
%LPD*%
%LPC*%
G36*
X410112Y503155D02*
X410112Y503155D01*
X404755Y508512D01*
X404755Y516088D01*
X410112Y521445D01*
X417688Y521445D01*
X423045Y516088D01*
X423045Y508512D01*
X417688Y503155D01*
X410112Y503155D01*
G37*
%LPD*%
%LPC*%
G36*
X384712Y503155D02*
X384712Y503155D01*
X379355Y508512D01*
X379355Y516088D01*
X384712Y521445D01*
X392288Y521445D01*
X397645Y516088D01*
X397645Y508512D01*
X392288Y503155D01*
X384712Y503155D01*
G37*
%LPD*%
%LPC*%
G36*
X232312Y503155D02*
X232312Y503155D01*
X226955Y508512D01*
X226955Y516088D01*
X232312Y521445D01*
X239888Y521445D01*
X245245Y516088D01*
X245245Y508512D01*
X239888Y503155D01*
X232312Y503155D01*
G37*
%LPD*%
%LPC*%
G36*
X333912Y528555D02*
X333912Y528555D01*
X328555Y533912D01*
X328555Y541488D01*
X333912Y546845D01*
X341488Y546845D01*
X346845Y541488D01*
X346845Y533912D01*
X341488Y528555D01*
X333912Y528555D01*
G37*
%LPD*%
%LPC*%
G36*
X537112Y503155D02*
X537112Y503155D01*
X531755Y508512D01*
X531755Y516088D01*
X537112Y521445D01*
X544688Y521445D01*
X550045Y516088D01*
X550045Y508512D01*
X544688Y503155D01*
X537112Y503155D01*
G37*
%LPD*%
%LPC*%
G36*
X562512Y528555D02*
X562512Y528555D01*
X557155Y533912D01*
X557155Y541488D01*
X562512Y546845D01*
X570088Y546845D01*
X575445Y541488D01*
X575445Y533912D01*
X570088Y528555D01*
X562512Y528555D01*
G37*
%LPD*%
%LPC*%
G36*
X232312Y528555D02*
X232312Y528555D01*
X226955Y533912D01*
X226955Y541488D01*
X232312Y546845D01*
X239888Y546845D01*
X245245Y541488D01*
X245245Y533912D01*
X239888Y528555D01*
X232312Y528555D01*
G37*
%LPD*%
%LPC*%
G36*
X562512Y503155D02*
X562512Y503155D01*
X557155Y508512D01*
X557155Y516088D01*
X562512Y521445D01*
X570088Y521445D01*
X575445Y516088D01*
X575445Y508512D01*
X570088Y503155D01*
X562512Y503155D01*
G37*
%LPD*%
%LPC*%
G36*
X181512Y528555D02*
X181512Y528555D01*
X176155Y533912D01*
X176155Y541488D01*
X181512Y546845D01*
X189088Y546845D01*
X194445Y541488D01*
X194445Y533912D01*
X189088Y528555D01*
X181512Y528555D01*
G37*
%LPD*%
%LPC*%
G36*
X206912Y528555D02*
X206912Y528555D01*
X201555Y533912D01*
X201555Y541488D01*
X206912Y546845D01*
X214488Y546845D01*
X219845Y541488D01*
X219845Y533912D01*
X214488Y528555D01*
X206912Y528555D01*
G37*
%LPD*%
%LPC*%
G36*
X359312Y528555D02*
X359312Y528555D01*
X353955Y533912D01*
X353955Y541488D01*
X359312Y546845D01*
X366888Y546845D01*
X372245Y541488D01*
X372245Y533912D01*
X366888Y528555D01*
X359312Y528555D01*
G37*
%LPD*%
%LPC*%
G36*
X283112Y528555D02*
X283112Y528555D01*
X277755Y533912D01*
X277755Y541488D01*
X283112Y546845D01*
X290688Y546845D01*
X296045Y541488D01*
X296045Y533912D01*
X290688Y528555D01*
X283112Y528555D01*
G37*
%LPD*%
%LPC*%
G36*
X359312Y503155D02*
X359312Y503155D01*
X353955Y508512D01*
X353955Y516088D01*
X359312Y521445D01*
X366888Y521445D01*
X372245Y516088D01*
X372245Y508512D01*
X366888Y503155D01*
X359312Y503155D01*
G37*
%LPD*%
%LPC*%
G36*
X537112Y528555D02*
X537112Y528555D01*
X531755Y533912D01*
X531755Y541488D01*
X537112Y546845D01*
X544688Y546845D01*
X550045Y541488D01*
X550045Y533912D01*
X544688Y528555D01*
X537112Y528555D01*
G37*
%LPD*%
%LPC*%
G36*
X486312Y528555D02*
X486312Y528555D01*
X480955Y533912D01*
X480955Y541488D01*
X486312Y546845D01*
X493888Y546845D01*
X499245Y541488D01*
X499245Y533912D01*
X493888Y528555D01*
X486312Y528555D01*
G37*
%LPD*%
%LPC*%
G36*
X435512Y503155D02*
X435512Y503155D01*
X430155Y508512D01*
X430155Y516088D01*
X435512Y521445D01*
X443088Y521445D01*
X448445Y516088D01*
X448445Y508512D01*
X443088Y503155D01*
X435512Y503155D01*
G37*
%LPD*%
%LPC*%
G36*
X384712Y528555D02*
X384712Y528555D01*
X379355Y533912D01*
X379355Y541488D01*
X384712Y546845D01*
X392288Y546845D01*
X397645Y541488D01*
X397645Y533912D01*
X392288Y528555D01*
X384712Y528555D01*
G37*
%LPD*%
%LPC*%
G36*
X410112Y528555D02*
X410112Y528555D01*
X404755Y533912D01*
X404755Y541488D01*
X410112Y546845D01*
X417688Y546845D01*
X423045Y541488D01*
X423045Y533912D01*
X417688Y528555D01*
X410112Y528555D01*
G37*
%LPD*%
%LPC*%
G36*
X156112Y528555D02*
X156112Y528555D01*
X150755Y533912D01*
X150755Y541488D01*
X156112Y546845D01*
X163688Y546845D01*
X169045Y541488D01*
X169045Y533912D01*
X163688Y528555D01*
X156112Y528555D01*
G37*
%LPD*%
%LPC*%
G36*
X511712Y528555D02*
X511712Y528555D01*
X506355Y533912D01*
X506355Y541488D01*
X511712Y546845D01*
X519288Y546845D01*
X524645Y541488D01*
X524645Y533912D01*
X519288Y528555D01*
X511712Y528555D01*
G37*
%LPD*%
%LPC*%
G36*
X460912Y528555D02*
X460912Y528555D01*
X455555Y533912D01*
X455555Y541488D01*
X460912Y546845D01*
X468488Y546845D01*
X473845Y541488D01*
X473845Y533912D01*
X468488Y528555D01*
X460912Y528555D01*
G37*
%LPD*%
%LPC*%
G36*
X435512Y528555D02*
X435512Y528555D01*
X430155Y533912D01*
X430155Y541488D01*
X435512Y546845D01*
X443088Y546845D01*
X448445Y541488D01*
X448445Y533912D01*
X443088Y528555D01*
X435512Y528555D01*
G37*
%LPD*%
%LPC*%
G36*
X308512Y528555D02*
X308512Y528555D01*
X303155Y533912D01*
X303155Y541488D01*
X308512Y546845D01*
X316088Y546845D01*
X321445Y541488D01*
X321445Y533912D01*
X316088Y528555D01*
X308512Y528555D01*
G37*
%LPD*%
%LPC*%
G36*
X105312Y528555D02*
X105312Y528555D01*
X99955Y533912D01*
X99955Y541488D01*
X105312Y546845D01*
X112888Y546845D01*
X118245Y541488D01*
X118245Y533912D01*
X112888Y528555D01*
X105312Y528555D01*
G37*
%LPD*%
%LPC*%
G36*
X374128Y62935D02*
X374128Y62935D01*
X373235Y63828D01*
X373235Y67929D01*
X378744Y67929D01*
X378802Y67937D01*
X378860Y67935D01*
X378942Y67957D01*
X379025Y67969D01*
X379079Y67993D01*
X379135Y68007D01*
X379208Y68050D01*
X379285Y68085D01*
X379329Y68123D01*
X379380Y68153D01*
X379437Y68214D01*
X379502Y68269D01*
X379534Y68317D01*
X379574Y68360D01*
X379613Y68435D01*
X379659Y68505D01*
X379677Y68561D01*
X379704Y68613D01*
X379715Y68681D01*
X379745Y68776D01*
X379748Y68876D01*
X379759Y68944D01*
X379759Y69961D01*
X380776Y69961D01*
X380834Y69969D01*
X380892Y69968D01*
X380974Y69989D01*
X381057Y70001D01*
X381111Y70025D01*
X381167Y70039D01*
X381240Y70082D01*
X381317Y70117D01*
X381361Y70155D01*
X381412Y70185D01*
X381469Y70246D01*
X381534Y70301D01*
X381566Y70349D01*
X381606Y70392D01*
X381645Y70467D01*
X381691Y70537D01*
X381709Y70593D01*
X381736Y70645D01*
X381747Y70713D01*
X381777Y70808D01*
X381780Y70908D01*
X381791Y70976D01*
X381791Y75384D01*
X381783Y75442D01*
X381784Y75500D01*
X381763Y75582D01*
X381759Y75610D01*
X381759Y81956D01*
X381751Y82014D01*
X381753Y82072D01*
X381731Y82154D01*
X381719Y82237D01*
X381696Y82291D01*
X381681Y82347D01*
X381638Y82420D01*
X381603Y82497D01*
X381565Y82541D01*
X381536Y82592D01*
X381474Y82649D01*
X381420Y82714D01*
X381371Y82746D01*
X381328Y82786D01*
X381253Y82825D01*
X381183Y82871D01*
X381127Y82889D01*
X381075Y82916D01*
X381007Y82927D01*
X380912Y82957D01*
X380812Y82960D01*
X380744Y82971D01*
X379791Y82971D01*
X379791Y83924D01*
X379783Y83982D01*
X379784Y84040D01*
X379763Y84122D01*
X379751Y84206D01*
X379727Y84259D01*
X379713Y84315D01*
X379669Y84388D01*
X379635Y84465D01*
X379597Y84510D01*
X379567Y84560D01*
X379506Y84618D01*
X379451Y84682D01*
X379403Y84714D01*
X379360Y84754D01*
X379285Y84793D01*
X379215Y84840D01*
X379159Y84857D01*
X379107Y84884D01*
X379039Y84895D01*
X378944Y84925D01*
X378844Y84928D01*
X378776Y84939D01*
X372235Y84939D01*
X372235Y87572D01*
X373128Y88465D01*
X386392Y88465D01*
X387285Y87572D01*
X387285Y78308D01*
X386215Y77238D01*
X386203Y77222D01*
X386187Y77210D01*
X386131Y77122D01*
X386071Y77039D01*
X386065Y77020D01*
X386054Y77003D01*
X386029Y76902D01*
X385999Y76803D01*
X385999Y76783D01*
X385994Y76764D01*
X386002Y76661D01*
X386005Y76558D01*
X386012Y76539D01*
X386013Y76519D01*
X386054Y76424D01*
X386089Y76327D01*
X386102Y76311D01*
X386110Y76293D01*
X386215Y76162D01*
X386285Y76092D01*
X386285Y63828D01*
X385392Y62935D01*
X374128Y62935D01*
G37*
%LPD*%
%LPC*%
G36*
X392124Y352191D02*
X392124Y352191D01*
X391231Y353084D01*
X391231Y374160D01*
X392124Y375053D01*
X398976Y375053D01*
X399869Y374160D01*
X399869Y353084D01*
X398976Y352191D01*
X392124Y352191D01*
G37*
%LPD*%
%LPC*%
G36*
X468324Y352191D02*
X468324Y352191D01*
X467431Y353084D01*
X467431Y374160D01*
X468324Y375053D01*
X475176Y375053D01*
X476069Y374160D01*
X476069Y353084D01*
X475176Y352191D01*
X468324Y352191D01*
G37*
%LPD*%
%LPC*%
G36*
X404824Y352191D02*
X404824Y352191D01*
X403931Y353084D01*
X403931Y374160D01*
X404824Y375053D01*
X411676Y375053D01*
X412569Y374160D01*
X412569Y353084D01*
X411676Y352191D01*
X404824Y352191D01*
G37*
%LPD*%
%LPC*%
G36*
X455624Y352191D02*
X455624Y352191D01*
X454731Y353084D01*
X454731Y374160D01*
X455624Y375053D01*
X462476Y375053D01*
X463369Y374160D01*
X463369Y353084D01*
X462476Y352191D01*
X455624Y352191D01*
G37*
%LPD*%
%LPC*%
G36*
X430224Y352191D02*
X430224Y352191D01*
X429331Y353084D01*
X429331Y374160D01*
X430224Y375053D01*
X437076Y375053D01*
X437969Y374160D01*
X437969Y353084D01*
X437076Y352191D01*
X430224Y352191D01*
G37*
%LPD*%
%LPC*%
G36*
X442924Y352191D02*
X442924Y352191D01*
X442031Y353084D01*
X442031Y374160D01*
X442924Y375053D01*
X449776Y375053D01*
X450669Y374160D01*
X450669Y353084D01*
X449776Y352191D01*
X442924Y352191D01*
G37*
%LPD*%
%LPC*%
G36*
X417524Y352191D02*
X417524Y352191D01*
X416631Y353084D01*
X416631Y374160D01*
X417524Y375053D01*
X424376Y375053D01*
X425269Y374160D01*
X425269Y353084D01*
X424376Y352191D01*
X417524Y352191D01*
G37*
%LPD*%
G36*
X342442Y104138D02*
X342442Y104138D01*
X342461Y104136D01*
X342563Y104158D01*
X342665Y104174D01*
X342682Y104184D01*
X342702Y104188D01*
X342791Y104241D01*
X342882Y104290D01*
X342896Y104304D01*
X342913Y104314D01*
X342980Y104393D01*
X343051Y104468D01*
X343060Y104486D01*
X343073Y104501D01*
X343112Y104597D01*
X343155Y104691D01*
X343157Y104711D01*
X343165Y104729D01*
X343183Y104896D01*
X343183Y117087D01*
X355374Y117087D01*
X355394Y117090D01*
X355413Y117088D01*
X355515Y117110D01*
X355617Y117127D01*
X355634Y117136D01*
X355654Y117140D01*
X355743Y117193D01*
X355834Y117242D01*
X355848Y117256D01*
X355865Y117266D01*
X355932Y117345D01*
X356004Y117420D01*
X356012Y117438D01*
X356025Y117453D01*
X356064Y117549D01*
X356107Y117643D01*
X356109Y117663D01*
X356117Y117681D01*
X356135Y117848D01*
X356135Y119372D01*
X356132Y119392D01*
X356134Y119411D01*
X356112Y119513D01*
X356096Y119615D01*
X356086Y119632D01*
X356082Y119652D01*
X356029Y119741D01*
X355980Y119832D01*
X355966Y119846D01*
X355956Y119863D01*
X355877Y119930D01*
X355802Y120001D01*
X355784Y120010D01*
X355769Y120023D01*
X355673Y120062D01*
X355579Y120105D01*
X355559Y120107D01*
X355541Y120115D01*
X355374Y120133D01*
X343183Y120133D01*
X343183Y132324D01*
X343180Y132344D01*
X343182Y132363D01*
X343160Y132465D01*
X343143Y132567D01*
X343134Y132584D01*
X343130Y132604D01*
X343077Y132693D01*
X343028Y132784D01*
X343014Y132798D01*
X343004Y132815D01*
X342925Y132882D01*
X342850Y132954D01*
X342832Y132962D01*
X342817Y132975D01*
X342721Y133014D01*
X342627Y133057D01*
X342607Y133059D01*
X342589Y133067D01*
X342422Y133085D01*
X340898Y133085D01*
X340878Y133082D01*
X340859Y133084D01*
X340757Y133062D01*
X340655Y133046D01*
X340638Y133036D01*
X340618Y133032D01*
X340529Y132979D01*
X340438Y132930D01*
X340424Y132916D01*
X340407Y132906D01*
X340340Y132827D01*
X340269Y132752D01*
X340260Y132734D01*
X340247Y132719D01*
X340208Y132623D01*
X340165Y132529D01*
X340163Y132509D01*
X340155Y132491D01*
X340137Y132324D01*
X340137Y120133D01*
X327946Y120133D01*
X327926Y120130D01*
X327907Y120132D01*
X327805Y120110D01*
X327703Y120093D01*
X327686Y120084D01*
X327666Y120080D01*
X327577Y120027D01*
X327486Y119978D01*
X327472Y119964D01*
X327455Y119954D01*
X327388Y119875D01*
X327316Y119800D01*
X327308Y119782D01*
X327295Y119767D01*
X327256Y119671D01*
X327213Y119577D01*
X327211Y119557D01*
X327203Y119539D01*
X327185Y119372D01*
X327185Y117848D01*
X327188Y117828D01*
X327186Y117809D01*
X327208Y117707D01*
X327224Y117605D01*
X327234Y117588D01*
X327238Y117568D01*
X327291Y117479D01*
X327340Y117388D01*
X327354Y117374D01*
X327364Y117357D01*
X327443Y117290D01*
X327518Y117219D01*
X327536Y117210D01*
X327551Y117197D01*
X327647Y117158D01*
X327741Y117115D01*
X327761Y117113D01*
X327779Y117105D01*
X327946Y117087D01*
X340137Y117087D01*
X340137Y104896D01*
X340140Y104876D01*
X340138Y104857D01*
X340160Y104755D01*
X340177Y104653D01*
X340186Y104636D01*
X340190Y104616D01*
X340243Y104527D01*
X340292Y104436D01*
X340306Y104422D01*
X340316Y104405D01*
X340395Y104338D01*
X340470Y104266D01*
X340488Y104258D01*
X340503Y104245D01*
X340599Y104206D01*
X340693Y104163D01*
X340713Y104161D01*
X340731Y104153D01*
X340898Y104135D01*
X342422Y104135D01*
X342442Y104138D01*
G37*
%LPC*%
G36*
X360538Y179395D02*
X360538Y179395D01*
X359645Y180288D01*
X359645Y191552D01*
X360538Y192445D01*
X372802Y192445D01*
X373695Y191552D01*
X373695Y180288D01*
X372802Y179395D01*
X368701Y179395D01*
X368701Y184904D01*
X368693Y184962D01*
X368694Y185020D01*
X368673Y185102D01*
X368661Y185185D01*
X368637Y185239D01*
X368623Y185295D01*
X368580Y185368D01*
X368545Y185445D01*
X368507Y185489D01*
X368477Y185540D01*
X368416Y185597D01*
X368361Y185662D01*
X368313Y185694D01*
X368270Y185734D01*
X368195Y185773D01*
X368125Y185819D01*
X368069Y185837D01*
X368017Y185864D01*
X367949Y185875D01*
X367854Y185905D01*
X367754Y185908D01*
X367686Y185919D01*
X365654Y185919D01*
X365596Y185911D01*
X365538Y185912D01*
X365456Y185891D01*
X365373Y185879D01*
X365319Y185855D01*
X365263Y185841D01*
X365190Y185798D01*
X365113Y185763D01*
X365068Y185725D01*
X365018Y185695D01*
X364960Y185634D01*
X364896Y185579D01*
X364864Y185531D01*
X364824Y185488D01*
X364785Y185413D01*
X364739Y185343D01*
X364721Y185287D01*
X364694Y185235D01*
X364683Y185167D01*
X364653Y185072D01*
X364650Y184972D01*
X364639Y184904D01*
X364639Y179395D01*
X360538Y179395D01*
G37*
%LPD*%
%LPC*%
G36*
X14459Y247023D02*
X14459Y247023D01*
X14459Y258334D01*
X14632Y258981D01*
X14967Y259560D01*
X15440Y260033D01*
X16019Y260368D01*
X16666Y260541D01*
X25477Y260541D01*
X25477Y247023D01*
X14459Y247023D01*
G37*
%LPD*%
%LPC*%
G36*
X28523Y230459D02*
X28523Y230459D01*
X28523Y243977D01*
X39541Y243977D01*
X39541Y232666D01*
X39368Y232019D01*
X39033Y231440D01*
X38560Y230967D01*
X37981Y230632D01*
X37334Y230459D01*
X28523Y230459D01*
G37*
%LPD*%
%LPC*%
G36*
X16666Y230459D02*
X16666Y230459D01*
X16019Y230632D01*
X15440Y230967D01*
X14967Y231440D01*
X14632Y232019D01*
X14459Y232666D01*
X14459Y243977D01*
X25477Y243977D01*
X25477Y230459D01*
X16666Y230459D01*
G37*
%LPD*%
%LPC*%
G36*
X533402Y44775D02*
X533402Y44775D01*
X531004Y45769D01*
X529169Y47604D01*
X528175Y50002D01*
X528175Y52598D01*
X529169Y54996D01*
X531004Y56831D01*
X533402Y57825D01*
X535998Y57825D01*
X538396Y56831D01*
X540231Y54996D01*
X541225Y52598D01*
X541225Y50002D01*
X540231Y47604D01*
X538396Y45769D01*
X535998Y44775D01*
X533402Y44775D01*
G37*
%LPD*%
%LPC*%
G36*
X279402Y222575D02*
X279402Y222575D01*
X277004Y223569D01*
X275169Y225404D01*
X274175Y227802D01*
X274175Y230398D01*
X275169Y232796D01*
X277004Y234631D01*
X279402Y235625D01*
X281998Y235625D01*
X284396Y234631D01*
X286231Y232796D01*
X287225Y230398D01*
X287225Y227802D01*
X286231Y225404D01*
X284396Y223569D01*
X281998Y222575D01*
X279402Y222575D01*
G37*
%LPD*%
%LPC*%
G36*
X229123Y29123D02*
X229123Y29123D01*
X229123Y45266D01*
X229979Y45131D01*
X231500Y44636D01*
X232925Y43910D01*
X234219Y42970D01*
X235350Y41839D01*
X236290Y40545D01*
X237016Y39120D01*
X237511Y37599D01*
X237761Y36020D01*
X237761Y29123D01*
X229123Y29123D01*
G37*
%LPD*%
%LPC*%
G36*
X36523Y408823D02*
X36523Y408823D01*
X36523Y417461D01*
X43420Y417461D01*
X44999Y417211D01*
X46520Y416716D01*
X47945Y415990D01*
X49239Y415050D01*
X50370Y413919D01*
X51310Y412625D01*
X52036Y411200D01*
X52531Y409679D01*
X52666Y408823D01*
X36523Y408823D01*
G37*
%LPD*%
%LPC*%
G36*
X17334Y408823D02*
X17334Y408823D01*
X17469Y409679D01*
X17964Y411200D01*
X18690Y412625D01*
X19630Y413919D01*
X20761Y415050D01*
X22055Y415990D01*
X23480Y416716D01*
X25001Y417211D01*
X26580Y417461D01*
X33477Y417461D01*
X33477Y408823D01*
X17334Y408823D01*
G37*
%LPD*%
%LPC*%
G36*
X217439Y29123D02*
X217439Y29123D01*
X217439Y36020D01*
X217689Y37599D01*
X218184Y39120D01*
X218910Y40545D01*
X219850Y41839D01*
X220981Y42970D01*
X222275Y43910D01*
X223700Y44636D01*
X225221Y45131D01*
X226077Y45266D01*
X226077Y29123D01*
X217439Y29123D01*
G37*
%LPD*%
%LPC*%
G36*
X36523Y397139D02*
X36523Y397139D01*
X36523Y405777D01*
X52666Y405777D01*
X52531Y404921D01*
X52036Y403400D01*
X51310Y401975D01*
X50370Y400681D01*
X49239Y399550D01*
X47945Y398610D01*
X46520Y397884D01*
X44999Y397389D01*
X43420Y397139D01*
X36523Y397139D01*
G37*
%LPD*%
%LPC*%
G36*
X26580Y397139D02*
X26580Y397139D01*
X25001Y397389D01*
X23480Y397884D01*
X22055Y398610D01*
X20761Y399550D01*
X19630Y400681D01*
X18690Y401975D01*
X17964Y403400D01*
X17469Y404921D01*
X17334Y405777D01*
X33477Y405777D01*
X33477Y397139D01*
X26580Y397139D01*
G37*
%LPD*%
%LPC*%
G36*
X337188Y13025D02*
X337188Y13025D01*
X336295Y13918D01*
X336295Y17551D01*
X336401Y17551D01*
X336458Y17533D01*
X336558Y17530D01*
X336626Y17519D01*
X342304Y17519D01*
X342362Y17527D01*
X342420Y17525D01*
X342502Y17547D01*
X342585Y17559D01*
X342639Y17583D01*
X342695Y17597D01*
X342768Y17640D01*
X342845Y17675D01*
X342889Y17713D01*
X342940Y17743D01*
X342997Y17804D01*
X343062Y17859D01*
X343094Y17907D01*
X343134Y17950D01*
X343173Y18025D01*
X343219Y18095D01*
X343237Y18151D01*
X343264Y18203D01*
X343275Y18271D01*
X343305Y18366D01*
X343308Y18466D01*
X343319Y18534D01*
X343319Y19551D01*
X344336Y19551D01*
X344394Y19559D01*
X344452Y19558D01*
X344534Y19579D01*
X344617Y19591D01*
X344671Y19615D01*
X344727Y19629D01*
X344800Y19672D01*
X344877Y19707D01*
X344921Y19745D01*
X344972Y19775D01*
X345029Y19836D01*
X345094Y19891D01*
X345126Y19939D01*
X345166Y19982D01*
X345205Y20057D01*
X345251Y20127D01*
X345269Y20183D01*
X345296Y20235D01*
X345307Y20303D01*
X345337Y20398D01*
X345340Y20498D01*
X345351Y20566D01*
X345351Y26075D01*
X349452Y26075D01*
X350345Y25182D01*
X350345Y13918D01*
X349452Y13025D01*
X337188Y13025D01*
G37*
%LPD*%
%LPC*%
G36*
X351701Y199715D02*
X351701Y199715D01*
X351701Y205224D01*
X351693Y205279D01*
X351694Y205325D01*
X351694Y205327D01*
X351694Y205340D01*
X351673Y205422D01*
X351661Y205505D01*
X351637Y205559D01*
X351623Y205615D01*
X351580Y205688D01*
X351545Y205765D01*
X351507Y205809D01*
X351477Y205860D01*
X351416Y205917D01*
X351361Y205982D01*
X351313Y206014D01*
X351270Y206054D01*
X351195Y206093D01*
X351125Y206139D01*
X351069Y206157D01*
X351017Y206184D01*
X350949Y206195D01*
X350854Y206225D01*
X350754Y206228D01*
X350686Y206239D01*
X349669Y206239D01*
X349669Y207256D01*
X349661Y207311D01*
X349662Y207356D01*
X349662Y207357D01*
X349662Y207372D01*
X349641Y207454D01*
X349629Y207537D01*
X349605Y207591D01*
X349591Y207647D01*
X349548Y207720D01*
X349513Y207797D01*
X349475Y207841D01*
X349445Y207892D01*
X349384Y207949D01*
X349329Y208014D01*
X349281Y208046D01*
X349238Y208086D01*
X349163Y208125D01*
X349093Y208171D01*
X349037Y208189D01*
X348985Y208216D01*
X348917Y208227D01*
X348822Y208257D01*
X348722Y208260D01*
X348654Y208271D01*
X342645Y208271D01*
X342645Y211872D01*
X343538Y212765D01*
X355802Y212765D01*
X356695Y211872D01*
X356695Y200608D01*
X355802Y199715D01*
X351701Y199715D01*
G37*
%LPD*%
%LPC*%
G36*
X330111Y33345D02*
X330111Y33345D01*
X330111Y38854D01*
X330103Y38909D01*
X330104Y38955D01*
X330104Y38957D01*
X330104Y38970D01*
X330083Y39052D01*
X330071Y39135D01*
X330047Y39189D01*
X330033Y39245D01*
X329990Y39318D01*
X329955Y39395D01*
X329917Y39439D01*
X329887Y39490D01*
X329826Y39547D01*
X329771Y39612D01*
X329723Y39644D01*
X329680Y39684D01*
X329605Y39723D01*
X329535Y39769D01*
X329479Y39787D01*
X329427Y39814D01*
X329359Y39825D01*
X329264Y39855D01*
X329164Y39858D01*
X329096Y39869D01*
X328079Y39869D01*
X328079Y40886D01*
X328071Y40941D01*
X328072Y40986D01*
X328072Y40987D01*
X328072Y41002D01*
X328051Y41084D01*
X328039Y41167D01*
X328015Y41221D01*
X328001Y41277D01*
X327958Y41350D01*
X327923Y41427D01*
X327885Y41471D01*
X327855Y41522D01*
X327794Y41579D01*
X327739Y41644D01*
X327691Y41676D01*
X327648Y41716D01*
X327573Y41755D01*
X327503Y41801D01*
X327447Y41819D01*
X327395Y41846D01*
X327327Y41857D01*
X327232Y41887D01*
X327132Y41890D01*
X327064Y41901D01*
X321055Y41901D01*
X321055Y45502D01*
X321948Y46395D01*
X334212Y46395D01*
X335105Y45502D01*
X335105Y34238D01*
X334212Y33345D01*
X330111Y33345D01*
G37*
%LPD*%
%LPC*%
G36*
X296658Y75145D02*
X296658Y75145D01*
X295765Y76038D01*
X295765Y88302D01*
X296658Y89195D01*
X307922Y89195D01*
X308815Y88302D01*
X308815Y84201D01*
X303306Y84201D01*
X303248Y84193D01*
X303190Y84194D01*
X303108Y84173D01*
X303025Y84161D01*
X302971Y84137D01*
X302915Y84123D01*
X302842Y84080D01*
X302765Y84045D01*
X302721Y84007D01*
X302670Y83977D01*
X302613Y83916D01*
X302548Y83861D01*
X302516Y83813D01*
X302476Y83770D01*
X302437Y83695D01*
X302391Y83625D01*
X302373Y83569D01*
X302346Y83517D01*
X302335Y83449D01*
X302305Y83354D01*
X302302Y83254D01*
X302291Y83186D01*
X302291Y82169D01*
X301274Y82169D01*
X301216Y82161D01*
X301158Y82162D01*
X301076Y82141D01*
X300993Y82129D01*
X300939Y82105D01*
X300883Y82091D01*
X300810Y82048D01*
X300733Y82013D01*
X300688Y81975D01*
X300638Y81945D01*
X300580Y81884D01*
X300516Y81829D01*
X300484Y81781D01*
X300444Y81738D01*
X300405Y81663D01*
X300359Y81593D01*
X300341Y81537D01*
X300314Y81485D01*
X300303Y81417D01*
X300273Y81322D01*
X300270Y81222D01*
X300259Y81154D01*
X300259Y75145D01*
X296658Y75145D01*
G37*
%LPD*%
%LPC*%
G36*
X472723Y268723D02*
X472723Y268723D01*
X472723Y279046D01*
X473996Y278845D01*
X475783Y278264D01*
X477457Y277411D01*
X478978Y276306D01*
X480306Y274978D01*
X481411Y273457D01*
X482264Y271783D01*
X482845Y269996D01*
X483046Y268723D01*
X472723Y268723D01*
G37*
%LPD*%
%LPC*%
G36*
X459354Y268723D02*
X459354Y268723D01*
X459555Y269996D01*
X460136Y271783D01*
X460989Y273457D01*
X462094Y274978D01*
X463422Y276306D01*
X464943Y277411D01*
X466617Y278264D01*
X468404Y278845D01*
X469677Y279046D01*
X469677Y268723D01*
X459354Y268723D01*
G37*
%LPD*%
%LPC*%
G36*
X472723Y265677D02*
X472723Y265677D01*
X483046Y265677D01*
X482845Y264404D01*
X482264Y262617D01*
X481411Y260943D01*
X480306Y259422D01*
X478978Y258094D01*
X477457Y256989D01*
X475783Y256136D01*
X473996Y255555D01*
X472723Y255354D01*
X472723Y265677D01*
G37*
%LPD*%
%LPC*%
G36*
X468404Y255555D02*
X468404Y255555D01*
X466617Y256136D01*
X464943Y256989D01*
X463422Y258094D01*
X462094Y259422D01*
X460989Y260943D01*
X460136Y262617D01*
X459555Y264404D01*
X459354Y265677D01*
X469677Y265677D01*
X469677Y255354D01*
X468404Y255555D01*
G37*
%LPD*%
%LPC*%
G36*
X296583Y50283D02*
X296583Y50283D01*
X296583Y62477D01*
X303101Y62477D01*
X303101Y58665D01*
X302928Y58019D01*
X302593Y57440D01*
X302071Y56918D01*
X302060Y56902D01*
X302044Y56890D01*
X301988Y56803D01*
X301928Y56719D01*
X301922Y56700D01*
X301911Y56683D01*
X301886Y56582D01*
X301856Y56483D01*
X301856Y56464D01*
X301851Y56444D01*
X301859Y56341D01*
X301862Y56238D01*
X301869Y56219D01*
X301870Y56199D01*
X301911Y56104D01*
X301946Y56007D01*
X301959Y55991D01*
X301967Y55973D01*
X302071Y55842D01*
X302593Y55320D01*
X302928Y54741D01*
X303101Y54094D01*
X303101Y50283D01*
X296583Y50283D01*
G37*
%LPD*%
%LPC*%
G36*
X287019Y50283D02*
X287019Y50283D01*
X287019Y54094D01*
X287192Y54741D01*
X287527Y55320D01*
X288049Y55842D01*
X288060Y55858D01*
X288076Y55870D01*
X288132Y55957D01*
X288192Y56041D01*
X288198Y56060D01*
X288209Y56077D01*
X288234Y56178D01*
X288264Y56277D01*
X288264Y56296D01*
X288269Y56316D01*
X288261Y56419D01*
X288258Y56522D01*
X288251Y56541D01*
X288250Y56561D01*
X288209Y56656D01*
X288174Y56753D01*
X288161Y56769D01*
X288153Y56787D01*
X288049Y56918D01*
X287527Y57440D01*
X287192Y58019D01*
X287019Y58666D01*
X287019Y62477D01*
X293537Y62477D01*
X293537Y50283D01*
X287019Y50283D01*
G37*
%LPD*%
%LPC*%
G36*
X126699Y141499D02*
X126699Y141499D01*
X126699Y153481D01*
X127557Y153310D01*
X129028Y152701D01*
X130351Y151817D01*
X131477Y150691D01*
X132361Y149368D01*
X132970Y147897D01*
X133281Y146336D01*
X133281Y141499D01*
X126699Y141499D01*
G37*
%LPD*%
%LPC*%
G36*
X126699Y138501D02*
X126699Y138501D01*
X133281Y138501D01*
X133281Y133664D01*
X132970Y132103D01*
X132361Y130632D01*
X131477Y129309D01*
X130351Y128183D01*
X129028Y127299D01*
X127557Y126690D01*
X126699Y126519D01*
X126699Y138501D01*
G37*
%LPD*%
%LPC*%
G36*
X117119Y141499D02*
X117119Y141499D01*
X117119Y146336D01*
X117430Y147897D01*
X118039Y149368D01*
X118923Y150691D01*
X120049Y151817D01*
X121372Y152701D01*
X122843Y153310D01*
X123701Y153481D01*
X123701Y141499D01*
X117119Y141499D01*
G37*
%LPD*%
%LPC*%
G36*
X122843Y126690D02*
X122843Y126690D01*
X121372Y127299D01*
X120049Y128183D01*
X118923Y129309D01*
X118039Y130632D01*
X117430Y132103D01*
X117119Y133664D01*
X117119Y138501D01*
X123701Y138501D01*
X123701Y126519D01*
X122843Y126690D01*
G37*
%LPD*%
%LPC*%
G36*
X136023Y527539D02*
X136023Y527539D01*
X136023Y536177D01*
X144661Y536177D01*
X144661Y533491D01*
X138709Y527539D01*
X136023Y527539D01*
G37*
%LPD*%
%LPC*%
G36*
X130291Y527539D02*
X130291Y527539D01*
X124339Y533491D01*
X124339Y536177D01*
X132977Y536177D01*
X132977Y527539D01*
X130291Y527539D01*
G37*
%LPD*%
%LPC*%
G36*
X373235Y71991D02*
X373235Y71991D01*
X373235Y76092D01*
X373305Y76162D01*
X373317Y76178D01*
X373333Y76190D01*
X373389Y76277D01*
X373449Y76361D01*
X373455Y76380D01*
X373466Y76397D01*
X373491Y76498D01*
X373521Y76596D01*
X373521Y76616D01*
X373526Y76636D01*
X373518Y76739D01*
X373515Y76842D01*
X373508Y76861D01*
X373507Y76881D01*
X373466Y76976D01*
X373431Y77073D01*
X373418Y77089D01*
X373410Y77107D01*
X373305Y77238D01*
X372235Y78308D01*
X372235Y80941D01*
X377761Y80941D01*
X377761Y75609D01*
X377743Y75552D01*
X377740Y75452D01*
X377729Y75384D01*
X377729Y71991D01*
X373235Y71991D01*
G37*
%LPD*%
%LPC*%
G36*
X396946Y303931D02*
X396946Y303931D01*
X396946Y314982D01*
X400885Y314982D01*
X400885Y306138D01*
X400712Y305491D01*
X400377Y304912D01*
X399904Y304439D01*
X399325Y304104D01*
X398678Y303931D01*
X396946Y303931D01*
G37*
%LPD*%
%LPC*%
G36*
X460446Y303931D02*
X460446Y303931D01*
X460446Y314982D01*
X464385Y314982D01*
X464385Y306138D01*
X464212Y305491D01*
X463877Y304912D01*
X463404Y304439D01*
X462825Y304104D01*
X462178Y303931D01*
X460446Y303931D01*
G37*
%LPD*%
%LPC*%
G36*
X453715Y317774D02*
X453715Y317774D01*
X453715Y326618D01*
X453888Y327265D01*
X454223Y327844D01*
X454696Y328317D01*
X455275Y328652D01*
X455922Y328825D01*
X457654Y328825D01*
X457654Y317774D01*
X453715Y317774D01*
G37*
%LPD*%
%LPC*%
G36*
X390215Y317774D02*
X390215Y317774D01*
X390215Y326618D01*
X390388Y327265D01*
X390723Y327844D01*
X391196Y328317D01*
X391775Y328652D01*
X392422Y328825D01*
X394154Y328825D01*
X394154Y317774D01*
X390215Y317774D01*
G37*
%LPD*%
%LPC*%
G36*
X392422Y303931D02*
X392422Y303931D01*
X391775Y304104D01*
X391196Y304439D01*
X390723Y304912D01*
X390388Y305491D01*
X390215Y306138D01*
X390215Y314982D01*
X394154Y314982D01*
X394154Y303931D01*
X392422Y303931D01*
G37*
%LPD*%
%LPC*%
G36*
X455922Y303931D02*
X455922Y303931D01*
X455275Y304104D01*
X454696Y304439D01*
X454223Y304912D01*
X453888Y305491D01*
X453715Y306138D01*
X453715Y314982D01*
X457654Y314982D01*
X457654Y303931D01*
X455922Y303931D01*
G37*
%LPD*%
%LPC*%
G36*
X296583Y65523D02*
X296583Y65523D01*
X296583Y71541D01*
X300894Y71541D01*
X301541Y71368D01*
X302120Y71033D01*
X302593Y70560D01*
X302928Y69981D01*
X303101Y69334D01*
X303101Y65523D01*
X296583Y65523D01*
G37*
%LPD*%
%LPC*%
G36*
X303813Y91129D02*
X303813Y91129D01*
X303813Y97647D01*
X309831Y97647D01*
X309831Y93336D01*
X309658Y92689D01*
X309323Y92110D01*
X308850Y91637D01*
X308271Y91302D01*
X307624Y91129D01*
X303813Y91129D01*
G37*
%LPD*%
%LPC*%
G36*
X287019Y65523D02*
X287019Y65523D01*
X287019Y69334D01*
X287192Y69981D01*
X287527Y70560D01*
X288000Y71033D01*
X288579Y71368D01*
X289226Y71541D01*
X293537Y71541D01*
X293537Y65523D01*
X287019Y65523D01*
G37*
%LPD*%
%LPC*%
G36*
X270619Y124823D02*
X270619Y124823D01*
X270619Y129134D01*
X270792Y129781D01*
X271127Y130360D01*
X271600Y130833D01*
X272179Y131168D01*
X272826Y131341D01*
X276637Y131341D01*
X276637Y124823D01*
X270619Y124823D01*
G37*
%LPD*%
%LPC*%
G36*
X296583Y41219D02*
X296583Y41219D01*
X296583Y47237D01*
X303101Y47237D01*
X303101Y43425D01*
X302928Y42779D01*
X302593Y42200D01*
X302120Y41727D01*
X301541Y41392D01*
X300894Y41219D01*
X296583Y41219D01*
G37*
%LPD*%
%LPC*%
G36*
X296956Y91129D02*
X296956Y91129D01*
X296309Y91302D01*
X295730Y91637D01*
X295257Y92110D01*
X294922Y92689D01*
X294749Y93336D01*
X294749Y97647D01*
X300767Y97647D01*
X300767Y91129D01*
X296956Y91129D01*
G37*
%LPD*%
%LPC*%
G36*
X289226Y41219D02*
X289226Y41219D01*
X288579Y41392D01*
X288000Y41727D01*
X287527Y42200D01*
X287192Y42779D01*
X287019Y43426D01*
X287019Y47237D01*
X293537Y47237D01*
X293537Y41219D01*
X289226Y41219D01*
G37*
%LPD*%
%LPC*%
G36*
X321020Y32837D02*
X321020Y32837D01*
X320547Y33310D01*
X320212Y33889D01*
X320039Y34536D01*
X320039Y37205D01*
X320089Y37181D01*
X320141Y37176D01*
X320191Y37160D01*
X320262Y37162D01*
X320333Y37154D01*
X320384Y37165D01*
X320436Y37167D01*
X320504Y37191D01*
X320574Y37207D01*
X320619Y37233D01*
X320667Y37251D01*
X320723Y37296D01*
X320785Y37333D01*
X320819Y37372D01*
X320859Y37405D01*
X320898Y37465D01*
X320945Y37520D01*
X320964Y37568D01*
X320992Y37612D01*
X321010Y37681D01*
X321037Y37748D01*
X321045Y37819D01*
X321050Y37839D01*
X326049Y37839D01*
X326049Y33345D01*
X321848Y33345D01*
X321828Y33342D01*
X321809Y33344D01*
X321707Y33322D01*
X321605Y33306D01*
X321588Y33296D01*
X321568Y33292D01*
X321479Y33239D01*
X321388Y33190D01*
X321374Y33176D01*
X321357Y33166D01*
X321290Y33087D01*
X321218Y33012D01*
X321210Y32994D01*
X321197Y32979D01*
X321158Y32883D01*
X321115Y32789D01*
X321114Y32783D01*
X321020Y32837D01*
G37*
%LPD*%
%LPC*%
G36*
X336295Y21549D02*
X336295Y21549D01*
X336295Y25182D01*
X337188Y26075D01*
X341289Y26075D01*
X341289Y21581D01*
X336626Y21581D01*
X336568Y21573D01*
X336510Y21574D01*
X336428Y21553D01*
X336400Y21549D01*
X336295Y21549D01*
G37*
%LPD*%
%LPC*%
G36*
X335681Y187951D02*
X335681Y187951D01*
X335681Y192445D01*
X339782Y192445D01*
X340675Y191552D01*
X340675Y187951D01*
X335681Y187951D01*
G37*
%LPD*%
%LPC*%
G36*
X304321Y75145D02*
X304321Y75145D01*
X304321Y80139D01*
X308815Y80139D01*
X308815Y76038D01*
X307922Y75145D01*
X304321Y75145D01*
G37*
%LPD*%
%LPC*%
G36*
X342645Y187951D02*
X342645Y187951D01*
X342645Y191552D01*
X343538Y192445D01*
X347639Y192445D01*
X347639Y187951D01*
X342645Y187951D01*
G37*
%LPD*%
%LPC*%
G36*
X331374Y75801D02*
X331374Y75801D01*
X326880Y75801D01*
X326880Y79902D01*
X327773Y80795D01*
X331374Y80795D01*
X331374Y75801D01*
G37*
%LPD*%
%LPC*%
G36*
X343538Y199715D02*
X343538Y199715D01*
X342645Y200608D01*
X342645Y204209D01*
X347639Y204209D01*
X347639Y199715D01*
X343538Y199715D01*
G37*
%LPD*%
%LPC*%
G36*
X331069Y21549D02*
X331069Y21549D01*
X331069Y27075D01*
X333702Y27075D01*
X334595Y26182D01*
X334595Y21549D01*
X331069Y21549D01*
G37*
%LPD*%
%LPC*%
G36*
X330076Y95069D02*
X330076Y95069D01*
X329429Y95242D01*
X328850Y95577D01*
X328377Y96050D01*
X328042Y96629D01*
X327869Y97276D01*
X327869Y99349D01*
X330899Y99349D01*
X330899Y95069D01*
X330076Y95069D01*
G37*
%LPD*%
%LPC*%
G36*
X352675Y96085D02*
X352675Y96085D01*
X352675Y99095D01*
X354435Y99095D01*
X354435Y96978D01*
X353542Y96085D01*
X352675Y96085D01*
G37*
%LPD*%
%LPC*%
G36*
X34999Y407299D02*
X34999Y407299D01*
X34999Y407301D01*
X35001Y407301D01*
X35001Y407299D01*
X34999Y407299D01*
G37*
%LPD*%
%LPC*%
G36*
X471199Y267199D02*
X471199Y267199D01*
X471199Y267201D01*
X471201Y267201D01*
X471201Y267199D01*
X471199Y267199D01*
G37*
%LPD*%
%LPC*%
G36*
X295059Y48759D02*
X295059Y48759D01*
X295059Y48761D01*
X295061Y48761D01*
X295061Y48759D01*
X295059Y48759D01*
G37*
%LPD*%
%LPC*%
G36*
X341659Y118609D02*
X341659Y118609D01*
X341659Y118611D01*
X341661Y118611D01*
X341661Y118609D01*
X341659Y118609D01*
G37*
%LPD*%
%LPC*%
G36*
X295059Y63999D02*
X295059Y63999D01*
X295059Y64001D01*
X295061Y64001D01*
X295061Y63999D01*
X295059Y63999D01*
G37*
%LPD*%
%LPC*%
G36*
X26999Y245499D02*
X26999Y245499D01*
X26999Y245501D01*
X27001Y245501D01*
X27001Y245499D01*
X26999Y245499D01*
G37*
%LPD*%
D10*
X360160Y108610D03*
X360160Y113610D03*
X360160Y118610D03*
X360160Y123610D03*
X360160Y128610D03*
D11*
X351660Y137110D03*
X346660Y137110D03*
X341660Y137110D03*
X336660Y137110D03*
X331660Y137110D03*
D10*
X323160Y128610D03*
X323160Y123610D03*
X323160Y118610D03*
X323160Y113610D03*
X323160Y108610D03*
D11*
X331660Y100110D03*
X336660Y100110D03*
X341660Y100110D03*
X346660Y100110D03*
X351660Y100110D03*
D12*
X352910Y129860D02*
X330410Y129860D01*
X352910Y129860D02*
X352910Y107360D01*
X330410Y107360D01*
X330410Y129860D01*
X330410Y109735D02*
X352910Y109735D01*
X352910Y112110D02*
X330410Y112110D01*
X330410Y114485D02*
X352910Y114485D01*
X352910Y116860D02*
X330410Y116860D01*
X330410Y119235D02*
X352910Y119235D01*
X352910Y121610D02*
X330410Y121610D01*
X330410Y123985D02*
X352910Y123985D01*
X352910Y126360D02*
X330410Y126360D01*
X330410Y128735D02*
X352910Y128735D01*
D13*
X425090Y107180D03*
X408090Y107180D03*
X425090Y123690D03*
X408090Y123690D03*
X349670Y185920D03*
X366670Y185920D03*
D14*
X379760Y69960D03*
X379760Y52960D03*
X333405Y73770D03*
X333405Y56770D03*
D13*
X287440Y161790D03*
X304440Y161790D03*
X317285Y161790D03*
X334285Y161790D03*
D14*
X379760Y127890D03*
X379760Y144890D03*
D13*
X312060Y64000D03*
X295060Y64000D03*
D14*
X302290Y82170D03*
X302290Y99170D03*
D15*
X329070Y19550D03*
X311070Y19550D03*
D16*
X379760Y100940D03*
X379760Y82940D03*
D13*
X316650Y185920D03*
X333650Y185920D03*
X349670Y161790D03*
X366670Y161790D03*
X425090Y141470D03*
X408090Y141470D03*
X425090Y90670D03*
X408090Y90670D03*
X345080Y39870D03*
X328080Y39870D03*
X375560Y39870D03*
X358560Y39870D03*
X295060Y48760D03*
X312060Y48760D03*
X349670Y206240D03*
X366670Y206240D03*
X408090Y159250D03*
X425090Y159250D03*
D17*
X514590Y27040D03*
X514590Y120040D03*
X445590Y46040D03*
D18*
X472590Y160540D03*
D19*
X445590Y18040D03*
D20*
X471200Y267200D03*
X445800Y267200D03*
X420400Y267200D03*
X395000Y267200D03*
X369600Y267200D03*
X344200Y267200D03*
D13*
X322220Y267200D03*
X305220Y267200D03*
D20*
X572800Y127500D03*
X572800Y102100D03*
X572800Y76700D03*
D13*
X425090Y177030D03*
X408090Y177030D03*
D21*
X509180Y196080D03*
X494180Y196080D03*
D22*
X509300Y255770D02*
X509300Y263390D01*
D23*
X509300Y264660D03*
X509300Y254500D03*
D13*
X376830Y19550D03*
X359830Y19550D03*
X360320Y19550D03*
X343320Y19550D03*
D14*
X278160Y123300D03*
X278160Y106300D03*
X278160Y108060D03*
X278160Y91060D03*
D24*
X534700Y51300D03*
X280700Y229100D03*
D25*
X42620Y432700D02*
X27380Y432700D01*
X27380Y407300D02*
X42620Y407300D01*
D26*
X83700Y512300D03*
X83700Y537700D03*
X109100Y512300D03*
X109100Y537700D03*
X134500Y512300D03*
X134500Y537700D03*
X159900Y512300D03*
X159900Y537700D03*
X185300Y512300D03*
X185300Y537700D03*
X210700Y512300D03*
X210700Y537700D03*
X236100Y512300D03*
X236100Y537700D03*
X261500Y512300D03*
X261500Y537700D03*
X286900Y512300D03*
X286900Y537700D03*
X312300Y512300D03*
X312300Y537700D03*
X337700Y512300D03*
X337700Y537700D03*
X363100Y512300D03*
X363100Y537700D03*
X388500Y512300D03*
X388500Y537700D03*
X413900Y512300D03*
X413900Y537700D03*
X439300Y512300D03*
X439300Y537700D03*
X464700Y512300D03*
X464700Y537700D03*
X490100Y512300D03*
X490100Y537700D03*
X515500Y512300D03*
X515500Y537700D03*
X540900Y512300D03*
X540900Y537700D03*
X566300Y512300D03*
X566300Y537700D03*
D18*
X27000Y245500D03*
X120000Y245500D03*
X46000Y314500D03*
D17*
X160500Y287500D03*
D27*
X18000Y314500D03*
D28*
X484450Y363622D03*
X471750Y363622D03*
X459050Y363622D03*
X446350Y363622D03*
X433650Y363622D03*
X420950Y363622D03*
X408250Y363622D03*
X395550Y363622D03*
X395550Y316378D03*
X408250Y316378D03*
X420950Y316378D03*
X433650Y316378D03*
X446350Y316378D03*
X459050Y316378D03*
X471750Y316378D03*
X484450Y316378D03*
D29*
X41740Y174000D02*
X28660Y174000D01*
X28660Y106000D02*
X41740Y106000D01*
D30*
X110660Y168500D02*
X121740Y168500D01*
X125200Y145540D02*
X125200Y134460D01*
X121740Y111500D02*
X110660Y111500D01*
D25*
X126000Y35220D02*
X126000Y19980D01*
X151400Y19980D02*
X151400Y35220D01*
X176800Y35220D02*
X176800Y19980D01*
X202200Y19980D02*
X202200Y35220D01*
X227600Y35220D02*
X227600Y19980D01*
D31*
X318800Y95750D03*
D22*
X336660Y113610D02*
X341660Y118610D01*
X331660Y108610D02*
X331660Y100110D01*
X331660Y108610D02*
X341660Y118610D01*
D31*
X341660Y118610D03*
X381030Y224020D03*
X392460Y174490D03*
D32*
X125200Y140000D02*
X77300Y187900D01*
X78200Y188800D01*
D33*
X78200Y188800D03*
X57100Y209900D03*
D32*
X27000Y240000D01*
X27000Y245500D01*
X227600Y78600D02*
X227600Y27600D01*
X227600Y78600D02*
X221250Y84950D01*
X187100Y119100D01*
X186600Y118600D01*
D33*
X186600Y118600D03*
D32*
X27000Y245500D02*
X27000Y260368D01*
X18704Y268664D01*
X18969Y268929D02*
X15212Y268929D01*
X18704Y268664D02*
X18969Y268929D01*
D33*
X15212Y268929D03*
D32*
X258300Y123300D02*
X278160Y123300D01*
X221250Y86250D02*
X221250Y84950D01*
X221250Y86250D02*
X258300Y123300D01*
D34*
X360160Y113610D02*
X391110Y113610D01*
X397540Y107180D01*
X408090Y107180D01*
X391190Y118610D02*
X360160Y118610D01*
X391190Y118610D02*
X396270Y123690D01*
X408090Y123690D01*
D22*
X346660Y137110D02*
X346660Y143930D01*
X355630Y152900D01*
X364520Y152900D01*
X366670Y155050D01*
X366670Y161790D01*
X341660Y100110D02*
X341660Y57650D01*
X334860Y57650D02*
X334780Y57570D01*
D35*
X333405Y56770D02*
X313800Y56770D01*
X312060Y58510D01*
X312060Y64000D01*
X312060Y58510D02*
X312060Y48760D01*
D32*
X333405Y56770D02*
X334285Y57650D01*
X334860Y57650D01*
X341660Y57650D01*
D34*
X336660Y137110D02*
X336660Y145200D01*
X330230Y151630D01*
X313720Y151630D01*
X311180Y154170D01*
X311180Y161790D01*
X317285Y161790D01*
X311180Y161790D02*
X304440Y161790D01*
X331660Y142580D02*
X331660Y137110D01*
X331660Y142580D02*
X328960Y145280D01*
X293400Y145280D01*
X287440Y151240D01*
X287440Y161790D01*
X302290Y185920D02*
X316650Y185920D01*
X302290Y185920D02*
X287440Y171070D01*
X287440Y161790D01*
D22*
X316650Y185920D02*
X316650Y201550D01*
X356900Y241800D01*
X392460Y241800D01*
X395000Y241800D01*
X420400Y267200D01*
X392460Y192660D02*
X408090Y177030D01*
X392460Y192660D02*
X392460Y241800D01*
D33*
X462700Y335600D03*
D32*
X465000Y337900D01*
X473500Y337900D01*
X484450Y348850D01*
X484450Y363622D01*
D22*
X311180Y22090D02*
X311070Y19550D01*
X311180Y22090D02*
X301020Y32250D01*
D31*
X301020Y32250D03*
X341660Y173855D03*
D36*
X341400Y151700D02*
X341400Y147240D01*
X341454Y147186D01*
X341454Y137316D01*
X341660Y137110D01*
D32*
X347870Y159990D02*
X349670Y161790D01*
X337695Y165200D02*
X334285Y161790D01*
D35*
X341400Y173595D02*
X341660Y173855D01*
X341660Y151960D02*
X341400Y151700D01*
X341660Y161700D02*
X341660Y173855D01*
X341660Y161700D02*
X341660Y151960D01*
X341750Y161790D02*
X349670Y161790D01*
X341750Y161790D02*
X341660Y161700D01*
X341570Y161790D02*
X334285Y161790D01*
X341570Y161790D02*
X341660Y161700D01*
D34*
X425090Y107180D02*
X425090Y90670D01*
D37*
X434370Y90670D01*
X441990Y83050D01*
X445590Y79450D01*
X445590Y46040D01*
X501680Y102100D02*
X572800Y102100D01*
X501680Y102100D02*
X486440Y86860D01*
X445800Y86860D01*
X441990Y83050D01*
D34*
X425090Y123690D02*
X425090Y141470D01*
D37*
X425090Y123690D02*
X436910Y123690D01*
X458500Y102100D01*
D31*
X458500Y102100D03*
X486440Y74160D03*
D37*
X497870Y62730D01*
X514590Y46010D01*
X514590Y27040D01*
X511840Y76700D02*
X572800Y76700D01*
X511840Y76700D02*
X497870Y62730D01*
D34*
X374520Y108610D02*
X360160Y108610D01*
X374520Y108610D02*
X379760Y103370D01*
X379760Y100940D01*
D35*
X379760Y52960D02*
X360600Y52960D01*
X358560Y50920D01*
X358560Y39870D01*
X358170Y52960D02*
X360600Y52960D01*
X358170Y52960D02*
X345080Y39870D01*
X358560Y39870D01*
D22*
X328080Y39870D02*
X327690Y39870D01*
D31*
X361980Y144010D03*
X314990Y33520D03*
D22*
X351660Y137110D02*
X351660Y142580D01*
X353090Y144010D01*
X361980Y144010D01*
X360160Y123610D02*
X368250Y123610D01*
X372140Y127500D01*
X379760Y127500D01*
X379760Y127890D01*
X379760Y144890D02*
X373020Y144890D01*
X370870Y142740D01*
X370870Y132580D01*
X366900Y128610D01*
X360160Y128610D01*
D34*
X379760Y144890D02*
X394120Y159250D01*
X407700Y159250D01*
D22*
X408090Y159250D01*
X346660Y100110D02*
X346660Y74240D01*
X354360Y66540D01*
D31*
X354360Y66540D03*
D22*
X375560Y39870D02*
X388650Y39870D01*
D31*
X388650Y39870D03*
D22*
X379760Y206240D02*
X366670Y206240D01*
D31*
X379760Y206240D03*
X318800Y79240D03*
X301020Y112895D03*
D22*
X305220Y266700D02*
X305220Y267200D01*
X305220Y266700D02*
X305220Y257920D01*
X311180Y251960D01*
D31*
X311180Y251960D03*
D22*
X305305Y108610D02*
X323160Y108610D01*
X305305Y108610D02*
X301020Y112895D01*
X294035Y112895D01*
X289590Y108450D01*
X289590Y102490D01*
X278160Y91060D01*
D31*
X389920Y20820D03*
D22*
X388650Y19550D02*
X376830Y19550D01*
X388650Y19550D02*
X389920Y20820D01*
D35*
X160600Y245500D02*
X120000Y245500D01*
X160600Y245500D02*
X260600Y245500D01*
X281800Y266700D02*
X305220Y266700D01*
X281800Y266700D02*
X260600Y245500D01*
X120000Y245500D02*
X120000Y257833D01*
X132160Y269993D01*
X132160Y290007D01*
X120000Y302167D01*
D33*
X120000Y360600D03*
X94300Y407700D03*
D35*
X83700Y418300D01*
X83700Y512300D01*
X120000Y360600D02*
X120000Y302167D01*
X116200Y111500D02*
X156300Y111500D01*
X160600Y115800D02*
X160600Y245500D01*
X160600Y115800D02*
X156300Y111500D01*
X156500Y111500D02*
X116200Y111500D01*
X156500Y111500D02*
X158900Y113900D01*
D33*
X158900Y113900D03*
D38*
X445800Y267200D02*
X445800Y276700D01*
X471750Y302650D02*
X471750Y316378D01*
X471750Y302650D02*
X445800Y276700D01*
X471750Y316378D02*
X484450Y316378D01*
D22*
X323160Y123610D02*
X317610Y123610D01*
X306100Y135120D01*
X289590Y135120D01*
X273080Y151630D01*
X273080Y177030D01*
X348010Y251960D01*
X354360Y251960D01*
X369600Y267200D01*
X278160Y173220D02*
X278160Y152900D01*
X278160Y173220D02*
X351820Y246880D01*
X323160Y128610D02*
X318960Y128610D01*
X307370Y140200D01*
X290860Y140200D01*
X278160Y152900D01*
X351820Y246880D02*
X374680Y246880D01*
X395000Y267200D01*
X395000Y141470D02*
X408090Y141470D01*
D31*
X395000Y141470D03*
D22*
X395000Y90670D02*
X408090Y90670D01*
D31*
X395000Y90670D03*
D22*
X397540Y37330D02*
X392460Y30980D01*
X363250Y30980D01*
X359830Y27560D01*
X397540Y37330D02*
X397540Y88130D01*
X395000Y90670D01*
X359830Y27560D02*
X359830Y19550D01*
X360320Y19550D01*
D37*
X425090Y159250D02*
X436910Y159250D01*
X458500Y137660D01*
X481360Y137660D01*
X499140Y119880D01*
X514430Y119880D01*
X514590Y120040D01*
X565340Y120040D02*
X572800Y127500D01*
X565340Y120040D02*
X514590Y120040D01*
D22*
X323160Y118610D02*
X316260Y118610D01*
X304830Y130040D01*
X288320Y130040D01*
X268000Y150360D01*
X268000Y191000D01*
X344200Y267200D01*
X322220Y267200D01*
D34*
X444140Y196080D02*
X494180Y196080D01*
X444140Y196080D02*
X425090Y177030D01*
X509180Y196080D02*
X509300Y196200D01*
X509300Y254500D01*
D22*
X323160Y113610D02*
X313640Y113610D01*
X304830Y122420D01*
X292520Y122420D01*
X278160Y108060D02*
X278160Y106300D01*
X278160Y108060D02*
X292520Y122420D01*
D39*
X35000Y432700D02*
X35000Y472400D01*
X70064Y507464D02*
X70064Y527600D01*
X80164Y537700D01*
X83700Y537700D01*
X70064Y507464D02*
X35000Y472400D01*
D33*
X109100Y433000D03*
X141000Y366300D03*
D32*
X197500Y309800D01*
D33*
X197500Y291100D03*
D32*
X109100Y433000D02*
X109100Y512300D01*
X197500Y309800D02*
X197500Y291100D01*
X151400Y49300D02*
X151400Y27600D01*
X151400Y49300D02*
X135500Y65200D01*
X84300Y65200D01*
X84300Y65900D01*
D33*
X84300Y65900D03*
D32*
X55000Y86200D02*
X35200Y106000D01*
X55000Y86200D02*
X166000Y86200D01*
X176800Y75400D01*
X176800Y27600D01*
X35200Y106000D02*
X35200Y129732D01*
X38360Y132892D01*
X38360Y147108D01*
X35200Y150268D01*
X35200Y174000D01*
X75300Y367600D02*
X134500Y426800D01*
X134500Y512300D01*
X75300Y214100D02*
X35200Y174000D01*
X75300Y214100D02*
X75300Y367600D01*
X46000Y334300D02*
X46000Y314500D01*
X46000Y334300D02*
X44800Y334300D01*
D33*
X44800Y334300D03*
D32*
X420900Y316428D02*
X420950Y316378D01*
X420900Y316428D02*
X420900Y325300D01*
X408800Y337400D01*
X409000Y337600D01*
D33*
X409000Y337600D03*
X430300Y345000D03*
D32*
X433800Y341500D01*
X433800Y316528D01*
X433650Y316378D01*
X446350Y316378D02*
X446350Y334700D01*
X446500Y334700D01*
D33*
X446500Y334700D03*
D32*
X273900Y525300D02*
X261500Y537700D01*
X408250Y323178D02*
X408250Y316378D01*
X408250Y323178D02*
X408386Y323314D01*
X273900Y457800D01*
X273900Y525300D01*
M02*
