G04 EAGLE Gerber RS-274X export*
G75*
%MOMM*%
%FSLAX34Y34*%
%LPD*%
%INBottom Copper*%
%IPPOS*%
%AMOC8*
5,1,8,0,0,1.08239X$1,22.5*%
G01*
%ADD10C,0.152400*%
%ADD11C,1.879600*%
%ADD12C,1.524000*%
%ADD13P,1.649562X8X22.500000*%
%ADD14C,1.308000*%
%ADD15C,1.108000*%
%ADD16C,0.914400*%
%ADD17C,0.900000*%
%ADD18C,0.700000*%
%ADD19C,0.756400*%
%ADD20C,0.300000*%
%ADD21C,0.203200*%
%ADD22C,0.406400*%
%ADD23C,0.812800*%
%ADD24C,0.800000*%

G36*
X119850Y11442D02*
X119850Y11442D01*
X119921Y11444D01*
X119970Y11462D01*
X120022Y11470D01*
X120085Y11504D01*
X120152Y11529D01*
X120193Y11561D01*
X120239Y11586D01*
X120288Y11638D01*
X120344Y11682D01*
X120373Y11726D01*
X120408Y11764D01*
X120439Y11829D01*
X120477Y11889D01*
X120490Y11940D01*
X120512Y11987D01*
X120520Y12058D01*
X120537Y12128D01*
X120533Y12180D01*
X120539Y12231D01*
X120524Y12302D01*
X120518Y12373D01*
X120498Y12421D01*
X120487Y12472D01*
X120450Y12533D01*
X120422Y12599D01*
X120377Y12655D01*
X120361Y12683D01*
X120343Y12698D01*
X120317Y12730D01*
X118247Y14800D01*
X116855Y18161D01*
X116855Y37039D01*
X118247Y40400D01*
X119052Y41205D01*
X119105Y41279D01*
X119165Y41348D01*
X119177Y41378D01*
X119196Y41405D01*
X119223Y41492D01*
X119257Y41576D01*
X119261Y41617D01*
X119268Y41640D01*
X119267Y41672D01*
X119275Y41743D01*
X119275Y80299D01*
X120116Y82330D01*
X153370Y115583D01*
X153423Y115657D01*
X153483Y115727D01*
X153495Y115757D01*
X153514Y115783D01*
X153541Y115870D01*
X153575Y115955D01*
X153579Y115996D01*
X153586Y116018D01*
X153585Y116050D01*
X153590Y116095D01*
X153891Y116396D01*
X153930Y116449D01*
X153975Y116496D01*
X154016Y116569D01*
X154035Y116596D01*
X154041Y116614D01*
X154056Y116643D01*
X154216Y117030D01*
X155770Y118584D01*
X156157Y118744D01*
X156213Y118778D01*
X156273Y118804D01*
X156338Y118856D01*
X156366Y118873D01*
X156378Y118888D01*
X156404Y118909D01*
X156702Y119207D01*
X157123Y119207D01*
X157188Y119217D01*
X157254Y119218D01*
X157334Y119241D01*
X157366Y119246D01*
X157383Y119256D01*
X157415Y119265D01*
X157801Y119425D01*
X159999Y119425D01*
X160385Y119265D01*
X160449Y119250D01*
X160510Y119225D01*
X160593Y119216D01*
X160625Y119209D01*
X160644Y119210D01*
X160677Y119207D01*
X161098Y119207D01*
X161396Y118909D01*
X161449Y118870D01*
X161496Y118825D01*
X161569Y118784D01*
X161596Y118765D01*
X161614Y118759D01*
X161643Y118744D01*
X162030Y118584D01*
X163584Y117030D01*
X163744Y116643D01*
X163778Y116587D01*
X163804Y116527D01*
X163856Y116462D01*
X163873Y116434D01*
X163888Y116422D01*
X163909Y116396D01*
X164207Y116098D01*
X164207Y115677D01*
X164217Y115612D01*
X164218Y115546D01*
X164241Y115466D01*
X164246Y115434D01*
X164256Y115417D01*
X164265Y115385D01*
X164425Y114999D01*
X164425Y112201D01*
X164265Y111815D01*
X164250Y111751D01*
X164225Y111690D01*
X164225Y111684D01*
X164209Y111655D01*
X164189Y111629D01*
X164184Y111610D01*
X164168Y111581D01*
X163584Y110170D01*
X130548Y77135D01*
X130495Y77061D01*
X130435Y76991D01*
X130423Y76961D01*
X130404Y76935D01*
X130377Y76848D01*
X130343Y76763D01*
X130339Y76722D01*
X130332Y76700D01*
X130333Y76668D01*
X130325Y76596D01*
X130325Y43835D01*
X130344Y43721D01*
X130361Y43605D01*
X130363Y43599D01*
X130364Y43593D01*
X130419Y43490D01*
X130472Y43385D01*
X130477Y43381D01*
X130480Y43375D01*
X130564Y43296D01*
X130648Y43213D01*
X130654Y43209D01*
X130658Y43206D01*
X130675Y43198D01*
X130795Y43132D01*
X131180Y42973D01*
X133753Y40400D01*
X135145Y37039D01*
X135145Y18161D01*
X133753Y14800D01*
X131683Y12730D01*
X131641Y12672D01*
X131592Y12620D01*
X131570Y12573D01*
X131539Y12531D01*
X131518Y12462D01*
X131488Y12397D01*
X131482Y12345D01*
X131467Y12295D01*
X131469Y12224D01*
X131461Y12153D01*
X131472Y12102D01*
X131473Y12050D01*
X131498Y11982D01*
X131513Y11912D01*
X131540Y11867D01*
X131558Y11819D01*
X131603Y11763D01*
X131639Y11701D01*
X131679Y11667D01*
X131711Y11627D01*
X131772Y11588D01*
X131826Y11541D01*
X131875Y11522D01*
X131918Y11494D01*
X131988Y11476D01*
X132054Y11449D01*
X132126Y11441D01*
X132157Y11433D01*
X132180Y11435D01*
X132221Y11431D01*
X145179Y11431D01*
X145250Y11442D01*
X145321Y11444D01*
X145370Y11462D01*
X145422Y11470D01*
X145485Y11504D01*
X145552Y11529D01*
X145593Y11561D01*
X145639Y11586D01*
X145688Y11638D01*
X145744Y11682D01*
X145773Y11726D01*
X145808Y11764D01*
X145839Y11829D01*
X145877Y11889D01*
X145890Y11940D01*
X145912Y11987D01*
X145920Y12058D01*
X145937Y12128D01*
X145933Y12180D01*
X145939Y12231D01*
X145924Y12302D01*
X145918Y12373D01*
X145898Y12421D01*
X145887Y12472D01*
X145850Y12533D01*
X145822Y12599D01*
X145777Y12655D01*
X145761Y12683D01*
X145743Y12698D01*
X145717Y12730D01*
X143647Y14800D01*
X142255Y18161D01*
X142255Y37039D01*
X143647Y40400D01*
X146220Y42973D01*
X149581Y44365D01*
X153219Y44365D01*
X156580Y42973D01*
X159153Y40400D01*
X160545Y37039D01*
X160545Y18161D01*
X159153Y14800D01*
X157083Y12730D01*
X157041Y12672D01*
X156992Y12620D01*
X156970Y12573D01*
X156939Y12531D01*
X156918Y12462D01*
X156888Y12397D01*
X156882Y12345D01*
X156867Y12295D01*
X156869Y12224D01*
X156861Y12153D01*
X156872Y12102D01*
X156873Y12050D01*
X156898Y11982D01*
X156913Y11912D01*
X156940Y11867D01*
X156958Y11819D01*
X157003Y11763D01*
X157039Y11701D01*
X157079Y11667D01*
X157111Y11627D01*
X157172Y11588D01*
X157226Y11541D01*
X157275Y11522D01*
X157318Y11494D01*
X157388Y11476D01*
X157454Y11449D01*
X157526Y11441D01*
X157557Y11433D01*
X157580Y11435D01*
X157621Y11431D01*
X170579Y11431D01*
X170650Y11442D01*
X170721Y11444D01*
X170770Y11462D01*
X170822Y11470D01*
X170885Y11504D01*
X170952Y11529D01*
X170993Y11561D01*
X171039Y11586D01*
X171088Y11638D01*
X171144Y11682D01*
X171173Y11726D01*
X171208Y11764D01*
X171239Y11829D01*
X171277Y11889D01*
X171290Y11940D01*
X171312Y11987D01*
X171320Y12058D01*
X171337Y12128D01*
X171333Y12180D01*
X171339Y12231D01*
X171324Y12302D01*
X171318Y12373D01*
X171298Y12421D01*
X171287Y12472D01*
X171250Y12533D01*
X171222Y12599D01*
X171177Y12655D01*
X171161Y12683D01*
X171143Y12698D01*
X171117Y12730D01*
X169047Y14800D01*
X167655Y18161D01*
X167655Y37039D01*
X169047Y40400D01*
X171620Y42973D01*
X174981Y44365D01*
X178619Y44365D01*
X181980Y42973D01*
X184553Y40400D01*
X185945Y37039D01*
X185945Y18161D01*
X184553Y14800D01*
X182483Y12730D01*
X182441Y12672D01*
X182392Y12620D01*
X182370Y12573D01*
X182339Y12531D01*
X182318Y12462D01*
X182288Y12397D01*
X182282Y12345D01*
X182267Y12295D01*
X182269Y12224D01*
X182261Y12153D01*
X182272Y12102D01*
X182273Y12050D01*
X182298Y11982D01*
X182313Y11912D01*
X182340Y11867D01*
X182358Y11819D01*
X182403Y11763D01*
X182439Y11701D01*
X182479Y11667D01*
X182511Y11627D01*
X182572Y11588D01*
X182626Y11541D01*
X182675Y11522D01*
X182718Y11494D01*
X182788Y11476D01*
X182854Y11449D01*
X182926Y11441D01*
X182957Y11433D01*
X182980Y11435D01*
X183021Y11431D01*
X195979Y11431D01*
X196050Y11442D01*
X196121Y11444D01*
X196170Y11462D01*
X196222Y11470D01*
X196285Y11504D01*
X196352Y11529D01*
X196393Y11561D01*
X196439Y11586D01*
X196488Y11638D01*
X196544Y11682D01*
X196573Y11726D01*
X196608Y11764D01*
X196639Y11829D01*
X196677Y11889D01*
X196690Y11940D01*
X196712Y11987D01*
X196720Y12058D01*
X196737Y12128D01*
X196733Y12180D01*
X196739Y12231D01*
X196724Y12302D01*
X196718Y12373D01*
X196698Y12421D01*
X196687Y12472D01*
X196650Y12533D01*
X196622Y12599D01*
X196577Y12655D01*
X196561Y12683D01*
X196543Y12698D01*
X196517Y12730D01*
X194447Y14800D01*
X193055Y18161D01*
X193055Y37039D01*
X194447Y40400D01*
X197020Y42973D01*
X200381Y44365D01*
X200672Y44365D01*
X200762Y44379D01*
X200853Y44387D01*
X200883Y44399D01*
X200915Y44404D01*
X200995Y44447D01*
X201079Y44483D01*
X201111Y44509D01*
X201132Y44520D01*
X201154Y44543D01*
X201210Y44588D01*
X208952Y52330D01*
X209005Y52404D01*
X209065Y52473D01*
X209077Y52503D01*
X209096Y52530D01*
X209123Y52617D01*
X209157Y52701D01*
X209161Y52742D01*
X209168Y52765D01*
X209167Y52797D01*
X209175Y52868D01*
X209175Y311132D01*
X209161Y311222D01*
X209153Y311313D01*
X209141Y311343D01*
X209136Y311375D01*
X209093Y311455D01*
X209057Y311539D01*
X209031Y311571D01*
X209020Y311592D01*
X208997Y311614D01*
X208952Y311670D01*
X164224Y356398D01*
X164166Y356440D01*
X164114Y356489D01*
X164067Y356511D01*
X164025Y356542D01*
X163956Y356563D01*
X163891Y356593D01*
X163839Y356599D01*
X163789Y356614D01*
X163718Y356612D01*
X163647Y356620D01*
X163596Y356609D01*
X163544Y356608D01*
X163476Y356583D01*
X163406Y356568D01*
X163361Y356541D01*
X163313Y356523D01*
X163257Y356478D01*
X163195Y356442D01*
X163161Y356402D01*
X163121Y356370D01*
X163082Y356309D01*
X163035Y356255D01*
X163016Y356206D01*
X162988Y356163D01*
X162970Y356093D01*
X162943Y356027D01*
X162935Y355955D01*
X162927Y355924D01*
X162929Y355901D01*
X162925Y355860D01*
X162925Y354547D01*
X145853Y337475D01*
X52568Y337475D01*
X52478Y337461D01*
X52387Y337453D01*
X52357Y337441D01*
X52325Y337436D01*
X52245Y337393D01*
X52161Y337357D01*
X52129Y337331D01*
X52108Y337320D01*
X52086Y337297D01*
X52030Y337252D01*
X50330Y335552D01*
X50277Y335478D01*
X50217Y335409D01*
X50205Y335379D01*
X50186Y335352D01*
X50159Y335265D01*
X50125Y335181D01*
X50121Y335140D01*
X50114Y335117D01*
X50115Y335085D01*
X50107Y335014D01*
X50107Y332102D01*
X46998Y328993D01*
X42602Y328993D01*
X39493Y332102D01*
X39493Y336498D01*
X42602Y339607D01*
X45514Y339607D01*
X45604Y339621D01*
X45695Y339629D01*
X45725Y339641D01*
X45757Y339646D01*
X45837Y339689D01*
X45921Y339725D01*
X45953Y339751D01*
X45974Y339762D01*
X45996Y339785D01*
X46052Y339830D01*
X49747Y343525D01*
X143032Y343525D01*
X143122Y343539D01*
X143213Y343547D01*
X143243Y343559D01*
X143275Y343564D01*
X143355Y343607D01*
X143439Y343643D01*
X143471Y343669D01*
X143492Y343680D01*
X143514Y343703D01*
X143570Y343748D01*
X156652Y356830D01*
X156705Y356904D01*
X156765Y356973D01*
X156777Y357003D01*
X156796Y357030D01*
X156823Y357117D01*
X156857Y357201D01*
X156861Y357242D01*
X156868Y357265D01*
X156867Y357297D01*
X156875Y357368D01*
X156875Y502394D01*
X156872Y502414D01*
X156874Y502433D01*
X156852Y502535D01*
X156836Y502637D01*
X156826Y502654D01*
X156822Y502674D01*
X156769Y502763D01*
X156720Y502854D01*
X156706Y502868D01*
X156696Y502885D01*
X156617Y502952D01*
X156542Y503024D01*
X156524Y503032D01*
X156509Y503045D01*
X156413Y503084D01*
X156319Y503127D01*
X156299Y503129D01*
X156281Y503137D01*
X156114Y503155D01*
X156112Y503155D01*
X150755Y508512D01*
X150755Y516088D01*
X156112Y521445D01*
X163688Y521445D01*
X169045Y516088D01*
X169045Y508512D01*
X163688Y503155D01*
X163686Y503155D01*
X163666Y503152D01*
X163647Y503154D01*
X163545Y503132D01*
X163443Y503116D01*
X163426Y503106D01*
X163406Y503102D01*
X163317Y503049D01*
X163226Y503000D01*
X163212Y502986D01*
X163195Y502976D01*
X163128Y502897D01*
X163056Y502822D01*
X163048Y502804D01*
X163035Y502789D01*
X162996Y502693D01*
X162953Y502599D01*
X162951Y502579D01*
X162943Y502561D01*
X162925Y502394D01*
X162925Y366568D01*
X162939Y366478D01*
X162947Y366387D01*
X162959Y366357D01*
X162964Y366325D01*
X163007Y366245D01*
X163043Y366161D01*
X163069Y366129D01*
X163080Y366108D01*
X163103Y366086D01*
X163148Y366030D01*
X215225Y313953D01*
X215225Y50047D01*
X213230Y48052D01*
X208303Y43126D01*
X208292Y43110D01*
X208276Y43097D01*
X208220Y43010D01*
X208160Y42926D01*
X208154Y42907D01*
X208143Y42890D01*
X208118Y42790D01*
X208087Y42691D01*
X208088Y42671D01*
X208083Y42652D01*
X208091Y42549D01*
X208094Y42445D01*
X208101Y42426D01*
X208102Y42407D01*
X208143Y42312D01*
X208178Y42214D01*
X208191Y42198D01*
X208199Y42180D01*
X208303Y42049D01*
X209953Y40400D01*
X211345Y37039D01*
X211345Y18161D01*
X209953Y14800D01*
X207883Y12730D01*
X207841Y12672D01*
X207792Y12620D01*
X207770Y12573D01*
X207739Y12531D01*
X207718Y12462D01*
X207688Y12397D01*
X207682Y12345D01*
X207667Y12295D01*
X207669Y12224D01*
X207661Y12153D01*
X207672Y12102D01*
X207673Y12050D01*
X207698Y11982D01*
X207713Y11912D01*
X207740Y11867D01*
X207758Y11819D01*
X207803Y11763D01*
X207839Y11701D01*
X207879Y11667D01*
X207911Y11627D01*
X207972Y11588D01*
X208026Y11541D01*
X208075Y11522D01*
X208118Y11494D01*
X208188Y11476D01*
X208254Y11449D01*
X208326Y11441D01*
X208357Y11433D01*
X208380Y11435D01*
X208421Y11431D01*
X219942Y11431D01*
X220013Y11442D01*
X220084Y11444D01*
X220133Y11462D01*
X220185Y11470D01*
X220248Y11504D01*
X220315Y11529D01*
X220356Y11561D01*
X220402Y11586D01*
X220451Y11637D01*
X220507Y11682D01*
X220536Y11726D01*
X220572Y11764D01*
X220602Y11829D01*
X220640Y11889D01*
X220653Y11940D01*
X220675Y11987D01*
X220683Y12058D01*
X220701Y12128D01*
X220696Y12180D01*
X220702Y12231D01*
X220687Y12302D01*
X220681Y12373D01*
X220661Y12421D01*
X220650Y12472D01*
X220613Y12533D01*
X220585Y12599D01*
X220540Y12655D01*
X220524Y12683D01*
X220506Y12698D01*
X220480Y12730D01*
X219850Y13361D01*
X218910Y14655D01*
X218184Y16080D01*
X217689Y17601D01*
X217439Y19180D01*
X217439Y26077D01*
X226838Y26077D01*
X226858Y26080D01*
X226877Y26078D01*
X226979Y26100D01*
X227081Y26117D01*
X227098Y26126D01*
X227118Y26130D01*
X227207Y26183D01*
X227298Y26232D01*
X227312Y26246D01*
X227329Y26256D01*
X227396Y26335D01*
X227467Y26410D01*
X227476Y26428D01*
X227489Y26443D01*
X227527Y26539D01*
X227571Y26633D01*
X227573Y26653D01*
X227581Y26671D01*
X227599Y26838D01*
X227599Y27601D01*
X227601Y27601D01*
X227601Y26838D01*
X227604Y26818D01*
X227602Y26799D01*
X227624Y26697D01*
X227641Y26595D01*
X227650Y26578D01*
X227654Y26558D01*
X227707Y26469D01*
X227756Y26378D01*
X227770Y26364D01*
X227780Y26347D01*
X227859Y26280D01*
X227934Y26209D01*
X227952Y26200D01*
X227967Y26187D01*
X228063Y26148D01*
X228157Y26105D01*
X228177Y26103D01*
X228195Y26095D01*
X228362Y26077D01*
X237761Y26077D01*
X237761Y19180D01*
X237511Y17601D01*
X237016Y16080D01*
X236290Y14655D01*
X235350Y13361D01*
X234720Y12730D01*
X234678Y12672D01*
X234628Y12620D01*
X234607Y12573D01*
X234576Y12531D01*
X234555Y12462D01*
X234525Y12397D01*
X234519Y12345D01*
X234504Y12295D01*
X234506Y12224D01*
X234498Y12153D01*
X234509Y12102D01*
X234510Y12050D01*
X234535Y11982D01*
X234550Y11912D01*
X234577Y11867D01*
X234595Y11819D01*
X234639Y11763D01*
X234676Y11701D01*
X234716Y11667D01*
X234748Y11627D01*
X234809Y11588D01*
X234863Y11541D01*
X234911Y11522D01*
X234955Y11494D01*
X235025Y11476D01*
X235091Y11449D01*
X235163Y11441D01*
X235194Y11433D01*
X235217Y11435D01*
X235258Y11431D01*
X593519Y11431D01*
X593622Y11448D01*
X593726Y11459D01*
X593744Y11467D01*
X593762Y11470D01*
X593854Y11519D01*
X593949Y11564D01*
X593963Y11577D01*
X593980Y11586D01*
X594051Y11661D01*
X594127Y11734D01*
X594136Y11750D01*
X594149Y11764D01*
X594193Y11859D01*
X594242Y11951D01*
X594245Y11970D01*
X594253Y11987D01*
X594264Y12091D01*
X594281Y12194D01*
X594278Y12213D01*
X594280Y12231D01*
X594257Y12333D01*
X594240Y12437D01*
X594231Y12453D01*
X594227Y12472D01*
X594174Y12561D01*
X594125Y12654D01*
X594109Y12671D01*
X594101Y12683D01*
X594077Y12704D01*
X594009Y12775D01*
X591261Y15081D01*
X585880Y24401D01*
X584011Y35000D01*
X585880Y45599D01*
X591261Y54919D01*
X599505Y61837D01*
X609619Y65518D01*
X620381Y65518D01*
X630495Y61837D01*
X637319Y56111D01*
X637352Y56091D01*
X637380Y56065D01*
X637457Y56029D01*
X637530Y55985D01*
X637568Y55977D01*
X637603Y55961D01*
X637687Y55952D01*
X637771Y55934D01*
X637809Y55938D01*
X637847Y55934D01*
X637930Y55952D01*
X638015Y55962D01*
X638050Y55978D01*
X638088Y55986D01*
X638161Y56030D01*
X638238Y56066D01*
X638266Y56093D01*
X638299Y56112D01*
X638354Y56177D01*
X638416Y56236D01*
X638434Y56270D01*
X638459Y56299D01*
X638491Y56378D01*
X638530Y56453D01*
X638536Y56492D01*
X638551Y56527D01*
X638569Y56694D01*
X638569Y503306D01*
X638563Y503344D01*
X638565Y503383D01*
X638543Y503465D01*
X638530Y503549D01*
X638511Y503583D01*
X638501Y503620D01*
X638454Y503691D01*
X638414Y503766D01*
X638386Y503792D01*
X638365Y503825D01*
X638298Y503877D01*
X638236Y503935D01*
X638201Y503952D01*
X638170Y503975D01*
X638090Y504003D01*
X638013Y504039D01*
X637975Y504043D01*
X637938Y504056D01*
X637853Y504057D01*
X637769Y504066D01*
X637731Y504058D01*
X637692Y504058D01*
X637611Y504032D01*
X637528Y504014D01*
X637495Y503994D01*
X637458Y503982D01*
X637319Y503889D01*
X630495Y498163D01*
X620381Y494482D01*
X609619Y494482D01*
X599505Y498163D01*
X591261Y505081D01*
X585880Y514401D01*
X584011Y525000D01*
X585880Y535599D01*
X591261Y544919D01*
X594009Y547225D01*
X594077Y547304D01*
X594149Y547380D01*
X594157Y547397D01*
X594169Y547411D01*
X594208Y547508D01*
X594253Y547603D01*
X594255Y547622D01*
X594262Y547639D01*
X594268Y547744D01*
X594280Y547847D01*
X594276Y547866D01*
X594277Y547885D01*
X594250Y547985D01*
X594227Y548088D01*
X594218Y548104D01*
X594213Y548122D01*
X594155Y548209D01*
X594101Y548299D01*
X594087Y548311D01*
X594076Y548327D01*
X593994Y548391D01*
X593914Y548459D01*
X593897Y548466D01*
X593882Y548477D01*
X593783Y548512D01*
X593686Y548551D01*
X593663Y548553D01*
X593649Y548558D01*
X593618Y548558D01*
X593519Y548569D01*
X139838Y548569D01*
X139767Y548558D01*
X139696Y548556D01*
X139647Y548538D01*
X139595Y548530D01*
X139532Y548496D01*
X139465Y548471D01*
X139424Y548439D01*
X139378Y548414D01*
X139328Y548362D01*
X139272Y548318D01*
X139244Y548274D01*
X139208Y548236D01*
X139178Y548171D01*
X139139Y548111D01*
X139127Y548060D01*
X139105Y548013D01*
X139097Y547942D01*
X139079Y547872D01*
X139083Y547820D01*
X139078Y547769D01*
X139093Y547698D01*
X139099Y547627D01*
X139119Y547579D01*
X139130Y547528D01*
X139167Y547467D01*
X139195Y547401D01*
X139240Y547345D01*
X139256Y547317D01*
X139274Y547302D01*
X139300Y547270D01*
X144661Y541909D01*
X144661Y539223D01*
X135262Y539223D01*
X135242Y539220D01*
X135223Y539222D01*
X135121Y539200D01*
X135019Y539183D01*
X135002Y539174D01*
X134982Y539170D01*
X134893Y539117D01*
X134802Y539068D01*
X134788Y539054D01*
X134771Y539044D01*
X134704Y538965D01*
X134633Y538890D01*
X134624Y538872D01*
X134611Y538857D01*
X134573Y538761D01*
X134529Y538667D01*
X134527Y538647D01*
X134519Y538629D01*
X134501Y538462D01*
X134501Y537699D01*
X134499Y537699D01*
X134499Y538462D01*
X134496Y538482D01*
X134498Y538501D01*
X134476Y538603D01*
X134459Y538705D01*
X134450Y538722D01*
X134446Y538742D01*
X134393Y538831D01*
X134344Y538922D01*
X134330Y538936D01*
X134320Y538953D01*
X134241Y539020D01*
X134166Y539091D01*
X134148Y539100D01*
X134133Y539113D01*
X134037Y539152D01*
X133943Y539195D01*
X133923Y539197D01*
X133905Y539205D01*
X133738Y539223D01*
X124339Y539223D01*
X124339Y541909D01*
X129700Y547270D01*
X129742Y547328D01*
X129792Y547380D01*
X129813Y547427D01*
X129844Y547469D01*
X129865Y547538D01*
X129895Y547603D01*
X129901Y547655D01*
X129916Y547705D01*
X129914Y547776D01*
X129922Y547847D01*
X129911Y547898D01*
X129910Y547950D01*
X129885Y548018D01*
X129870Y548088D01*
X129843Y548133D01*
X129825Y548181D01*
X129781Y548237D01*
X129744Y548299D01*
X129704Y548333D01*
X129672Y548373D01*
X129611Y548412D01*
X129557Y548459D01*
X129509Y548478D01*
X129465Y548506D01*
X129395Y548524D01*
X129329Y548551D01*
X129257Y548559D01*
X129226Y548567D01*
X129203Y548565D01*
X129162Y548569D01*
X56481Y548569D01*
X56378Y548552D01*
X56274Y548541D01*
X56256Y548533D01*
X56238Y548530D01*
X56146Y548481D01*
X56051Y548436D01*
X56037Y548423D01*
X56020Y548414D01*
X55949Y548339D01*
X55873Y548266D01*
X55864Y548250D01*
X55851Y548236D01*
X55807Y548141D01*
X55758Y548049D01*
X55755Y548030D01*
X55747Y548013D01*
X55736Y547909D01*
X55719Y547806D01*
X55722Y547787D01*
X55720Y547769D01*
X55743Y547667D01*
X55760Y547563D01*
X55769Y547547D01*
X55773Y547528D01*
X55826Y547439D01*
X55875Y547346D01*
X55891Y547329D01*
X55899Y547317D01*
X55923Y547296D01*
X55991Y547225D01*
X58739Y544919D01*
X64120Y535599D01*
X65989Y525000D01*
X64120Y514401D01*
X58739Y505081D01*
X50495Y498163D01*
X40381Y494482D01*
X29619Y494482D01*
X19505Y498163D01*
X12681Y503889D01*
X12648Y503909D01*
X12620Y503935D01*
X12543Y503971D01*
X12470Y504015D01*
X12432Y504023D01*
X12397Y504039D01*
X12313Y504048D01*
X12229Y504066D01*
X12191Y504062D01*
X12153Y504066D01*
X12070Y504048D01*
X11985Y504038D01*
X11950Y504022D01*
X11912Y504014D01*
X11839Y503970D01*
X11762Y503934D01*
X11734Y503907D01*
X11701Y503888D01*
X11646Y503823D01*
X11584Y503764D01*
X11566Y503730D01*
X11541Y503701D01*
X11509Y503622D01*
X11470Y503547D01*
X11464Y503508D01*
X11449Y503473D01*
X11431Y503306D01*
X11431Y154044D01*
X11438Y153999D01*
X11436Y153953D01*
X11458Y153878D01*
X11470Y153801D01*
X11492Y153760D01*
X11505Y153716D01*
X11549Y153652D01*
X11586Y153584D01*
X11619Y153552D01*
X11645Y153514D01*
X11708Y153468D01*
X11764Y153414D01*
X11806Y153395D01*
X11842Y153368D01*
X11916Y153343D01*
X11987Y153311D01*
X12033Y153306D01*
X12076Y153291D01*
X12154Y153292D01*
X12231Y153284D01*
X12276Y153293D01*
X12322Y153294D01*
X12454Y153332D01*
X12472Y153336D01*
X12476Y153338D01*
X12483Y153340D01*
X18085Y155661D01*
X24315Y155661D01*
X30071Y153277D01*
X34477Y148871D01*
X36861Y143115D01*
X36861Y136885D01*
X34477Y131129D01*
X30071Y126723D01*
X24315Y124339D01*
X18085Y124339D01*
X12483Y126660D01*
X12439Y126670D01*
X12397Y126689D01*
X12320Y126698D01*
X12244Y126716D01*
X12198Y126711D01*
X12153Y126716D01*
X12076Y126700D01*
X11999Y126693D01*
X11957Y126674D01*
X11912Y126664D01*
X11845Y126624D01*
X11774Y126593D01*
X11740Y126562D01*
X11701Y126538D01*
X11650Y126479D01*
X11593Y126426D01*
X11571Y126386D01*
X11541Y126351D01*
X11512Y126279D01*
X11475Y126211D01*
X11466Y126166D01*
X11449Y126123D01*
X11434Y125987D01*
X11431Y125969D01*
X11432Y125964D01*
X11431Y125956D01*
X11431Y56694D01*
X11437Y56656D01*
X11435Y56617D01*
X11457Y56535D01*
X11470Y56451D01*
X11489Y56417D01*
X11499Y56380D01*
X11546Y56309D01*
X11586Y56234D01*
X11614Y56208D01*
X11635Y56175D01*
X11702Y56123D01*
X11764Y56065D01*
X11799Y56048D01*
X11830Y56025D01*
X11910Y55997D01*
X11987Y55961D01*
X12025Y55957D01*
X12062Y55944D01*
X12147Y55943D01*
X12231Y55934D01*
X12269Y55942D01*
X12308Y55942D01*
X12389Y55968D01*
X12472Y55986D01*
X12505Y56006D01*
X12542Y56018D01*
X12681Y56111D01*
X19505Y61837D01*
X29619Y65518D01*
X40381Y65518D01*
X50495Y61837D01*
X58739Y54919D01*
X64120Y45599D01*
X65989Y35000D01*
X64120Y24401D01*
X58739Y15081D01*
X55991Y12775D01*
X55923Y12696D01*
X55851Y12620D01*
X55843Y12603D01*
X55831Y12589D01*
X55792Y12492D01*
X55747Y12397D01*
X55745Y12378D01*
X55738Y12361D01*
X55732Y12256D01*
X55720Y12153D01*
X55724Y12134D01*
X55723Y12115D01*
X55750Y12015D01*
X55773Y11912D01*
X55782Y11896D01*
X55787Y11878D01*
X55845Y11791D01*
X55899Y11701D01*
X55913Y11689D01*
X55924Y11673D01*
X56006Y11609D01*
X56086Y11541D01*
X56103Y11534D01*
X56118Y11523D01*
X56217Y11488D01*
X56314Y11449D01*
X56337Y11447D01*
X56351Y11442D01*
X56382Y11442D01*
X56481Y11431D01*
X119779Y11431D01*
X119850Y11442D01*
G37*
%LPC*%
G36*
X388707Y14723D02*
X388707Y14723D01*
X387621Y15173D01*
X387557Y15188D01*
X387496Y15213D01*
X387413Y15222D01*
X387381Y15229D01*
X387362Y15228D01*
X387329Y15231D01*
X376108Y15231D01*
X374054Y16082D01*
X372375Y17761D01*
X316680Y73456D01*
X316627Y73495D01*
X316580Y73541D01*
X316507Y73581D01*
X316480Y73600D01*
X316462Y73606D01*
X316433Y73621D01*
X315346Y74071D01*
X313631Y75786D01*
X313181Y76873D01*
X313147Y76929D01*
X313121Y76989D01*
X313069Y77054D01*
X313052Y77082D01*
X313037Y77095D01*
X313016Y77120D01*
X297961Y92175D01*
X296282Y93854D01*
X296135Y94209D01*
X296084Y94292D01*
X296038Y94378D01*
X296019Y94395D01*
X296006Y94418D01*
X295931Y94480D01*
X295860Y94547D01*
X295836Y94558D01*
X295816Y94575D01*
X295725Y94609D01*
X295637Y94651D01*
X295611Y94653D01*
X295587Y94663D01*
X295489Y94667D01*
X295393Y94678D01*
X295367Y94672D01*
X295341Y94673D01*
X295247Y94646D01*
X295152Y94625D01*
X295130Y94612D01*
X295105Y94605D01*
X295025Y94549D01*
X294941Y94499D01*
X294924Y94479D01*
X294903Y94464D01*
X294845Y94386D01*
X294781Y94312D01*
X294771Y94288D01*
X294756Y94267D01*
X294726Y94175D01*
X294689Y94084D01*
X294686Y94052D01*
X294680Y94033D01*
X294680Y94000D01*
X294671Y93917D01*
X294671Y57748D01*
X294685Y57658D01*
X294693Y57567D01*
X294705Y57537D01*
X294710Y57505D01*
X294753Y57424D01*
X294789Y57340D01*
X294815Y57308D01*
X294826Y57288D01*
X294849Y57265D01*
X294894Y57209D01*
X312505Y39598D01*
X312599Y39531D01*
X312694Y39460D01*
X312700Y39458D01*
X312705Y39455D01*
X312816Y39420D01*
X312927Y39384D01*
X312934Y39384D01*
X312940Y39382D01*
X313056Y39385D01*
X313173Y39387D01*
X313181Y39389D01*
X313186Y39389D01*
X313203Y39395D01*
X313334Y39433D01*
X313777Y39617D01*
X316203Y39617D01*
X318444Y38689D01*
X320159Y36974D01*
X321087Y34733D01*
X321087Y32307D01*
X320159Y30066D01*
X318444Y28351D01*
X316203Y27423D01*
X313777Y27423D01*
X311536Y28351D01*
X309821Y30066D01*
X308893Y32307D01*
X308893Y34733D01*
X309077Y35176D01*
X309103Y35289D01*
X309132Y35403D01*
X309131Y35409D01*
X309133Y35415D01*
X309122Y35530D01*
X309113Y35648D01*
X309110Y35654D01*
X309110Y35660D01*
X309062Y35767D01*
X309017Y35874D01*
X309012Y35880D01*
X309010Y35885D01*
X308997Y35898D01*
X308912Y36005D01*
X291301Y53616D01*
X290890Y54027D01*
X290832Y54068D01*
X290780Y54118D01*
X290733Y54140D01*
X290691Y54170D01*
X290622Y54191D01*
X290557Y54221D01*
X290505Y54227D01*
X290455Y54243D01*
X290384Y54241D01*
X290313Y54249D01*
X290262Y54237D01*
X290210Y54236D01*
X290142Y54212D01*
X290072Y54196D01*
X290027Y54170D01*
X289979Y54152D01*
X289923Y54107D01*
X289861Y54070D01*
X289827Y54031D01*
X289787Y53998D01*
X289748Y53938D01*
X289701Y53883D01*
X289682Y53835D01*
X289654Y53791D01*
X289636Y53722D01*
X289609Y53655D01*
X289601Y53584D01*
X289593Y53553D01*
X289595Y53529D01*
X289591Y53488D01*
X289591Y47588D01*
X289605Y47498D01*
X289613Y47407D01*
X289625Y47377D01*
X289630Y47345D01*
X289673Y47264D01*
X289709Y47180D01*
X289735Y47148D01*
X289746Y47128D01*
X289769Y47105D01*
X289814Y47049D01*
X298535Y38328D01*
X298629Y38261D01*
X298724Y38190D01*
X298730Y38188D01*
X298735Y38185D01*
X298846Y38150D01*
X298957Y38114D01*
X298964Y38114D01*
X298970Y38112D01*
X299086Y38115D01*
X299203Y38117D01*
X299211Y38119D01*
X299216Y38119D01*
X299233Y38125D01*
X299364Y38163D01*
X299807Y38347D01*
X302233Y38347D01*
X304474Y37419D01*
X306189Y35704D01*
X307117Y33463D01*
X307117Y31037D01*
X306189Y28796D01*
X304474Y27081D01*
X302233Y26153D01*
X299807Y26153D01*
X297566Y27081D01*
X295851Y28796D01*
X294923Y31037D01*
X294923Y33463D01*
X295107Y33906D01*
X295133Y34019D01*
X295162Y34133D01*
X295161Y34139D01*
X295163Y34145D01*
X295152Y34261D01*
X295143Y34378D01*
X295140Y34384D01*
X295140Y34390D01*
X295092Y34497D01*
X295047Y34604D01*
X295042Y34610D01*
X295040Y34615D01*
X295027Y34628D01*
X294942Y34735D01*
X286221Y43456D01*
X286220Y43456D01*
X284509Y45168D01*
X284509Y120297D01*
X335582Y171370D01*
X335649Y171464D01*
X335720Y171559D01*
X335722Y171565D01*
X335725Y171570D01*
X335760Y171681D01*
X335796Y171792D01*
X335796Y171799D01*
X335798Y171805D01*
X335795Y171921D01*
X335793Y172038D01*
X335791Y172046D01*
X335791Y172051D01*
X335785Y172068D01*
X335747Y172199D01*
X335563Y172642D01*
X335563Y175068D01*
X336491Y177309D01*
X338206Y179024D01*
X340447Y179952D01*
X342873Y179952D01*
X345114Y179024D01*
X346829Y177309D01*
X347757Y175068D01*
X347757Y172642D01*
X346829Y170401D01*
X345114Y168686D01*
X342873Y167758D01*
X340447Y167758D01*
X340004Y167942D01*
X339891Y167968D01*
X339777Y167997D01*
X339771Y167996D01*
X339765Y167998D01*
X339649Y167987D01*
X339532Y167978D01*
X339526Y167975D01*
X339520Y167975D01*
X339413Y167927D01*
X339306Y167882D01*
X339300Y167877D01*
X339295Y167875D01*
X339282Y167862D01*
X339175Y167777D01*
X319248Y147850D01*
X319207Y147792D01*
X319157Y147740D01*
X319135Y147693D01*
X319105Y147651D01*
X319084Y147582D01*
X319054Y147517D01*
X319048Y147465D01*
X319032Y147415D01*
X319034Y147344D01*
X319026Y147273D01*
X319038Y147222D01*
X319039Y147170D01*
X319063Y147102D01*
X319079Y147032D01*
X319105Y146988D01*
X319123Y146939D01*
X319168Y146883D01*
X319205Y146821D01*
X319244Y146787D01*
X319277Y146747D01*
X319337Y146708D01*
X319392Y146661D01*
X319440Y146642D01*
X319484Y146614D01*
X319553Y146596D01*
X319620Y146569D01*
X319691Y146561D01*
X319722Y146553D01*
X319746Y146555D01*
X319787Y146551D01*
X355925Y146551D01*
X356039Y146570D01*
X356156Y146587D01*
X356161Y146589D01*
X356167Y146590D01*
X356270Y146645D01*
X356375Y146698D01*
X356379Y146703D01*
X356385Y146706D01*
X356465Y146790D01*
X356547Y146874D01*
X356551Y146880D01*
X356554Y146884D01*
X356562Y146901D01*
X356628Y147021D01*
X356811Y147464D01*
X358526Y149179D01*
X360767Y150107D01*
X363193Y150107D01*
X365434Y149179D01*
X367149Y147464D01*
X368077Y145223D01*
X368077Y142797D01*
X367149Y140556D01*
X365434Y138841D01*
X363193Y137913D01*
X360767Y137913D01*
X358526Y138841D01*
X356811Y140556D01*
X356628Y140999D01*
X356566Y141099D01*
X356506Y141199D01*
X356502Y141203D01*
X356498Y141208D01*
X356408Y141283D01*
X356320Y141359D01*
X356314Y141361D01*
X356309Y141365D01*
X356201Y141407D01*
X356091Y141451D01*
X356084Y141452D01*
X356079Y141453D01*
X356061Y141454D01*
X355925Y141469D01*
X321438Y141469D01*
X321348Y141455D01*
X321257Y141447D01*
X321227Y141435D01*
X321195Y141430D01*
X321114Y141387D01*
X321030Y141351D01*
X320998Y141325D01*
X320978Y141314D01*
X320955Y141291D01*
X320899Y141246D01*
X299944Y120291D01*
X299903Y120233D01*
X299853Y120181D01*
X299831Y120134D01*
X299801Y120092D01*
X299780Y120023D01*
X299750Y119958D01*
X299744Y119906D01*
X299728Y119856D01*
X299730Y119785D01*
X299722Y119714D01*
X299734Y119663D01*
X299735Y119611D01*
X299759Y119543D01*
X299775Y119473D01*
X299801Y119428D01*
X299819Y119380D01*
X299864Y119324D01*
X299901Y119262D01*
X299940Y119228D01*
X299973Y119188D01*
X300033Y119149D01*
X300088Y119102D01*
X300136Y119083D01*
X300180Y119055D01*
X300249Y119037D01*
X300316Y119010D01*
X300387Y119002D01*
X300418Y118994D01*
X300442Y118996D01*
X300483Y118992D01*
X302233Y118992D01*
X304474Y118064D01*
X306189Y116349D01*
X307117Y114108D01*
X307117Y111682D01*
X306667Y110596D01*
X306652Y110532D01*
X306627Y110471D01*
X306618Y110388D01*
X306611Y110356D01*
X306612Y110337D01*
X306609Y110304D01*
X306609Y99650D01*
X306623Y99560D01*
X306631Y99469D01*
X306643Y99439D01*
X306648Y99408D01*
X306691Y99327D01*
X306727Y99243D01*
X306753Y99211D01*
X306764Y99190D01*
X306787Y99168D01*
X306832Y99112D01*
X320920Y85024D01*
X320973Y84985D01*
X321020Y84939D01*
X321093Y84899D01*
X321120Y84880D01*
X321138Y84874D01*
X321167Y84859D01*
X322254Y84409D01*
X323969Y82694D01*
X324419Y81607D01*
X324453Y81551D01*
X324479Y81491D01*
X324531Y81426D01*
X324548Y81398D01*
X324563Y81385D01*
X324584Y81360D01*
X379312Y26632D01*
X379386Y26579D01*
X379455Y26519D01*
X379486Y26507D01*
X379512Y26488D01*
X379599Y26461D01*
X379684Y26427D01*
X379724Y26423D01*
X379747Y26416D01*
X379779Y26417D01*
X379850Y26409D01*
X387329Y26409D01*
X387394Y26419D01*
X387460Y26420D01*
X387540Y26443D01*
X387572Y26448D01*
X387589Y26458D01*
X387621Y26467D01*
X388707Y26917D01*
X391133Y26917D01*
X392219Y26467D01*
X392283Y26452D01*
X392344Y26427D01*
X392427Y26418D01*
X392459Y26411D01*
X392478Y26412D01*
X392511Y26409D01*
X394910Y26409D01*
X395000Y26423D01*
X395091Y26431D01*
X395121Y26443D01*
X395152Y26448D01*
X395233Y26491D01*
X395317Y26527D01*
X395349Y26553D01*
X395370Y26564D01*
X395392Y26587D01*
X395448Y26632D01*
X401888Y33072D01*
X401941Y33146D01*
X402001Y33215D01*
X402013Y33246D01*
X402032Y33272D01*
X402059Y33359D01*
X402093Y33444D01*
X402097Y33484D01*
X402104Y33507D01*
X402103Y33539D01*
X402111Y33610D01*
X402111Y88080D01*
X402096Y88176D01*
X402086Y88273D01*
X402076Y88297D01*
X402072Y88322D01*
X402026Y88408D01*
X401986Y88497D01*
X401969Y88517D01*
X401956Y88540D01*
X401886Y88607D01*
X401820Y88678D01*
X401797Y88691D01*
X401778Y88709D01*
X401690Y88750D01*
X401604Y88797D01*
X401579Y88802D01*
X401555Y88813D01*
X401458Y88823D01*
X401362Y88841D01*
X401336Y88837D01*
X401311Y88840D01*
X401215Y88819D01*
X401119Y88805D01*
X401096Y88793D01*
X401070Y88788D01*
X400987Y88738D01*
X400900Y88693D01*
X400881Y88675D01*
X400859Y88661D01*
X400796Y88587D01*
X400728Y88518D01*
X400712Y88489D01*
X400699Y88474D01*
X400687Y88444D01*
X400647Y88371D01*
X400169Y87216D01*
X398454Y85501D01*
X396213Y84573D01*
X393787Y84573D01*
X391546Y85501D01*
X389831Y87216D01*
X388903Y89457D01*
X388903Y91883D01*
X389831Y94124D01*
X391546Y95839D01*
X391989Y96022D01*
X392089Y96084D01*
X392189Y96144D01*
X392193Y96148D01*
X392198Y96152D01*
X392273Y96242D01*
X392349Y96330D01*
X392351Y96336D01*
X392355Y96341D01*
X392397Y96449D01*
X392441Y96559D01*
X392442Y96566D01*
X392443Y96571D01*
X392444Y96589D01*
X392459Y96725D01*
X392459Y135415D01*
X392440Y135529D01*
X392423Y135646D01*
X392421Y135651D01*
X392420Y135657D01*
X392365Y135760D01*
X392312Y135865D01*
X392307Y135869D01*
X392304Y135875D01*
X392220Y135955D01*
X392136Y136037D01*
X392130Y136041D01*
X392126Y136044D01*
X392109Y136052D01*
X391989Y136118D01*
X391546Y136301D01*
X389831Y138016D01*
X388903Y140257D01*
X388903Y142683D01*
X389831Y144924D01*
X391546Y146639D01*
X393787Y147567D01*
X396213Y147567D01*
X398454Y146639D01*
X400169Y144924D01*
X400647Y143769D01*
X400698Y143686D01*
X400744Y143600D01*
X400762Y143582D01*
X400776Y143560D01*
X400852Y143498D01*
X400922Y143431D01*
X400946Y143420D01*
X400966Y143403D01*
X401057Y143368D01*
X401145Y143327D01*
X401171Y143324D01*
X401195Y143315D01*
X401293Y143311D01*
X401389Y143300D01*
X401415Y143306D01*
X401441Y143305D01*
X401535Y143332D01*
X401630Y143352D01*
X401652Y143366D01*
X401677Y143373D01*
X401757Y143429D01*
X401841Y143479D01*
X401858Y143498D01*
X401879Y143513D01*
X401938Y143592D01*
X402001Y143666D01*
X402011Y143690D01*
X402026Y143711D01*
X402056Y143803D01*
X402093Y143894D01*
X402096Y143926D01*
X402102Y143945D01*
X402102Y143978D01*
X402111Y144060D01*
X402111Y230212D01*
X402962Y232266D01*
X408398Y237702D01*
X408410Y237718D01*
X408426Y237731D01*
X408482Y237818D01*
X408542Y237902D01*
X408548Y237921D01*
X408559Y237938D01*
X408584Y238038D01*
X408614Y238137D01*
X408614Y238157D01*
X408619Y238176D01*
X408611Y238279D01*
X408608Y238383D01*
X408601Y238401D01*
X408599Y238421D01*
X408559Y238516D01*
X408523Y238614D01*
X408511Y238629D01*
X408503Y238648D01*
X408398Y238779D01*
X397981Y249196D01*
X397907Y249249D01*
X397837Y249309D01*
X397807Y249321D01*
X397781Y249340D01*
X397694Y249367D01*
X397609Y249401D01*
X397568Y249405D01*
X397546Y249412D01*
X397514Y249411D01*
X397442Y249419D01*
X317235Y249419D01*
X317121Y249400D01*
X317004Y249383D01*
X316999Y249381D01*
X316993Y249380D01*
X316890Y249325D01*
X316785Y249272D01*
X316781Y249267D01*
X316775Y249264D01*
X316695Y249180D01*
X316613Y249096D01*
X316609Y249090D01*
X316606Y249086D01*
X316598Y249069D01*
X316532Y248949D01*
X316349Y248506D01*
X314634Y246791D01*
X312393Y245863D01*
X309967Y245863D01*
X307726Y246791D01*
X306011Y248506D01*
X305083Y250747D01*
X305083Y253173D01*
X306011Y255414D01*
X307726Y257129D01*
X309967Y258057D01*
X312393Y258057D01*
X314634Y257129D01*
X316349Y255414D01*
X316532Y254971D01*
X316594Y254871D01*
X316654Y254771D01*
X316658Y254767D01*
X316662Y254762D01*
X316752Y254687D01*
X316840Y254611D01*
X316846Y254609D01*
X316851Y254605D01*
X316959Y254563D01*
X317069Y254519D01*
X317076Y254518D01*
X317081Y254517D01*
X317099Y254516D01*
X317235Y254501D01*
X399862Y254501D01*
X411991Y242372D01*
X412008Y242360D01*
X412020Y242345D01*
X412107Y242288D01*
X412191Y242228D01*
X412210Y242222D01*
X412227Y242212D01*
X412328Y242186D01*
X412426Y242156D01*
X412446Y242156D01*
X412466Y242151D01*
X412568Y242159D01*
X412672Y242162D01*
X412691Y242169D01*
X412711Y242171D01*
X412805Y242211D01*
X412903Y242247D01*
X412919Y242259D01*
X412937Y242267D01*
X413068Y242372D01*
X427379Y256683D01*
X427436Y256762D01*
X427498Y256837D01*
X427508Y256862D01*
X427523Y256883D01*
X427552Y256976D01*
X427586Y257067D01*
X427588Y257093D01*
X427595Y257118D01*
X427593Y257215D01*
X427597Y257313D01*
X427590Y257338D01*
X427589Y257364D01*
X427555Y257455D01*
X427528Y257549D01*
X427513Y257570D01*
X427504Y257595D01*
X427444Y257671D01*
X427388Y257751D01*
X427367Y257766D01*
X427351Y257787D01*
X427269Y257839D01*
X427191Y257898D01*
X427166Y257906D01*
X427144Y257920D01*
X427049Y257944D01*
X426957Y257974D01*
X426931Y257974D01*
X426905Y257980D01*
X426808Y257972D01*
X426711Y257971D01*
X426679Y257962D01*
X426660Y257961D01*
X426630Y257948D01*
X426550Y257925D01*
X422573Y256277D01*
X418227Y256277D01*
X414213Y257940D01*
X411140Y261013D01*
X409477Y265027D01*
X409477Y269373D01*
X411140Y273387D01*
X414213Y276460D01*
X416905Y277575D01*
X417005Y277637D01*
X417105Y277697D01*
X417109Y277701D01*
X417114Y277705D01*
X417189Y277794D01*
X417265Y277884D01*
X417267Y277889D01*
X417271Y277894D01*
X417313Y278002D01*
X417357Y278112D01*
X417358Y278119D01*
X417359Y278124D01*
X417360Y278142D01*
X417375Y278278D01*
X417375Y295053D01*
X457170Y334848D01*
X457223Y334922D01*
X457283Y334991D01*
X457295Y335021D01*
X457314Y335048D01*
X457341Y335135D01*
X457375Y335219D01*
X457379Y335260D01*
X457386Y335283D01*
X457385Y335315D01*
X457393Y335386D01*
X457393Y337798D01*
X460502Y340907D01*
X464898Y340907D01*
X468007Y337798D01*
X468007Y333402D01*
X464898Y330293D01*
X461486Y330293D01*
X461396Y330279D01*
X461305Y330271D01*
X461275Y330259D01*
X461243Y330254D01*
X461163Y330211D01*
X461079Y330175D01*
X461047Y330149D01*
X461026Y330138D01*
X461004Y330115D01*
X460948Y330070D01*
X423648Y292770D01*
X423595Y292696D01*
X423535Y292627D01*
X423523Y292597D01*
X423504Y292570D01*
X423477Y292483D01*
X423443Y292399D01*
X423439Y292358D01*
X423432Y292335D01*
X423433Y292303D01*
X423425Y292232D01*
X423425Y278278D01*
X423444Y278164D01*
X423461Y278048D01*
X423463Y278042D01*
X423464Y278036D01*
X423519Y277933D01*
X423572Y277828D01*
X423577Y277824D01*
X423580Y277818D01*
X423664Y277738D01*
X423748Y277656D01*
X423754Y277652D01*
X423758Y277649D01*
X423775Y277641D01*
X423895Y277575D01*
X426587Y276460D01*
X429660Y273387D01*
X431323Y269373D01*
X431323Y265027D01*
X429675Y261050D01*
X429653Y260955D01*
X429624Y260862D01*
X429625Y260836D01*
X429619Y260811D01*
X429628Y260714D01*
X429631Y260616D01*
X429640Y260592D01*
X429642Y260566D01*
X429682Y260477D01*
X429715Y260385D01*
X429732Y260365D01*
X429742Y260341D01*
X429808Y260269D01*
X429869Y260193D01*
X429891Y260179D01*
X429909Y260160D01*
X429994Y260113D01*
X430076Y260060D01*
X430101Y260054D01*
X430124Y260041D01*
X430220Y260024D01*
X430314Y260000D01*
X430340Y260002D01*
X430366Y259998D01*
X430463Y260012D01*
X430560Y260019D01*
X430584Y260030D01*
X430610Y260034D01*
X430697Y260078D01*
X430786Y260116D01*
X430811Y260136D01*
X430829Y260145D01*
X430852Y260169D01*
X430917Y260221D01*
X434766Y264069D01*
X434833Y264164D01*
X434903Y264258D01*
X434905Y264264D01*
X434909Y264269D01*
X434943Y264380D01*
X434980Y264492D01*
X434980Y264498D01*
X434981Y264504D01*
X434978Y264621D01*
X434977Y264738D01*
X434975Y264745D01*
X434975Y264750D01*
X434969Y264767D01*
X434931Y264899D01*
X434877Y265027D01*
X434877Y269373D01*
X436540Y273387D01*
X439613Y276460D01*
X443627Y278123D01*
X447973Y278123D01*
X451987Y276460D01*
X455060Y273387D01*
X456723Y269373D01*
X456723Y265027D01*
X455060Y261013D01*
X451987Y257940D01*
X447973Y256277D01*
X443627Y256277D01*
X443499Y256331D01*
X443385Y256357D01*
X443272Y256386D01*
X443265Y256385D01*
X443259Y256387D01*
X443143Y256376D01*
X443026Y256367D01*
X443021Y256364D01*
X443014Y256364D01*
X442908Y256316D01*
X442800Y256270D01*
X442794Y256266D01*
X442790Y256264D01*
X442776Y256251D01*
X442669Y256166D01*
X417744Y231240D01*
X413512Y227008D01*
X413459Y226934D01*
X413399Y226865D01*
X413387Y226834D01*
X413368Y226808D01*
X413341Y226721D01*
X413307Y226636D01*
X413303Y226596D01*
X413296Y226573D01*
X413297Y226541D01*
X413289Y226470D01*
X413289Y29868D01*
X412438Y27814D01*
X400706Y16082D01*
X398652Y15231D01*
X392511Y15231D01*
X392446Y15221D01*
X392380Y15220D01*
X392300Y15197D01*
X392268Y15192D01*
X392251Y15182D01*
X392219Y15173D01*
X391133Y14723D01*
X388707Y14723D01*
G37*
%LPD*%
%LPC*%
G36*
X82102Y60593D02*
X82102Y60593D01*
X78993Y63702D01*
X78993Y68098D01*
X81052Y70157D01*
X81105Y70231D01*
X81165Y70301D01*
X81177Y70331D01*
X81196Y70357D01*
X81223Y70444D01*
X81257Y70529D01*
X81261Y70570D01*
X81268Y70592D01*
X81267Y70624D01*
X81275Y70695D01*
X81275Y121153D01*
X83992Y123870D01*
X84717Y124595D01*
X84744Y124632D01*
X84778Y124663D01*
X84815Y124731D01*
X84861Y124795D01*
X84874Y124838D01*
X84896Y124879D01*
X84910Y124955D01*
X84933Y125030D01*
X84932Y125076D01*
X84940Y125121D01*
X84929Y125198D01*
X84927Y125276D01*
X84911Y125319D01*
X84904Y125364D01*
X84869Y125433D01*
X84842Y125507D01*
X84814Y125542D01*
X84793Y125583D01*
X84737Y125638D01*
X84689Y125699D01*
X84650Y125723D01*
X84617Y125756D01*
X84498Y125821D01*
X84482Y125832D01*
X84477Y125833D01*
X84470Y125836D01*
X82329Y126723D01*
X77923Y131129D01*
X75539Y136885D01*
X75539Y143115D01*
X77923Y148871D01*
X82329Y153277D01*
X88085Y155661D01*
X94315Y155661D01*
X100071Y153277D01*
X104376Y148972D01*
X104434Y148930D01*
X104486Y148881D01*
X104533Y148859D01*
X104575Y148828D01*
X104644Y148807D01*
X104709Y148777D01*
X104761Y148771D01*
X104811Y148756D01*
X104882Y148758D01*
X104953Y148750D01*
X105004Y148761D01*
X105056Y148762D01*
X105124Y148787D01*
X105194Y148802D01*
X105239Y148829D01*
X105287Y148847D01*
X105343Y148892D01*
X105405Y148928D01*
X105439Y148968D01*
X105479Y149001D01*
X105518Y149061D01*
X105565Y149115D01*
X105584Y149164D01*
X105612Y149207D01*
X105630Y149277D01*
X105657Y149343D01*
X105665Y149415D01*
X105673Y149446D01*
X105671Y149469D01*
X105675Y149510D01*
X105675Y162253D01*
X105757Y162335D01*
X105769Y162351D01*
X105785Y162364D01*
X105841Y162451D01*
X105901Y162535D01*
X105907Y162554D01*
X105918Y162571D01*
X105943Y162671D01*
X105973Y162770D01*
X105973Y162790D01*
X105978Y162809D01*
X105970Y162912D01*
X105967Y163016D01*
X105960Y163035D01*
X105959Y163054D01*
X105918Y163149D01*
X105882Y163247D01*
X105870Y163262D01*
X105862Y163281D01*
X105757Y163412D01*
X104671Y164498D01*
X103595Y167095D01*
X103595Y169905D01*
X104671Y172502D01*
X106658Y174489D01*
X109255Y175565D01*
X118672Y175565D01*
X118762Y175579D01*
X118853Y175587D01*
X118883Y175599D01*
X118915Y175604D01*
X118995Y175647D01*
X119079Y175683D01*
X119111Y175709D01*
X119132Y175720D01*
X119154Y175743D01*
X119210Y175788D01*
X194252Y250830D01*
X194305Y250904D01*
X194365Y250973D01*
X194377Y251003D01*
X194396Y251030D01*
X194423Y251117D01*
X194457Y251201D01*
X194461Y251242D01*
X194468Y251265D01*
X194467Y251297D01*
X194475Y251368D01*
X194475Y286305D01*
X194461Y286395D01*
X194453Y286486D01*
X194441Y286515D01*
X194436Y286547D01*
X194393Y286628D01*
X194357Y286712D01*
X194331Y286744D01*
X194320Y286765D01*
X194297Y286787D01*
X194252Y286843D01*
X192193Y288902D01*
X192193Y293298D01*
X195302Y296407D01*
X199698Y296407D01*
X202807Y293298D01*
X202807Y288902D01*
X200748Y286843D01*
X200695Y286769D01*
X200635Y286699D01*
X200623Y286669D01*
X200604Y286643D01*
X200577Y286556D01*
X200543Y286471D01*
X200539Y286430D01*
X200532Y286408D01*
X200533Y286376D01*
X200525Y286305D01*
X200525Y248547D01*
X126643Y174665D01*
X126631Y174649D01*
X126615Y174636D01*
X126559Y174549D01*
X126499Y174465D01*
X126493Y174446D01*
X126482Y174429D01*
X126457Y174329D01*
X126427Y174230D01*
X126427Y174210D01*
X126422Y174191D01*
X126430Y174088D01*
X126433Y173984D01*
X126440Y173965D01*
X126441Y173946D01*
X126482Y173851D01*
X126518Y173753D01*
X126530Y173738D01*
X126538Y173719D01*
X126643Y173588D01*
X127729Y172502D01*
X128805Y169905D01*
X128805Y167095D01*
X127729Y164498D01*
X125742Y162511D01*
X123145Y161435D01*
X113728Y161435D01*
X113638Y161421D01*
X113547Y161413D01*
X113517Y161401D01*
X113485Y161396D01*
X113405Y161353D01*
X113321Y161317D01*
X113289Y161291D01*
X113268Y161280D01*
X113246Y161257D01*
X113190Y161212D01*
X111948Y159970D01*
X111895Y159896D01*
X111835Y159827D01*
X111823Y159797D01*
X111804Y159770D01*
X111777Y159683D01*
X111743Y159599D01*
X111739Y159558D01*
X111732Y159535D01*
X111733Y159503D01*
X111725Y159432D01*
X111725Y131947D01*
X109839Y130061D01*
X109829Y130057D01*
X109797Y130031D01*
X109776Y130020D01*
X109754Y129997D01*
X109698Y129952D01*
X99561Y119815D01*
X88808Y119815D01*
X88718Y119801D01*
X88627Y119793D01*
X88597Y119781D01*
X88565Y119776D01*
X88485Y119733D01*
X88401Y119697D01*
X88369Y119671D01*
X88348Y119660D01*
X88326Y119637D01*
X88270Y119592D01*
X87548Y118870D01*
X87495Y118796D01*
X87435Y118727D01*
X87423Y118697D01*
X87404Y118670D01*
X87377Y118583D01*
X87343Y118499D01*
X87339Y118458D01*
X87332Y118435D01*
X87333Y118403D01*
X87325Y118332D01*
X87325Y70695D01*
X87339Y70605D01*
X87347Y70514D01*
X87359Y70485D01*
X87364Y70453D01*
X87407Y70372D01*
X87443Y70288D01*
X87469Y70256D01*
X87480Y70235D01*
X87503Y70213D01*
X87548Y70157D01*
X89607Y68098D01*
X89607Y63702D01*
X86498Y60593D01*
X82102Y60593D01*
G37*
%LPD*%
%LPC*%
G36*
X485227Y68063D02*
X485227Y68063D01*
X482986Y68991D01*
X481271Y70706D01*
X480343Y72947D01*
X480343Y74911D01*
X480329Y75002D01*
X480321Y75092D01*
X480309Y75122D01*
X480304Y75154D01*
X480261Y75235D01*
X480225Y75319D01*
X480199Y75351D01*
X480188Y75372D01*
X480165Y75394D01*
X480120Y75450D01*
X459790Y95780D01*
X459716Y95833D01*
X459646Y95893D01*
X459616Y95905D01*
X459590Y95924D01*
X459503Y95951D01*
X459418Y95985D01*
X459377Y95989D01*
X459355Y95996D01*
X459323Y95995D01*
X459251Y96003D01*
X457287Y96003D01*
X455046Y96931D01*
X453331Y98646D01*
X452403Y100887D01*
X452403Y103313D01*
X453331Y105554D01*
X455046Y107269D01*
X457287Y108197D01*
X459168Y108197D01*
X459188Y108200D01*
X459207Y108198D01*
X459309Y108220D01*
X459411Y108236D01*
X459428Y108246D01*
X459448Y108250D01*
X459537Y108303D01*
X459628Y108352D01*
X459642Y108366D01*
X459659Y108376D01*
X459726Y108455D01*
X459798Y108530D01*
X459806Y108548D01*
X459819Y108563D01*
X459858Y108659D01*
X459901Y108753D01*
X459903Y108773D01*
X459911Y108791D01*
X459929Y108958D01*
X459929Y112050D01*
X462999Y119460D01*
X468670Y125131D01*
X476080Y128201D01*
X484100Y128201D01*
X491510Y125131D01*
X497181Y119460D01*
X500251Y112050D01*
X500251Y104030D01*
X497181Y96620D01*
X491510Y90949D01*
X484100Y87879D01*
X479589Y87879D01*
X479518Y87868D01*
X479446Y87866D01*
X479397Y87848D01*
X479346Y87840D01*
X479282Y87806D01*
X479215Y87781D01*
X479174Y87749D01*
X479128Y87724D01*
X479079Y87672D01*
X479023Y87628D01*
X478995Y87584D01*
X478959Y87546D01*
X478929Y87481D01*
X478890Y87421D01*
X478877Y87370D01*
X478855Y87323D01*
X478847Y87252D01*
X478830Y87182D01*
X478834Y87130D01*
X478828Y87079D01*
X478844Y87008D01*
X478849Y86937D01*
X478869Y86889D01*
X478881Y86838D01*
X478917Y86777D01*
X478945Y86711D01*
X478990Y86655D01*
X479007Y86627D01*
X479025Y86612D01*
X479050Y86580D01*
X485150Y80480D01*
X485224Y80427D01*
X485294Y80367D01*
X485324Y80355D01*
X485350Y80336D01*
X485437Y80309D01*
X485522Y80275D01*
X485563Y80271D01*
X485585Y80264D01*
X485617Y80265D01*
X485689Y80257D01*
X487653Y80257D01*
X489894Y79329D01*
X491609Y77614D01*
X492537Y75373D01*
X492537Y72947D01*
X491609Y70706D01*
X489894Y68991D01*
X487653Y68063D01*
X485227Y68063D01*
G37*
%LPD*%
%LPC*%
G36*
X406802Y332293D02*
X406802Y332293D01*
X403693Y335402D01*
X403693Y338314D01*
X403679Y338404D01*
X403671Y338495D01*
X403659Y338525D01*
X403654Y338557D01*
X403611Y338637D01*
X403575Y338721D01*
X403549Y338753D01*
X403538Y338774D01*
X403515Y338796D01*
X403470Y338852D01*
X309275Y433047D01*
X309275Y502394D01*
X309272Y502414D01*
X309274Y502433D01*
X309252Y502535D01*
X309236Y502637D01*
X309226Y502654D01*
X309222Y502674D01*
X309169Y502763D01*
X309120Y502854D01*
X309106Y502868D01*
X309096Y502885D01*
X309017Y502952D01*
X308942Y503024D01*
X308924Y503032D01*
X308909Y503045D01*
X308813Y503084D01*
X308719Y503127D01*
X308699Y503129D01*
X308681Y503137D01*
X308514Y503155D01*
X308512Y503155D01*
X303155Y508512D01*
X303155Y516088D01*
X308512Y521445D01*
X316088Y521445D01*
X321445Y516088D01*
X321445Y508512D01*
X316088Y503155D01*
X316086Y503155D01*
X316066Y503152D01*
X316047Y503154D01*
X315945Y503132D01*
X315843Y503116D01*
X315826Y503106D01*
X315806Y503102D01*
X315717Y503049D01*
X315626Y503000D01*
X315612Y502986D01*
X315595Y502976D01*
X315528Y502897D01*
X315456Y502822D01*
X315448Y502804D01*
X315435Y502789D01*
X315396Y502693D01*
X315353Y502599D01*
X315351Y502579D01*
X315343Y502561D01*
X315325Y502394D01*
X315325Y435868D01*
X315339Y435778D01*
X315347Y435687D01*
X315359Y435657D01*
X315364Y435625D01*
X315407Y435545D01*
X315443Y435461D01*
X315469Y435429D01*
X315480Y435408D01*
X315503Y435386D01*
X315548Y435330D01*
X407748Y343130D01*
X407822Y343077D01*
X407891Y343017D01*
X407921Y343005D01*
X407948Y342986D01*
X408035Y342959D01*
X408119Y342925D01*
X408160Y342921D01*
X408183Y342914D01*
X408215Y342915D01*
X408286Y342907D01*
X411198Y342907D01*
X414307Y339798D01*
X414307Y335402D01*
X411198Y332293D01*
X406802Y332293D01*
G37*
%LPD*%
%LPC*%
G36*
X444302Y329393D02*
X444302Y329393D01*
X441193Y332502D01*
X441193Y336898D01*
X443252Y338957D01*
X443305Y339031D01*
X443365Y339101D01*
X443377Y339131D01*
X443396Y339157D01*
X443423Y339244D01*
X443457Y339329D01*
X443461Y339370D01*
X443468Y339392D01*
X443467Y339424D01*
X443475Y339495D01*
X443475Y346632D01*
X443461Y346722D01*
X443453Y346813D01*
X443441Y346843D01*
X443436Y346875D01*
X443393Y346955D01*
X443357Y347039D01*
X443331Y347071D01*
X443320Y347092D01*
X443297Y347114D01*
X443252Y347170D01*
X360075Y430347D01*
X360075Y502394D01*
X360072Y502414D01*
X360074Y502433D01*
X360052Y502535D01*
X360036Y502637D01*
X360026Y502654D01*
X360022Y502674D01*
X359969Y502763D01*
X359920Y502854D01*
X359906Y502868D01*
X359896Y502885D01*
X359817Y502952D01*
X359742Y503024D01*
X359724Y503032D01*
X359709Y503045D01*
X359613Y503084D01*
X359519Y503127D01*
X359499Y503129D01*
X359481Y503137D01*
X359314Y503155D01*
X359312Y503155D01*
X353955Y508512D01*
X353955Y516088D01*
X359312Y521445D01*
X366888Y521445D01*
X372245Y516088D01*
X372245Y508512D01*
X366888Y503155D01*
X366886Y503155D01*
X366866Y503152D01*
X366847Y503154D01*
X366745Y503132D01*
X366643Y503116D01*
X366626Y503106D01*
X366606Y503102D01*
X366517Y503049D01*
X366426Y503000D01*
X366412Y502986D01*
X366395Y502976D01*
X366328Y502897D01*
X366256Y502822D01*
X366248Y502804D01*
X366235Y502789D01*
X366196Y502693D01*
X366153Y502599D01*
X366151Y502579D01*
X366143Y502561D01*
X366125Y502394D01*
X366125Y433168D01*
X366131Y433128D01*
X366131Y433124D01*
X366136Y433100D01*
X366139Y433078D01*
X366147Y432987D01*
X366159Y432957D01*
X366164Y432925D01*
X366180Y432895D01*
X366183Y432883D01*
X366210Y432838D01*
X366243Y432761D01*
X366269Y432729D01*
X366280Y432708D01*
X366299Y432690D01*
X366309Y432672D01*
X366324Y432660D01*
X366348Y432630D01*
X449525Y349453D01*
X449525Y339495D01*
X449539Y339405D01*
X449547Y339314D01*
X449559Y339285D01*
X449564Y339253D01*
X449607Y339172D01*
X449643Y339088D01*
X449669Y339056D01*
X449680Y339035D01*
X449703Y339013D01*
X449748Y338957D01*
X451807Y336898D01*
X451807Y332502D01*
X448698Y329393D01*
X444302Y329393D01*
G37*
%LPD*%
%LPC*%
G36*
X428102Y339693D02*
X428102Y339693D01*
X424993Y342802D01*
X424993Y344914D01*
X424979Y345004D01*
X424971Y345095D01*
X424959Y345125D01*
X424954Y345157D01*
X424911Y345237D01*
X424875Y345321D01*
X424849Y345353D01*
X424838Y345374D01*
X424815Y345396D01*
X424770Y345452D01*
X334175Y436047D01*
X334175Y438553D01*
X334452Y438830D01*
X334505Y438904D01*
X334565Y438973D01*
X334577Y439003D01*
X334596Y439030D01*
X334623Y439117D01*
X334657Y439201D01*
X334661Y439242D01*
X334668Y439265D01*
X334667Y439297D01*
X334675Y439368D01*
X334675Y502394D01*
X334672Y502414D01*
X334674Y502433D01*
X334652Y502535D01*
X334636Y502637D01*
X334626Y502654D01*
X334622Y502674D01*
X334569Y502763D01*
X334520Y502854D01*
X334506Y502868D01*
X334496Y502885D01*
X334417Y502952D01*
X334342Y503024D01*
X334324Y503032D01*
X334309Y503045D01*
X334213Y503084D01*
X334119Y503127D01*
X334099Y503129D01*
X334081Y503137D01*
X333914Y503155D01*
X333912Y503155D01*
X328555Y508512D01*
X328555Y516088D01*
X333912Y521445D01*
X341488Y521445D01*
X346845Y516088D01*
X346845Y508512D01*
X341488Y503155D01*
X341486Y503155D01*
X341466Y503152D01*
X341447Y503154D01*
X341345Y503132D01*
X341243Y503116D01*
X341226Y503106D01*
X341206Y503102D01*
X341117Y503049D01*
X341026Y503000D01*
X341012Y502986D01*
X340995Y502976D01*
X340928Y502897D01*
X340856Y502822D01*
X340848Y502804D01*
X340835Y502789D01*
X340796Y502693D01*
X340753Y502599D01*
X340751Y502579D01*
X340743Y502561D01*
X340725Y502394D01*
X340725Y438368D01*
X340739Y438278D01*
X340747Y438187D01*
X340759Y438157D01*
X340764Y438125D01*
X340807Y438045D01*
X340843Y437961D01*
X340869Y437929D01*
X340880Y437908D01*
X340903Y437886D01*
X340948Y437830D01*
X428248Y350530D01*
X428322Y350477D01*
X428391Y350417D01*
X428421Y350405D01*
X428448Y350386D01*
X428535Y350359D01*
X428619Y350325D01*
X428660Y350321D01*
X428683Y350314D01*
X428715Y350315D01*
X428786Y350307D01*
X432498Y350307D01*
X435607Y347198D01*
X435607Y342802D01*
X432498Y339693D01*
X428102Y339693D01*
G37*
%LPD*%
%LPC*%
G36*
X33990Y259839D02*
X33990Y259839D01*
X26580Y262909D01*
X20909Y268580D01*
X17839Y275990D01*
X17839Y284010D01*
X20909Y291420D01*
X26580Y297091D01*
X33990Y300161D01*
X42010Y300161D01*
X49420Y297091D01*
X55091Y291420D01*
X58161Y284010D01*
X58161Y275990D01*
X55091Y268580D01*
X49420Y262909D01*
X42010Y259839D01*
X33990Y259839D01*
G37*
%LPD*%
%LPC*%
G36*
X103990Y259839D02*
X103990Y259839D01*
X96580Y262909D01*
X90909Y268580D01*
X87839Y275990D01*
X87839Y284010D01*
X90909Y291420D01*
X96580Y297091D01*
X103990Y300161D01*
X112010Y300161D01*
X119420Y297091D01*
X125091Y291420D01*
X128161Y284010D01*
X128161Y275990D01*
X125091Y268580D01*
X119420Y262909D01*
X112010Y259839D01*
X103990Y259839D01*
G37*
%LPD*%
%LPC*%
G36*
X476080Y17879D02*
X476080Y17879D01*
X468670Y20949D01*
X462999Y26620D01*
X459929Y34030D01*
X459929Y42050D01*
X462999Y49460D01*
X468670Y55131D01*
X476080Y58201D01*
X484100Y58201D01*
X491510Y55131D01*
X497181Y49460D01*
X500251Y42050D01*
X500251Y34030D01*
X497181Y26620D01*
X491510Y20949D01*
X484100Y17879D01*
X476080Y17879D01*
G37*
%LPD*%
%LPC*%
G36*
X387437Y33773D02*
X387437Y33773D01*
X385196Y34701D01*
X383481Y36416D01*
X382553Y38657D01*
X382553Y41083D01*
X383481Y43324D01*
X385196Y45039D01*
X385639Y45222D01*
X385739Y45284D01*
X385839Y45344D01*
X385843Y45348D01*
X385848Y45352D01*
X385923Y45442D01*
X385999Y45530D01*
X386001Y45536D01*
X386005Y45541D01*
X386047Y45649D01*
X386091Y45759D01*
X386092Y45766D01*
X386093Y45771D01*
X386094Y45789D01*
X386109Y45925D01*
X386109Y57552D01*
X386095Y57642D01*
X386087Y57733D01*
X386075Y57763D01*
X386070Y57795D01*
X386027Y57876D01*
X385991Y57960D01*
X385965Y57992D01*
X385954Y58012D01*
X385931Y58035D01*
X385886Y58091D01*
X380201Y63776D01*
X380127Y63829D01*
X380057Y63889D01*
X380027Y63901D01*
X380001Y63920D01*
X379914Y63947D01*
X379829Y63981D01*
X379788Y63985D01*
X379766Y63992D01*
X379734Y63991D01*
X379662Y63999D01*
X360415Y63999D01*
X360301Y63980D01*
X360184Y63963D01*
X360179Y63961D01*
X360173Y63960D01*
X360070Y63905D01*
X359965Y63852D01*
X359961Y63847D01*
X359955Y63844D01*
X359875Y63760D01*
X359793Y63676D01*
X359789Y63670D01*
X359786Y63666D01*
X359778Y63649D01*
X359712Y63529D01*
X359529Y63086D01*
X357814Y61371D01*
X355573Y60443D01*
X353147Y60443D01*
X350906Y61371D01*
X349191Y63086D01*
X348263Y65327D01*
X348263Y67753D01*
X349191Y69994D01*
X350906Y71709D01*
X353147Y72637D01*
X355573Y72637D01*
X357814Y71709D01*
X359529Y69994D01*
X359712Y69551D01*
X359774Y69451D01*
X359834Y69351D01*
X359838Y69347D01*
X359842Y69342D01*
X359932Y69267D01*
X360020Y69191D01*
X360026Y69189D01*
X360031Y69185D01*
X360139Y69143D01*
X360249Y69099D01*
X360256Y69098D01*
X360261Y69097D01*
X360279Y69096D01*
X360415Y69081D01*
X376458Y69081D01*
X376478Y69084D01*
X376497Y69082D01*
X376599Y69104D01*
X376701Y69120D01*
X376718Y69130D01*
X376738Y69134D01*
X376827Y69187D01*
X376918Y69236D01*
X376932Y69250D01*
X376949Y69260D01*
X377016Y69339D01*
X377088Y69414D01*
X377096Y69432D01*
X377109Y69447D01*
X377148Y69543D01*
X377191Y69637D01*
X377193Y69657D01*
X377201Y69675D01*
X377219Y69842D01*
X377219Y200185D01*
X377200Y200299D01*
X377183Y200416D01*
X377181Y200421D01*
X377180Y200427D01*
X377125Y200530D01*
X377072Y200635D01*
X377067Y200639D01*
X377064Y200645D01*
X376980Y200725D01*
X376896Y200807D01*
X376890Y200811D01*
X376886Y200814D01*
X376869Y200822D01*
X376749Y200888D01*
X376306Y201071D01*
X374591Y202786D01*
X373663Y205027D01*
X373663Y207453D01*
X374591Y209694D01*
X376306Y211409D01*
X378547Y212337D01*
X380973Y212337D01*
X383214Y211409D01*
X384929Y209694D01*
X385857Y207453D01*
X385857Y205027D01*
X384929Y202786D01*
X383214Y201071D01*
X382771Y200888D01*
X382671Y200826D01*
X382571Y200766D01*
X382567Y200762D01*
X382562Y200758D01*
X382487Y200668D01*
X382411Y200580D01*
X382409Y200574D01*
X382405Y200569D01*
X382363Y200461D01*
X382319Y200351D01*
X382318Y200344D01*
X382317Y200339D01*
X382316Y200321D01*
X382301Y200185D01*
X382301Y69178D01*
X382315Y69088D01*
X382323Y68997D01*
X382335Y68967D01*
X382340Y68935D01*
X382383Y68854D01*
X382419Y68770D01*
X382445Y68738D01*
X382456Y68718D01*
X382479Y68695D01*
X382524Y68639D01*
X391191Y59972D01*
X391191Y45925D01*
X391210Y45811D01*
X391227Y45694D01*
X391229Y45689D01*
X391230Y45683D01*
X391285Y45580D01*
X391338Y45475D01*
X391343Y45471D01*
X391346Y45465D01*
X391430Y45385D01*
X391514Y45303D01*
X391520Y45299D01*
X391524Y45296D01*
X391541Y45288D01*
X391661Y45222D01*
X392104Y45039D01*
X393819Y43324D01*
X394747Y41083D01*
X394747Y38657D01*
X393819Y36416D01*
X392104Y34701D01*
X389863Y33773D01*
X387437Y33773D01*
G37*
%LPD*%
%LPC*%
G36*
X118901Y355075D02*
X118901Y355075D01*
X118515Y355235D01*
X118451Y355250D01*
X118390Y355275D01*
X118307Y355284D01*
X118275Y355291D01*
X118256Y355290D01*
X118223Y355293D01*
X117802Y355293D01*
X117504Y355591D01*
X117451Y355630D01*
X117404Y355675D01*
X117331Y355716D01*
X117304Y355735D01*
X117286Y355741D01*
X117257Y355756D01*
X116870Y355916D01*
X115316Y357470D01*
X115156Y357857D01*
X115122Y357913D01*
X115096Y357973D01*
X115044Y358038D01*
X115027Y358066D01*
X115012Y358078D01*
X114991Y358104D01*
X114693Y358402D01*
X114693Y358823D01*
X114683Y358888D01*
X114682Y358954D01*
X114659Y359034D01*
X114654Y359066D01*
X114644Y359083D01*
X114635Y359115D01*
X114475Y359501D01*
X114475Y378996D01*
X114461Y379086D01*
X114453Y379177D01*
X114441Y379207D01*
X114436Y379239D01*
X114393Y379319D01*
X114357Y379404D01*
X114331Y379436D01*
X114320Y379456D01*
X114297Y379479D01*
X114252Y379535D01*
X91278Y402509D01*
X91277Y402509D01*
X89616Y404170D01*
X89173Y405240D01*
X89139Y405295D01*
X89113Y405356D01*
X89061Y405421D01*
X89044Y405449D01*
X89029Y405461D01*
X89008Y405487D01*
X88993Y405502D01*
X88993Y405523D01*
X88983Y405588D01*
X88982Y405654D01*
X88959Y405734D01*
X88954Y405766D01*
X88944Y405783D01*
X88935Y405815D01*
X88775Y406201D01*
X88775Y408799D01*
X88935Y409185D01*
X88950Y409249D01*
X88975Y409310D01*
X88984Y409393D01*
X88991Y409425D01*
X88990Y409444D01*
X88993Y409477D01*
X88993Y409898D01*
X89291Y410196D01*
X89330Y410249D01*
X89375Y410296D01*
X89416Y410369D01*
X89435Y410396D01*
X89441Y410414D01*
X89456Y410443D01*
X89616Y410830D01*
X91170Y412384D01*
X91557Y412544D01*
X91613Y412578D01*
X91673Y412604D01*
X91738Y412656D01*
X91766Y412673D01*
X91778Y412688D01*
X91804Y412709D01*
X92102Y413007D01*
X92523Y413007D01*
X92588Y413017D01*
X92654Y413018D01*
X92734Y413041D01*
X92766Y413046D01*
X92783Y413056D01*
X92815Y413065D01*
X93201Y413225D01*
X95399Y413225D01*
X95785Y413065D01*
X95849Y413050D01*
X95910Y413025D01*
X95993Y413016D01*
X96025Y413009D01*
X96044Y413010D01*
X96077Y413007D01*
X96498Y413007D01*
X96796Y412709D01*
X96849Y412670D01*
X96896Y412625D01*
X96969Y412584D01*
X96996Y412565D01*
X97014Y412559D01*
X97043Y412544D01*
X97430Y412384D01*
X98984Y410830D01*
X99144Y410443D01*
X99178Y410387D01*
X99204Y410327D01*
X99256Y410262D01*
X99273Y410234D01*
X99288Y410222D01*
X99309Y410196D01*
X99670Y409835D01*
X99689Y409798D01*
X99725Y409714D01*
X99751Y409682D01*
X99762Y409662D01*
X99785Y409639D01*
X99830Y409583D01*
X124684Y384730D01*
X125525Y382699D01*
X125525Y359501D01*
X125365Y359115D01*
X125350Y359051D01*
X125325Y358990D01*
X125316Y358907D01*
X125309Y358875D01*
X125310Y358856D01*
X125307Y358823D01*
X125307Y358402D01*
X125009Y358104D01*
X124970Y358051D01*
X124925Y358004D01*
X124884Y357931D01*
X124865Y357904D01*
X124859Y357886D01*
X124844Y357857D01*
X124684Y357470D01*
X123130Y355916D01*
X122743Y355756D01*
X122687Y355722D01*
X122627Y355696D01*
X122562Y355644D01*
X122534Y355627D01*
X122522Y355612D01*
X122496Y355591D01*
X122198Y355293D01*
X121777Y355293D01*
X121712Y355283D01*
X121646Y355282D01*
X121566Y355259D01*
X121534Y355254D01*
X121517Y355244D01*
X121485Y355235D01*
X121099Y355075D01*
X118901Y355075D01*
G37*
%LPD*%
%LPC*%
G36*
X138802Y360993D02*
X138802Y360993D01*
X135693Y364102D01*
X135693Y368498D01*
X138552Y371357D01*
X138605Y371431D01*
X138665Y371501D01*
X138677Y371531D01*
X138696Y371557D01*
X138723Y371644D01*
X138757Y371729D01*
X138761Y371770D01*
X138768Y371792D01*
X138767Y371824D01*
X138775Y371895D01*
X138775Y398732D01*
X138761Y398822D01*
X138753Y398913D01*
X138741Y398943D01*
X138736Y398975D01*
X138693Y399055D01*
X138657Y399139D01*
X138631Y399171D01*
X138620Y399192D01*
X138597Y399214D01*
X138552Y399270D01*
X110352Y427470D01*
X110278Y427523D01*
X110209Y427583D01*
X110179Y427595D01*
X110152Y427614D01*
X110065Y427641D01*
X109981Y427675D01*
X109940Y427679D01*
X109917Y427686D01*
X109885Y427685D01*
X109814Y427693D01*
X106902Y427693D01*
X103793Y430802D01*
X103793Y435198D01*
X106902Y438307D01*
X111298Y438307D01*
X114407Y435198D01*
X114407Y432286D01*
X114421Y432196D01*
X114429Y432105D01*
X114441Y432075D01*
X114446Y432043D01*
X114489Y431963D01*
X114525Y431879D01*
X114551Y431847D01*
X114562Y431826D01*
X114585Y431804D01*
X114630Y431748D01*
X144825Y401553D01*
X144825Y370295D01*
X144839Y370205D01*
X144847Y370114D01*
X144859Y370085D01*
X144864Y370053D01*
X144907Y369972D01*
X144943Y369888D01*
X144969Y369856D01*
X144980Y369835D01*
X145003Y369813D01*
X145048Y369757D01*
X146307Y368498D01*
X146307Y364102D01*
X143198Y360993D01*
X138802Y360993D01*
G37*
%LPD*%
%LPC*%
G36*
X25561Y423555D02*
X25561Y423555D01*
X22200Y424947D01*
X19627Y427520D01*
X18235Y430881D01*
X18235Y434519D01*
X19627Y437880D01*
X22200Y440453D01*
X25561Y441845D01*
X44439Y441845D01*
X47800Y440453D01*
X50373Y437880D01*
X51765Y434519D01*
X51765Y430881D01*
X50373Y427520D01*
X47800Y424947D01*
X44439Y423555D01*
X25561Y423555D01*
G37*
%LPD*%
%LPC*%
G36*
X27056Y97935D02*
X27056Y97935D01*
X24092Y99163D01*
X21823Y101432D01*
X20595Y104396D01*
X20595Y107604D01*
X21823Y110568D01*
X24092Y112837D01*
X27056Y114065D01*
X43344Y114065D01*
X46308Y112837D01*
X48577Y110568D01*
X49805Y107604D01*
X49805Y104396D01*
X48577Y101432D01*
X46308Y99163D01*
X43344Y97935D01*
X27056Y97935D01*
G37*
%LPD*%
%LPC*%
G36*
X27056Y165935D02*
X27056Y165935D01*
X24092Y167163D01*
X21823Y169432D01*
X20595Y172396D01*
X20595Y175604D01*
X21823Y178568D01*
X24092Y180837D01*
X27056Y182065D01*
X43344Y182065D01*
X46308Y180837D01*
X48577Y178568D01*
X49805Y175604D01*
X49805Y172396D01*
X48577Y169432D01*
X46308Y167163D01*
X43344Y165935D01*
X27056Y165935D01*
G37*
%LPD*%
%LPC*%
G36*
X367427Y256277D02*
X367427Y256277D01*
X363413Y257940D01*
X360340Y261013D01*
X358677Y265027D01*
X358677Y269373D01*
X360340Y273387D01*
X363413Y276460D01*
X367427Y278123D01*
X371773Y278123D01*
X375787Y276460D01*
X378860Y273387D01*
X380523Y269373D01*
X380523Y265027D01*
X378860Y261013D01*
X375787Y257940D01*
X371773Y256277D01*
X367427Y256277D01*
G37*
%LPD*%
%LPC*%
G36*
X570627Y65777D02*
X570627Y65777D01*
X566613Y67440D01*
X563540Y70513D01*
X561877Y74527D01*
X561877Y78873D01*
X563540Y82887D01*
X566613Y85960D01*
X570627Y87623D01*
X574973Y87623D01*
X578987Y85960D01*
X582060Y82887D01*
X583723Y78873D01*
X583723Y74527D01*
X582060Y70513D01*
X578987Y67440D01*
X574973Y65777D01*
X570627Y65777D01*
G37*
%LPD*%
%LPC*%
G36*
X392827Y256277D02*
X392827Y256277D01*
X388813Y257940D01*
X385740Y261013D01*
X384077Y265027D01*
X384077Y269373D01*
X385740Y273387D01*
X388813Y276460D01*
X392827Y278123D01*
X397173Y278123D01*
X401187Y276460D01*
X404260Y273387D01*
X405923Y269373D01*
X405923Y265027D01*
X404260Y261013D01*
X401187Y257940D01*
X397173Y256277D01*
X392827Y256277D01*
G37*
%LPD*%
%LPC*%
G36*
X342027Y256277D02*
X342027Y256277D01*
X338013Y257940D01*
X334940Y261013D01*
X333277Y265027D01*
X333277Y269373D01*
X334940Y273387D01*
X338013Y276460D01*
X342027Y278123D01*
X346373Y278123D01*
X350387Y276460D01*
X353460Y273387D01*
X355123Y269373D01*
X355123Y265027D01*
X353460Y261013D01*
X350387Y257940D01*
X346373Y256277D01*
X342027Y256277D01*
G37*
%LPD*%
%LPC*%
G36*
X570627Y116577D02*
X570627Y116577D01*
X566613Y118240D01*
X563540Y121313D01*
X561877Y125327D01*
X561877Y129673D01*
X563540Y133687D01*
X566613Y136760D01*
X570627Y138423D01*
X574973Y138423D01*
X578987Y136760D01*
X582060Y133687D01*
X583723Y129673D01*
X583723Y125327D01*
X582060Y121313D01*
X578987Y118240D01*
X574973Y116577D01*
X570627Y116577D01*
G37*
%LPD*%
%LPC*%
G36*
X570627Y91177D02*
X570627Y91177D01*
X566613Y92840D01*
X563540Y95913D01*
X561877Y99927D01*
X561877Y104273D01*
X563540Y108287D01*
X566613Y111360D01*
X570627Y113023D01*
X574973Y113023D01*
X578987Y111360D01*
X582060Y108287D01*
X583723Y104273D01*
X583723Y99927D01*
X582060Y95913D01*
X578987Y92840D01*
X574973Y91177D01*
X570627Y91177D01*
G37*
%LPD*%
%LPC*%
G36*
X109255Y104435D02*
X109255Y104435D01*
X106658Y105511D01*
X104671Y107498D01*
X103595Y110095D01*
X103595Y112905D01*
X104671Y115502D01*
X106658Y117489D01*
X109255Y118565D01*
X123145Y118565D01*
X125742Y117489D01*
X127729Y115502D01*
X128805Y112905D01*
X128805Y110095D01*
X127729Y107498D01*
X125742Y105511D01*
X123145Y104435D01*
X109255Y104435D01*
G37*
%LPD*%
%LPC*%
G36*
X232312Y503155D02*
X232312Y503155D01*
X226955Y508512D01*
X226955Y516088D01*
X232312Y521445D01*
X239888Y521445D01*
X245245Y516088D01*
X245245Y508512D01*
X239888Y503155D01*
X232312Y503155D01*
G37*
%LPD*%
%LPC*%
G36*
X257712Y503155D02*
X257712Y503155D01*
X252355Y508512D01*
X252355Y516088D01*
X257712Y521445D01*
X265288Y521445D01*
X270645Y516088D01*
X270645Y508512D01*
X265288Y503155D01*
X257712Y503155D01*
G37*
%LPD*%
%LPC*%
G36*
X537112Y503155D02*
X537112Y503155D01*
X531755Y508512D01*
X531755Y516088D01*
X537112Y521445D01*
X544688Y521445D01*
X550045Y516088D01*
X550045Y508512D01*
X544688Y503155D01*
X537112Y503155D01*
G37*
%LPD*%
%LPC*%
G36*
X511712Y503155D02*
X511712Y503155D01*
X506355Y508512D01*
X506355Y516088D01*
X511712Y521445D01*
X519288Y521445D01*
X524645Y516088D01*
X524645Y508512D01*
X519288Y503155D01*
X511712Y503155D01*
G37*
%LPD*%
%LPC*%
G36*
X460912Y503155D02*
X460912Y503155D01*
X455555Y508512D01*
X455555Y516088D01*
X460912Y521445D01*
X468488Y521445D01*
X473845Y516088D01*
X473845Y508512D01*
X468488Y503155D01*
X460912Y503155D01*
G37*
%LPD*%
%LPC*%
G36*
X435512Y503155D02*
X435512Y503155D01*
X430155Y508512D01*
X430155Y516088D01*
X435512Y521445D01*
X443088Y521445D01*
X448445Y516088D01*
X448445Y508512D01*
X443088Y503155D01*
X435512Y503155D01*
G37*
%LPD*%
%LPC*%
G36*
X410112Y503155D02*
X410112Y503155D01*
X404755Y508512D01*
X404755Y516088D01*
X410112Y521445D01*
X417688Y521445D01*
X423045Y516088D01*
X423045Y508512D01*
X417688Y503155D01*
X410112Y503155D01*
G37*
%LPD*%
%LPC*%
G36*
X206912Y503155D02*
X206912Y503155D01*
X201555Y508512D01*
X201555Y516088D01*
X206912Y521445D01*
X214488Y521445D01*
X219845Y516088D01*
X219845Y508512D01*
X214488Y503155D01*
X206912Y503155D01*
G37*
%LPD*%
%LPC*%
G36*
X79912Y503155D02*
X79912Y503155D01*
X74555Y508512D01*
X74555Y516088D01*
X79912Y521445D01*
X87488Y521445D01*
X92845Y516088D01*
X92845Y508512D01*
X87488Y503155D01*
X79912Y503155D01*
G37*
%LPD*%
%LPC*%
G36*
X181512Y503155D02*
X181512Y503155D01*
X176155Y508512D01*
X176155Y516088D01*
X181512Y521445D01*
X189088Y521445D01*
X194445Y516088D01*
X194445Y508512D01*
X189088Y503155D01*
X181512Y503155D01*
G37*
%LPD*%
%LPC*%
G36*
X130712Y503155D02*
X130712Y503155D01*
X125355Y508512D01*
X125355Y516088D01*
X130712Y521445D01*
X138288Y521445D01*
X143645Y516088D01*
X143645Y508512D01*
X138288Y503155D01*
X130712Y503155D01*
G37*
%LPD*%
%LPC*%
G36*
X105312Y503155D02*
X105312Y503155D01*
X99955Y508512D01*
X99955Y516088D01*
X105312Y521445D01*
X112888Y521445D01*
X118245Y516088D01*
X118245Y508512D01*
X112888Y503155D01*
X105312Y503155D01*
G37*
%LPD*%
%LPC*%
G36*
X562512Y503155D02*
X562512Y503155D01*
X557155Y508512D01*
X557155Y516088D01*
X562512Y521445D01*
X570088Y521445D01*
X575445Y516088D01*
X575445Y508512D01*
X570088Y503155D01*
X562512Y503155D01*
G37*
%LPD*%
%LPC*%
G36*
X384712Y503155D02*
X384712Y503155D01*
X379355Y508512D01*
X379355Y516088D01*
X384712Y521445D01*
X392288Y521445D01*
X397645Y516088D01*
X397645Y508512D01*
X392288Y503155D01*
X384712Y503155D01*
G37*
%LPD*%
%LPC*%
G36*
X562512Y528555D02*
X562512Y528555D01*
X557155Y533912D01*
X557155Y541488D01*
X562512Y546845D01*
X570088Y546845D01*
X575445Y541488D01*
X575445Y533912D01*
X570088Y528555D01*
X562512Y528555D01*
G37*
%LPD*%
%LPC*%
G36*
X283112Y503155D02*
X283112Y503155D01*
X277755Y508512D01*
X277755Y516088D01*
X283112Y521445D01*
X290688Y521445D01*
X296045Y516088D01*
X296045Y508512D01*
X290688Y503155D01*
X283112Y503155D01*
G37*
%LPD*%
%LPC*%
G36*
X537112Y528555D02*
X537112Y528555D01*
X531755Y533912D01*
X531755Y541488D01*
X537112Y546845D01*
X544688Y546845D01*
X550045Y541488D01*
X550045Y533912D01*
X544688Y528555D01*
X537112Y528555D01*
G37*
%LPD*%
%LPC*%
G36*
X486312Y503155D02*
X486312Y503155D01*
X480955Y508512D01*
X480955Y516088D01*
X486312Y521445D01*
X493888Y521445D01*
X499245Y516088D01*
X499245Y508512D01*
X493888Y503155D01*
X486312Y503155D01*
G37*
%LPD*%
%LPC*%
G36*
X79912Y528555D02*
X79912Y528555D01*
X74555Y533912D01*
X74555Y541488D01*
X79912Y546845D01*
X87488Y546845D01*
X92845Y541488D01*
X92845Y533912D01*
X87488Y528555D01*
X79912Y528555D01*
G37*
%LPD*%
%LPC*%
G36*
X105312Y528555D02*
X105312Y528555D01*
X99955Y533912D01*
X99955Y541488D01*
X105312Y546845D01*
X112888Y546845D01*
X118245Y541488D01*
X118245Y533912D01*
X112888Y528555D01*
X105312Y528555D01*
G37*
%LPD*%
%LPC*%
G36*
X511712Y528555D02*
X511712Y528555D01*
X506355Y533912D01*
X506355Y541488D01*
X511712Y546845D01*
X519288Y546845D01*
X524645Y541488D01*
X524645Y533912D01*
X519288Y528555D01*
X511712Y528555D01*
G37*
%LPD*%
%LPC*%
G36*
X486312Y528555D02*
X486312Y528555D01*
X480955Y533912D01*
X480955Y541488D01*
X486312Y546845D01*
X493888Y546845D01*
X499245Y541488D01*
X499245Y533912D01*
X493888Y528555D01*
X486312Y528555D01*
G37*
%LPD*%
%LPC*%
G36*
X156112Y528555D02*
X156112Y528555D01*
X150755Y533912D01*
X150755Y541488D01*
X156112Y546845D01*
X163688Y546845D01*
X169045Y541488D01*
X169045Y533912D01*
X163688Y528555D01*
X156112Y528555D01*
G37*
%LPD*%
%LPC*%
G36*
X460912Y528555D02*
X460912Y528555D01*
X455555Y533912D01*
X455555Y541488D01*
X460912Y546845D01*
X468488Y546845D01*
X473845Y541488D01*
X473845Y533912D01*
X468488Y528555D01*
X460912Y528555D01*
G37*
%LPD*%
%LPC*%
G36*
X435512Y528555D02*
X435512Y528555D01*
X430155Y533912D01*
X430155Y541488D01*
X435512Y546845D01*
X443088Y546845D01*
X448445Y541488D01*
X448445Y533912D01*
X443088Y528555D01*
X435512Y528555D01*
G37*
%LPD*%
%LPC*%
G36*
X410112Y528555D02*
X410112Y528555D01*
X404755Y533912D01*
X404755Y541488D01*
X410112Y546845D01*
X417688Y546845D01*
X423045Y541488D01*
X423045Y533912D01*
X417688Y528555D01*
X410112Y528555D01*
G37*
%LPD*%
%LPC*%
G36*
X181512Y528555D02*
X181512Y528555D01*
X176155Y533912D01*
X176155Y541488D01*
X181512Y546845D01*
X189088Y546845D01*
X194445Y541488D01*
X194445Y533912D01*
X189088Y528555D01*
X181512Y528555D01*
G37*
%LPD*%
%LPC*%
G36*
X206912Y528555D02*
X206912Y528555D01*
X201555Y533912D01*
X201555Y541488D01*
X206912Y546845D01*
X214488Y546845D01*
X219845Y541488D01*
X219845Y533912D01*
X214488Y528555D01*
X206912Y528555D01*
G37*
%LPD*%
%LPC*%
G36*
X232312Y528555D02*
X232312Y528555D01*
X226955Y533912D01*
X226955Y541488D01*
X232312Y546845D01*
X239888Y546845D01*
X245245Y541488D01*
X245245Y533912D01*
X239888Y528555D01*
X232312Y528555D01*
G37*
%LPD*%
%LPC*%
G36*
X257712Y528555D02*
X257712Y528555D01*
X252355Y533912D01*
X252355Y541488D01*
X257712Y546845D01*
X265288Y546845D01*
X270645Y541488D01*
X270645Y533912D01*
X265288Y528555D01*
X257712Y528555D01*
G37*
%LPD*%
%LPC*%
G36*
X384712Y528555D02*
X384712Y528555D01*
X379355Y533912D01*
X379355Y541488D01*
X384712Y546845D01*
X392288Y546845D01*
X397645Y541488D01*
X397645Y533912D01*
X392288Y528555D01*
X384712Y528555D01*
G37*
%LPD*%
%LPC*%
G36*
X359312Y528555D02*
X359312Y528555D01*
X353955Y533912D01*
X353955Y541488D01*
X359312Y546845D01*
X366888Y546845D01*
X372245Y541488D01*
X372245Y533912D01*
X366888Y528555D01*
X359312Y528555D01*
G37*
%LPD*%
%LPC*%
G36*
X283112Y528555D02*
X283112Y528555D01*
X277755Y533912D01*
X277755Y541488D01*
X283112Y546845D01*
X290688Y546845D01*
X296045Y541488D01*
X296045Y533912D01*
X290688Y528555D01*
X283112Y528555D01*
G37*
%LPD*%
%LPC*%
G36*
X308512Y528555D02*
X308512Y528555D01*
X303155Y533912D01*
X303155Y541488D01*
X308512Y546845D01*
X316088Y546845D01*
X321445Y541488D01*
X321445Y533912D01*
X316088Y528555D01*
X308512Y528555D01*
G37*
%LPD*%
%LPC*%
G36*
X333912Y528555D02*
X333912Y528555D01*
X328555Y533912D01*
X328555Y541488D01*
X333912Y546845D01*
X341488Y546845D01*
X346845Y541488D01*
X346845Y533912D01*
X341488Y528555D01*
X333912Y528555D01*
G37*
%LPD*%
%LPC*%
G36*
X291286Y265566D02*
X291286Y265566D01*
X291255Y265576D01*
X291187Y265607D01*
X290489Y265840D01*
X290488Y265842D01*
X290431Y265906D01*
X290380Y265976D01*
X290350Y265998D01*
X290325Y266026D01*
X290184Y266117D01*
X290157Y266131D01*
X290151Y266136D01*
X290106Y266193D01*
X290063Y266220D01*
X290026Y266256D01*
X289960Y266287D01*
X289899Y266326D01*
X289849Y266338D01*
X289803Y266360D01*
X289731Y266368D01*
X289660Y266386D01*
X289609Y266382D01*
X289559Y266388D01*
X289487Y266373D01*
X289415Y266367D01*
X289368Y266347D01*
X289318Y266336D01*
X289256Y266299D01*
X289189Y266271D01*
X289134Y266227D01*
X289107Y266211D01*
X289091Y266192D01*
X289058Y266166D01*
X288313Y265421D01*
X282750Y265421D01*
X281804Y266368D01*
X281738Y266415D01*
X281679Y266469D01*
X281639Y266486D01*
X281604Y266511D01*
X281527Y266535D01*
X281453Y266567D01*
X281410Y266571D01*
X281369Y266584D01*
X281288Y266581D01*
X281208Y266589D01*
X281166Y266578D01*
X281123Y266577D01*
X281047Y266550D01*
X280969Y266531D01*
X280919Y266503D01*
X280892Y266493D01*
X280870Y266475D01*
X280823Y266449D01*
X279384Y265421D01*
X277049Y265421D01*
X275148Y266779D01*
X274830Y267705D01*
X274816Y267732D01*
X274794Y267792D01*
X274095Y269226D01*
X274095Y272794D01*
X274487Y273597D01*
X274501Y273642D01*
X274523Y273683D01*
X274552Y273814D01*
X274558Y273833D01*
X274558Y273839D01*
X274559Y273847D01*
X274581Y274038D01*
X274621Y274071D01*
X274627Y274077D01*
X274633Y274081D01*
X274709Y274168D01*
X274786Y274253D01*
X274789Y274261D01*
X274794Y274267D01*
X274866Y274418D01*
X275148Y275241D01*
X277049Y276599D01*
X279384Y276599D01*
X281285Y275241D01*
X281603Y274314D01*
X281617Y274287D01*
X281638Y274228D01*
X281787Y273924D01*
X281854Y273829D01*
X281919Y273733D01*
X281925Y273729D01*
X281929Y273723D01*
X282022Y273654D01*
X282115Y273584D01*
X282122Y273582D01*
X282127Y273578D01*
X282238Y273543D01*
X282348Y273506D01*
X282355Y273506D01*
X282362Y273504D01*
X282478Y273506D01*
X282594Y273506D01*
X282601Y273508D01*
X282608Y273508D01*
X282718Y273548D01*
X282827Y273584D01*
X282833Y273589D01*
X282840Y273591D01*
X282931Y273663D01*
X283023Y273733D01*
X283027Y273739D01*
X283033Y273743D01*
X283096Y273840D01*
X283161Y273937D01*
X283163Y273943D01*
X283167Y273949D01*
X283196Y274062D01*
X283228Y274173D01*
X283228Y274182D01*
X283229Y274187D01*
X283228Y274208D01*
X283228Y274341D01*
X283151Y275028D01*
X283162Y275055D01*
X283199Y275120D01*
X283208Y275169D01*
X283226Y275214D01*
X283230Y275244D01*
X283795Y275810D01*
X283812Y275833D01*
X283851Y275872D01*
X284355Y276501D01*
X284382Y276513D01*
X284453Y276533D01*
X284494Y276561D01*
X284540Y276580D01*
X284563Y276599D01*
X285363Y276599D01*
X285391Y276603D01*
X285447Y276603D01*
X286248Y276692D01*
X286275Y276681D01*
X286340Y276645D01*
X286388Y276636D01*
X286434Y276617D01*
X286464Y276614D01*
X287029Y276048D01*
X287052Y276032D01*
X287092Y275992D01*
X289112Y274376D01*
X289155Y274352D01*
X289191Y274320D01*
X289261Y274292D01*
X289327Y274255D01*
X289374Y274246D01*
X289419Y274228D01*
X289494Y274223D01*
X289568Y274209D01*
X289616Y274216D01*
X289665Y274213D01*
X289789Y274240D01*
X289812Y274243D01*
X289818Y274246D01*
X289829Y274248D01*
X290823Y274580D01*
X291775Y274104D01*
X291796Y274097D01*
X291815Y274085D01*
X291913Y274061D01*
X292010Y274031D01*
X292032Y274031D01*
X292053Y274026D01*
X292154Y274034D01*
X292256Y274036D01*
X292276Y274044D01*
X292298Y274046D01*
X292456Y274104D01*
X293407Y274580D01*
X295205Y273981D01*
X296052Y272286D01*
X294606Y267949D01*
X294600Y267912D01*
X294586Y267877D01*
X294581Y267791D01*
X294567Y267706D01*
X294573Y267669D01*
X294571Y267631D01*
X294590Y267543D01*
X294257Y266879D01*
X294248Y266848D01*
X294216Y266779D01*
X293983Y266081D01*
X293982Y266080D01*
X293917Y266023D01*
X293847Y265973D01*
X293826Y265942D01*
X293797Y265917D01*
X293749Y265842D01*
X293044Y265607D01*
X293015Y265592D01*
X292944Y265566D01*
X292286Y265237D01*
X292284Y265237D01*
X292198Y265243D01*
X292113Y265256D01*
X292076Y265250D01*
X292039Y265253D01*
X291951Y265234D01*
X291286Y265566D01*
G37*
%LPD*%
%LPC*%
G36*
X229123Y29123D02*
X229123Y29123D01*
X229123Y45266D01*
X229979Y45131D01*
X231500Y44636D01*
X232925Y43910D01*
X234219Y42970D01*
X235350Y41839D01*
X236290Y40545D01*
X237016Y39120D01*
X237511Y37599D01*
X237761Y36020D01*
X237761Y29123D01*
X229123Y29123D01*
G37*
%LPD*%
%LPC*%
G36*
X36523Y408823D02*
X36523Y408823D01*
X36523Y417461D01*
X43420Y417461D01*
X44999Y417211D01*
X46520Y416716D01*
X47945Y415990D01*
X49239Y415050D01*
X50370Y413919D01*
X51310Y412625D01*
X52036Y411200D01*
X52531Y409679D01*
X52666Y408823D01*
X36523Y408823D01*
G37*
%LPD*%
%LPC*%
G36*
X17334Y408823D02*
X17334Y408823D01*
X17469Y409679D01*
X17964Y411200D01*
X18690Y412625D01*
X19630Y413919D01*
X20761Y415050D01*
X22055Y415990D01*
X23480Y416716D01*
X25001Y417211D01*
X26580Y417461D01*
X33477Y417461D01*
X33477Y408823D01*
X17334Y408823D01*
G37*
%LPD*%
%LPC*%
G36*
X217439Y29123D02*
X217439Y29123D01*
X217439Y36020D01*
X217689Y37599D01*
X218184Y39120D01*
X218910Y40545D01*
X219850Y41839D01*
X220981Y42970D01*
X222275Y43910D01*
X223700Y44636D01*
X225221Y45131D01*
X226077Y45266D01*
X226077Y29123D01*
X217439Y29123D01*
G37*
%LPD*%
%LPC*%
G36*
X36523Y397139D02*
X36523Y397139D01*
X36523Y405777D01*
X52666Y405777D01*
X52531Y404921D01*
X52036Y403400D01*
X51310Y401975D01*
X50370Y400681D01*
X49239Y399550D01*
X47945Y398610D01*
X46520Y397884D01*
X44999Y397389D01*
X43420Y397139D01*
X36523Y397139D01*
G37*
%LPD*%
%LPC*%
G36*
X26580Y397139D02*
X26580Y397139D01*
X25001Y397389D01*
X23480Y397884D01*
X22055Y398610D01*
X20761Y399550D01*
X19630Y400681D01*
X18690Y401975D01*
X17964Y403400D01*
X17469Y404921D01*
X17334Y405777D01*
X33477Y405777D01*
X33477Y397139D01*
X26580Y397139D01*
G37*
%LPD*%
%LPC*%
G36*
X472723Y268723D02*
X472723Y268723D01*
X472723Y279046D01*
X473996Y278845D01*
X475783Y278264D01*
X477457Y277411D01*
X478978Y276306D01*
X480306Y274978D01*
X481411Y273457D01*
X482264Y271783D01*
X482845Y269996D01*
X483046Y268723D01*
X472723Y268723D01*
G37*
%LPD*%
%LPC*%
G36*
X459354Y268723D02*
X459354Y268723D01*
X459555Y269996D01*
X460136Y271783D01*
X460989Y273457D01*
X462094Y274978D01*
X463422Y276306D01*
X464943Y277411D01*
X466617Y278264D01*
X468404Y278845D01*
X469677Y279046D01*
X469677Y268723D01*
X459354Y268723D01*
G37*
%LPD*%
%LPC*%
G36*
X472723Y265677D02*
X472723Y265677D01*
X483046Y265677D01*
X482845Y264404D01*
X482264Y262617D01*
X481411Y260943D01*
X480306Y259422D01*
X478978Y258094D01*
X477457Y256989D01*
X475783Y256136D01*
X473996Y255555D01*
X472723Y255354D01*
X472723Y265677D01*
G37*
%LPD*%
%LPC*%
G36*
X468404Y255555D02*
X468404Y255555D01*
X466617Y256136D01*
X464943Y256989D01*
X463422Y258094D01*
X462094Y259422D01*
X460989Y260943D01*
X460136Y262617D01*
X459555Y264404D01*
X459354Y265677D01*
X469677Y265677D01*
X469677Y255354D01*
X468404Y255555D01*
G37*
%LPD*%
%LPC*%
G36*
X126699Y141499D02*
X126699Y141499D01*
X126699Y153481D01*
X127557Y153310D01*
X129028Y152701D01*
X130351Y151817D01*
X131477Y150691D01*
X132361Y149368D01*
X132970Y147897D01*
X133281Y146336D01*
X133281Y141499D01*
X126699Y141499D01*
G37*
%LPD*%
%LPC*%
G36*
X126699Y138501D02*
X126699Y138501D01*
X133281Y138501D01*
X133281Y133664D01*
X132970Y132103D01*
X132361Y130632D01*
X131477Y129309D01*
X130351Y128183D01*
X129028Y127299D01*
X127557Y126690D01*
X126699Y126519D01*
X126699Y138501D01*
G37*
%LPD*%
%LPC*%
G36*
X117119Y141499D02*
X117119Y141499D01*
X117119Y146336D01*
X117430Y147897D01*
X118039Y149368D01*
X118923Y150691D01*
X120049Y151817D01*
X121372Y152701D01*
X122843Y153310D01*
X123701Y153481D01*
X123701Y141499D01*
X117119Y141499D01*
G37*
%LPD*%
%LPC*%
G36*
X122843Y126690D02*
X122843Y126690D01*
X121372Y127299D01*
X120049Y128183D01*
X118923Y129309D01*
X118039Y130632D01*
X117430Y132103D01*
X117119Y133664D01*
X117119Y138501D01*
X123701Y138501D01*
X123701Y126519D01*
X122843Y126690D01*
G37*
%LPD*%
%LPC*%
G36*
X136023Y527539D02*
X136023Y527539D01*
X136023Y536177D01*
X144661Y536177D01*
X144661Y533491D01*
X138709Y527539D01*
X136023Y527539D01*
G37*
%LPD*%
%LPC*%
G36*
X130291Y527539D02*
X130291Y527539D01*
X124339Y533491D01*
X124339Y536177D01*
X132977Y536177D01*
X132977Y527539D01*
X130291Y527539D01*
G37*
%LPD*%
%LPC*%
G36*
X34999Y407299D02*
X34999Y407299D01*
X34999Y407301D01*
X35001Y407301D01*
X35001Y407299D01*
X34999Y407299D01*
G37*
%LPD*%
%LPC*%
G36*
X471199Y267199D02*
X471199Y267199D01*
X471199Y267201D01*
X471201Y267201D01*
X471201Y267199D01*
X471199Y267199D01*
G37*
%LPD*%
D10*
X293583Y272111D02*
X292115Y267708D01*
X290648Y272111D01*
X287366Y272844D02*
X285532Y274312D01*
X285532Y267708D01*
X287366Y267708D02*
X283697Y267708D01*
X280051Y271010D02*
X280049Y271155D01*
X280043Y271300D01*
X280034Y271445D01*
X280020Y271590D01*
X280003Y271734D01*
X279981Y271877D01*
X279956Y272021D01*
X279927Y272163D01*
X279895Y272304D01*
X279858Y272445D01*
X279818Y272584D01*
X279774Y272723D01*
X279727Y272860D01*
X279676Y272996D01*
X279621Y273130D01*
X279563Y273263D01*
X279501Y273395D01*
X279475Y273464D01*
X279446Y273531D01*
X279413Y273597D01*
X279377Y273660D01*
X279337Y273722D01*
X279294Y273781D01*
X279248Y273838D01*
X279199Y273892D01*
X279147Y273944D01*
X279092Y273993D01*
X279035Y274038D01*
X278975Y274081D01*
X278913Y274120D01*
X278850Y274156D01*
X278784Y274189D01*
X278717Y274217D01*
X278648Y274243D01*
X278578Y274264D01*
X278507Y274282D01*
X278435Y274295D01*
X278362Y274305D01*
X278289Y274311D01*
X278216Y274313D01*
X278216Y274312D02*
X278143Y274310D01*
X278070Y274304D01*
X277997Y274294D01*
X277926Y274281D01*
X277854Y274263D01*
X277784Y274242D01*
X277716Y274216D01*
X277648Y274188D01*
X277583Y274155D01*
X277519Y274119D01*
X277457Y274080D01*
X277398Y274038D01*
X277341Y273992D01*
X277286Y273943D01*
X277234Y273892D01*
X277185Y273837D01*
X277139Y273780D01*
X277096Y273721D01*
X277056Y273660D01*
X277020Y273596D01*
X276987Y273531D01*
X276958Y273464D01*
X276932Y273395D01*
X276870Y273263D01*
X276812Y273130D01*
X276757Y272996D01*
X276706Y272860D01*
X276659Y272723D01*
X276615Y272584D01*
X276575Y272445D01*
X276538Y272304D01*
X276506Y272163D01*
X276477Y272021D01*
X276452Y271878D01*
X276430Y271734D01*
X276413Y271590D01*
X276399Y271445D01*
X276390Y271300D01*
X276384Y271155D01*
X276382Y271010D01*
X280050Y271010D02*
X280048Y270865D01*
X280042Y270720D01*
X280033Y270575D01*
X280019Y270430D01*
X280002Y270286D01*
X279980Y270143D01*
X279955Y270000D01*
X279927Y269857D01*
X279894Y269716D01*
X279857Y269575D01*
X279817Y269436D01*
X279773Y269297D01*
X279726Y269160D01*
X279675Y269024D01*
X279620Y268890D01*
X279562Y268757D01*
X279500Y268625D01*
X279501Y268626D02*
X279475Y268557D01*
X279446Y268490D01*
X279413Y268424D01*
X279377Y268361D01*
X279337Y268299D01*
X279294Y268240D01*
X279248Y268183D01*
X279199Y268129D01*
X279147Y268077D01*
X279092Y268028D01*
X279035Y267983D01*
X278975Y267940D01*
X278913Y267901D01*
X278850Y267865D01*
X278784Y267832D01*
X278717Y267804D01*
X278648Y267778D01*
X278578Y267757D01*
X278507Y267739D01*
X278435Y267726D01*
X278362Y267716D01*
X278289Y267710D01*
X278216Y267708D01*
X276932Y268625D02*
X276870Y268757D01*
X276812Y268890D01*
X276757Y269024D01*
X276706Y269160D01*
X276659Y269297D01*
X276615Y269436D01*
X276575Y269575D01*
X276538Y269716D01*
X276506Y269857D01*
X276477Y269999D01*
X276452Y270142D01*
X276430Y270286D01*
X276413Y270430D01*
X276399Y270575D01*
X276390Y270720D01*
X276384Y270865D01*
X276382Y271010D01*
X276932Y268625D02*
X276958Y268556D01*
X276987Y268489D01*
X277020Y268424D01*
X277056Y268360D01*
X277096Y268299D01*
X277139Y268240D01*
X277185Y268183D01*
X277234Y268128D01*
X277286Y268077D01*
X277341Y268028D01*
X277398Y267982D01*
X277457Y267940D01*
X277519Y267901D01*
X277583Y267865D01*
X277648Y267832D01*
X277716Y267804D01*
X277784Y267778D01*
X277854Y267757D01*
X277926Y267739D01*
X277997Y267726D01*
X278070Y267716D01*
X278143Y267710D01*
X278216Y267708D01*
X279684Y269176D02*
X276749Y272844D01*
D11*
X471200Y267200D03*
X445800Y267200D03*
X420400Y267200D03*
X395000Y267200D03*
X369600Y267200D03*
X344200Y267200D03*
X572800Y127500D03*
X572800Y102100D03*
X572800Y76700D03*
D12*
X42620Y432700D02*
X27380Y432700D01*
X27380Y407300D02*
X42620Y407300D01*
D13*
X83700Y512300D03*
X83700Y537700D03*
X109100Y512300D03*
X109100Y537700D03*
X134500Y512300D03*
X134500Y537700D03*
X159900Y512300D03*
X159900Y537700D03*
X185300Y512300D03*
X185300Y537700D03*
X210700Y512300D03*
X210700Y537700D03*
X236100Y512300D03*
X236100Y537700D03*
X261500Y512300D03*
X261500Y537700D03*
X286900Y512300D03*
X286900Y537700D03*
X312300Y512300D03*
X312300Y537700D03*
X337700Y512300D03*
X337700Y537700D03*
X363100Y512300D03*
X363100Y537700D03*
X388500Y512300D03*
X388500Y537700D03*
X413900Y512300D03*
X413900Y537700D03*
X439300Y512300D03*
X439300Y537700D03*
X464700Y512300D03*
X464700Y537700D03*
X490100Y512300D03*
X490100Y537700D03*
X515500Y512300D03*
X515500Y537700D03*
X540900Y512300D03*
X540900Y537700D03*
X566300Y512300D03*
X566300Y537700D03*
D14*
X41740Y174000D02*
X28660Y174000D01*
X28660Y106000D02*
X41740Y106000D01*
D15*
X110660Y168500D02*
X121740Y168500D01*
X125200Y145540D02*
X125200Y134460D01*
X121740Y111500D02*
X110660Y111500D01*
D12*
X126000Y35220D02*
X126000Y19980D01*
X151400Y19980D02*
X151400Y35220D01*
X176800Y35220D02*
X176800Y19980D01*
X202200Y19980D02*
X202200Y35220D01*
X227600Y35220D02*
X227600Y19980D01*
D16*
X318800Y95750D03*
X341660Y118610D03*
X381030Y224020D03*
X392460Y174490D03*
D17*
X55600Y407300D02*
X35000Y407300D01*
X55600Y407300D02*
X122100Y473800D01*
X122100Y497400D01*
D18*
X122100Y506819D01*
X121856Y507063D01*
X121856Y525056D01*
X134500Y537700D01*
D19*
X78200Y188800D03*
D20*
X57100Y209900D01*
X55900Y211100D01*
D19*
X57100Y209900D03*
X186600Y118600D03*
D20*
X165200Y140000D02*
X125200Y140000D01*
X165200Y140000D02*
X186600Y118600D01*
D19*
X15212Y268929D03*
D20*
X15212Y387512D01*
X35000Y407300D01*
X420400Y293800D02*
X420400Y267200D01*
X420400Y293800D02*
X462200Y335600D01*
X462700Y335600D01*
D19*
X462700Y335600D03*
D16*
X301020Y32250D03*
D21*
X287050Y46220D01*
D16*
X341660Y173855D03*
D21*
X287050Y119245D02*
X287050Y46220D01*
X287050Y119245D02*
X341660Y173855D01*
D16*
X458500Y102100D03*
D22*
X486440Y74160D01*
D16*
X486440Y74160D03*
X361980Y144010D03*
D21*
X292130Y56380D02*
X314990Y33520D01*
D16*
X314990Y33520D03*
D21*
X320070Y144010D02*
X361980Y144010D01*
X320070Y144010D02*
X292130Y116070D01*
X292130Y56380D01*
D16*
X354360Y66540D03*
D21*
X363250Y66540D01*
X379760Y66540D02*
X381030Y66540D01*
X379760Y66540D02*
X354360Y66540D01*
D16*
X388650Y39870D03*
D21*
X388650Y58920D01*
X381030Y66540D01*
D16*
X379760Y206240D03*
D21*
X379760Y66540D01*
D16*
X318800Y79240D03*
X301020Y112895D03*
D23*
X301020Y97020D02*
X318800Y79240D01*
X301020Y97020D02*
X301020Y112895D01*
X318800Y79240D02*
X377220Y20820D01*
X397540Y20820D02*
X407700Y30980D01*
X407700Y229100D01*
X414685Y236085D01*
X445800Y267200D01*
D16*
X311180Y251960D03*
D21*
X398810Y251960D01*
X414685Y236085D01*
D23*
X389920Y20820D02*
X377220Y20820D01*
X389920Y20820D02*
X397540Y20820D01*
D16*
X389920Y20820D03*
D19*
X120000Y360600D03*
D24*
X120000Y381600D01*
X94300Y407300D01*
D19*
X94300Y407700D03*
D24*
X94300Y407300D01*
D19*
X158900Y113900D03*
D24*
X158900Y113300D01*
X124800Y79200D01*
X124800Y20900D01*
X126000Y22100D01*
X126000Y27600D01*
D16*
X395000Y141470D03*
D21*
X395000Y90670D01*
D16*
X395000Y90670D03*
D19*
X109100Y433000D03*
D20*
X141800Y400300D01*
X141800Y367100D01*
X141000Y366300D01*
D19*
X141000Y366300D03*
X197500Y291100D03*
D20*
X197500Y249800D01*
X116200Y168500D01*
D19*
X84300Y65900D03*
D20*
X84300Y119900D01*
X87240Y122840D01*
X98308Y122840D01*
X108668Y133200D02*
X108700Y133200D01*
X108668Y133200D02*
X98308Y122840D01*
X108700Y161000D02*
X116200Y168500D01*
X108700Y161000D02*
X108700Y133200D01*
D19*
X44800Y334300D03*
D20*
X51000Y340500D01*
X144600Y340500D01*
X159900Y355800D01*
X159900Y365000D01*
X159900Y369300D02*
X159900Y512300D01*
X202200Y41300D02*
X202200Y27600D01*
X202200Y41300D02*
X212200Y51300D01*
X212200Y312700D01*
X159900Y365000D02*
X159900Y369300D01*
X159900Y365000D02*
X212200Y312700D01*
D19*
X409000Y337600D03*
D20*
X312300Y434300D01*
X312300Y512300D01*
X337700Y512300D02*
X337700Y437800D01*
X337200Y437300D01*
X429500Y345000D01*
X430300Y345000D01*
D19*
X430300Y345000D03*
X446500Y334700D03*
D20*
X446500Y348200D01*
X363100Y431600D01*
X363100Y512300D01*
M02*
