G04 EAGLE Gerber RS-274X export*
G75*
%MOMM*%
%FSLAX34Y34*%
%LPD*%
%IN*%
%IPPOS*%
%AMOC8*
5,1,8,0,0,1.08239X$1,22.5*%
G01*
%ADD10C,0.254000*%
%ADD11C,0.000000*%
%ADD12C,0.254000*%


D10*
X650000Y0D02*
X650000Y560000D01*
X0Y560000D01*
X0Y0D01*
X650000Y0D01*
D11*
X601000Y35000D02*
X601004Y35344D01*
X601017Y35687D01*
X601038Y36030D01*
X601067Y36372D01*
X601105Y36714D01*
X601152Y37054D01*
X601206Y37393D01*
X601269Y37731D01*
X601340Y38067D01*
X601420Y38402D01*
X601507Y38734D01*
X601603Y39064D01*
X601707Y39392D01*
X601818Y39716D01*
X601938Y40039D01*
X602066Y40358D01*
X602201Y40673D01*
X602344Y40986D01*
X602495Y41295D01*
X602653Y41600D01*
X602819Y41901D01*
X602992Y42197D01*
X603172Y42490D01*
X603359Y42778D01*
X603554Y43061D01*
X603755Y43340D01*
X603963Y43613D01*
X604178Y43882D01*
X604399Y44144D01*
X604627Y44402D01*
X604861Y44654D01*
X605101Y44899D01*
X605346Y45139D01*
X605598Y45373D01*
X605856Y45601D01*
X606118Y45822D01*
X606387Y46037D01*
X606660Y46245D01*
X606939Y46446D01*
X607222Y46641D01*
X607510Y46828D01*
X607803Y47008D01*
X608099Y47181D01*
X608400Y47347D01*
X608705Y47505D01*
X609014Y47656D01*
X609327Y47799D01*
X609642Y47934D01*
X609961Y48062D01*
X610284Y48182D01*
X610608Y48293D01*
X610936Y48397D01*
X611266Y48493D01*
X611598Y48580D01*
X611933Y48660D01*
X612269Y48731D01*
X612607Y48794D01*
X612946Y48848D01*
X613286Y48895D01*
X613628Y48933D01*
X613970Y48962D01*
X614313Y48983D01*
X614656Y48996D01*
X615000Y49000D01*
X615344Y48996D01*
X615687Y48983D01*
X616030Y48962D01*
X616372Y48933D01*
X616714Y48895D01*
X617054Y48848D01*
X617393Y48794D01*
X617731Y48731D01*
X618067Y48660D01*
X618402Y48580D01*
X618734Y48493D01*
X619064Y48397D01*
X619392Y48293D01*
X619716Y48182D01*
X620039Y48062D01*
X620358Y47934D01*
X620673Y47799D01*
X620986Y47656D01*
X621295Y47505D01*
X621600Y47347D01*
X621901Y47181D01*
X622197Y47008D01*
X622490Y46828D01*
X622778Y46641D01*
X623061Y46446D01*
X623340Y46245D01*
X623613Y46037D01*
X623882Y45822D01*
X624144Y45601D01*
X624402Y45373D01*
X624654Y45139D01*
X624899Y44899D01*
X625139Y44654D01*
X625373Y44402D01*
X625601Y44144D01*
X625822Y43882D01*
X626037Y43613D01*
X626245Y43340D01*
X626446Y43061D01*
X626641Y42778D01*
X626828Y42490D01*
X627008Y42197D01*
X627181Y41901D01*
X627347Y41600D01*
X627505Y41295D01*
X627656Y40986D01*
X627799Y40673D01*
X627934Y40358D01*
X628062Y40039D01*
X628182Y39716D01*
X628293Y39392D01*
X628397Y39064D01*
X628493Y38734D01*
X628580Y38402D01*
X628660Y38067D01*
X628731Y37731D01*
X628794Y37393D01*
X628848Y37054D01*
X628895Y36714D01*
X628933Y36372D01*
X628962Y36030D01*
X628983Y35687D01*
X628996Y35344D01*
X629000Y35000D01*
X628996Y34656D01*
X628983Y34313D01*
X628962Y33970D01*
X628933Y33628D01*
X628895Y33286D01*
X628848Y32946D01*
X628794Y32607D01*
X628731Y32269D01*
X628660Y31933D01*
X628580Y31598D01*
X628493Y31266D01*
X628397Y30936D01*
X628293Y30608D01*
X628182Y30284D01*
X628062Y29961D01*
X627934Y29642D01*
X627799Y29327D01*
X627656Y29014D01*
X627505Y28705D01*
X627347Y28400D01*
X627181Y28099D01*
X627008Y27803D01*
X626828Y27510D01*
X626641Y27222D01*
X626446Y26939D01*
X626245Y26660D01*
X626037Y26387D01*
X625822Y26118D01*
X625601Y25856D01*
X625373Y25598D01*
X625139Y25346D01*
X624899Y25101D01*
X624654Y24861D01*
X624402Y24627D01*
X624144Y24399D01*
X623882Y24178D01*
X623613Y23963D01*
X623340Y23755D01*
X623061Y23554D01*
X622778Y23359D01*
X622490Y23172D01*
X622197Y22992D01*
X621901Y22819D01*
X621600Y22653D01*
X621295Y22495D01*
X620986Y22344D01*
X620673Y22201D01*
X620358Y22066D01*
X620039Y21938D01*
X619716Y21818D01*
X619392Y21707D01*
X619064Y21603D01*
X618734Y21507D01*
X618402Y21420D01*
X618067Y21340D01*
X617731Y21269D01*
X617393Y21206D01*
X617054Y21152D01*
X616714Y21105D01*
X616372Y21067D01*
X616030Y21038D01*
X615687Y21017D01*
X615344Y21004D01*
X615000Y21000D01*
X614656Y21004D01*
X614313Y21017D01*
X613970Y21038D01*
X613628Y21067D01*
X613286Y21105D01*
X612946Y21152D01*
X612607Y21206D01*
X612269Y21269D01*
X611933Y21340D01*
X611598Y21420D01*
X611266Y21507D01*
X610936Y21603D01*
X610608Y21707D01*
X610284Y21818D01*
X609961Y21938D01*
X609642Y22066D01*
X609327Y22201D01*
X609014Y22344D01*
X608705Y22495D01*
X608400Y22653D01*
X608099Y22819D01*
X607803Y22992D01*
X607510Y23172D01*
X607222Y23359D01*
X606939Y23554D01*
X606660Y23755D01*
X606387Y23963D01*
X606118Y24178D01*
X605856Y24399D01*
X605598Y24627D01*
X605346Y24861D01*
X605101Y25101D01*
X604861Y25346D01*
X604627Y25598D01*
X604399Y25856D01*
X604178Y26118D01*
X603963Y26387D01*
X603755Y26660D01*
X603554Y26939D01*
X603359Y27222D01*
X603172Y27510D01*
X602992Y27803D01*
X602819Y28099D01*
X602653Y28400D01*
X602495Y28705D01*
X602344Y29014D01*
X602201Y29327D01*
X602066Y29642D01*
X601938Y29961D01*
X601818Y30284D01*
X601707Y30608D01*
X601603Y30936D01*
X601507Y31266D01*
X601420Y31598D01*
X601340Y31933D01*
X601269Y32269D01*
X601206Y32607D01*
X601152Y32946D01*
X601105Y33286D01*
X601067Y33628D01*
X601038Y33970D01*
X601017Y34313D01*
X601004Y34656D01*
X601000Y35000D01*
X600000Y525000D02*
X600004Y525344D01*
X600017Y525687D01*
X600038Y526030D01*
X600067Y526372D01*
X600105Y526714D01*
X600152Y527054D01*
X600206Y527393D01*
X600269Y527731D01*
X600340Y528067D01*
X600420Y528402D01*
X600507Y528734D01*
X600603Y529064D01*
X600707Y529392D01*
X600818Y529716D01*
X600938Y530039D01*
X601066Y530358D01*
X601201Y530673D01*
X601344Y530986D01*
X601495Y531295D01*
X601653Y531600D01*
X601819Y531901D01*
X601992Y532197D01*
X602172Y532490D01*
X602359Y532778D01*
X602554Y533061D01*
X602755Y533340D01*
X602963Y533613D01*
X603178Y533882D01*
X603399Y534144D01*
X603627Y534402D01*
X603861Y534654D01*
X604101Y534899D01*
X604346Y535139D01*
X604598Y535373D01*
X604856Y535601D01*
X605118Y535822D01*
X605387Y536037D01*
X605660Y536245D01*
X605939Y536446D01*
X606222Y536641D01*
X606510Y536828D01*
X606803Y537008D01*
X607099Y537181D01*
X607400Y537347D01*
X607705Y537505D01*
X608014Y537656D01*
X608327Y537799D01*
X608642Y537934D01*
X608961Y538062D01*
X609284Y538182D01*
X609608Y538293D01*
X609936Y538397D01*
X610266Y538493D01*
X610598Y538580D01*
X610933Y538660D01*
X611269Y538731D01*
X611607Y538794D01*
X611946Y538848D01*
X612286Y538895D01*
X612628Y538933D01*
X612970Y538962D01*
X613313Y538983D01*
X613656Y538996D01*
X614000Y539000D01*
X614344Y538996D01*
X614687Y538983D01*
X615030Y538962D01*
X615372Y538933D01*
X615714Y538895D01*
X616054Y538848D01*
X616393Y538794D01*
X616731Y538731D01*
X617067Y538660D01*
X617402Y538580D01*
X617734Y538493D01*
X618064Y538397D01*
X618392Y538293D01*
X618716Y538182D01*
X619039Y538062D01*
X619358Y537934D01*
X619673Y537799D01*
X619986Y537656D01*
X620295Y537505D01*
X620600Y537347D01*
X620901Y537181D01*
X621197Y537008D01*
X621490Y536828D01*
X621778Y536641D01*
X622061Y536446D01*
X622340Y536245D01*
X622613Y536037D01*
X622882Y535822D01*
X623144Y535601D01*
X623402Y535373D01*
X623654Y535139D01*
X623899Y534899D01*
X624139Y534654D01*
X624373Y534402D01*
X624601Y534144D01*
X624822Y533882D01*
X625037Y533613D01*
X625245Y533340D01*
X625446Y533061D01*
X625641Y532778D01*
X625828Y532490D01*
X626008Y532197D01*
X626181Y531901D01*
X626347Y531600D01*
X626505Y531295D01*
X626656Y530986D01*
X626799Y530673D01*
X626934Y530358D01*
X627062Y530039D01*
X627182Y529716D01*
X627293Y529392D01*
X627397Y529064D01*
X627493Y528734D01*
X627580Y528402D01*
X627660Y528067D01*
X627731Y527731D01*
X627794Y527393D01*
X627848Y527054D01*
X627895Y526714D01*
X627933Y526372D01*
X627962Y526030D01*
X627983Y525687D01*
X627996Y525344D01*
X628000Y525000D01*
X627996Y524656D01*
X627983Y524313D01*
X627962Y523970D01*
X627933Y523628D01*
X627895Y523286D01*
X627848Y522946D01*
X627794Y522607D01*
X627731Y522269D01*
X627660Y521933D01*
X627580Y521598D01*
X627493Y521266D01*
X627397Y520936D01*
X627293Y520608D01*
X627182Y520284D01*
X627062Y519961D01*
X626934Y519642D01*
X626799Y519327D01*
X626656Y519014D01*
X626505Y518705D01*
X626347Y518400D01*
X626181Y518099D01*
X626008Y517803D01*
X625828Y517510D01*
X625641Y517222D01*
X625446Y516939D01*
X625245Y516660D01*
X625037Y516387D01*
X624822Y516118D01*
X624601Y515856D01*
X624373Y515598D01*
X624139Y515346D01*
X623899Y515101D01*
X623654Y514861D01*
X623402Y514627D01*
X623144Y514399D01*
X622882Y514178D01*
X622613Y513963D01*
X622340Y513755D01*
X622061Y513554D01*
X621778Y513359D01*
X621490Y513172D01*
X621197Y512992D01*
X620901Y512819D01*
X620600Y512653D01*
X620295Y512495D01*
X619986Y512344D01*
X619673Y512201D01*
X619358Y512066D01*
X619039Y511938D01*
X618716Y511818D01*
X618392Y511707D01*
X618064Y511603D01*
X617734Y511507D01*
X617402Y511420D01*
X617067Y511340D01*
X616731Y511269D01*
X616393Y511206D01*
X616054Y511152D01*
X615714Y511105D01*
X615372Y511067D01*
X615030Y511038D01*
X614687Y511017D01*
X614344Y511004D01*
X614000Y511000D01*
X613656Y511004D01*
X613313Y511017D01*
X612970Y511038D01*
X612628Y511067D01*
X612286Y511105D01*
X611946Y511152D01*
X611607Y511206D01*
X611269Y511269D01*
X610933Y511340D01*
X610598Y511420D01*
X610266Y511507D01*
X609936Y511603D01*
X609608Y511707D01*
X609284Y511818D01*
X608961Y511938D01*
X608642Y512066D01*
X608327Y512201D01*
X608014Y512344D01*
X607705Y512495D01*
X607400Y512653D01*
X607099Y512819D01*
X606803Y512992D01*
X606510Y513172D01*
X606222Y513359D01*
X605939Y513554D01*
X605660Y513755D01*
X605387Y513963D01*
X605118Y514178D01*
X604856Y514399D01*
X604598Y514627D01*
X604346Y514861D01*
X604101Y515101D01*
X603861Y515346D01*
X603627Y515598D01*
X603399Y515856D01*
X603178Y516118D01*
X602963Y516387D01*
X602755Y516660D01*
X602554Y516939D01*
X602359Y517222D01*
X602172Y517510D01*
X601992Y517803D01*
X601819Y518099D01*
X601653Y518400D01*
X601495Y518705D01*
X601344Y519014D01*
X601201Y519327D01*
X601066Y519642D01*
X600938Y519961D01*
X600818Y520284D01*
X600707Y520608D01*
X600603Y520936D01*
X600507Y521266D01*
X600420Y521598D01*
X600340Y521933D01*
X600269Y522269D01*
X600206Y522607D01*
X600152Y522946D01*
X600105Y523286D01*
X600067Y523628D01*
X600038Y523970D01*
X600017Y524313D01*
X600004Y524656D01*
X600000Y525000D01*
X21000Y525000D02*
X21004Y525344D01*
X21017Y525687D01*
X21038Y526030D01*
X21067Y526372D01*
X21105Y526714D01*
X21152Y527054D01*
X21206Y527393D01*
X21269Y527731D01*
X21340Y528067D01*
X21420Y528402D01*
X21507Y528734D01*
X21603Y529064D01*
X21707Y529392D01*
X21818Y529716D01*
X21938Y530039D01*
X22066Y530358D01*
X22201Y530673D01*
X22344Y530986D01*
X22495Y531295D01*
X22653Y531600D01*
X22819Y531901D01*
X22992Y532197D01*
X23172Y532490D01*
X23359Y532778D01*
X23554Y533061D01*
X23755Y533340D01*
X23963Y533613D01*
X24178Y533882D01*
X24399Y534144D01*
X24627Y534402D01*
X24861Y534654D01*
X25101Y534899D01*
X25346Y535139D01*
X25598Y535373D01*
X25856Y535601D01*
X26118Y535822D01*
X26387Y536037D01*
X26660Y536245D01*
X26939Y536446D01*
X27222Y536641D01*
X27510Y536828D01*
X27803Y537008D01*
X28099Y537181D01*
X28400Y537347D01*
X28705Y537505D01*
X29014Y537656D01*
X29327Y537799D01*
X29642Y537934D01*
X29961Y538062D01*
X30284Y538182D01*
X30608Y538293D01*
X30936Y538397D01*
X31266Y538493D01*
X31598Y538580D01*
X31933Y538660D01*
X32269Y538731D01*
X32607Y538794D01*
X32946Y538848D01*
X33286Y538895D01*
X33628Y538933D01*
X33970Y538962D01*
X34313Y538983D01*
X34656Y538996D01*
X35000Y539000D01*
X35344Y538996D01*
X35687Y538983D01*
X36030Y538962D01*
X36372Y538933D01*
X36714Y538895D01*
X37054Y538848D01*
X37393Y538794D01*
X37731Y538731D01*
X38067Y538660D01*
X38402Y538580D01*
X38734Y538493D01*
X39064Y538397D01*
X39392Y538293D01*
X39716Y538182D01*
X40039Y538062D01*
X40358Y537934D01*
X40673Y537799D01*
X40986Y537656D01*
X41295Y537505D01*
X41600Y537347D01*
X41901Y537181D01*
X42197Y537008D01*
X42490Y536828D01*
X42778Y536641D01*
X43061Y536446D01*
X43340Y536245D01*
X43613Y536037D01*
X43882Y535822D01*
X44144Y535601D01*
X44402Y535373D01*
X44654Y535139D01*
X44899Y534899D01*
X45139Y534654D01*
X45373Y534402D01*
X45601Y534144D01*
X45822Y533882D01*
X46037Y533613D01*
X46245Y533340D01*
X46446Y533061D01*
X46641Y532778D01*
X46828Y532490D01*
X47008Y532197D01*
X47181Y531901D01*
X47347Y531600D01*
X47505Y531295D01*
X47656Y530986D01*
X47799Y530673D01*
X47934Y530358D01*
X48062Y530039D01*
X48182Y529716D01*
X48293Y529392D01*
X48397Y529064D01*
X48493Y528734D01*
X48580Y528402D01*
X48660Y528067D01*
X48731Y527731D01*
X48794Y527393D01*
X48848Y527054D01*
X48895Y526714D01*
X48933Y526372D01*
X48962Y526030D01*
X48983Y525687D01*
X48996Y525344D01*
X49000Y525000D01*
X48996Y524656D01*
X48983Y524313D01*
X48962Y523970D01*
X48933Y523628D01*
X48895Y523286D01*
X48848Y522946D01*
X48794Y522607D01*
X48731Y522269D01*
X48660Y521933D01*
X48580Y521598D01*
X48493Y521266D01*
X48397Y520936D01*
X48293Y520608D01*
X48182Y520284D01*
X48062Y519961D01*
X47934Y519642D01*
X47799Y519327D01*
X47656Y519014D01*
X47505Y518705D01*
X47347Y518400D01*
X47181Y518099D01*
X47008Y517803D01*
X46828Y517510D01*
X46641Y517222D01*
X46446Y516939D01*
X46245Y516660D01*
X46037Y516387D01*
X45822Y516118D01*
X45601Y515856D01*
X45373Y515598D01*
X45139Y515346D01*
X44899Y515101D01*
X44654Y514861D01*
X44402Y514627D01*
X44144Y514399D01*
X43882Y514178D01*
X43613Y513963D01*
X43340Y513755D01*
X43061Y513554D01*
X42778Y513359D01*
X42490Y513172D01*
X42197Y512992D01*
X41901Y512819D01*
X41600Y512653D01*
X41295Y512495D01*
X40986Y512344D01*
X40673Y512201D01*
X40358Y512066D01*
X40039Y511938D01*
X39716Y511818D01*
X39392Y511707D01*
X39064Y511603D01*
X38734Y511507D01*
X38402Y511420D01*
X38067Y511340D01*
X37731Y511269D01*
X37393Y511206D01*
X37054Y511152D01*
X36714Y511105D01*
X36372Y511067D01*
X36030Y511038D01*
X35687Y511017D01*
X35344Y511004D01*
X35000Y511000D01*
X34656Y511004D01*
X34313Y511017D01*
X33970Y511038D01*
X33628Y511067D01*
X33286Y511105D01*
X32946Y511152D01*
X32607Y511206D01*
X32269Y511269D01*
X31933Y511340D01*
X31598Y511420D01*
X31266Y511507D01*
X30936Y511603D01*
X30608Y511707D01*
X30284Y511818D01*
X29961Y511938D01*
X29642Y512066D01*
X29327Y512201D01*
X29014Y512344D01*
X28705Y512495D01*
X28400Y512653D01*
X28099Y512819D01*
X27803Y512992D01*
X27510Y513172D01*
X27222Y513359D01*
X26939Y513554D01*
X26660Y513755D01*
X26387Y513963D01*
X26118Y514178D01*
X25856Y514399D01*
X25598Y514627D01*
X25346Y514861D01*
X25101Y515101D01*
X24861Y515346D01*
X24627Y515598D01*
X24399Y515856D01*
X24178Y516118D01*
X23963Y516387D01*
X23755Y516660D01*
X23554Y516939D01*
X23359Y517222D01*
X23172Y517510D01*
X22992Y517803D01*
X22819Y518099D01*
X22653Y518400D01*
X22495Y518705D01*
X22344Y519014D01*
X22201Y519327D01*
X22066Y519642D01*
X21938Y519961D01*
X21818Y520284D01*
X21707Y520608D01*
X21603Y520936D01*
X21507Y521266D01*
X21420Y521598D01*
X21340Y521933D01*
X21269Y522269D01*
X21206Y522607D01*
X21152Y522946D01*
X21105Y523286D01*
X21067Y523628D01*
X21038Y523970D01*
X21017Y524313D01*
X21004Y524656D01*
X21000Y525000D01*
X21000Y35000D02*
X21004Y35344D01*
X21017Y35687D01*
X21038Y36030D01*
X21067Y36372D01*
X21105Y36714D01*
X21152Y37054D01*
X21206Y37393D01*
X21269Y37731D01*
X21340Y38067D01*
X21420Y38402D01*
X21507Y38734D01*
X21603Y39064D01*
X21707Y39392D01*
X21818Y39716D01*
X21938Y40039D01*
X22066Y40358D01*
X22201Y40673D01*
X22344Y40986D01*
X22495Y41295D01*
X22653Y41600D01*
X22819Y41901D01*
X22992Y42197D01*
X23172Y42490D01*
X23359Y42778D01*
X23554Y43061D01*
X23755Y43340D01*
X23963Y43613D01*
X24178Y43882D01*
X24399Y44144D01*
X24627Y44402D01*
X24861Y44654D01*
X25101Y44899D01*
X25346Y45139D01*
X25598Y45373D01*
X25856Y45601D01*
X26118Y45822D01*
X26387Y46037D01*
X26660Y46245D01*
X26939Y46446D01*
X27222Y46641D01*
X27510Y46828D01*
X27803Y47008D01*
X28099Y47181D01*
X28400Y47347D01*
X28705Y47505D01*
X29014Y47656D01*
X29327Y47799D01*
X29642Y47934D01*
X29961Y48062D01*
X30284Y48182D01*
X30608Y48293D01*
X30936Y48397D01*
X31266Y48493D01*
X31598Y48580D01*
X31933Y48660D01*
X32269Y48731D01*
X32607Y48794D01*
X32946Y48848D01*
X33286Y48895D01*
X33628Y48933D01*
X33970Y48962D01*
X34313Y48983D01*
X34656Y48996D01*
X35000Y49000D01*
X35344Y48996D01*
X35687Y48983D01*
X36030Y48962D01*
X36372Y48933D01*
X36714Y48895D01*
X37054Y48848D01*
X37393Y48794D01*
X37731Y48731D01*
X38067Y48660D01*
X38402Y48580D01*
X38734Y48493D01*
X39064Y48397D01*
X39392Y48293D01*
X39716Y48182D01*
X40039Y48062D01*
X40358Y47934D01*
X40673Y47799D01*
X40986Y47656D01*
X41295Y47505D01*
X41600Y47347D01*
X41901Y47181D01*
X42197Y47008D01*
X42490Y46828D01*
X42778Y46641D01*
X43061Y46446D01*
X43340Y46245D01*
X43613Y46037D01*
X43882Y45822D01*
X44144Y45601D01*
X44402Y45373D01*
X44654Y45139D01*
X44899Y44899D01*
X45139Y44654D01*
X45373Y44402D01*
X45601Y44144D01*
X45822Y43882D01*
X46037Y43613D01*
X46245Y43340D01*
X46446Y43061D01*
X46641Y42778D01*
X46828Y42490D01*
X47008Y42197D01*
X47181Y41901D01*
X47347Y41600D01*
X47505Y41295D01*
X47656Y40986D01*
X47799Y40673D01*
X47934Y40358D01*
X48062Y40039D01*
X48182Y39716D01*
X48293Y39392D01*
X48397Y39064D01*
X48493Y38734D01*
X48580Y38402D01*
X48660Y38067D01*
X48731Y37731D01*
X48794Y37393D01*
X48848Y37054D01*
X48895Y36714D01*
X48933Y36372D01*
X48962Y36030D01*
X48983Y35687D01*
X48996Y35344D01*
X49000Y35000D01*
X48996Y34656D01*
X48983Y34313D01*
X48962Y33970D01*
X48933Y33628D01*
X48895Y33286D01*
X48848Y32946D01*
X48794Y32607D01*
X48731Y32269D01*
X48660Y31933D01*
X48580Y31598D01*
X48493Y31266D01*
X48397Y30936D01*
X48293Y30608D01*
X48182Y30284D01*
X48062Y29961D01*
X47934Y29642D01*
X47799Y29327D01*
X47656Y29014D01*
X47505Y28705D01*
X47347Y28400D01*
X47181Y28099D01*
X47008Y27803D01*
X46828Y27510D01*
X46641Y27222D01*
X46446Y26939D01*
X46245Y26660D01*
X46037Y26387D01*
X45822Y26118D01*
X45601Y25856D01*
X45373Y25598D01*
X45139Y25346D01*
X44899Y25101D01*
X44654Y24861D01*
X44402Y24627D01*
X44144Y24399D01*
X43882Y24178D01*
X43613Y23963D01*
X43340Y23755D01*
X43061Y23554D01*
X42778Y23359D01*
X42490Y23172D01*
X42197Y22992D01*
X41901Y22819D01*
X41600Y22653D01*
X41295Y22495D01*
X40986Y22344D01*
X40673Y22201D01*
X40358Y22066D01*
X40039Y21938D01*
X39716Y21818D01*
X39392Y21707D01*
X39064Y21603D01*
X38734Y21507D01*
X38402Y21420D01*
X38067Y21340D01*
X37731Y21269D01*
X37393Y21206D01*
X37054Y21152D01*
X36714Y21105D01*
X36372Y21067D01*
X36030Y21038D01*
X35687Y21017D01*
X35344Y21004D01*
X35000Y21000D01*
X34656Y21004D01*
X34313Y21017D01*
X33970Y21038D01*
X33628Y21067D01*
X33286Y21105D01*
X32946Y21152D01*
X32607Y21206D01*
X32269Y21269D01*
X31933Y21340D01*
X31598Y21420D01*
X31266Y21507D01*
X30936Y21603D01*
X30608Y21707D01*
X30284Y21818D01*
X29961Y21938D01*
X29642Y22066D01*
X29327Y22201D01*
X29014Y22344D01*
X28705Y22495D01*
X28400Y22653D01*
X28099Y22819D01*
X27803Y22992D01*
X27510Y23172D01*
X27222Y23359D01*
X26939Y23554D01*
X26660Y23755D01*
X26387Y23963D01*
X26118Y24178D01*
X25856Y24399D01*
X25598Y24627D01*
X25346Y24861D01*
X25101Y25101D01*
X24861Y25346D01*
X24627Y25598D01*
X24399Y25856D01*
X24178Y26118D01*
X23963Y26387D01*
X23755Y26660D01*
X23554Y26939D01*
X23359Y27222D01*
X23172Y27510D01*
X22992Y27803D01*
X22819Y28099D01*
X22653Y28400D01*
X22495Y28705D01*
X22344Y29014D01*
X22201Y29327D01*
X22066Y29642D01*
X21938Y29961D01*
X21818Y30284D01*
X21707Y30608D01*
X21603Y30936D01*
X21507Y31266D01*
X21420Y31598D01*
X21340Y31933D01*
X21269Y32269D01*
X21206Y32607D01*
X21152Y32946D01*
X21105Y33286D01*
X21067Y33628D01*
X21038Y33970D01*
X21017Y34313D01*
X21004Y34656D01*
X21000Y35000D01*
X470090Y38040D02*
X470093Y38285D01*
X470102Y38531D01*
X470117Y38776D01*
X470138Y39020D01*
X470165Y39264D01*
X470198Y39507D01*
X470237Y39750D01*
X470282Y39991D01*
X470333Y40231D01*
X470390Y40470D01*
X470452Y40707D01*
X470521Y40943D01*
X470595Y41177D01*
X470675Y41409D01*
X470760Y41639D01*
X470851Y41867D01*
X470948Y42092D01*
X471050Y42316D01*
X471158Y42536D01*
X471271Y42754D01*
X471389Y42969D01*
X471513Y43181D01*
X471641Y43390D01*
X471775Y43596D01*
X471914Y43798D01*
X472058Y43997D01*
X472207Y44192D01*
X472360Y44384D01*
X472518Y44572D01*
X472680Y44756D01*
X472848Y44935D01*
X473019Y45111D01*
X473195Y45282D01*
X473374Y45450D01*
X473558Y45612D01*
X473746Y45770D01*
X473938Y45923D01*
X474133Y46072D01*
X474332Y46216D01*
X474534Y46355D01*
X474740Y46489D01*
X474949Y46617D01*
X475161Y46741D01*
X475376Y46859D01*
X475594Y46972D01*
X475814Y47080D01*
X476038Y47182D01*
X476263Y47279D01*
X476491Y47370D01*
X476721Y47455D01*
X476953Y47535D01*
X477187Y47609D01*
X477423Y47678D01*
X477660Y47740D01*
X477899Y47797D01*
X478139Y47848D01*
X478380Y47893D01*
X478623Y47932D01*
X478866Y47965D01*
X479110Y47992D01*
X479354Y48013D01*
X479599Y48028D01*
X479845Y48037D01*
X480090Y48040D01*
X480335Y48037D01*
X480581Y48028D01*
X480826Y48013D01*
X481070Y47992D01*
X481314Y47965D01*
X481557Y47932D01*
X481800Y47893D01*
X482041Y47848D01*
X482281Y47797D01*
X482520Y47740D01*
X482757Y47678D01*
X482993Y47609D01*
X483227Y47535D01*
X483459Y47455D01*
X483689Y47370D01*
X483917Y47279D01*
X484142Y47182D01*
X484366Y47080D01*
X484586Y46972D01*
X484804Y46859D01*
X485019Y46741D01*
X485231Y46617D01*
X485440Y46489D01*
X485646Y46355D01*
X485848Y46216D01*
X486047Y46072D01*
X486242Y45923D01*
X486434Y45770D01*
X486622Y45612D01*
X486806Y45450D01*
X486985Y45282D01*
X487161Y45111D01*
X487332Y44935D01*
X487500Y44756D01*
X487662Y44572D01*
X487820Y44384D01*
X487973Y44192D01*
X488122Y43997D01*
X488266Y43798D01*
X488405Y43596D01*
X488539Y43390D01*
X488667Y43181D01*
X488791Y42969D01*
X488909Y42754D01*
X489022Y42536D01*
X489130Y42316D01*
X489232Y42092D01*
X489329Y41867D01*
X489420Y41639D01*
X489505Y41409D01*
X489585Y41177D01*
X489659Y40943D01*
X489728Y40707D01*
X489790Y40470D01*
X489847Y40231D01*
X489898Y39991D01*
X489943Y39750D01*
X489982Y39507D01*
X490015Y39264D01*
X490042Y39020D01*
X490063Y38776D01*
X490078Y38531D01*
X490087Y38285D01*
X490090Y38040D01*
X490087Y37795D01*
X490078Y37549D01*
X490063Y37304D01*
X490042Y37060D01*
X490015Y36816D01*
X489982Y36573D01*
X489943Y36330D01*
X489898Y36089D01*
X489847Y35849D01*
X489790Y35610D01*
X489728Y35373D01*
X489659Y35137D01*
X489585Y34903D01*
X489505Y34671D01*
X489420Y34441D01*
X489329Y34213D01*
X489232Y33988D01*
X489130Y33764D01*
X489022Y33544D01*
X488909Y33326D01*
X488791Y33111D01*
X488667Y32899D01*
X488539Y32690D01*
X488405Y32484D01*
X488266Y32282D01*
X488122Y32083D01*
X487973Y31888D01*
X487820Y31696D01*
X487662Y31508D01*
X487500Y31324D01*
X487332Y31145D01*
X487161Y30969D01*
X486985Y30798D01*
X486806Y30630D01*
X486622Y30468D01*
X486434Y30310D01*
X486242Y30157D01*
X486047Y30008D01*
X485848Y29864D01*
X485646Y29725D01*
X485440Y29591D01*
X485231Y29463D01*
X485019Y29339D01*
X484804Y29221D01*
X484586Y29108D01*
X484366Y29000D01*
X484142Y28898D01*
X483917Y28801D01*
X483689Y28710D01*
X483459Y28625D01*
X483227Y28545D01*
X482993Y28471D01*
X482757Y28402D01*
X482520Y28340D01*
X482281Y28283D01*
X482041Y28232D01*
X481800Y28187D01*
X481557Y28148D01*
X481314Y28115D01*
X481070Y28088D01*
X480826Y28067D01*
X480581Y28052D01*
X480335Y28043D01*
X480090Y28040D01*
X479845Y28043D01*
X479599Y28052D01*
X479354Y28067D01*
X479110Y28088D01*
X478866Y28115D01*
X478623Y28148D01*
X478380Y28187D01*
X478139Y28232D01*
X477899Y28283D01*
X477660Y28340D01*
X477423Y28402D01*
X477187Y28471D01*
X476953Y28545D01*
X476721Y28625D01*
X476491Y28710D01*
X476263Y28801D01*
X476038Y28898D01*
X475814Y29000D01*
X475594Y29108D01*
X475376Y29221D01*
X475161Y29339D01*
X474949Y29463D01*
X474740Y29591D01*
X474534Y29725D01*
X474332Y29864D01*
X474133Y30008D01*
X473938Y30157D01*
X473746Y30310D01*
X473558Y30468D01*
X473374Y30630D01*
X473195Y30798D01*
X473019Y30969D01*
X472848Y31145D01*
X472680Y31324D01*
X472518Y31508D01*
X472360Y31696D01*
X472207Y31888D01*
X472058Y32083D01*
X471914Y32282D01*
X471775Y32484D01*
X471641Y32690D01*
X471513Y32899D01*
X471389Y33111D01*
X471271Y33326D01*
X471158Y33544D01*
X471050Y33764D01*
X470948Y33988D01*
X470851Y34213D01*
X470760Y34441D01*
X470675Y34671D01*
X470595Y34903D01*
X470521Y35137D01*
X470452Y35373D01*
X470390Y35610D01*
X470333Y35849D01*
X470282Y36089D01*
X470237Y36330D01*
X470198Y36573D01*
X470165Y36816D01*
X470138Y37060D01*
X470117Y37304D01*
X470102Y37549D01*
X470093Y37795D01*
X470090Y38040D01*
X470090Y108040D02*
X470093Y108285D01*
X470102Y108531D01*
X470117Y108776D01*
X470138Y109020D01*
X470165Y109264D01*
X470198Y109507D01*
X470237Y109750D01*
X470282Y109991D01*
X470333Y110231D01*
X470390Y110470D01*
X470452Y110707D01*
X470521Y110943D01*
X470595Y111177D01*
X470675Y111409D01*
X470760Y111639D01*
X470851Y111867D01*
X470948Y112092D01*
X471050Y112316D01*
X471158Y112536D01*
X471271Y112754D01*
X471389Y112969D01*
X471513Y113181D01*
X471641Y113390D01*
X471775Y113596D01*
X471914Y113798D01*
X472058Y113997D01*
X472207Y114192D01*
X472360Y114384D01*
X472518Y114572D01*
X472680Y114756D01*
X472848Y114935D01*
X473019Y115111D01*
X473195Y115282D01*
X473374Y115450D01*
X473558Y115612D01*
X473746Y115770D01*
X473938Y115923D01*
X474133Y116072D01*
X474332Y116216D01*
X474534Y116355D01*
X474740Y116489D01*
X474949Y116617D01*
X475161Y116741D01*
X475376Y116859D01*
X475594Y116972D01*
X475814Y117080D01*
X476038Y117182D01*
X476263Y117279D01*
X476491Y117370D01*
X476721Y117455D01*
X476953Y117535D01*
X477187Y117609D01*
X477423Y117678D01*
X477660Y117740D01*
X477899Y117797D01*
X478139Y117848D01*
X478380Y117893D01*
X478623Y117932D01*
X478866Y117965D01*
X479110Y117992D01*
X479354Y118013D01*
X479599Y118028D01*
X479845Y118037D01*
X480090Y118040D01*
X480335Y118037D01*
X480581Y118028D01*
X480826Y118013D01*
X481070Y117992D01*
X481314Y117965D01*
X481557Y117932D01*
X481800Y117893D01*
X482041Y117848D01*
X482281Y117797D01*
X482520Y117740D01*
X482757Y117678D01*
X482993Y117609D01*
X483227Y117535D01*
X483459Y117455D01*
X483689Y117370D01*
X483917Y117279D01*
X484142Y117182D01*
X484366Y117080D01*
X484586Y116972D01*
X484804Y116859D01*
X485019Y116741D01*
X485231Y116617D01*
X485440Y116489D01*
X485646Y116355D01*
X485848Y116216D01*
X486047Y116072D01*
X486242Y115923D01*
X486434Y115770D01*
X486622Y115612D01*
X486806Y115450D01*
X486985Y115282D01*
X487161Y115111D01*
X487332Y114935D01*
X487500Y114756D01*
X487662Y114572D01*
X487820Y114384D01*
X487973Y114192D01*
X488122Y113997D01*
X488266Y113798D01*
X488405Y113596D01*
X488539Y113390D01*
X488667Y113181D01*
X488791Y112969D01*
X488909Y112754D01*
X489022Y112536D01*
X489130Y112316D01*
X489232Y112092D01*
X489329Y111867D01*
X489420Y111639D01*
X489505Y111409D01*
X489585Y111177D01*
X489659Y110943D01*
X489728Y110707D01*
X489790Y110470D01*
X489847Y110231D01*
X489898Y109991D01*
X489943Y109750D01*
X489982Y109507D01*
X490015Y109264D01*
X490042Y109020D01*
X490063Y108776D01*
X490078Y108531D01*
X490087Y108285D01*
X490090Y108040D01*
X490087Y107795D01*
X490078Y107549D01*
X490063Y107304D01*
X490042Y107060D01*
X490015Y106816D01*
X489982Y106573D01*
X489943Y106330D01*
X489898Y106089D01*
X489847Y105849D01*
X489790Y105610D01*
X489728Y105373D01*
X489659Y105137D01*
X489585Y104903D01*
X489505Y104671D01*
X489420Y104441D01*
X489329Y104213D01*
X489232Y103988D01*
X489130Y103764D01*
X489022Y103544D01*
X488909Y103326D01*
X488791Y103111D01*
X488667Y102899D01*
X488539Y102690D01*
X488405Y102484D01*
X488266Y102282D01*
X488122Y102083D01*
X487973Y101888D01*
X487820Y101696D01*
X487662Y101508D01*
X487500Y101324D01*
X487332Y101145D01*
X487161Y100969D01*
X486985Y100798D01*
X486806Y100630D01*
X486622Y100468D01*
X486434Y100310D01*
X486242Y100157D01*
X486047Y100008D01*
X485848Y99864D01*
X485646Y99725D01*
X485440Y99591D01*
X485231Y99463D01*
X485019Y99339D01*
X484804Y99221D01*
X484586Y99108D01*
X484366Y99000D01*
X484142Y98898D01*
X483917Y98801D01*
X483689Y98710D01*
X483459Y98625D01*
X483227Y98545D01*
X482993Y98471D01*
X482757Y98402D01*
X482520Y98340D01*
X482281Y98283D01*
X482041Y98232D01*
X481800Y98187D01*
X481557Y98148D01*
X481314Y98115D01*
X481070Y98088D01*
X480826Y98067D01*
X480581Y98052D01*
X480335Y98043D01*
X480090Y98040D01*
X479845Y98043D01*
X479599Y98052D01*
X479354Y98067D01*
X479110Y98088D01*
X478866Y98115D01*
X478623Y98148D01*
X478380Y98187D01*
X478139Y98232D01*
X477899Y98283D01*
X477660Y98340D01*
X477423Y98402D01*
X477187Y98471D01*
X476953Y98545D01*
X476721Y98625D01*
X476491Y98710D01*
X476263Y98801D01*
X476038Y98898D01*
X475814Y99000D01*
X475594Y99108D01*
X475376Y99221D01*
X475161Y99339D01*
X474949Y99463D01*
X474740Y99591D01*
X474534Y99725D01*
X474332Y99864D01*
X474133Y100008D01*
X473938Y100157D01*
X473746Y100310D01*
X473558Y100468D01*
X473374Y100630D01*
X473195Y100798D01*
X473019Y100969D01*
X472848Y101145D01*
X472680Y101324D01*
X472518Y101508D01*
X472360Y101696D01*
X472207Y101888D01*
X472058Y102083D01*
X471914Y102282D01*
X471775Y102484D01*
X471641Y102690D01*
X471513Y102899D01*
X471389Y103111D01*
X471271Y103326D01*
X471158Y103544D01*
X471050Y103764D01*
X470948Y103988D01*
X470851Y104213D01*
X470760Y104441D01*
X470675Y104671D01*
X470595Y104903D01*
X470521Y105137D01*
X470452Y105373D01*
X470390Y105610D01*
X470333Y105849D01*
X470282Y106089D01*
X470237Y106330D01*
X470198Y106573D01*
X470165Y106816D01*
X470138Y107060D01*
X470117Y107304D01*
X470102Y107549D01*
X470093Y107795D01*
X470090Y108040D01*
X28000Y280000D02*
X28003Y280245D01*
X28012Y280491D01*
X28027Y280736D01*
X28048Y280980D01*
X28075Y281224D01*
X28108Y281467D01*
X28147Y281710D01*
X28192Y281951D01*
X28243Y282191D01*
X28300Y282430D01*
X28362Y282667D01*
X28431Y282903D01*
X28505Y283137D01*
X28585Y283369D01*
X28670Y283599D01*
X28761Y283827D01*
X28858Y284052D01*
X28960Y284276D01*
X29068Y284496D01*
X29181Y284714D01*
X29299Y284929D01*
X29423Y285141D01*
X29551Y285350D01*
X29685Y285556D01*
X29824Y285758D01*
X29968Y285957D01*
X30117Y286152D01*
X30270Y286344D01*
X30428Y286532D01*
X30590Y286716D01*
X30758Y286895D01*
X30929Y287071D01*
X31105Y287242D01*
X31284Y287410D01*
X31468Y287572D01*
X31656Y287730D01*
X31848Y287883D01*
X32043Y288032D01*
X32242Y288176D01*
X32444Y288315D01*
X32650Y288449D01*
X32859Y288577D01*
X33071Y288701D01*
X33286Y288819D01*
X33504Y288932D01*
X33724Y289040D01*
X33948Y289142D01*
X34173Y289239D01*
X34401Y289330D01*
X34631Y289415D01*
X34863Y289495D01*
X35097Y289569D01*
X35333Y289638D01*
X35570Y289700D01*
X35809Y289757D01*
X36049Y289808D01*
X36290Y289853D01*
X36533Y289892D01*
X36776Y289925D01*
X37020Y289952D01*
X37264Y289973D01*
X37509Y289988D01*
X37755Y289997D01*
X38000Y290000D01*
X38245Y289997D01*
X38491Y289988D01*
X38736Y289973D01*
X38980Y289952D01*
X39224Y289925D01*
X39467Y289892D01*
X39710Y289853D01*
X39951Y289808D01*
X40191Y289757D01*
X40430Y289700D01*
X40667Y289638D01*
X40903Y289569D01*
X41137Y289495D01*
X41369Y289415D01*
X41599Y289330D01*
X41827Y289239D01*
X42052Y289142D01*
X42276Y289040D01*
X42496Y288932D01*
X42714Y288819D01*
X42929Y288701D01*
X43141Y288577D01*
X43350Y288449D01*
X43556Y288315D01*
X43758Y288176D01*
X43957Y288032D01*
X44152Y287883D01*
X44344Y287730D01*
X44532Y287572D01*
X44716Y287410D01*
X44895Y287242D01*
X45071Y287071D01*
X45242Y286895D01*
X45410Y286716D01*
X45572Y286532D01*
X45730Y286344D01*
X45883Y286152D01*
X46032Y285957D01*
X46176Y285758D01*
X46315Y285556D01*
X46449Y285350D01*
X46577Y285141D01*
X46701Y284929D01*
X46819Y284714D01*
X46932Y284496D01*
X47040Y284276D01*
X47142Y284052D01*
X47239Y283827D01*
X47330Y283599D01*
X47415Y283369D01*
X47495Y283137D01*
X47569Y282903D01*
X47638Y282667D01*
X47700Y282430D01*
X47757Y282191D01*
X47808Y281951D01*
X47853Y281710D01*
X47892Y281467D01*
X47925Y281224D01*
X47952Y280980D01*
X47973Y280736D01*
X47988Y280491D01*
X47997Y280245D01*
X48000Y280000D01*
X47997Y279755D01*
X47988Y279509D01*
X47973Y279264D01*
X47952Y279020D01*
X47925Y278776D01*
X47892Y278533D01*
X47853Y278290D01*
X47808Y278049D01*
X47757Y277809D01*
X47700Y277570D01*
X47638Y277333D01*
X47569Y277097D01*
X47495Y276863D01*
X47415Y276631D01*
X47330Y276401D01*
X47239Y276173D01*
X47142Y275948D01*
X47040Y275724D01*
X46932Y275504D01*
X46819Y275286D01*
X46701Y275071D01*
X46577Y274859D01*
X46449Y274650D01*
X46315Y274444D01*
X46176Y274242D01*
X46032Y274043D01*
X45883Y273848D01*
X45730Y273656D01*
X45572Y273468D01*
X45410Y273284D01*
X45242Y273105D01*
X45071Y272929D01*
X44895Y272758D01*
X44716Y272590D01*
X44532Y272428D01*
X44344Y272270D01*
X44152Y272117D01*
X43957Y271968D01*
X43758Y271824D01*
X43556Y271685D01*
X43350Y271551D01*
X43141Y271423D01*
X42929Y271299D01*
X42714Y271181D01*
X42496Y271068D01*
X42276Y270960D01*
X42052Y270858D01*
X41827Y270761D01*
X41599Y270670D01*
X41369Y270585D01*
X41137Y270505D01*
X40903Y270431D01*
X40667Y270362D01*
X40430Y270300D01*
X40191Y270243D01*
X39951Y270192D01*
X39710Y270147D01*
X39467Y270108D01*
X39224Y270075D01*
X38980Y270048D01*
X38736Y270027D01*
X38491Y270012D01*
X38245Y270003D01*
X38000Y270000D01*
X37755Y270003D01*
X37509Y270012D01*
X37264Y270027D01*
X37020Y270048D01*
X36776Y270075D01*
X36533Y270108D01*
X36290Y270147D01*
X36049Y270192D01*
X35809Y270243D01*
X35570Y270300D01*
X35333Y270362D01*
X35097Y270431D01*
X34863Y270505D01*
X34631Y270585D01*
X34401Y270670D01*
X34173Y270761D01*
X33948Y270858D01*
X33724Y270960D01*
X33504Y271068D01*
X33286Y271181D01*
X33071Y271299D01*
X32859Y271423D01*
X32650Y271551D01*
X32444Y271685D01*
X32242Y271824D01*
X32043Y271968D01*
X31848Y272117D01*
X31656Y272270D01*
X31468Y272428D01*
X31284Y272590D01*
X31105Y272758D01*
X30929Y272929D01*
X30758Y273105D01*
X30590Y273284D01*
X30428Y273468D01*
X30270Y273656D01*
X30117Y273848D01*
X29968Y274043D01*
X29824Y274242D01*
X29685Y274444D01*
X29551Y274650D01*
X29423Y274859D01*
X29299Y275071D01*
X29181Y275286D01*
X29068Y275504D01*
X28960Y275724D01*
X28858Y275948D01*
X28761Y276173D01*
X28670Y276401D01*
X28585Y276631D01*
X28505Y276863D01*
X28431Y277097D01*
X28362Y277333D01*
X28300Y277570D01*
X28243Y277809D01*
X28192Y278049D01*
X28147Y278290D01*
X28108Y278533D01*
X28075Y278776D01*
X28048Y279020D01*
X28027Y279264D01*
X28012Y279509D01*
X28003Y279755D01*
X28000Y280000D01*
X98000Y280000D02*
X98003Y280245D01*
X98012Y280491D01*
X98027Y280736D01*
X98048Y280980D01*
X98075Y281224D01*
X98108Y281467D01*
X98147Y281710D01*
X98192Y281951D01*
X98243Y282191D01*
X98300Y282430D01*
X98362Y282667D01*
X98431Y282903D01*
X98505Y283137D01*
X98585Y283369D01*
X98670Y283599D01*
X98761Y283827D01*
X98858Y284052D01*
X98960Y284276D01*
X99068Y284496D01*
X99181Y284714D01*
X99299Y284929D01*
X99423Y285141D01*
X99551Y285350D01*
X99685Y285556D01*
X99824Y285758D01*
X99968Y285957D01*
X100117Y286152D01*
X100270Y286344D01*
X100428Y286532D01*
X100590Y286716D01*
X100758Y286895D01*
X100929Y287071D01*
X101105Y287242D01*
X101284Y287410D01*
X101468Y287572D01*
X101656Y287730D01*
X101848Y287883D01*
X102043Y288032D01*
X102242Y288176D01*
X102444Y288315D01*
X102650Y288449D01*
X102859Y288577D01*
X103071Y288701D01*
X103286Y288819D01*
X103504Y288932D01*
X103724Y289040D01*
X103948Y289142D01*
X104173Y289239D01*
X104401Y289330D01*
X104631Y289415D01*
X104863Y289495D01*
X105097Y289569D01*
X105333Y289638D01*
X105570Y289700D01*
X105809Y289757D01*
X106049Y289808D01*
X106290Y289853D01*
X106533Y289892D01*
X106776Y289925D01*
X107020Y289952D01*
X107264Y289973D01*
X107509Y289988D01*
X107755Y289997D01*
X108000Y290000D01*
X108245Y289997D01*
X108491Y289988D01*
X108736Y289973D01*
X108980Y289952D01*
X109224Y289925D01*
X109467Y289892D01*
X109710Y289853D01*
X109951Y289808D01*
X110191Y289757D01*
X110430Y289700D01*
X110667Y289638D01*
X110903Y289569D01*
X111137Y289495D01*
X111369Y289415D01*
X111599Y289330D01*
X111827Y289239D01*
X112052Y289142D01*
X112276Y289040D01*
X112496Y288932D01*
X112714Y288819D01*
X112929Y288701D01*
X113141Y288577D01*
X113350Y288449D01*
X113556Y288315D01*
X113758Y288176D01*
X113957Y288032D01*
X114152Y287883D01*
X114344Y287730D01*
X114532Y287572D01*
X114716Y287410D01*
X114895Y287242D01*
X115071Y287071D01*
X115242Y286895D01*
X115410Y286716D01*
X115572Y286532D01*
X115730Y286344D01*
X115883Y286152D01*
X116032Y285957D01*
X116176Y285758D01*
X116315Y285556D01*
X116449Y285350D01*
X116577Y285141D01*
X116701Y284929D01*
X116819Y284714D01*
X116932Y284496D01*
X117040Y284276D01*
X117142Y284052D01*
X117239Y283827D01*
X117330Y283599D01*
X117415Y283369D01*
X117495Y283137D01*
X117569Y282903D01*
X117638Y282667D01*
X117700Y282430D01*
X117757Y282191D01*
X117808Y281951D01*
X117853Y281710D01*
X117892Y281467D01*
X117925Y281224D01*
X117952Y280980D01*
X117973Y280736D01*
X117988Y280491D01*
X117997Y280245D01*
X118000Y280000D01*
X117997Y279755D01*
X117988Y279509D01*
X117973Y279264D01*
X117952Y279020D01*
X117925Y278776D01*
X117892Y278533D01*
X117853Y278290D01*
X117808Y278049D01*
X117757Y277809D01*
X117700Y277570D01*
X117638Y277333D01*
X117569Y277097D01*
X117495Y276863D01*
X117415Y276631D01*
X117330Y276401D01*
X117239Y276173D01*
X117142Y275948D01*
X117040Y275724D01*
X116932Y275504D01*
X116819Y275286D01*
X116701Y275071D01*
X116577Y274859D01*
X116449Y274650D01*
X116315Y274444D01*
X116176Y274242D01*
X116032Y274043D01*
X115883Y273848D01*
X115730Y273656D01*
X115572Y273468D01*
X115410Y273284D01*
X115242Y273105D01*
X115071Y272929D01*
X114895Y272758D01*
X114716Y272590D01*
X114532Y272428D01*
X114344Y272270D01*
X114152Y272117D01*
X113957Y271968D01*
X113758Y271824D01*
X113556Y271685D01*
X113350Y271551D01*
X113141Y271423D01*
X112929Y271299D01*
X112714Y271181D01*
X112496Y271068D01*
X112276Y270960D01*
X112052Y270858D01*
X111827Y270761D01*
X111599Y270670D01*
X111369Y270585D01*
X111137Y270505D01*
X110903Y270431D01*
X110667Y270362D01*
X110430Y270300D01*
X110191Y270243D01*
X109951Y270192D01*
X109710Y270147D01*
X109467Y270108D01*
X109224Y270075D01*
X108980Y270048D01*
X108736Y270027D01*
X108491Y270012D01*
X108245Y270003D01*
X108000Y270000D01*
X107755Y270003D01*
X107509Y270012D01*
X107264Y270027D01*
X107020Y270048D01*
X106776Y270075D01*
X106533Y270108D01*
X106290Y270147D01*
X106049Y270192D01*
X105809Y270243D01*
X105570Y270300D01*
X105333Y270362D01*
X105097Y270431D01*
X104863Y270505D01*
X104631Y270585D01*
X104401Y270670D01*
X104173Y270761D01*
X103948Y270858D01*
X103724Y270960D01*
X103504Y271068D01*
X103286Y271181D01*
X103071Y271299D01*
X102859Y271423D01*
X102650Y271551D01*
X102444Y271685D01*
X102242Y271824D01*
X102043Y271968D01*
X101848Y272117D01*
X101656Y272270D01*
X101468Y272428D01*
X101284Y272590D01*
X101105Y272758D01*
X100929Y272929D01*
X100758Y273105D01*
X100590Y273284D01*
X100428Y273468D01*
X100270Y273656D01*
X100117Y273848D01*
X99968Y274043D01*
X99824Y274242D01*
X99685Y274444D01*
X99551Y274650D01*
X99423Y274859D01*
X99299Y275071D01*
X99181Y275286D01*
X99068Y275504D01*
X98960Y275724D01*
X98858Y275948D01*
X98761Y276173D01*
X98670Y276401D01*
X98585Y276631D01*
X98505Y276863D01*
X98431Y277097D01*
X98362Y277333D01*
X98300Y277570D01*
X98243Y277809D01*
X98192Y278049D01*
X98147Y278290D01*
X98108Y278533D01*
X98075Y278776D01*
X98048Y279020D01*
X98027Y279264D01*
X98012Y279509D01*
X98003Y279755D01*
X98000Y280000D01*
X42200Y110000D02*
X35200Y110000D01*
X42200Y110000D02*
X42200Y102000D01*
X28200Y102000D01*
X28200Y110000D01*
X35200Y110000D01*
X116200Y171500D02*
X123200Y171500D01*
X123200Y165500D01*
X109200Y165500D01*
X109200Y171500D01*
X116200Y171500D01*
X116200Y114500D02*
X123200Y114500D01*
X123200Y108500D01*
X109200Y108500D01*
X109200Y114500D01*
X116200Y114500D01*
X122200Y140000D02*
X122200Y147000D01*
X128200Y147000D01*
X128200Y133000D01*
X122200Y133000D01*
X122200Y140000D01*
X42200Y178000D02*
X35200Y178000D01*
X42200Y178000D02*
X42200Y170000D01*
X28200Y170000D01*
X28200Y178000D01*
X35200Y178000D01*
X85700Y140000D02*
X85702Y140148D01*
X85708Y140296D01*
X85718Y140444D01*
X85732Y140592D01*
X85750Y140739D01*
X85772Y140886D01*
X85798Y141032D01*
X85827Y141177D01*
X85861Y141322D01*
X85899Y141465D01*
X85940Y141608D01*
X85985Y141749D01*
X86035Y141889D01*
X86087Y142027D01*
X86144Y142165D01*
X86204Y142300D01*
X86268Y142434D01*
X86335Y142566D01*
X86406Y142696D01*
X86481Y142825D01*
X86559Y142951D01*
X86640Y143075D01*
X86724Y143197D01*
X86812Y143316D01*
X86903Y143433D01*
X86997Y143548D01*
X87095Y143660D01*
X87195Y143769D01*
X87298Y143876D01*
X87404Y143980D01*
X87512Y144081D01*
X87624Y144179D01*
X87738Y144274D01*
X87854Y144365D01*
X87973Y144454D01*
X88094Y144539D01*
X88218Y144621D01*
X88344Y144700D01*
X88471Y144775D01*
X88601Y144847D01*
X88733Y144916D01*
X88866Y144980D01*
X89001Y145041D01*
X89138Y145099D01*
X89276Y145153D01*
X89416Y145203D01*
X89557Y145249D01*
X89699Y145291D01*
X89842Y145330D01*
X89986Y145364D01*
X90132Y145395D01*
X90277Y145422D01*
X90424Y145445D01*
X90571Y145464D01*
X90719Y145479D01*
X90866Y145490D01*
X91015Y145497D01*
X91163Y145500D01*
X91311Y145499D01*
X91459Y145494D01*
X91607Y145485D01*
X91755Y145472D01*
X91903Y145455D01*
X92049Y145434D01*
X92196Y145409D01*
X92341Y145380D01*
X92486Y145348D01*
X92629Y145311D01*
X92772Y145271D01*
X92914Y145226D01*
X93054Y145178D01*
X93193Y145126D01*
X93330Y145071D01*
X93466Y145011D01*
X93601Y144948D01*
X93733Y144882D01*
X93864Y144812D01*
X93993Y144738D01*
X94119Y144661D01*
X94244Y144581D01*
X94366Y144497D01*
X94487Y144410D01*
X94604Y144320D01*
X94720Y144226D01*
X94832Y144130D01*
X94942Y144031D01*
X95050Y143928D01*
X95154Y143823D01*
X95256Y143715D01*
X95354Y143604D01*
X95450Y143491D01*
X95543Y143375D01*
X95632Y143257D01*
X95718Y143136D01*
X95801Y143013D01*
X95881Y142888D01*
X95957Y142761D01*
X96030Y142631D01*
X96099Y142500D01*
X96164Y142367D01*
X96227Y142233D01*
X96285Y142096D01*
X96340Y141958D01*
X96390Y141819D01*
X96438Y141678D01*
X96481Y141537D01*
X96521Y141394D01*
X96556Y141250D01*
X96588Y141105D01*
X96616Y140959D01*
X96640Y140813D01*
X96660Y140666D01*
X96676Y140518D01*
X96688Y140371D01*
X96696Y140222D01*
X96700Y140074D01*
X96700Y139926D01*
X96696Y139778D01*
X96688Y139629D01*
X96676Y139482D01*
X96660Y139334D01*
X96640Y139187D01*
X96616Y139041D01*
X96588Y138895D01*
X96556Y138750D01*
X96521Y138606D01*
X96481Y138463D01*
X96438Y138322D01*
X96390Y138181D01*
X96340Y138042D01*
X96285Y137904D01*
X96227Y137767D01*
X96164Y137633D01*
X96099Y137500D01*
X96030Y137369D01*
X95957Y137239D01*
X95881Y137112D01*
X95801Y136987D01*
X95718Y136864D01*
X95632Y136743D01*
X95543Y136625D01*
X95450Y136509D01*
X95354Y136396D01*
X95256Y136285D01*
X95154Y136177D01*
X95050Y136072D01*
X94942Y135969D01*
X94832Y135870D01*
X94720Y135774D01*
X94604Y135680D01*
X94487Y135590D01*
X94366Y135503D01*
X94244Y135419D01*
X94119Y135339D01*
X93993Y135262D01*
X93864Y135188D01*
X93733Y135118D01*
X93601Y135052D01*
X93466Y134989D01*
X93330Y134929D01*
X93193Y134874D01*
X93054Y134822D01*
X92914Y134774D01*
X92772Y134729D01*
X92629Y134689D01*
X92486Y134652D01*
X92341Y134620D01*
X92196Y134591D01*
X92049Y134566D01*
X91903Y134545D01*
X91755Y134528D01*
X91607Y134515D01*
X91459Y134506D01*
X91311Y134501D01*
X91163Y134500D01*
X91015Y134503D01*
X90866Y134510D01*
X90719Y134521D01*
X90571Y134536D01*
X90424Y134555D01*
X90277Y134578D01*
X90132Y134605D01*
X89986Y134636D01*
X89842Y134670D01*
X89699Y134709D01*
X89557Y134751D01*
X89416Y134797D01*
X89276Y134847D01*
X89138Y134901D01*
X89001Y134959D01*
X88866Y135020D01*
X88733Y135084D01*
X88601Y135153D01*
X88471Y135225D01*
X88344Y135300D01*
X88218Y135379D01*
X88094Y135461D01*
X87973Y135546D01*
X87854Y135635D01*
X87738Y135726D01*
X87624Y135821D01*
X87512Y135919D01*
X87404Y136020D01*
X87298Y136124D01*
X87195Y136231D01*
X87095Y136340D01*
X86997Y136452D01*
X86903Y136567D01*
X86812Y136684D01*
X86724Y136803D01*
X86640Y136925D01*
X86559Y137049D01*
X86481Y137175D01*
X86406Y137304D01*
X86335Y137434D01*
X86268Y137566D01*
X86204Y137700D01*
X86144Y137835D01*
X86087Y137973D01*
X86035Y138111D01*
X85985Y138251D01*
X85940Y138392D01*
X85899Y138535D01*
X85861Y138678D01*
X85827Y138823D01*
X85798Y138968D01*
X85772Y139114D01*
X85750Y139261D01*
X85732Y139408D01*
X85718Y139556D01*
X85708Y139704D01*
X85702Y139852D01*
X85700Y140000D01*
X15700Y140000D02*
X15702Y140148D01*
X15708Y140296D01*
X15718Y140444D01*
X15732Y140592D01*
X15750Y140739D01*
X15772Y140886D01*
X15798Y141032D01*
X15827Y141177D01*
X15861Y141322D01*
X15899Y141465D01*
X15940Y141608D01*
X15985Y141749D01*
X16035Y141889D01*
X16087Y142027D01*
X16144Y142165D01*
X16204Y142300D01*
X16268Y142434D01*
X16335Y142566D01*
X16406Y142696D01*
X16481Y142825D01*
X16559Y142951D01*
X16640Y143075D01*
X16724Y143197D01*
X16812Y143316D01*
X16903Y143433D01*
X16997Y143548D01*
X17095Y143660D01*
X17195Y143769D01*
X17298Y143876D01*
X17404Y143980D01*
X17512Y144081D01*
X17624Y144179D01*
X17738Y144274D01*
X17854Y144365D01*
X17973Y144454D01*
X18094Y144539D01*
X18218Y144621D01*
X18344Y144700D01*
X18471Y144775D01*
X18601Y144847D01*
X18733Y144916D01*
X18866Y144980D01*
X19001Y145041D01*
X19138Y145099D01*
X19276Y145153D01*
X19416Y145203D01*
X19557Y145249D01*
X19699Y145291D01*
X19842Y145330D01*
X19986Y145364D01*
X20132Y145395D01*
X20277Y145422D01*
X20424Y145445D01*
X20571Y145464D01*
X20719Y145479D01*
X20866Y145490D01*
X21015Y145497D01*
X21163Y145500D01*
X21311Y145499D01*
X21459Y145494D01*
X21607Y145485D01*
X21755Y145472D01*
X21903Y145455D01*
X22049Y145434D01*
X22196Y145409D01*
X22341Y145380D01*
X22486Y145348D01*
X22629Y145311D01*
X22772Y145271D01*
X22914Y145226D01*
X23054Y145178D01*
X23193Y145126D01*
X23330Y145071D01*
X23466Y145011D01*
X23601Y144948D01*
X23733Y144882D01*
X23864Y144812D01*
X23993Y144738D01*
X24119Y144661D01*
X24244Y144581D01*
X24366Y144497D01*
X24487Y144410D01*
X24604Y144320D01*
X24720Y144226D01*
X24832Y144130D01*
X24942Y144031D01*
X25050Y143928D01*
X25154Y143823D01*
X25256Y143715D01*
X25354Y143604D01*
X25450Y143491D01*
X25543Y143375D01*
X25632Y143257D01*
X25718Y143136D01*
X25801Y143013D01*
X25881Y142888D01*
X25957Y142761D01*
X26030Y142631D01*
X26099Y142500D01*
X26164Y142367D01*
X26227Y142233D01*
X26285Y142096D01*
X26340Y141958D01*
X26390Y141819D01*
X26438Y141678D01*
X26481Y141537D01*
X26521Y141394D01*
X26556Y141250D01*
X26588Y141105D01*
X26616Y140959D01*
X26640Y140813D01*
X26660Y140666D01*
X26676Y140518D01*
X26688Y140371D01*
X26696Y140222D01*
X26700Y140074D01*
X26700Y139926D01*
X26696Y139778D01*
X26688Y139629D01*
X26676Y139482D01*
X26660Y139334D01*
X26640Y139187D01*
X26616Y139041D01*
X26588Y138895D01*
X26556Y138750D01*
X26521Y138606D01*
X26481Y138463D01*
X26438Y138322D01*
X26390Y138181D01*
X26340Y138042D01*
X26285Y137904D01*
X26227Y137767D01*
X26164Y137633D01*
X26099Y137500D01*
X26030Y137369D01*
X25957Y137239D01*
X25881Y137112D01*
X25801Y136987D01*
X25718Y136864D01*
X25632Y136743D01*
X25543Y136625D01*
X25450Y136509D01*
X25354Y136396D01*
X25256Y136285D01*
X25154Y136177D01*
X25050Y136072D01*
X24942Y135969D01*
X24832Y135870D01*
X24720Y135774D01*
X24604Y135680D01*
X24487Y135590D01*
X24366Y135503D01*
X24244Y135419D01*
X24119Y135339D01*
X23993Y135262D01*
X23864Y135188D01*
X23733Y135118D01*
X23601Y135052D01*
X23466Y134989D01*
X23330Y134929D01*
X23193Y134874D01*
X23054Y134822D01*
X22914Y134774D01*
X22772Y134729D01*
X22629Y134689D01*
X22486Y134652D01*
X22341Y134620D01*
X22196Y134591D01*
X22049Y134566D01*
X21903Y134545D01*
X21755Y134528D01*
X21607Y134515D01*
X21459Y134506D01*
X21311Y134501D01*
X21163Y134500D01*
X21015Y134503D01*
X20866Y134510D01*
X20719Y134521D01*
X20571Y134536D01*
X20424Y134555D01*
X20277Y134578D01*
X20132Y134605D01*
X19986Y134636D01*
X19842Y134670D01*
X19699Y134709D01*
X19557Y134751D01*
X19416Y134797D01*
X19276Y134847D01*
X19138Y134901D01*
X19001Y134959D01*
X18866Y135020D01*
X18733Y135084D01*
X18601Y135153D01*
X18471Y135225D01*
X18344Y135300D01*
X18218Y135379D01*
X18094Y135461D01*
X17973Y135546D01*
X17854Y135635D01*
X17738Y135726D01*
X17624Y135821D01*
X17512Y135919D01*
X17404Y136020D01*
X17298Y136124D01*
X17195Y136231D01*
X17095Y136340D01*
X16997Y136452D01*
X16903Y136567D01*
X16812Y136684D01*
X16724Y136803D01*
X16640Y136925D01*
X16559Y137049D01*
X16481Y137175D01*
X16406Y137304D01*
X16335Y137434D01*
X16268Y137566D01*
X16204Y137700D01*
X16144Y137835D01*
X16087Y137973D01*
X16035Y138111D01*
X15985Y138251D01*
X15940Y138392D01*
X15899Y138535D01*
X15861Y138678D01*
X15827Y138823D01*
X15798Y138968D01*
X15772Y139114D01*
X15750Y139261D01*
X15732Y139408D01*
X15718Y139556D01*
X15708Y139704D01*
X15702Y139852D01*
X15700Y140000D01*
D12*
X0Y0D02*
X650000Y0D01*
X650000Y560000D01*
X0Y560000D01*
X0Y0D01*
X28200Y170000D02*
X42200Y170000D01*
X42200Y178000D01*
X28200Y178000D01*
X28200Y170000D01*
X122200Y133000D02*
X128200Y133000D01*
X128200Y147000D01*
X122200Y147000D01*
X122200Y140000D01*
X122200Y133000D01*
X109200Y108500D02*
X123200Y108500D01*
X123200Y114500D01*
X109200Y114500D01*
X109200Y108500D01*
X28200Y102000D02*
X42200Y102000D01*
X42200Y110000D01*
X28200Y110000D01*
X28200Y102000D01*
X109200Y165500D02*
X123200Y165500D01*
X123200Y171500D01*
X109200Y171500D01*
X109200Y165500D01*
X629000Y34500D02*
X628929Y33503D01*
X628786Y32513D01*
X628574Y31536D01*
X628292Y30576D01*
X627943Y29639D01*
X627527Y28729D01*
X627048Y27852D01*
X626507Y27010D01*
X625908Y26210D01*
X625253Y25454D01*
X624546Y24747D01*
X623790Y24092D01*
X622990Y23493D01*
X622148Y22952D01*
X621271Y22473D01*
X620361Y22057D01*
X619424Y21708D01*
X618465Y21426D01*
X617487Y21214D01*
X616498Y21071D01*
X615500Y21000D01*
X614500Y21000D01*
X613503Y21071D01*
X612513Y21214D01*
X611536Y21426D01*
X610576Y21708D01*
X609639Y22057D01*
X608729Y22473D01*
X607852Y22952D01*
X607010Y23493D01*
X606210Y24092D01*
X605454Y24747D01*
X604747Y25454D01*
X604092Y26210D01*
X603493Y27010D01*
X602952Y27852D01*
X602473Y28729D01*
X602057Y29639D01*
X601708Y30576D01*
X601426Y31536D01*
X601214Y32513D01*
X601071Y33503D01*
X601000Y34500D01*
X601000Y35500D01*
X601071Y36498D01*
X601214Y37487D01*
X601426Y38465D01*
X601708Y39424D01*
X602057Y40361D01*
X602473Y41271D01*
X602952Y42148D01*
X603493Y42990D01*
X604092Y43790D01*
X604747Y44546D01*
X605454Y45253D01*
X606210Y45908D01*
X607010Y46507D01*
X607852Y47048D01*
X608729Y47527D01*
X609639Y47943D01*
X610576Y48292D01*
X611536Y48574D01*
X612513Y48786D01*
X613503Y48929D01*
X614500Y49000D01*
X615500Y49000D01*
X616498Y48929D01*
X617487Y48786D01*
X618465Y48574D01*
X619424Y48292D01*
X620361Y47943D01*
X621271Y47527D01*
X622148Y47048D01*
X622990Y46507D01*
X623790Y45908D01*
X624546Y45253D01*
X625253Y44546D01*
X625908Y43790D01*
X626507Y42990D01*
X627048Y42148D01*
X627527Y41271D01*
X627943Y40361D01*
X628292Y39424D01*
X628574Y38465D01*
X628786Y37487D01*
X628929Y36498D01*
X629000Y35500D01*
X629000Y34500D01*
X628000Y524500D02*
X627929Y523503D01*
X627786Y522513D01*
X627574Y521536D01*
X627292Y520576D01*
X626943Y519639D01*
X626527Y518729D01*
X626048Y517852D01*
X625507Y517010D01*
X624908Y516210D01*
X624253Y515454D01*
X623546Y514747D01*
X622790Y514092D01*
X621990Y513493D01*
X621148Y512952D01*
X620271Y512473D01*
X619361Y512057D01*
X618424Y511708D01*
X617465Y511426D01*
X616487Y511214D01*
X615498Y511071D01*
X614500Y511000D01*
X613500Y511000D01*
X612503Y511071D01*
X611513Y511214D01*
X610536Y511426D01*
X609576Y511708D01*
X608639Y512057D01*
X607729Y512473D01*
X606852Y512952D01*
X606010Y513493D01*
X605210Y514092D01*
X604454Y514747D01*
X603747Y515454D01*
X603092Y516210D01*
X602493Y517010D01*
X601952Y517852D01*
X601473Y518729D01*
X601057Y519639D01*
X600708Y520576D01*
X600426Y521536D01*
X600214Y522513D01*
X600071Y523503D01*
X600000Y524500D01*
X600000Y525500D01*
X600071Y526498D01*
X600214Y527487D01*
X600426Y528465D01*
X600708Y529424D01*
X601057Y530361D01*
X601473Y531271D01*
X601952Y532148D01*
X602493Y532990D01*
X603092Y533790D01*
X603747Y534546D01*
X604454Y535253D01*
X605210Y535908D01*
X606010Y536507D01*
X606852Y537048D01*
X607729Y537527D01*
X608639Y537943D01*
X609576Y538292D01*
X610536Y538574D01*
X611513Y538786D01*
X612503Y538929D01*
X613500Y539000D01*
X614500Y539000D01*
X615498Y538929D01*
X616487Y538786D01*
X617465Y538574D01*
X618424Y538292D01*
X619361Y537943D01*
X620271Y537527D01*
X621148Y537048D01*
X621990Y536507D01*
X622790Y535908D01*
X623546Y535253D01*
X624253Y534546D01*
X624908Y533790D01*
X625507Y532990D01*
X626048Y532148D01*
X626527Y531271D01*
X626943Y530361D01*
X627292Y529424D01*
X627574Y528465D01*
X627786Y527487D01*
X627929Y526498D01*
X628000Y525500D01*
X628000Y524500D01*
X49000Y524500D02*
X48929Y523503D01*
X48786Y522513D01*
X48574Y521536D01*
X48292Y520576D01*
X47943Y519639D01*
X47527Y518729D01*
X47048Y517852D01*
X46507Y517010D01*
X45908Y516210D01*
X45253Y515454D01*
X44546Y514747D01*
X43790Y514092D01*
X42990Y513493D01*
X42148Y512952D01*
X41271Y512473D01*
X40361Y512057D01*
X39424Y511708D01*
X38465Y511426D01*
X37487Y511214D01*
X36498Y511071D01*
X35500Y511000D01*
X34500Y511000D01*
X33503Y511071D01*
X32513Y511214D01*
X31536Y511426D01*
X30576Y511708D01*
X29639Y512057D01*
X28729Y512473D01*
X27852Y512952D01*
X27010Y513493D01*
X26210Y514092D01*
X25454Y514747D01*
X24747Y515454D01*
X24092Y516210D01*
X23493Y517010D01*
X22952Y517852D01*
X22473Y518729D01*
X22057Y519639D01*
X21708Y520576D01*
X21426Y521536D01*
X21214Y522513D01*
X21071Y523503D01*
X21000Y524500D01*
X21000Y525500D01*
X21071Y526498D01*
X21214Y527487D01*
X21426Y528465D01*
X21708Y529424D01*
X22057Y530361D01*
X22473Y531271D01*
X22952Y532148D01*
X23493Y532990D01*
X24092Y533790D01*
X24747Y534546D01*
X25454Y535253D01*
X26210Y535908D01*
X27010Y536507D01*
X27852Y537048D01*
X28729Y537527D01*
X29639Y537943D01*
X30576Y538292D01*
X31536Y538574D01*
X32513Y538786D01*
X33503Y538929D01*
X34500Y539000D01*
X35500Y539000D01*
X36498Y538929D01*
X37487Y538786D01*
X38465Y538574D01*
X39424Y538292D01*
X40361Y537943D01*
X41271Y537527D01*
X42148Y537048D01*
X42990Y536507D01*
X43790Y535908D01*
X44546Y535253D01*
X45253Y534546D01*
X45908Y533790D01*
X46507Y532990D01*
X47048Y532148D01*
X47527Y531271D01*
X47943Y530361D01*
X48292Y529424D01*
X48574Y528465D01*
X48786Y527487D01*
X48929Y526498D01*
X49000Y525500D01*
X49000Y524500D01*
X49000Y34500D02*
X48929Y33503D01*
X48786Y32513D01*
X48574Y31536D01*
X48292Y30576D01*
X47943Y29639D01*
X47527Y28729D01*
X47048Y27852D01*
X46507Y27010D01*
X45908Y26210D01*
X45253Y25454D01*
X44546Y24747D01*
X43790Y24092D01*
X42990Y23493D01*
X42148Y22952D01*
X41271Y22473D01*
X40361Y22057D01*
X39424Y21708D01*
X38465Y21426D01*
X37487Y21214D01*
X36498Y21071D01*
X35500Y21000D01*
X34500Y21000D01*
X33503Y21071D01*
X32513Y21214D01*
X31536Y21426D01*
X30576Y21708D01*
X29639Y22057D01*
X28729Y22473D01*
X27852Y22952D01*
X27010Y23493D01*
X26210Y24092D01*
X25454Y24747D01*
X24747Y25454D01*
X24092Y26210D01*
X23493Y27010D01*
X22952Y27852D01*
X22473Y28729D01*
X22057Y29639D01*
X21708Y30576D01*
X21426Y31536D01*
X21214Y32513D01*
X21071Y33503D01*
X21000Y34500D01*
X21000Y35500D01*
X21071Y36498D01*
X21214Y37487D01*
X21426Y38465D01*
X21708Y39424D01*
X22057Y40361D01*
X22473Y41271D01*
X22952Y42148D01*
X23493Y42990D01*
X24092Y43790D01*
X24747Y44546D01*
X25454Y45253D01*
X26210Y45908D01*
X27010Y46507D01*
X27852Y47048D01*
X28729Y47527D01*
X29639Y47943D01*
X30576Y48292D01*
X31536Y48574D01*
X32513Y48786D01*
X33503Y48929D01*
X34500Y49000D01*
X35500Y49000D01*
X36498Y48929D01*
X37487Y48786D01*
X38465Y48574D01*
X39424Y48292D01*
X40361Y47943D01*
X41271Y47527D01*
X42148Y47048D01*
X42990Y46507D01*
X43790Y45908D01*
X44546Y45253D01*
X45253Y44546D01*
X45908Y43790D01*
X46507Y42990D01*
X47048Y42148D01*
X47527Y41271D01*
X47943Y40361D01*
X48292Y39424D01*
X48574Y38465D01*
X48786Y37487D01*
X48929Y36498D01*
X49000Y35500D01*
X49000Y34500D01*
X480527Y48040D02*
X481397Y47964D01*
X482256Y47812D01*
X483100Y47586D01*
X483920Y47288D01*
X484712Y46919D01*
X485468Y46482D01*
X486183Y45981D01*
X486852Y45420D01*
X487470Y44802D01*
X488031Y44133D01*
X488532Y43418D01*
X488969Y42662D01*
X489338Y41870D01*
X489636Y41050D01*
X489862Y40206D01*
X490014Y39347D01*
X490090Y38477D01*
X490090Y37603D01*
X490014Y36734D01*
X489862Y35874D01*
X489636Y35030D01*
X489338Y34210D01*
X488969Y33418D01*
X488532Y32662D01*
X488031Y31947D01*
X487470Y31278D01*
X486852Y30660D01*
X486183Y30099D01*
X485468Y29598D01*
X484712Y29161D01*
X483920Y28792D01*
X483100Y28494D01*
X482256Y28268D01*
X481397Y28116D01*
X480527Y28040D01*
X479653Y28040D01*
X478784Y28116D01*
X477924Y28268D01*
X477080Y28494D01*
X476260Y28792D01*
X475468Y29161D01*
X474712Y29598D01*
X473997Y30099D01*
X473328Y30660D01*
X472710Y31278D01*
X472149Y31947D01*
X471648Y32662D01*
X471211Y33418D01*
X470842Y34210D01*
X470544Y35030D01*
X470318Y35874D01*
X470166Y36734D01*
X470090Y37603D01*
X470090Y38477D01*
X470166Y39347D01*
X470318Y40206D01*
X470544Y41050D01*
X470842Y41870D01*
X471211Y42662D01*
X471648Y43418D01*
X472149Y44133D01*
X472710Y44802D01*
X473328Y45420D01*
X473997Y45981D01*
X474712Y46482D01*
X475468Y46919D01*
X476260Y47288D01*
X477080Y47586D01*
X477924Y47812D01*
X478784Y47964D01*
X479653Y48040D01*
X480527Y48040D01*
X480527Y118040D02*
X481397Y117964D01*
X482256Y117812D01*
X483100Y117586D01*
X483920Y117288D01*
X484712Y116919D01*
X485468Y116482D01*
X486183Y115981D01*
X486852Y115420D01*
X487470Y114802D01*
X488031Y114133D01*
X488532Y113418D01*
X488969Y112662D01*
X489338Y111870D01*
X489636Y111050D01*
X489862Y110206D01*
X490014Y109347D01*
X490090Y108477D01*
X490090Y107603D01*
X490014Y106734D01*
X489862Y105874D01*
X489636Y105030D01*
X489338Y104210D01*
X488969Y103418D01*
X488532Y102662D01*
X488031Y101947D01*
X487470Y101278D01*
X486852Y100660D01*
X486183Y100099D01*
X485468Y99598D01*
X484712Y99161D01*
X483920Y98792D01*
X483100Y98494D01*
X482256Y98268D01*
X481397Y98116D01*
X480527Y98040D01*
X479653Y98040D01*
X478784Y98116D01*
X477924Y98268D01*
X477080Y98494D01*
X476260Y98792D01*
X475468Y99161D01*
X474712Y99598D01*
X473997Y100099D01*
X473328Y100660D01*
X472710Y101278D01*
X472149Y101947D01*
X471648Y102662D01*
X471211Y103418D01*
X470842Y104210D01*
X470544Y105030D01*
X470318Y105874D01*
X470166Y106734D01*
X470090Y107603D01*
X470090Y108477D01*
X470166Y109347D01*
X470318Y110206D01*
X470544Y111050D01*
X470842Y111870D01*
X471211Y112662D01*
X471648Y113418D01*
X472149Y114133D01*
X472710Y114802D01*
X473328Y115420D01*
X473997Y115981D01*
X474712Y116482D01*
X475468Y116919D01*
X476260Y117288D01*
X477080Y117586D01*
X477924Y117812D01*
X478784Y117964D01*
X479653Y118040D01*
X480527Y118040D01*
X48000Y279563D02*
X47924Y278694D01*
X47772Y277834D01*
X47546Y276990D01*
X47248Y276170D01*
X46879Y275378D01*
X46442Y274622D01*
X45941Y273907D01*
X45380Y273238D01*
X44762Y272620D01*
X44093Y272059D01*
X43378Y271558D01*
X42622Y271121D01*
X41830Y270752D01*
X41010Y270454D01*
X40166Y270228D01*
X39307Y270076D01*
X38437Y270000D01*
X37563Y270000D01*
X36694Y270076D01*
X35834Y270228D01*
X34990Y270454D01*
X34170Y270752D01*
X33378Y271121D01*
X32622Y271558D01*
X31907Y272059D01*
X31238Y272620D01*
X30620Y273238D01*
X30059Y273907D01*
X29558Y274622D01*
X29121Y275378D01*
X28752Y276170D01*
X28454Y276990D01*
X28228Y277834D01*
X28076Y278694D01*
X28000Y279563D01*
X28000Y280437D01*
X28076Y281307D01*
X28228Y282166D01*
X28454Y283010D01*
X28752Y283830D01*
X29121Y284622D01*
X29558Y285378D01*
X30059Y286093D01*
X30620Y286762D01*
X31238Y287380D01*
X31907Y287941D01*
X32622Y288442D01*
X33378Y288879D01*
X34170Y289248D01*
X34990Y289546D01*
X35834Y289772D01*
X36694Y289924D01*
X37563Y290000D01*
X38437Y290000D01*
X39307Y289924D01*
X40166Y289772D01*
X41010Y289546D01*
X41830Y289248D01*
X42622Y288879D01*
X43378Y288442D01*
X44093Y287941D01*
X44762Y287380D01*
X45380Y286762D01*
X45941Y286093D01*
X46442Y285378D01*
X46879Y284622D01*
X47248Y283830D01*
X47546Y283010D01*
X47772Y282166D01*
X47924Y281307D01*
X48000Y280437D01*
X48000Y279563D01*
X118000Y279563D02*
X117924Y278694D01*
X117772Y277834D01*
X117546Y276990D01*
X117248Y276170D01*
X116879Y275378D01*
X116442Y274622D01*
X115941Y273907D01*
X115380Y273238D01*
X114762Y272620D01*
X114093Y272059D01*
X113378Y271558D01*
X112622Y271121D01*
X111830Y270752D01*
X111010Y270454D01*
X110166Y270228D01*
X109307Y270076D01*
X108437Y270000D01*
X107563Y270000D01*
X106694Y270076D01*
X105834Y270228D01*
X104990Y270454D01*
X104170Y270752D01*
X103378Y271121D01*
X102622Y271558D01*
X101907Y272059D01*
X101238Y272620D01*
X100620Y273238D01*
X100059Y273907D01*
X99558Y274622D01*
X99121Y275378D01*
X98752Y276170D01*
X98454Y276990D01*
X98228Y277834D01*
X98076Y278694D01*
X98000Y279563D01*
X98000Y280437D01*
X98076Y281307D01*
X98228Y282166D01*
X98454Y283010D01*
X98752Y283830D01*
X99121Y284622D01*
X99558Y285378D01*
X100059Y286093D01*
X100620Y286762D01*
X101238Y287380D01*
X101907Y287941D01*
X102622Y288442D01*
X103378Y288879D01*
X104170Y289248D01*
X104990Y289546D01*
X105834Y289772D01*
X106694Y289924D01*
X107563Y290000D01*
X108437Y290000D01*
X109307Y289924D01*
X110166Y289772D01*
X111010Y289546D01*
X111830Y289248D01*
X112622Y288879D01*
X113378Y288442D01*
X114093Y287941D01*
X114762Y287380D01*
X115380Y286762D01*
X115941Y286093D01*
X116442Y285378D01*
X116879Y284622D01*
X117248Y283830D01*
X117546Y283010D01*
X117772Y282166D01*
X117924Y281307D01*
X118000Y280437D01*
X118000Y279563D01*
X90891Y134500D02*
X90277Y134569D01*
X89675Y134707D01*
X89092Y134911D01*
X88535Y135179D01*
X88012Y135507D01*
X87529Y135893D01*
X87093Y136329D01*
X86707Y136812D01*
X86379Y137335D01*
X86111Y137892D01*
X85907Y138475D01*
X85769Y139077D01*
X85700Y139691D01*
X85700Y140309D01*
X85769Y140923D01*
X85907Y141525D01*
X86111Y142108D01*
X86379Y142665D01*
X86707Y143188D01*
X87093Y143671D01*
X87529Y144108D01*
X88012Y144493D01*
X88535Y144821D01*
X89092Y145089D01*
X89675Y145293D01*
X90277Y145431D01*
X90891Y145500D01*
X91509Y145500D01*
X92123Y145431D01*
X92725Y145293D01*
X93308Y145089D01*
X93865Y144821D01*
X94388Y144493D01*
X94871Y144108D01*
X95308Y143671D01*
X95693Y143188D01*
X96021Y142665D01*
X96289Y142108D01*
X96493Y141525D01*
X96631Y140923D01*
X96700Y140309D01*
X96700Y139691D01*
X96631Y139077D01*
X96493Y138475D01*
X96289Y137892D01*
X96021Y137335D01*
X95693Y136812D01*
X95308Y136329D01*
X94871Y135893D01*
X94388Y135507D01*
X93865Y135179D01*
X93308Y134911D01*
X92725Y134707D01*
X92123Y134569D01*
X91509Y134500D01*
X90891Y134500D01*
X20891Y134500D02*
X20277Y134569D01*
X19675Y134707D01*
X19092Y134911D01*
X18535Y135179D01*
X18012Y135507D01*
X17529Y135893D01*
X17093Y136329D01*
X16707Y136812D01*
X16379Y137335D01*
X16111Y137892D01*
X15907Y138475D01*
X15769Y139077D01*
X15700Y139691D01*
X15700Y140309D01*
X15769Y140923D01*
X15907Y141525D01*
X16111Y142108D01*
X16379Y142665D01*
X16707Y143188D01*
X17093Y143671D01*
X17529Y144108D01*
X18012Y144493D01*
X18535Y144821D01*
X19092Y145089D01*
X19675Y145293D01*
X20277Y145431D01*
X20891Y145500D01*
X21509Y145500D01*
X22123Y145431D01*
X22725Y145293D01*
X23308Y145089D01*
X23865Y144821D01*
X24388Y144493D01*
X24871Y144108D01*
X25308Y143671D01*
X25693Y143188D01*
X26021Y142665D01*
X26289Y142108D01*
X26493Y141525D01*
X26631Y140923D01*
X26700Y140309D01*
X26700Y139691D01*
X26631Y139077D01*
X26493Y138475D01*
X26289Y137892D01*
X26021Y137335D01*
X25693Y136812D01*
X25308Y136329D01*
X24871Y135893D01*
X24388Y135507D01*
X23865Y135179D01*
X23308Y134911D01*
X22725Y134707D01*
X22123Y134569D01*
X21509Y134500D01*
X20891Y134500D01*
M02*
