G04 EAGLE Gerber RS-274X export*
G75*
%MOMM*%
%FSLAX34Y34*%
%LPD*%
%INSolderpaste Top*%
%IPPOS*%
%AMOC8*
5,1,8,0,0,1.08239X$1,22.5*%
G01*
%ADD10R,0.500000X0.250000*%
%ADD11R,0.250000X0.500000*%
%ADD12R,1.100000X1.000000*%
%ADD13R,1.000000X1.100000*%
%ADD14R,0.800000X1.200000*%
%ADD15R,1.200000X0.800000*%
%ADD16R,2.500000X2.000000*%
%ADD17R,2.000000X2.500000*%
%ADD18R,2.500000X1.200000*%
%ADD19R,0.800000X0.800000*%
%ADD20R,1.200000X2.500000*%
%ADD21R,0.558800X1.981200*%

G36*
X342861Y113027D02*
X342861Y113027D01*
X342910Y113042D01*
X343000Y113059D01*
X344074Y113434D01*
X344118Y113459D01*
X344202Y113496D01*
X345165Y114101D01*
X345202Y114135D01*
X345276Y114190D01*
X346080Y114994D01*
X346109Y115036D01*
X346169Y115105D01*
X346774Y116068D01*
X346793Y116115D01*
X346836Y116196D01*
X347211Y117270D01*
X347219Y117320D01*
X347243Y117409D01*
X347370Y118539D01*
X347367Y118589D01*
X347370Y118681D01*
X347243Y119811D01*
X347228Y119860D01*
X347211Y119950D01*
X346836Y121024D01*
X346811Y121068D01*
X346774Y121152D01*
X346169Y122115D01*
X346135Y122152D01*
X346080Y122226D01*
X345276Y123030D01*
X345234Y123059D01*
X345165Y123119D01*
X344202Y123724D01*
X344155Y123743D01*
X344074Y123786D01*
X343000Y124161D01*
X342950Y124169D01*
X342861Y124193D01*
X341731Y124320D01*
X341681Y124317D01*
X341589Y124320D01*
X340459Y124193D01*
X340410Y124178D01*
X340320Y124161D01*
X339246Y123786D01*
X339202Y123761D01*
X339118Y123724D01*
X338155Y123119D01*
X338118Y123085D01*
X338044Y123030D01*
X337240Y122226D01*
X337211Y122184D01*
X337151Y122115D01*
X336546Y121152D01*
X336527Y121105D01*
X336484Y121024D01*
X336109Y119950D01*
X336101Y119900D01*
X336077Y119811D01*
X335950Y118681D01*
X335953Y118631D01*
X335950Y118539D01*
X336077Y117409D01*
X336092Y117360D01*
X336109Y117270D01*
X336484Y116196D01*
X336509Y116152D01*
X336546Y116068D01*
X337151Y115105D01*
X337185Y115068D01*
X337240Y114994D01*
X338044Y114190D01*
X338086Y114161D01*
X338155Y114101D01*
X339118Y113496D01*
X339165Y113477D01*
X339246Y113434D01*
X340320Y113059D01*
X340370Y113051D01*
X340459Y113027D01*
X341589Y112900D01*
X341639Y112903D01*
X341731Y112900D01*
X342861Y113027D01*
G37*
D10*
X360160Y108610D03*
X360160Y113610D03*
X360160Y118610D03*
X360160Y123610D03*
X360160Y128610D03*
D11*
X351660Y137110D03*
X346660Y137110D03*
X341660Y137110D03*
X336660Y137110D03*
X331660Y137110D03*
D10*
X323160Y128610D03*
X323160Y123610D03*
X323160Y118610D03*
X323160Y113610D03*
X323160Y108610D03*
D11*
X331660Y100110D03*
X336660Y100110D03*
X341660Y100110D03*
X346660Y100110D03*
X351660Y100110D03*
D12*
X425090Y107180D03*
X408090Y107180D03*
X425090Y123690D03*
X408090Y123690D03*
X349670Y185920D03*
X366670Y185920D03*
D13*
X379760Y69960D03*
X379760Y52960D03*
X333405Y73770D03*
X333405Y56770D03*
D12*
X287440Y161790D03*
X304440Y161790D03*
X317285Y161790D03*
X334285Y161790D03*
D13*
X379760Y127890D03*
X379760Y144890D03*
D12*
X312060Y64000D03*
X295060Y64000D03*
D13*
X302290Y82170D03*
X302290Y99170D03*
D14*
X329070Y19550D03*
X311070Y19550D03*
D15*
X379760Y100940D03*
X379760Y82940D03*
D12*
X316650Y185920D03*
X333650Y185920D03*
X349670Y161790D03*
X366670Y161790D03*
X425090Y141470D03*
X408090Y141470D03*
X425090Y90670D03*
X408090Y90670D03*
X345080Y39870D03*
X328080Y39870D03*
X375560Y39870D03*
X358560Y39870D03*
X295060Y48760D03*
X312060Y48760D03*
X349670Y206240D03*
X366670Y206240D03*
X408090Y159250D03*
X425090Y159250D03*
D16*
X514590Y27040D03*
X514590Y120040D03*
X445590Y46040D03*
D17*
X472590Y160540D03*
D18*
X445590Y18040D03*
D12*
X322220Y267200D03*
X305220Y267200D03*
X425090Y177030D03*
X408090Y177030D03*
D19*
X509180Y196080D03*
X494180Y196080D03*
D12*
X376830Y19550D03*
X359830Y19550D03*
X360320Y19550D03*
X343320Y19550D03*
D13*
X278160Y123300D03*
X278160Y106300D03*
X278160Y108060D03*
X278160Y91060D03*
D17*
X27000Y245500D03*
X120000Y245500D03*
X46000Y314500D03*
D16*
X160500Y287500D03*
D20*
X18000Y314500D03*
D21*
X484450Y363622D03*
X471750Y363622D03*
X459050Y363622D03*
X446350Y363622D03*
X433650Y363622D03*
X420950Y363622D03*
X408250Y363622D03*
X395550Y363622D03*
X395550Y316378D03*
X408250Y316378D03*
X420950Y316378D03*
X433650Y316378D03*
X446350Y316378D03*
X459050Y316378D03*
X471750Y316378D03*
X484450Y316378D03*
M02*
